<svg xmlns="http://www.w3.org/2000/svg" viewBox="0 0 1600 486" clip-rule="evenodd" fill-rule="evenodd" stroke-miterlimit="10"><defs><clipPath id="ClipPath-1"><rect width="1600" height="810"/></clipPath></defs><style>
@keyframes a0_t { 0% { transform: translate(1107.3px,42.3px) rotate(4deg) translate(-1107.3px,-42.3px); animation-timing-function: cubic-bezier(.4,0,.6,1); } 50% { transform: translate(1107.3px,42.3px) rotate(-4deg) translate(-1107.3px,-42.3px); animation-timing-function: cubic-bezier(.4,0,.6,1); } 100% { transform: translate(1107.3px,42.3px) rotate(4deg) translate(-1107.3px,-42.3px); } }
</style><g clip-path="url(#ClipPath-1)"><g transform="translate(-2.3,0)"><g transform="translate(1107.3,42.3) rotate(4) translate(-1107.3,-42.3)" style="animation: 4s linear infinite both a0_t;"><path d="M968.2 414.3h277.3v-277.3h-277.3v277.3Z" fill="#50babe" fill-rule="nonzero"/><g><path d="M932.2 128.2h-2.4v-22c0-5.5 4.4-9.9 9.9-9.9h22v.9c0 7.5 6.1 13.6 13.6 13.6h30.6c28.5 0 56.7-4.4 84-12.1c5.6-1.5 12.1-2.4 19.2-2.4c7.1 0 13.6 .9 19.2 2.4c27.4 7.7 55.6 12.1 84 12.1h19.2c7.5 0 13.6-6.1 13.6-13.6v-0.9h22c5.5 0 9.9 4.4 9.9 9.9v22c-7.5 0-13.6 6-13.6 13.6v17.9c0 32.8 4.7 65.4 14.7 96.6c1.2 3.9 2 8.1 2 12.5c0 4.4-0.7 8.5-2 12.4c-10 31.2-14.7 63.9-14.7 96.6v16.7c0 7.5 6.1 13.6 13.6 13.6v22c0 5.5-4.4 9.9-9.9 9.9h-22v-2.4c0-7.4-6-13.6-13.6-13.6h-10.5c-34.1 0-67.9 5.9-100.5 15.9c-3.5 1.1-7.4 1.8-11.4 1.8c-4 0-7.8-0.7-11.4-1.8c-32.6-10-66.3-15.9-100.4-15.9h-22c-7.5 0-13.6 6.1-13.6 13.6v2.4h-22c-5.4 0-9.9-4.4-9.9-9.9v-22h2.4c7.4 0 13.6-6.1 13.6-13.6v-23.7c0-28.1-4.3-56-11.7-83.2c-1.5-5.5-2.3-11.9-2.3-18.8c0-7 .8-13.4 2.3-18.9c7.4-27.1 11.7-55 11.7-83.2v-25c0-7.5-6.1-13.6-13.6-13.6v.1Zm43 266.7h258.8v-255.1h-258.8v255.1Z" fill="#f19400" fill-rule="nonzero"/><path d="M1109.1 443.1c-3.8 0-7.8-0.6-11.8-1.9c-34.2-10.5-67.8-15.8-100-15.8h-22c-6.6 0-12.1 5.4-12.1 12.1v3.9h-23.5c-6.2 0-11.4-5.1-11.4-11.5v-23.5h3.9c6.6 0 12.1-5.4 12.1-12.1v-23.6c0-26.6-4-54.5-11.6-82.8c-1.6-5.8-2.4-12.5-2.4-19.2c0-6.7 .8-13.4 2.4-19.2c7.7-28.3 11.6-56.2 11.6-82.8v-25c0-6.7-5.5-12.1-12.1-12.1h-3.9v-23.5c0-6.3 5.1-11.4 11.4-11.4h23.5v2.4c0 6.7 5.5 12.1 12.1 12.1h30.6c26.9 0 55.1-4.1 83.6-12c5.9-1.7 12.7-2.5 19.6-2.5c7 0 13.8 .9 19.6 2.5c28.6 7.9 56.8 12 83.6 12h19.2c6.7 0 12.1-5.4 12.1-12.1v-2.4h23.5c6.3 0 11.5 5.1 11.5 11.4v23.5h-1.6c-6.6 0-12.1 5.4-12.1 12.1v18c0 33.4 4.9 65.8 14.6 96.1c1.4 4.3 2.2 8.6 2.2 12.8c0 4.2-0.7 8.6-2.2 12.9c-9.7 30.3-14.6 62.6-14.6 96.1v16.7c0 6.6 5.5 12.1 12.1 12.1h1.6v23.5c0 6.2-5.1 11.4-11.5 11.4h-23.5v-3.9c0-6.6-5.4-12.1-12.1-12.1h-10.5c-32.2 0-65.9 5.3-100 15.9c-4 1.2-8 1.8-11.9 1.8v.1Zm-133.8-20.7h22c32.5 0 66.5 5.4 100.9 16c3.7 1.2 7.4 1.7 10.9 1.7c3.5 0 7.3-0.5 11-1.7c34.4-10.6 68.4-16 100.9-16h10.5c8.3 0 15.1 6.8 15.1 15.1v.8h20.5c4.6 0 8.4-3.7 8.4-8.4v-20.5c-7.7-0.8-13.7-7.2-13.7-15v-16.6c0-33.9 5-66.5 14.8-97.1c1.3-4 1.9-8.1 1.9-11.9c0-3.9-0.7-7.9-1.9-12c-9.8-30.6-14.8-63.2-14.8-97v-18c0-7.8 6-14.2 13.7-14.9v-20.6c0-4.6-3.8-8.4-8.4-8.4h-20.5c-0.4 8.1-7 14.5-15.1 14.5h-19.2c-27.1 0-55.5-4-84.4-12.1c-5.6-1.6-12.1-2.4-18.8-2.4c-6.6 0-13.2 .8-18.7 2.4c-28.8 8.1-57.2 12.1-84.5 12.1h-30.6c-8.1 0-14.8-6.4-15-14.5h-20.5c-4.6 0-8.4 3.8-8.4 8.4v20.5h2.3c7.7 .8 13.6 7.3 13.6 15.1v25c0 26.9-3.9 55.1-11.6 83.6c-1.6 5.5-2.3 11.9-2.3 18.4c0 6.5 .8 12.9 2.3 18.4c7.7 28.6 11.6 56.7 11.6 83.6v23.6c0 8.4-6.7 15.1-15 15.1h-0.8v20.5c0 4.6 3.7 8.4 8.4 8.4h20.4v-0.9c0-8.3 6.8-15 15.1-15l-0.1-0.2Zm260.1-26h-261.7v-258.1h261.7v258.1Zm-258.8-3h255.8v-252.2h-255.8v252.2Z" fill="#010101" fill-rule="nonzero"/></g><path d="M1249.7 410.4h-290.3v-286.2h290.2v286.2h.1Zm-287.3-2.9h284.2v-280.3h-284.2v280.3Z" fill="#010101" fill-rule="nonzero"/><path d="M1229 112.1l-124.5-46l-124.4 46l-1.1-2.8l125.5-46.3l.6 .2l125 46.1l-1 2.8Z" fill="#010101" fill-rule="nonzero"/><path d="M1102.2 72.2c4.2 0 7.6-3.4 7.6-7.6c0-4.2-3.4-7.7-7.6-7.7c-4.2 0-7.6 3.5-7.6 7.7c0 4.2 3.4 7.6 7.6 7.6Z" fill="#010101" fill-rule="nonzero"/><path d="M1102.4 280.9l1.6 .5c6.8 1.7 9.8-4.2 10.3-8v-1.3c0-3.9 2.2-16 5.8-20.7c0 0-2.2-5.8-3.4-8.2c-1.2-2.4 1-7.1 0-10.9c-1-4-6.1-2.2-7.1-3.7c-1-1.4-1-6.6-5.5-11.2c-3.6-3.5-8.6-5.6-13.2-6.5v-0.6c-2.3-5.3-4.7-8-10.8-10.7c-6.2-2.7-12.4 2.2-11.7 .8c.6-1.5-2-5.9-9.4-6.4c-7.3-0.4-9.9 5.6-12.2 5.6c-2.2 0-8-5.4-15.6-3.4c-7.5 1.9-8.2 9.5-8.2 9.5c0 0-2.5-1.1-10.9 2.8c-10.3 4.9-7.4 10.3-7.4 10.3c0 0 .5 5.4-6.4 7.6c-11.4 3.6-11.3 21.6-8.4 28.7c1.9 4.5 6.6 4.9 9.9 4.7l.2 1.8c-3.6 .3-8.6 3.1-8.1 7.7c.5 5 1.4 8.6 12.9 9c.4 2.7 2.8 5.2 6.2 6.5c5.2 2.1 8.6 .8 10.5-0.6c.9-0.6 2.1-0.2 2.4 .9c.9 3.1 4.2 7.3 15.8 7.3c1 0 2-0.1 3-0.2c5-0.7 8.3-2.8 8.3-5.4c3.1 2.2 7.3 3.8 11.2 2.8c1.7-0.4 2.9-0.8 4-1.3c6.9-3.2 1.5-7.2 9.3-1.5c6.4 4.7 14.8-0.4 15.6-5.1c1.1 .2 2.2 .2 3.5 .2c-0.7 2.1-1.3 3.8-1.8 4.9c-2.6 7.1-1.7 12.4 0 16.5c1.7 4 6 3.4 9.1 2.9l.2 1.4c1.5-0.7 2.7 .7 4.2 .3c1.4-0.4 1-3.7 1.9-3.7l-0.6-0.4c1.5-1.1 1-3.9 .2-6.6c-0.9-3.1-7.1-7.2-6.5-11.9c.1-1.3 .8-2.7 1.5-4.5l-0.4 .1Z" fill="#f4bdc7" fill-rule="nonzero"/><path d="M1008.6 333.9c-0.4 2.1-0.5 6 .9 13c2.7 12.6 7.6 15.4 8.5 13.5c.8-1.6 15.4-23.7 23.3-35.9c2-3.1 3.5-5.5 4.4-6.8c.3-0.5 .7-1.1 1.2-1.8c5.5-7.9 20.1-25.9 20.1-25.9l-1-1.6c-1.1 .5-2.3 .9-4 1.3c-4 1-8.2-0.5-11.2-2.8c0 2.6-3.3 4.8-8.4 5.4l.2 1.6c-2 10.6-7.3 17.2-9.9 21.1c-0.6 .9-1.1 1.6-1.3 2.3c-1.3 3.5-13.1 26.1-14.5 26.6c-1.1 .3-4.6-6.6-6.4-10.1c-0.4-0.9-1.6-0.7-1.8 .2l-0.1-0.1Z" fill="#f4bdc7" fill-rule="nonzero"/><path d="M1023.6 285.1c-1.5 6.8-0.6 15.2 1.2 19.4c1.7 4.2 6.4 10.1 6.4 10.1l1.3 .3c2.7-3.9 8-10.6 10-21l-0.2-1.7c-1 .2-1.9 .2-3 .2c-11.4 0-14.8-4.2-15.8-7.3h.1Z" fill="#f4bdc7" fill-rule="nonzero"/><path d="M1041.2 324.5l.9 .9c0 0 14.2 14 15.7 18.1c1.4 4.1-2.4 10.5-4 13.1c-1.7 2.7 0 4.2 0 4.2c0 0 16.1-1.8 22.4-11.2c2.5-3.7-10.9-5.9-17.1-15.6c-6.1-9.8-12.3-18.2-12.3-18.2c-0.4 .7-0.9 1.3-1.2 1.9c-0.8 1.3-2.4 3.7-4.4 6.8Z" fill="#f4bdc7" fill-rule="nonzero"/><path d="M1200.9 309.3l.7-1.3c0 0 10-12.7 11.7-25.8c1.2-9.2 0-33.2-25.8-38.5c-11.9-2.4-19.8 3.1-22.9 5.9c-0.7 .6-1.8 .4-2.2-0.5c-1.4-2.9-5.2-8.4-14.9-9.3c-13.3-1.2-23.9 7.1-27.5 11.7c-3.6 4.6-5.8 16.8-5.8 20.7c0 3.9 0 .8 0 1.3c.4 4.1 2.6 10.9 2.4 13.4c-0.3 2.6-1.5 7.7-4 12.1c-2.4 4.4-3.3 6.1-4.6 5.4c0 0-0.2-0.1-0.2-0.1c-0.9 0-0.5 3.3-2 3.7c-1.4 .4-2.7-1.1-4.1-0.3c-0.2 .1-0.3 .2-0.5 .3c-1.8 1.5 2.6 8 6.6 5.3c3.9-2.8 6.1-5.1 6.1-5.1l6.4-7.5c.6-0.8 1.8-0.6 2.2 .3c2.4 4.4 8.4 13.4 15 19.8c6.9 6.6 15.4 11.9 17.8 13.4h.7c-1.3 2.2-2.5 4.4-3.2 6.1c-1.9 4.1-6.6 14.1-8.3 13.6c-1.7-0.5-12.6-2.7-11.9 .2c.7 3 11.7 11.4 14.8 11.7c3.2 .3 7.6-6.6 9-10.5c.9-2.2 4.7-9.5 8.2-15.7c2.6-4.4 5-8.2 6.2-9.3c2.9-2.7 4.9-2.7 7.2-0.9c2.3-1 5.3-2.9 7.7-4.9c4.6-4.1 9.5-11.1 9.5-11.1c6.3 4.8 14 8 17.3 8.7c5.5 1.2 9.5 .4 9.1-2.4c-0.3-2.9 .6-1 0-2.7c-0.5-1.7-2.6 .2-0.6-1.7c1.9-2-0.5-3-3-3.4c-2.8-0.5-2.6 5.1-7 2.9c-2.4-1.1-6.6-2.8-10.4-5.3l.3-0.2Z" fill="#e41d73" fill-rule="nonzero"/><path d="M1164.8 339.5c2.3 2.7 4.9 4.5 8.6 6.5c3.6 1.9 12.1 4.1 10.8 5.6c-1.3 1.4-2.3 11.2 1.1 11.9c3.5 .8 8.1-3.9 10-6.8c2-2.9 2.9-8.8 1.6-10.7c-1.2-1.9-3.4-0.5-6.3-1.7c-2.9-1.3-11.7-8.1-19.7-14.1c-1.3 1.1-3.7 4.9-6.1 9.3Z" fill="#e41d73" fill-rule="nonzero"/><path d="M1155.4 335.9c-0.3 0-0.7-0.1-1-0.3c-3.9-2.4-11.6-7.4-18.1-13.6c-6.5-6.3-12.4-14.9-15-19.7l-6 7.1c-0.1 .1-2.4 2.4-6.4 5.3c-2.6 1.9-6 1.1-8.3-1.9c-1.9-2.3-2.1-4.9-0.5-6.2c.3-0.3 .6-0.5 .9-0.6c1.5-0.7 2.8-0.3 3.6 0c.1 0 .3 .1 .5 .1c.1-0.3 .2-0.7 .2-0.9c.3-0.9 .6-2.9 2.5-2.9c2 0 .4 0 .6 .1c.7-0.8 1.7-2.7 2.7-4.4c2.2-3.9 3.4-8.7 3.6-11.4c.1-1-0.5-3.8-1.1-6.2c-0.5-2.4-1.1-4.8-1.3-6.8c0-0.5-0.1-1-0.1-1.5c0-4 2.2-16.7 6.3-21.8c3.8-4.9 14.8-13.7 29.1-12.4c9.9 .9 14.3 6.3 16.1 9.8c3.5-2.9 11.8-8.4 24-5.9c11.7 2.4 20.1 9 24.4 18.9c4.1 9.4 3.3 18.9 2.9 21.6c-1.7 13.5-11.6 26.2-12.1 26.8c-0.6 .8-1.8 .9-2.6 .2c-0.8-0.6-1-1.7-0.3-2.6c.1-0.1 9.7-12.4 11.3-24.9c.4-3.1 3.2-30.7-24.3-36.4c-11.2-2.3-18.7 3-21.3 5.4c-0.8 .7-1.8 1-2.9 .8c-1-0.2-1.8-0.9-2.2-1.8c-1.3-2.8-4.8-7.4-13.4-8.3c-12.8-1.1-22.5 6.7-26 11c-3.3 4.2-5.4 15.9-5.4 19.6c0 3.6 0 .7 0 1c.2 1.8 .7 4.1 1.2 6.4c.7 3.1 1.3 5.7 1.2 7.4c-0.2 2.4-1.3 7.9-4.1 12.9c-2.3 4-3.3 5.9-5 6.4c-0.2 0-0.3 0-0.5 0c-0.2 1.2-0.7 2.9-2.4 3.5c-1.3 .3-2.3 0-3.1-0.3c-0.2 0-0.4-0.1-0.6-0.2c.2 .7 .9 1.9 2 2.4c1 .6 1.5 .3 2 0c3.5-2.4 5.5-4.5 5.8-4.8l6.4-7.5c.7-0.8 1.8-1.2 2.8-1.1c1 .1 2 .8 2.5 1.7c2.3 4.4 8.1 13.2 14.6 19.3c6.4 6.2 14.3 11.3 17.5 13.2c.9 .5 1.2 1.6 .6 2.5c-0.3 .6-1 .9-1.6 .9l.3 .1Zm-34.4-34.2Zm43.1-53.4Z" fill="#1d1d1b" fill-rule="nonzero"/><path d="M1217.2 324.3c-1.7 0-3.5-0.3-5-0.7c-3.5-0.7-11.4-4-17.9-9c-5.8-4.3-9.2-8.8-10.3-13.6c-0.2-0.9 .4-2 1.4-2.2c.9-0.2 2 .4 2.2 1.4c.8 3.8 3.9 7.7 8.9 11.5c6 4.5 13.4 7.7 16.5 8.3c4.3 1 6.4 .4 6.8 0c0 0 .2-0.1 .1-0.4c-0.1-0.7-0.1-1.3 0-1.9c-0.8-0.2-1.1-0.7-1.2-1c-0.6-1.2 .1-1.9 1-2.8c-0.3-0.2-0.9-0.4-1.7-0.5c-0.2 0-0.6 .6-0.8 .9c-0.9 1.2-2.9 3.8-6.8 1.9c-0.6-0.3-1.4-0.7-2.1-1.1c-2.4-1.1-5.5-2.5-8.3-4.3c-4.4-2.8-6.9-5.8-7.6-9c-0.5-2.3-0.3-3.8-0.2-6.1c0-0.6 .1-1.3 .1-2c0-1 1-1.8 2-1.7c1.1 0 1.8 1 1.7 1.9c0 .8 0 1.4-0.1 2c-0.2 2.2-0.3 3.3 .1 5.1c.5 2.2 2.5 4.4 6 6.7c2.6 1.7 5.5 3 7.9 4.1c.9 .4 1.6 .8 2.2 1.1c1.2 .6 1.3 .4 2.2-0.7c.7-1.1 2-2.7 4.4-2.4c2.9 .5 4.5 1.5 5 3c.2 .7 .3 1.6-0.4 2.7c.2 .2 .2 .5 .3 .7c.2 .6 .5 1.5 0 2.4v.6c.2 1.4-0.3 2.7-1.3 3.6c-1.2 1.1-3.1 1.5-5.1 1.5Z" fill="#1d1d1b" fill-rule="nonzero"/><path d="M1175.3 332c-1 0-1.9-0.9-1.9-1.9c0-1 .9-1.8 1.9-1.8c0 0 .5 0 2-0.7c2.4-1.1 5.3-3 7.3-4.7c4.4-3.9 9.2-10.7 9.2-10.8c.5-0.8 1.7-1 2.5-0.5c.8 .6 1 1.7 .5 2.6c-0.2 .2-5.1 7.2-9.8 11.4c-2.8 2.4-6 4.3-8.1 5.3c-2.3 1-3.3 1-3.6 1v.1Z" fill="#1d1d1b" fill-rule="nonzero"/><path d="M1147.7 367.5h-0.3c-3.6-0.3-15.4-9.1-16.5-13.1c-0.2-0.9 0-1.9 .8-2.6c2.3-2.2 10.5-0.5 12.8 0c1.1-1.1 3.3-5.2 6.6-12.1l.2-0.4c.8-1.8 2-4 3.2-6.2c1.2-2.2 3.7-6.2 5.4-8.1c.7-0.7 1.8-0.8 2.6-0.1c.8 .7 .8 1.8 .1 2.6c-1 1.2-2.9 4-4.8 7.5c-1.2 2.1-2.4 4.3-3.2 6l-0.1 .4c-5.7 12-7.8 14.9-10.3 14.2c-2.1-0.5-7-1.4-9.1-1.2c2.1 2.9 10.5 9.4 12.7 9.5c1.4 .2 5.4-4.7 7.1-9.2c1-2.5 4.8-10 8.3-16.1c3.1-5.3 5.3-8.6 6.6-9.7c3.4-3.2 6.4-3.5 9.5-1c.9 .6 1 1.8 .4 2.6c-0.6 .8-1.8 1-2.6 .4c-1.3-1.1-2.3-1.6-4.8 .7c-0.7 .7-2.7 3.4-5.8 8.9c-3.7 6.4-7.3 13.5-8.1 15.5c-1.2 3.1-5.9 11.6-10.6 11.6l-0.1-0.1Zm-2.6-15.5Z" fill="#1d1d1b" fill-rule="nonzero"/><path d="M1186.1 365.4c-0.4 0-0.8 0-1.1-0.2c-1.1-0.2-2.5-0.9-3.3-3.3c-0.9-2.8-0.6-7.7 .5-10.3c-1.1-0.6-3.1-1.3-4.5-1.9c-1.9-0.7-3.8-1.4-5.2-2.2c-4.1-2.2-6.8-4.2-9.1-6.9c-0.7-0.8-0.6-2 .2-2.7c.7-0.6 1.9-0.5 2.6 .3c2.1 2.4 4.3 4 8 6.1c1.2 .6 3.1 1.3 4.8 2c4.5 1.7 6.7 2.6 7.1 4.4c.2 .7 0 1.4-0.4 2c-0.6 .9-1.3 5.4-0.5 8c.2 .7 .5 1 .5 1c2 .4 5.9-2.9 8.1-6.1c1.8-2.7 2.3-7.6 1.6-8.6c-0.1-0.3-0.1-0.3-1.3-0.3c-1.1 0-2.5 0-4.1-0.7c-2.7-1.2-9.4-6.1-16.9-11.9c-1.1-0.8-2.1-1.7-3.2-2.4c-0.8-0.6-0.9-1.8-0.3-2.6c.6-0.8 1.8-1 2.6-0.4c1 .9 2.1 1.7 3.2 2.4c6.5 5 13.8 10.6 16.1 11.5c1 .4 1.8 .4 2.8 .4c1.3 0 3.2 0 4.4 2c1.8 2.8 .6 9.5-1.7 12.7c-1.9 2.9-6.4 7.7-10.8 7.7h-0.1Zm-0.5-12.6Zm-2.8-2.5Z" fill="#1d1d1b" fill-rule="nonzero"/><path d="M1173.6 273.3c-0.7 0-1.4-0.5-1.7-1.2c-0.1-0.2-0.1-0.4-0.2-0.6c-0.5-1.6-0.7-2-2.5-2.3c-1.8-0.3-2.7 1-2.8 1.2c-0.5 .8-1.6 1.1-2.5 .6c-0.9-0.6-1.2-1.7-0.6-2.5c.8-1.4 3-3.5 6.5-3c4 .7 4.8 2.9 5.4 4.8c0 .2 .1 .3 .2 .5c.4 1-0.1 2-1.1 2.4c-0.2 .1-0.4 .2-0.6 .2l-0.1-0.1Z" fill="#1d1d1b" fill-rule="nonzero"/><path d="M1146.5 271.2c-1 0-1.8-0.8-1.8-1.9v-0.1c0-1.4-0.4-1.6-1.2-1.6c-1.7-0.1-2.5 2.3-2.5 2.3c-0.4 1-1.4 1.6-2.4 1.2c-0.9-0.3-1.5-1.4-1.1-2.3c.6-1.9 2.6-5.1 6.2-4.9c1.1 0 4.8 .6 4.7 5.4c0 1.1-0.8 1.9-1.9 1.9Z" fill="#1d1d1b" fill-rule="nonzero"/><path d="M1154.3 282.1c-3 0-6-1.8-7-4.1c-0.4-1 0-2 1-2.4c.9-0.4 2 0 2.4 .9c.3 .9 2 2 3.8 1.9c1.4 0 2.3-1 2.9-2.7c.3-0.9 1.3-1.5 2.3-1.2c1 .3 1.5 1.3 1.3 2.3c-1 3.3-3.3 5.2-6.4 5.3h-0.3Z" fill="#1d1d1b" fill-rule="nonzero"/><path d="M1104.7 306.4c-3 0-4.8-1.7-7.1-4.6c-0.6-0.8-0.4-2 .4-2.6c.8-0.7 2-0.5 2.6 .3c2.3 3 3.2 3.4 5.1 3c.3 0 .3-0.1 .3-0.1c.1-0.1 .8-0.8-0.3-4.7c-0.3-0.8-1.3-2.1-2.3-3.3c-2.1-2.6-4.7-5.7-4.3-9.3c.2-1.4 .7-2.9 1.6-5l.5-1c2-4.7 4.8-11.1 4.4-20c-0.7-13-7.7-25.7-12.4-29c-0.8-0.7-1.1-1.8-0.4-2.6c.6-0.8 1.7-1 2.5-0.4c2.9 2.1 6.2 6.7 8.8 12.2c3 6.2 4.8 13.2 5.1 19.6c.6 9.8-2.6 17-4.7 21.7l-0.4 1c-0.6 1.4-1.2 2.9-1.4 4c-0.2 2 1.8 4.4 3.5 6.4c1.3 1.6 2.6 3.1 3 4.7c.8 2.9 1.5 6.6-0.8 8.6c-0.6 .5-1.3 .7-2.1 .9c-0.5 0-1.1 .1-1.6 .1v.1Z" fill="#1d1d1b" fill-rule="nonzero"/><path d="M1098.1 308.4c-2.8 0-5.8-0.8-7.3-4.4c-1.5-3.6-3.2-9.4 0-17.8c.5-1.3 1-2.8 1.6-4.8c3.7-11.7 7.6-32.8-8.6-41.8c-0.9-0.5-1.3-1.6-0.7-2.5c.5-0.8 1.6-1.2 2.5-0.6c18.5 10.2 14.4 33.2 10.3 46c-0.6 2-1.2 3.7-1.7 5c-2.6 7-1.4 11.8 0 15.1c1 2.3 3 2.5 7.1 1.9h.3c1.1-0.1 2 .6 2 1.6c.1 1-0.6 1.9-1.6 2h-0.1c-1.1 .1-2.4 .3-3.8 .3Z" fill="#1d1d1b" fill-rule="nonzero"/><path d="M1120 253.3c-0.8 0-1.4-0.5-1.7-1.2c0 0-2.2-5.7-3.3-8.1c-0.9-1.7-0.6-3.8-0.3-6c.3-1.8 .6-3.7 .1-5.3c-0.2-1.1-0.9-1.3-3-1.5c-1.4-0.2-2.9-0.4-3.8-1.6c-0.5-0.7-0.7-1.6-0.9-2.7c-0.6-2.3-1.5-5.4-4.4-8.2c-3-2.9-7.3-5.1-12.3-6.1c-1.3-0.3-2.7-0.4-4-0.5c-1.8-0.1-3.2 .9-4.1 2.6c-0.7 1.4-0.7 3.5 .8 5.3c.7 .7 .7 1.9 0 2.6c-0.8 .7-2 .7-2.6-0.1c-2.4-2.5-3-6.2-1.5-9.4c1.3-3 4.2-4.8 7.5-4.6c1.5 0 3.1 .2 4.6 .5c3.3 .7 9.6 2.4 14.2 7c3.6 3.7 4.7 7.6 5.3 9.9c.1 .5 .3 1.1 .4 1.4c.3 0 .8 .2 1.2 .2c1.8 .2 5.3 .6 6.2 4.2c.6 2.3 .3 4.6 0 6.7c-0.2 1.6-0.4 3.1-0.1 3.9c1.3 2.5 3.4 8.2 3.6 8.5c.3 .9-0.2 2-1.1 2.3c-0.3 .1-0.5 .1-0.7 .1l-0.1 .1Z" fill="#1d1d1b" fill-rule="nonzero"/><path d="M1106.2 283.6c-0.9 0-1.7-0.2-2.7-0.4c-1-0.3-1.6-1.2-1.4-2.2c.2-0.9 1.3-1.6 2.2-1.4c2 .5 3.5 .3 4.8-0.6c2-1.4 3-4 3.3-5.8c.1-1.1 1-1.7 2-1.6c1.1 .1 1.8 1 1.6 2.1c-0.3 2.7-1.8 6.3-4.8 8.3c-1.5 1.1-3.2 1.6-5 1.6h.1Z" fill="#1d1d1b" fill-rule="nonzero"/><path d="M1094.2 283.8h-0.1c-1.2 0-2.5 0-3.6-0.2c-3.6-0.6-5.3-3.1-4.9-7.4c.6-6.5 4.1-8.3 4.5-8.5c.9-0.4 2 0 2.5 .9c.4 .9 0 2-0.9 2.5c0 0-2 1.1-2.4 5.4c-0.2 3.1 .8 3.3 1.9 3.5c.8 .1 1.8 .1 2.9 .2h.2c1 0 1.8 .8 1.8 1.8c0 1.1-0.9 1.8-1.9 1.8Z" fill="#1d1d1b" fill-rule="nonzero"/><path d="M1059.5 291.8c-3.2 0-6.8-1.2-9.8-3.4c-2.4-1.7-4.1-3.9-4.7-5.9c-3.7-11.5 2-16.2 2.3-16.3c.8-0.7 2-0.5 2.6 .2c.7 .9 .5 2-0.2 2.6c-0.2 .2-4 3.6-1.1 12.4c.2 1 1.3 2.5 3.3 4c3.1 2.3 6.8 3.2 9.7 2.5c1.3-0.4 2.6-0.8 3.5-1.2c2.3-1 2.9-2 3.3-2.8c.2-0.5 .7-1.4 1.8-1.6c1.4-0.4 2.3 .3 6.2 3.1c3.1 2.3 6.3 1.5 8 .8c2.4-0.9 4.4-2.9 4.7-4.7v-0.8c-0.2-1 .4-2 1.4-2.2c1-0.2 2 .5 2.2 1.5c.1 .7 .1 1.4 0 2.1c-0.5 3-3.3 6.1-6.9 7.5c-4 1.7-8.2 1.2-11.6-1.2c-1.2-0.9-2.2-1.7-3-2.1c-0.6 1-1.7 2.5-4.5 3.8c-1.2 .5-2.6 1-4.2 1.4c-1 .2-2 .4-2.9 .4l-0.1-0.1Z" fill="#1d1d1b" fill-rule="nonzero"/><path d="M1039.2 294.2c-11.8 0-15.9-4.4-17.2-8.2c-2.3 1.5-6.2 2.8-11.9 .5c-4-1.6-6.7-4.5-7.3-8c-0.4-2.5 .4-5.1 2.4-7.4c.7-0.7 1.8-0.8 2.6-0.2c.7 .6 .8 1.9 .2 2.6c-1.2 1.5-1.8 3-1.5 4.5c.3 2.1 2.2 4 4.9 5.1c3.6 1.4 6.6 1.3 8.8-0.4c.9-0.6 2-0.8 3.1-0.4c1 .3 1.8 1.1 2.2 2.2c1.1 3.9 6.1 6.1 14 6c1 0 1.8 0 2.7-0.1c4.4-0.6 6.8-2.2 6.8-3.5c0-1.1 .9-1.9 1.9-1.9c1 0 1.8 .8 1.8 1.9c0 3.6-3.9 6.4-10 7.1c-1 .1-2.1 .2-3.2 .2h-0.3Zm-17.3-8.6Z" fill="#1d1d1b" fill-rule="nonzero"/><path d="M1004.6 280.1c-11.6-0.5-14.1-3.9-14.7-10.6c-0.2-2 .4-4 1.8-5.7c1.8-2.2 4.9-3.8 8-4h1.1c1 0 1.8 .9 1.8 1.8c0 1.1-0.9 1.8-1.9 1.8h-0.7c-1.6 .1-4.1 1-5.5 2.7c-0.7 .9-1.1 1.9-0.9 3c.4 4.1 .6 6.9 11.1 7.3c1 0 1.8 .9 1.8 1.9c0 1-0.8 1.8-1.9 1.8Z" fill="#1d1d1b" fill-rule="nonzero"/><path d="M1010.3 263.5c-3.5 0-6.4-1.5-7.7-2.2c-0.7 .1-1.7 .3-2.8 .4c-5.8 .4-10-1.7-11.7-5.9c-2-4.7-3.1-14.9 .5-22.8c1.9-4.2 5-7.1 8.9-8.4c4.7-1.5 5.1-4.4 5.1-5.4c-0.2-0.8-0.7-2.4 0-4.5c1-3 3.9-5.6 8.4-7.8c5.2-2.5 8.4-3.2 10.3-3.2c.7-2.7 2.9-7.7 9.3-9.4c5.9-1.5 10.9 1 13.8 2.4c.8 .4 1.7 .8 2.1 .9c.3-0.1 1-0.7 1.4-1.2c2.2-1.9 5.4-4.7 10.9-4.4c4.6 .3 8.4 2.2 10.2 5.1c.3 .3 .5 .6 .6 1c2.5-0.9 6.7-2.1 11-0.3c7 3 9.4 6.3 11.8 11.6c.4 1 0 2-0.9 2.4c-1 .5-2 0-2.4-0.9c-2.2-4.8-4-7.2-9.9-9.8c-3.5-1.5-7.1-0.1-9 .6c-1.3 .5-2.5 .9-3.4 0c-0.6-0.5-0.7-1.3-0.5-2c-0.1-0.9-2.2-3.7-7.7-4c-4-0.3-6.3 1.8-8.2 3.5c-1.3 1.2-2.4 2.1-3.8 2.1c-1.5 0-2.2-0.5-3.8-1.3c-2.8-1.4-6.7-3.3-11.4-2.1c-6.1 1.6-6.8 7.6-6.8 7.9l-0.4 3l-2.2-1.4c-0.5 0-3.1-0.2-9.5 2.9c-8.1 3.9-6.6 7.5-6.5 7.7l.1 .4v.3c.2 2.4-1.1 7.4-7.6 9.5c-3 1-5.2 3.1-6.7 6.3c-3.1 6.6-2.3 15.8-0.6 20c1.1 2.7 3.8 3.8 8.1 3.5c1.6-0.1 2.9-0.4 2.9-0.4l.8-0.3l.8 .5c0 0 3.2 2.3 7 2c3.8-0.3 4.6-0.4 4.1-6.7c0-1 .7-1.9 1.8-1.9c1 0 1.9 .7 1.9 1.7c.5 8.4-1.9 10.1-7.6 10.6h-1h.3Zm56.2-63.8Z" fill="#1d1d1b" fill-rule="nonzero"/><path d="M1061.8 226.6c-0.9 0-1.6-0.7-1.8-1.6c-0.3-2.2-1.5-2.4-1.9-2.4c-1.1-0.1-2.2 .7-2.4 1c0 1-0.8 1.8-1.8 1.8c-1.1 0-1.9-0.8-1.9-1.9c0-2.5 2.8-4.3 5.4-4.5c2.4-0.2 5.6 1.1 6.3 5.5c.1 1-0.5 1.9-1.5 2.1h-0.3h-0.1Zm-6.2-3.1Z" fill="#1d1d1b" fill-rule="nonzero"/><path d="M1035.3 224.6c-0.6 0-1.2-0.4-1.6-1c-0.7-1.2-2.1-1.3-2.6-1.3c-1.1 0-1.8 .3-2 .5c0 1-0.8 1.8-1.9 1.8c-1 0-1.8-0.8-1.8-1.8c0-1.8 1.4-3.3 3.6-3.9c2.6-0.7 6.2 .1 7.9 3c.4 .9 .2 2-0.7 2.5c-0.3 .1-0.6 .2-0.9 .2Z" fill="#1d1d1b" fill-rule="nonzero"/><path d="M1042.6 239.5c-4 0-7-2.4-7-2.4c-0.8-0.6-0.9-1.8-0.2-2.6c.6-0.8 1.8-0.9 2.6-0.2c.5 .4 5.8 4.4 11.4-2.2c.7-0.8 1.8-0.9 2.6-0.2c.8 .6 .9 1.7 .2 2.6c-3.3 3.9-6.7 5.1-9.5 5.1v-0.1Z" fill="#1d1d1b" fill-rule="nonzero"/><path d="M1017.1 362.7h-0.4c-4.4-0.6-7.6-8.7-9.1-15.5c-1.2-5.8-1.5-10.4-0.8-13.7c.2-1.2 1.2-2.1 2.4-2.2c1.2-0.2 2.4 .5 2.8 1.6c2.4 4.7 3.8 7.1 4.5 8.2c3.1-4.7 11.7-21.2 13-24.5c.4-0.9 .9-1.8 1.5-2.7c.4-0.5 .7-1.1 1.1-1.6c2.8-4 7-10 8.7-18.8c.2-1.1 1.2-1.7 2.1-1.5c1.1 .2 1.7 1.2 1.5 2.1c-1.8 9.7-6.3 16.1-9.2 20.3c-0.5 .5-0.8 1-1.1 1.5c-0.4 .6-0.9 1.4-1.1 1.9c-0.7 1.9-4 8.3-7.3 14.6c-6.7 12.5-7.5 12.8-8.4 13c-1.5 .6-2.8 .2-7.2-8.3c0 2.1 .3 5 1.2 9.3c1.8 8.3 4.3 11.6 5.5 12.4c1.6-2.6 7.3-11.4 15.4-23.8c2.8-4.1 5.4-8.2 7.5-11.5c2-3.1 3.6-5.5 4.4-6.8c.3-0.5 .7-1.1 1.3-1.9c5.5-7.9 19.6-25.3 20.1-26c.7-0.8 1.8-0.9 2.7-0.3c.8 .6 .8 1.8 .2 2.6c-0.1 .2-14.6 18-20 25.8c-0.5 .8-0.9 1.4-1.2 1.8c-0.8 1.3-2.4 3.8-4.4 6.9c-2.1 3.3-4.8 7.3-7.4 11.5c-6.7 10.2-15.1 23-15.6 24.1c-0.5 .9-1.5 1.6-2.6 1.6l-0.1-0.1Zm-8.3-28.3Z" fill="#1d1d1b" fill-rule="nonzero"/><path d="M1031.3 316.4c-0.5 0-1.1-0.2-1.4-0.7c-0.2-0.3-5-6.2-6.8-10.6c-1.8-4.4-2.9-13.2-1.3-20.5c.2-1 1.2-1.7 2.2-1.4c1 .2 1.7 1.2 1.4 2.2c-1.4 6.3-0.5 14.5 1.1 18.4c1.6 3.8 6.1 9.5 6.2 9.5c.6 .8 .5 2-0.3 2.6c-0.3 .3-0.8 .5-1.2 .5h.1Z" fill="#1d1d1b" fill-rule="nonzero"/><path d="M1053.2 362.8l-0.7-0.5c-0.9-0.9-2.3-3.5-0.3-6.6c4.4-7 4.3-10.3 3.9-11.6c-1-2.7-9.9-12.1-15.3-17.4c-0.8-0.6-0.8-1.8 0-2.6c.7-0.7 1.8-0.7 2.6 0c2.4 2.4 14.6 14.5 16.2 18.9c1.2 3.5-0.2 8.3-4.2 14.7c-0.4 .5-0.5 .9-0.5 1.2c3.8-0.7 14.9-3.1 19.6-10.1c-0.5-0.7-2.5-1.8-4-2.7c-4-2.3-9.5-5.5-12.9-11c-6-9.5-12.2-18-12.2-18.1c-0.6-0.8-0.4-2 .4-2.5c.8-0.6 2-0.4 2.5 .4c0 .1 6.4 8.6 12.4 18.3c3 4.7 8 7.6 11.6 9.8c3.2 1.8 5.5 3.1 6 5.1c.1 .6 .1 1.6-0.6 2.6c-6.7 10-23 12.1-23.7 12.1h-0.8Z" fill="#1d1d1b" fill-rule="nonzero"/><path d="M1104.5 4.8c22.9 0 41.4 18.6 41.4 41.4c0 22.8-18.5 41.4-41.4 41.4c-22.8 0-41.4-18.6-41.4-41.4c0-22.8 18.6-41.4 41.4-41.4Zm35.6 41.5c0-19.7-15.9-35.6-35.6-35.6c-19.6 0-35.6 15.9-35.6 35.6c0 19.6 16 35.6 35.6 35.6c19.7 0 35.6-16 35.6-35.6Z" fill-rule="nonzero"/><path d="M1104.5 10.6c19.7 0 35.6 15.9 35.6 35.6c0 19.7-15.9 35.6-35.6 35.6c-19.6 0-35.6-15.9-35.6-35.6c0-19.7 16-35.6 35.6-35.6Z" fill="#ffcb00" fill-rule="nonzero"/><path d="M1104.6 67.9c20.1 0 28.2-14.5 28.5-15.1c.8-1.4 .3-3.2-1.1-3.9c-1.5-0.8-3.2-0.2-4 1.2c-0.2 .5-6.9 12-23.4 12c-16.5 0-23.2-11.6-23.5-12c-0.7-1.4-2.5-2-3.9-1.2c-1.3 .7-1.9 2.5-1.1 3.9c.3 .6 8.4 15.1 28.5 15.1Z" fill-rule="nonzero"/><path d="M1089 41.6c7.6 0 10.8-5.6 10.9-5.8c.8-1.4 .3-3.2-1.2-4c-1.3-0.7-3.1-0.2-3.9 1.1c0 .2-1.8 2.9-5.8 2.9c-4.1 0-5.8-2.7-5.9-2.9c-0.8-1.3-2.5-1.8-3.9-1.1c-1.3 .8-1.9 2.5-1.1 4c.2 .2 3.3 5.8 11 5.8h-0.1Z" fill-rule="nonzero"/><path d="M1120.1 41.6c7.6 0 10.8-5.6 10.9-5.8c.8-1.4 .3-3.2-1.2-4c-1.3-0.7-3.1-0.2-3.9 1.1c-0.1 .2-1.8 2.9-5.8 2.9c-4.1 0-5.8-2.7-5.9-2.9c-0.8-1.3-2.6-1.8-3.9-1.1c-1.4 .8-1.9 2.5-1.1 4c.1 .2 3.3 5.8 10.9 5.8Z" fill-rule="nonzero"/></g></g></g></svg>