<svg xmlns="http://www.w3.org/2000/svg" viewBox="0 0 2334 125"><style>
@keyframes a0_t { 0% { transform: translate(0px,0px); } 100% { transform: translate(-1172.8px,0px); } }
</style><g><path class="st0" d="M2330 7h-2326v114h2326v-114Z" fill="#fad1d1"/><path class="st1" d="M2333.9 124.9h-2333.8v-121.8h2333.8v121.8Zm-2326-7.8h2318.2v-106.2h-2318.2v106.2Z" fill="#010101"/></g><path d="M183.5 81c-2.2 0-4.1-0.6-5.8-1.8c-1.7-1.2-3-2.8-4-4.9c-0.9-2.1-1.4-4.5-1.4-7.2v-41c0-1.1 .4-2 1.1-2.7c.7-0.7 1.6-1.1 2.7-1.1c1.1 0 2 .4 2.7 1.1c.7 .7 1.1 1.6 1.1 2.7v41c0 1.8 .4 3.4 1.1 4.6c.7 1.2 1.6 1.8 2.7 1.8h1.9c1 0 1.8 .3 2.4 1.1c.6 .7 1 1.6 1 2.7c0 1.1-0.5 2-1.4 2.7c-0.9 .7-2.2 1.1-3.7 1.1h-0.4Zm291.7 .3c-3.9 0-7.4-0.9-10.6-2.7c-3.1-1.8-5.6-4.3-7.4-7.5c-1.8-3.2-2.7-6.7-2.7-10.6c0-3.9 .8-7.5 2.5-10.6c1.7-3.2 4-5.6 6.9-7.4c2.9-1.9 6.2-2.8 9.8-2.8c2.9 0 5.7 .6 8.2 1.9c2.5 1.2 4.6 2.9 6.3 5v-20.4c0-1.1 .4-2.1 1.1-2.8c.8-0.7 1.7-1.1 2.8-1.1c1.1 0 2.1 .4 2.8 1.1c.7 .7 1.1 1.6 1.1 2.8v34.2c0 4-0.9 7.5-2.8 10.6c-1.8 3.2-4.2 5.7-7.3 7.5c-3.3 1.9-6.8 2.8-10.7 2.8Zm204.2-0.3c-2.2 0-4.1-0.6-5.8-1.8c-1.7-1.2-3-2.8-4-4.9c-1-2.1-1.4-4.5-1.4-7.2v-41c0-1.1 .4-2 1.1-2.7c.7-0.7 1.6-1.1 2.7-1.1c1.1 0 2 .4 2.7 1.1c.7 .7 1 1.6 1 2.7v41c0 1.8 .4 3.4 1.1 4.6c.7 1.2 1.6 1.8 2.7 1.8h1.9c1 0 1.8 .3 2.4 1.1c.7 .7 1 1.6 1 2.7c0 1.1-0.5 2-1.4 2.7c-1 .7-2.2 1.1-3.7 1.1h-0.3Zm396.2 .3c-3.9 0-7.4-0.9-10.6-2.7c-3.1-1.8-5.6-4.3-7.4-7.5c-1.8-3.2-2.7-6.7-2.7-10.6c0-3.9 .8-7.5 2.5-10.6c1.7-3.2 4-5.6 6.9-7.4c2.9-1.9 6.2-2.8 9.8-2.8c2.9 0 5.7 .6 8.2 1.9c2.5 1.2 4.6 2.9 6.3 5v-20.4c0-1.1 .3-2.1 1.1-2.8c.8-0.7 1.7-1.1 2.8-1.1c1.2 0 2.1 .4 2.8 1.1c.7 .7 1.1 1.6 1.1 2.8v34.2c0 4-0.9 7.5-2.8 10.6c-1.8 3.2-4.2 5.7-7.3 7.5c-3.3 1.9-6.8 2.8-10.7 2.8Zm280.9-0.3c-2.2 0-4.2-0.6-5.8-1.8c-1.7-1.2-3-2.8-4-4.9c-1-2.1-1.4-4.5-1.4-7.2v-41c0-1.1 .3-2 1.1-2.7c.7-0.7 1.6-1.1 2.7-1.1c1.1 0 2 .4 2.7 1.1c.7 .7 1.1 1.6 1.1 2.7v41c0 1.8 .3 3.4 1.1 4.6c.7 1.2 1.6 1.8 2.7 1.8h1.9c1 0 1.8 .3 2.4 1.1c.7 .7 1 1.6 1 2.7c0 1.1-0.5 2-1.4 2.7c-0.9 .7-2.2 1.1-3.7 1.1h-0.4Zm291.7 .3c-3.9 0-7.4-0.9-10.6-2.7c-3.1-1.8-5.6-4.3-7.4-7.5c-1.8-3.2-2.7-6.7-2.7-10.6c0-3.9 .8-7.5 2.5-10.6c1.7-3.2 4-5.6 6.9-7.4c2.9-1.9 6.2-2.8 9.8-2.8c3 0 5.7 .6 8.2 1.9c2.5 1.2 4.6 2.9 6.3 5v-20.4c0-1.1 .3-2.1 1-2.8c.8-0.7 1.7-1.1 2.8-1.1c1.2 0 2.1 .4 2.8 1.1c.7 .7 1 1.6 1 2.8v34.2c0 4-0.9 7.5-2.8 10.6c-1.8 3.2-4.2 5.7-7.4 7.5c-3 1.9-6.5 2.8-10.4 2.8Zm204.2-0.3c-2.2 0-4.2-0.6-5.8-1.8c-1.7-1.2-3-2.8-4-4.9c-1-2.1-1.4-4.5-1.4-7.2v-41c0-1.1 .3-2 1.1-2.7c.7-0.7 1.6-1.1 2.7-1.1c1.1 0 2 .4 2.7 1.1c.7 .7 1.1 1.6 1.1 2.7v41c0 1.8 .3 3.4 1.1 4.6c.7 1.2 1.6 1.8 2.7 1.8h1.9c1 0 1.8 .3 2.4 1.1c.7 .7 1 1.6 1 2.7c0 1.1-0.5 2-1.4 2.7c-0.9 .7-2.2 1.1-3.7 1.1h-0.4Zm396.2 .3c-3.9 0-7.4-0.9-10.6-2.7c-3.1-1.8-5.6-4.3-7.4-7.5c-1.8-3.2-2.7-6.7-2.7-10.6c0-3.9 .8-7.5 2.5-10.6c1.7-3.2 4-5.6 6.9-7.4c2.9-1.9 6.2-2.8 9.8-2.8c3 0 5.7 .6 8.2 1.9c2.5 1.2 4.6 2.9 6.3 5v-20.4c0-1.1 .3-2.1 1-2.8c.8-0.7 1.7-1.1 2.8-1.1c1.2 0 2.1 .4 2.8 1.1c.7 .7 1.1 1.6 1.1 2.8v34.2c0 4-0.9 7.5-2.8 10.6c-1.8 3.2-4.2 5.7-7.4 7.5c-3.1 1.9-6.6 2.8-10.5 2.8Zm274.9-2.1c1.6 1.2 3.6 1.8 5.8 1.8v.1h.4c1.5 0 2.8-0.4 3.7-1.1c.9-0.7 1.4-1.6 1.4-2.7c0-1.1-0.3-2-1-2.7c-0.6-0.8-1.4-1.1-2.4-1.1h-1.9c-1.1 0-2-0.6-2.7-1.8c-0.8-1.2-1.1-2.8-1.1-4.6v-41c0-1.1-0.4-2-1.1-2.7c-0.7-0.7-1.6-1.1-2.7-1.1c-1.1 0-2 .4-2.7 1.1c-0.8 .7-1.1 1.6-1.1 2.7v41c0 2.7 .4 5.1 1.4 7.2c1 2.1 2.3 3.7 4 4.9Zm286.9-0.6c3.2 1.8 6.7 2.7 10.6 2.7c3.9 0 7.4-0.9 10.4-2.8c3.2-1.8 5.6-4.3 7.4-7.5c1.9-3.1 2.8-6.6 2.8-10.6v-34.2c0-1.2-0.3-2.1-1-2.8c-0.7-0.7-1.6-1.1-2.8-1.1c-1.1 0-2 .4-2.8 1.1c-0.7 .7-1 1.7-1 2.8v20.4c-1.7-2.1-3.8-3.8-6.3-5c-2.5-1.3-5.2-1.9-8.2-1.9c-3.6 0-6.9 .9-9.8 2.8c-2.9 1.8-5.2 4.2-6.9 7.4c-1.7 3.1-2.5 6.7-2.5 10.6c0 3.9 .9 7.4 2.7 10.6c1.8 3.2 4.3 5.7 7.4 7.5Zm209 .6c1.6 1.2 3.6 1.8 5.8 1.8v.1h.4c1.5 0 2.8-0.4 3.7-1.1c.9-0.7 1.4-1.6 1.4-2.7c0-1.1-0.3-2-1-2.7c-0.6-0.8-1.4-1.1-2.4-1.1h-1.9c-1.1 0-2-0.6-2.7-1.8c-0.8-1.2-1.1-2.8-1.1-4.6v-41c0-1.1-0.4-2-1.1-2.7c-0.7-0.7-1.6-1.1-2.7-1.1c-1.1 0-2 .4-2.7 1.1c-0.8 .7-1.1 1.6-1.1 2.7v41c0 2.7 .4 5.1 1.4 7.2c1 2.1 2.3 3.7 4 4.9Zm391.4-0.6c3.2 1.8 6.7 2.7 10.6 2.7c3.9 0 7.4-0.9 10.5-2.8c3.2-1.8 5.6-4.3 7.4-7.5c1.9-3.1 2.8-6.6 2.8-10.6v-34.2c0-1.2-0.4-2.1-1.1-2.8c-0.7-0.7-1.6-1.1-2.8-1.1c-1.1 0-2 .4-2.8 1.1c-0.7 .7-1 1.7-1 2.8v20.4c-1.7-2.1-3.8-3.8-6.3-5c-2.5-1.3-5.2-1.9-8.2-1.9c-3.6 0-6.9 .9-9.8 2.8c-2.9 1.8-5.2 4.2-6.9 7.4c-1.7 3.1-2.5 6.7-2.5 10.6c0 3.9 .9 7.4 2.7 10.6c1.8 3.2 4.3 5.7 7.4 7.5Zm-3210.8-45.3c-1.3 0-2.5-0.5-3.5-1.4c-0.9-1-1.4-2.2-1.4-3.5c0-1.3 .5-2.5 1.4-3.5c1-1 2.2-1.5 3.5-1.5c1.4 0 2.5 .5 3.4 1.5c1 1 1.5 2.1 1.5 3.5c0 1.4-0.5 2.5-1.5 3.5c-0.9 .9-2.1 1.4-3.4 1.4Zm1173 0c-1.3 0-2.5-0.5-3.5-1.4c-0.9-1-1.4-2.2-1.4-3.5c0-1.3 .5-2.5 1.4-3.5c1-1 2.2-1.5 3.5-1.5c1.3 0 2.5 .5 3.5 1.5c1 1 1.5 2.1 1.5 3.5c0 1.4-0.5 2.5-1.5 3.5c-1 .9-2.2 1.4-3.5 1.4Zm1169.3-1.4c1 .9 2.2 1.4 3.5 1.4c1.3 0 2.5-0.5 3.5-1.4c1-1 1.5-2.1 1.5-3.5c0-1.4-0.5-2.5-1.5-3.5c-1-1-2.2-1.5-3.5-1.5c-1.3 0-2.5 .5-3.5 1.5c-0.9 1-1.4 2.2-1.4 3.5c0 1.3 .5 2.5 1.4 3.5Zm-2310.2 49.1c-2.5 0-4.8-0.6-6.8-1.9c-2-1.3-3.6-3.1-4.7-5.2c-1.2-2.2-1.7-4.7-1.7-7.4v-18.6h-3.4c-1.1 0-1.9-0.3-2.6-0.9c-0.6-0.6-1-1.4-1-2.2c0-1 .3-1.8 1-2.4c.7-0.6 1.5-0.9 2.6-0.9h3.4v-10.8c0-1.1 .4-2 1.1-2.7c.7-0.7 1.6-1.1 2.7-1.1c1.1 0 2 .4 2.7 1.1c.7 .7 1.1 1.6 1.1 2.7v10.8h6.3c1.1 0 1.9 .3 2.6 .9c.7 .6 1 1.4 1 2.4c0 .9-0.3 1.6-1 2.2c-0.6 .6-1.5 .9-2.6 .9h-6.3v18.6c0 2 .6 3.7 1.7 5c1.1 1.3 2.4 2 4 2h2.6c.9 0 1.7 .3 2.2 1.1c.7 .7 1 1.6 1 2.7c0 1.1-0.4 2-1.3 2.7c-0.8 .7-1.8 1.1-3.1 1.1h-1.5Zm1173 0c-2.5 0-4.8-0.6-6.8-1.9c-2-1.3-3.6-3.1-4.7-5.2c-1.1-2.1-1.7-4.7-1.7-7.4v-18.6h-3.4c-1 0-1.9-0.3-2.5-0.9c-0.7-0.6-1-1.4-1-2.2c0-1 .3-1.8 1-2.4c.6-0.6 1.5-0.9 2.5-0.9h3.4v-10.8c0-1.1 .3-2 1-2.7c.7-0.7 1.6-1.1 2.7-1.1c1.1 0 2 .4 2.7 1.1c.7 .7 1.1 1.6 1.1 2.7v10.8h6.4c1 0 1.9 .3 2.5 .9c.6 .6 1 1.4 1 2.4c0 .9-0.3 1.6-1 2.2c-0.7 .6-1.5 .9-2.5 .9h-6.4v18.6c0 2 .5 3.7 1.6 5c1.1 1.3 2.5 2 4.1 2h2.6c.9 0 1.6 .3 2.2 1.1c.6 .7 1 1.6 1 2.7c0 1.1-0.4 2-1.3 2.7c-0.8 .7-1.8 1.1-3.2 1.1h-1.3Zm1166-1.9c2 1.3 4.3 1.9 6.8 1.9v.1h1.3c1.4 0 2.4-0.4 3.2-1.1c.9-0.7 1.3-1.6 1.3-2.7c0-1.1-0.4-2-1-2.7c-0.6-0.8-1.3-1.1-2.2-1.1h-2.6c-1.6 0-3-0.7-4.1-2c-1.1-1.3-1.6-3-1.6-5v-18.6h6.4c1 0 1.8-0.3 2.5-0.9c.7-0.6 1-1.3 1-2.2c0-1-0.4-1.8-1-2.4c-0.6-0.6-1.5-0.9-2.5-0.9h-6.4v-10.8c0-1.1-0.4-2-1.1-2.7c-0.7-0.7-1.6-1.1-2.7-1.1c-1.1 0-2 .4-2.7 1.1c-0.7 .7-1 1.6-1 2.7v10.8h-3.4c-1 0-1.9 .3-2.5 .9c-0.7 .6-1 1.4-1 2.4c0 .8 .3 1.6 1 2.2c.6 .6 1.5 .9 2.5 .9h3.4v18.6c0 2.7 .6 5.3 1.7 7.4c1.1 2.1 2.7 3.9 4.7 5.2Zm-1682.7-1.9v-21.8c0-2.3 .7-4.2 2.2-5.7c1.5-1.5 3.5-2.6 6.1-3.1c2.5-0.6 5.4-0.5 8.6 .1c.6 .2 1.3 .2 1.8 .1c.5-0.1 1-0.4 1.4-0.7c.4-0.5 .7-1 .9-1.7c.4-1.3-0.2-2.5-1.7-3.4c-1.5-1-3.7-1.5-6.7-1.5c-3 0-5.7 .7-8.2 2.1c-1.7 1-3.2 2.1-4.4 3.5v-1.4c0-1.3-0.3-2.2-1-2.8c-0.6-0.7-1.6-1-2.8-1c-1.2 0-2.1 .3-2.8 1c-0.7 .7-1 1.6-1 2.8v33.6c0 1.2 .3 2.1 1 2.8c.7 .6 1.6 .9 2.8 .9c1.3 0 2.2-0.3 2.8-1c.7-0.7 1-1.6 1-2.8Zm1173 0v-21.8c0-2.3 .8-4.2 2.2-5.7c1.5-1.5 3.6-2.6 6.1-3.1c2.5-0.6 5.4-0.5 8.6 .1c.6 .2 1.2 .2 1.8 .1c.5-0.1 1-0.4 1.4-0.7c.5-0.5 .8-1 .9-1.7c.4-1.3-0.2-2.5-1.7-3.4c-1.5-1-3.7-1.5-6.7-1.5c-3 0-5.7 .7-8.2 2.1c-1.7 1-3.2 2.1-4.4 3.5v-1.4c0-1.3-0.3-2.2-1-2.8c-0.6-0.7-1.6-1-2.8-1c-1.2 0-2.2 .3-2.8 1c-0.7 .7-1 1.6-1 2.8v33.6c0 1.2 .3 2.1 1 2.8c.7 .6 1.6 .9 2.8 .9c1.3 0 2.2-0.3 2.8-1c.7-0.7 1-1.6 1-2.8Zm1172.8-21.8v21.8c0 1.2-0.3 2.1-1 2.8c-0.6 .7-1.5 1-2.8 1c-1.2 0-2.1-0.3-2.8-0.9c-0.7-0.7-1-1.6-1-2.8v-33.6c0-1.2 .3-2.1 1-2.8c.6-0.7 1.6-1 2.8-1c1.2 0 2.2 .3 2.8 1c.7 .6 1 1.5 1 2.8v1.4c1.2-1.4 2.7-2.5 4.4-3.5c2.5-1.4 5.2-2.1 8.2-2.1c3 0 5.2 .5 6.7 1.5c1.5 .9 2.1 2.1 1.7 3.4c-0.1 .7-0.4 1.2-0.9 1.7c-0.4 .3-0.9 .6-1.4 .7c-0.6 .1-1.2 .1-1.8-0.1c-3.2-0.6-6.1-0.7-8.6-0.1c-2.5 .5-4.6 1.6-6.1 3.1c-1.4 1.5-2.2 3.4-2.2 5.7Zm-3177 43.2c-1.1 0-2.1-0.4-2.8-1.1c-0.7-0.7-1-1.6-1-2.7v-20.3c-1.7 2.1-3.8 3.8-6.3 5c-2.5 1.2-5.2 1.8-8.2 1.8c-3.6 0-6.9-0.9-9.8-2.7c-2.9-1.8-5.2-4.3-6.9-7.4c-1.6-3.2-2.5-6.7-2.5-10.7c0-4 .9-7.5 2.7-10.7c1.9-3.2 4.3-5.6 7.4-7.4c3.1-1.9 6.7-2.8 10.6-2.8c3.9 0 7.4 .9 10.5 2.8c3.1 1.8 5.6 4.3 7.4 7.4c1.7 3.2 2.7 6.8 2.7 10.7v34.2c0 1.1-0.3 2-1 2.7c-0.8 .8-1.7 1.2-2.8 1.2Zm83.9-17.3c-3.7 0-6.9-0.9-9.8-2.7c-2.9-1.8-5.2-4.3-6.9-7.4c-1.7-3.2-2.5-6.7-2.5-10.7c0-4 .9-7.5 2.7-10.7c1.8-3.2 4.3-5.6 7.4-7.4c3.2-1.9 6.7-2.8 10.6-2.8c3.9 0 7.4 .9 10.5 2.8c3.1 1.8 5.5 4.3 7.3 7.4c1.9 3.2 2.8 6.7 2.8 10.7h-0.1v16.7c0 1.1-0.4 2-1.1 2.8c-0.6 .7-1.5 1.1-2.6 1.1c-1.1 0-2-0.3-2.8-1c-0.7-0.8-1.1-1.7-1.1-2.8v-2.7c-1.3 1.6-2.8 2.9-4.6 4c-2.9 1.8-6.2 2.7-9.8 2.7Zm382.3 0c-3.5 0-6.8-0.5-9.8-1.6c-2.9-1.1-5.2-2.5-6.9-4.1c-0.8-0.8-1.1-1.7-1-2.7c.1-1.1 .6-1.9 1.5-2.6c1-0.8 2-1.1 2.9-1c1 .1 1.9 .5 2.6 1.3c.8 .9 2.2 1.8 4 2.7c1.9 .8 4 1.2 6.3 1.2c2.9 0 5.1-0.5 6.6-1.4c1.6-0.9 2.4-2.2 2.4-3.7c0-1.5-0.7-2.8-2.2-3.9c-1.5-1.1-4.1-2-8-2.7c-5-1-8.7-2.5-11-4.5c-2.2-2-3.4-4.4-3.4-7.3c0-2.5 .8-4.7 2.2-6.3c1.5-1.7 3.4-3 5.8-3.8c2.4-0.9 4.8-1.3 7.4-1.3c3.3 0 6.2 .5 8.8 1.6c2.6 1.1 4.6 2.5 6.1 4.3c.7 .8 1 1.7 1 2.6c0 .8-0.5 1.6-1.3 2.2c-0.8 .5-1.8 .7-2.9 .5c-1.1-0.2-2-0.6-2.8-1.3c-1.2-1.2-2.6-2-4-2.5c-1.5-0.5-3.1-0.7-5-0.7c-2.2 0-4.1 .4-5.6 1.1c-1.5 .8-2.2 1.9-2.2 3.3c0 .9 .2 1.7 .7 2.5c.5 .7 1.5 1.3 2.9 2c1.4 .5 3.4 1.1 6.1 1.6c3.8 .8 6.7 1.7 8.9 2.9c2.2 1.1 3.8 2.5 4.7 4c1 1.5 1.4 3.2 1.4 5.2c0 2.3-0.6 4.4-1.9 6.2c-1.2 1.8-3 3.3-5.4 4.4c-2.4 1.3-5.3 1.8-8.9 1.8Zm130.6-0.2c-1.1 0-2-0.3-2.8-1c-0.7-0.8-1-1.7-1-2.8v-18.5c0-2.8-0.5-5.2-1.6-7c-1.1-1.8-2.5-3.1-4.3-4c-1.8-0.9-3.8-1.3-6.1-1.3c-2.1 0-4 .4-5.7 1.3c-1.7 .8-3 2-4 3.4c-0.7 1-1.2 2.2-1.4 3.5v22.6c0 1.1-0.4 2-1.1 2.8c-0.8 .6-1.7 1-2.8 1c-1.1 0-2-0.3-2.8-1c-0.7-0.8-1-1.7-1-2.8v-33.5c0-1.1 .3-2.1 1-2.8c.8-0.7 1.7-1.1 2.8-1.1c1.1 0 2.1 .4 2.8 1.1c.7 .7 1.1 1.6 1.1 2.8v.7c1.1-1.1 2.3-2 3.7-2.7c2.7-1.5 5.6-2.2 8.9-2.2c3.4 0 6.5 .8 9.2 2.2c2.8 1.5 4.9 3.6 6.5 6.5c1.6 2.9 2.4 6.4 2.4 10.5v18.5c0 1.1-0.4 2-1.1 2.8c-0.7 .6-1.6 1-2.7 1Zm370.3 .2c-3.6 0-6.9-0.9-9.8-2.7c-2.9-1.8-5.2-4.3-6.9-7.4c-1.7-3.2-2.5-6.7-2.5-10.7c0-4 .9-7.5 2.7-10.7c1.9-3.2 4.3-5.6 7.4-7.4c3.1-1.9 6.7-2.8 10.6-2.8c3.9 0 7.4 .9 10.5 2.8c3.1 1.8 5.6 4.3 7.3 7.4c1.9 3.2 2.8 6.7 2.8 10.7v16.7c0 1.1-0.4 2-1.1 2.8c-0.6 .7-1.5 1.1-2.6 1.1c-1.1 0-2-0.3-2.8-1c-0.7-0.8-1.1-1.7-1.1-2.8v-2.9c-1.3 1.7-2.9 3.1-4.7 4.2c-2.8 1.8-6.1 2.7-9.8 2.7Zm205.9 17.3c-1.2 0-2.1-0.4-2.8-1.1c-0.7-0.7-1.1-1.6-1.1-2.7v-20.3c-1.7 2.1-3.8 3.8-6.3 5c-2.5 1.2-5.2 1.8-8.2 1.8c-3.7 0-6.9-0.9-9.8-2.7c-2.9-1.8-5.2-4.3-6.9-7.4c-1.7-3.2-2.5-6.7-2.5-10.7c0-4 .9-7.5 2.7-10.7c1.8-3.2 4.3-5.6 7.4-7.4c3.2-1.9 6.7-2.8 10.6-2.8c3.9 0 7.4 .9 10.5 2.8c3.1 1.8 5.6 4.3 7.3 7.4c1.9 3.2 2.8 6.7 2.8 10.7v34.2c0 1.1-0.3 2-1 2.7c-0.7 .8-1.6 1.2-2.7 1.2Zm83.9-17.3c-3.7 0-6.9-0.9-9.8-2.7c-2.9-1.8-5.2-4.3-6.9-7.4c-1.6-3.2-2.5-6.7-2.5-10.7c0-4 .9-7.5 2.7-10.7c1.8-3.2 4.3-5.6 7.4-7.4c3.2-1.9 6.7-2.8 10.6-2.8c3.9 0 7.4 .9 10.5 2.8c3.1 1.8 5.5 4.3 7.3 7.4c1.8 3.2 2.8 6.7 2.8 10.7v16.7c0 1.1-0.4 2-1.1 2.8c-0.7 .7-1.6 1.1-2.7 1.1c-1.1 0-2-0.3-2.8-1c-0.7-0.8-1-1.7-1-2.8v-2.9c-1.3 1.7-2.9 3.1-4.7 4.2c-2.9 1.8-6.2 2.7-9.8 2.7Zm382.3 0c-3.5 0-6.8-0.5-9.8-1.6c-3-1.1-5.2-2.5-6.9-4.1c-0.8-0.8-1.1-1.7-1-2.7c.1-1.1 .6-1.9 1.5-2.6c1-0.8 2-1.1 2.9-1c1 .1 1.8 .5 2.6 1.3c.8 .9 2.2 1.8 4 2.7c1.9 .8 4 1.2 6.3 1.2c2.9 0 5.1-0.5 6.6-1.4c1.6-0.9 2.3-2.2 2.4-3.7c.1-1.5-0.7-2.8-2.2-3.9c-1.4-1.1-4.1-2-8-2.7c-5.1-1-8.7-2.5-11-4.5c-2.2-2-3.4-4.4-3.4-7.3c0-2.5 .8-4.7 2.2-6.3c1.5-1.7 3.4-3 5.8-3.8c2.3-0.9 4.8-1.3 7.3-1.3c3.3 0 6.2 .5 8.8 1.6c2.5 1 4.6 2.5 6.1 4.3c.7 .8 1 1.7 1 2.6c0 .8-0.5 1.6-1.3 2.2c-0.8 .5-1.8 .7-2.8 .5c-1.1-0.2-2-0.6-2.8-1.3c-1.2-1.2-2.6-2-4-2.5c-1.5-0.5-3.1-0.7-5-0.7c-2.2 0-4.1 .4-5.6 1.1c-1.5 .8-2.2 1.9-2.2 3.3c0 .9 .2 1.7 .7 2.5c.5 .7 1.4 1.3 2.8 2c1.4 .5 3.4 1.1 6.2 1.6c3.8 .8 6.7 1.7 8.8 2.9c2.2 1.1 3.8 2.5 4.7 4c.9 1.5 1.4 3.2 1.4 5.2c0 2.3-0.6 4.4-1.9 6.2c-1.2 1.8-3 3.3-5.4 4.4c-2.3 1.3-5.2 1.8-8.8 1.8Zm130.6-0.2c-1.1 0-2-0.3-2.8-1c-0.7-0.8-1-1.7-1-2.8v-18.5c0-2.8-0.5-5.2-1.6-7c-1-1.8-2.5-3.1-4.3-4c-1.8-0.9-3.8-1.3-6.1-1.3c-2.1 0-4 .4-5.7 1.3c-1.7 .8-3.1 2-4.1 3.4c-0.6 .9-1.1 1.9-1.3 2.9v23.2c0 1.1-0.3 2-1.1 2.8c-0.8 .6-1.7 1-2.8 1c-1.1 0-2-0.3-2.8-1c-0.7-0.8-1.1-1.7-1.1-2.8v-33.5c0-1.1 .3-2.1 1.1-2.8c.8-0.7 1.7-1.1 2.8-1.1c1.2 0 2.1 .4 2.8 1.1c.7 .7 1.1 1.6 1.1 2.8v.6c1.1-1 2.3-1.9 3.6-2.6c2.6-1.5 5.6-2.2 8.9-2.2c3.4 0 6.5 .8 9.2 2.2c2.8 1.5 4.9 3.6 6.5 6.5c1.6 2.9 2.4 6.4 2.4 10.5v18.5c0 1.1-0.4 2-1.1 2.8c-0.6 .6-1.5 1-2.6 1Zm370.4 .2c-3.7 0-6.9-0.9-9.8-2.7c-2.9-1.8-5.2-4.3-6.9-7.4c-1.6-3.2-2.5-6.7-2.5-10.7c0-4 .9-7.5 2.7-10.7c1.8-3.2 4.3-5.6 7.4-7.4c3.1-1.9 6.7-2.8 10.6-2.8c3.9 0 7.4 .9 10.5 2.8c3.1 1.8 5.5 4.3 7.3 7.4c1.9 3.2 2.8 6.7 2.8 10.7h-0.1v16.7c0 1.1-0.4 2-1.1 2.8c-0.7 .7-1.5 1.1-2.7 1.1c-1.1 0-2-0.3-2.8-1c-0.7-0.8-1-1.7-1-2.8v-2.7c-1.3 1.6-2.8 2.9-4.6 4c-2.9 1.8-6.2 2.7-9.8 2.7Zm202.8 16.2c.7 .7 1.6 1.1 2.8 1.1c1.1 0 2-0.4 2.7-1.2c.7-0.7 1-1.6 1-2.7v-34.2c0-4-0.9-7.5-2.8-10.7c-1.7-3.1-4.2-5.6-7.3-7.4c-3.1-1.9-6.6-2.8-10.5-2.8c-3.9 0-7.4 .9-10.6 2.8c-3.1 1.8-5.6 4.2-7.4 7.4c-1.8 3.2-2.7 6.7-2.7 10.7c0 4 .8 7.5 2.5 10.7c1.7 3.1 4 5.6 6.9 7.4c2.9 1.8 6.1 2.7 9.8 2.7c3 0 5.7-0.6 8.2-1.8c2.5-1.2 4.6-2.9 6.3-5v20.3c0 1.1 .4 2 1.1 2.7Zm76.9-18.9c2.9 1.8 6.1 2.7 9.8 2.7c3.6 0 6.9-0.9 9.8-2.7c1.8-1.1 3.4-2.5 4.7-4.2v2.9c0 1.1 .3 2 1 2.8c.8 .7 1.7 1 2.8 1c1.1 0 2-0.4 2.7-1.1c.7-0.8 1.1-1.7 1.1-2.8v-16.7c0-4-1-7.5-2.8-10.7c-1.8-3.1-4.2-5.6-7.3-7.4c-3.1-1.9-6.6-2.8-10.5-2.8c-3.9 0-7.4 .9-10.6 2.8c-3.1 1.8-5.6 4.2-7.4 7.4c-1.8 3.2-2.7 6.7-2.7 10.7c0 4 .9 7.5 2.5 10.7c1.7 3.1 4 5.6 6.9 7.4Zm382.3 1.1c3 1.1 6.3 1.6 9.8 1.6c3.6 0 6.5-0.5 8.8-1.8c2.4-1.1 4.2-2.6 5.4-4.4c1.3-1.8 1.9-3.9 1.9-6.2c0-2-0.5-3.7-1.4-5.2c-0.9-1.5-2.5-2.9-4.7-4c-2.1-1.2-5-2.1-8.8-2.9c-2.8-0.5-4.8-1.1-6.2-1.6c-1.4-0.7-2.3-1.3-2.8-2c-0.5-0.8-0.7-1.6-0.7-2.5c0-1.4 .7-2.5 2.2-3.3c1.5-0.7 3.4-1.1 5.6-1.1c1.9 0 3.5 .2 5 .7c1.4 .5 2.8 1.3 4 2.5c.8 .7 1.7 1.1 2.8 1.3c1 .2 2 0 2.8-0.5c.8-0.6 1.3-1.4 1.3-2.2c0-0.9-0.3-1.8-1-2.6c-1.5-1.8-3.6-3.3-6.1-4.3c-2.6-1.1-5.5-1.6-8.8-1.6c-2.5 0-5 .4-7.3 1.3c-2.4 .8-4.3 2.1-5.8 3.8c-1.4 1.6-2.2 3.8-2.2 6.3c0 2.9 1.2 5.3 3.4 7.3c2.3 2 5.9 3.5 11 4.5c3.9 .7 6.6 1.6 8 2.7c1.5 1.1 2.3 2.4 2.2 3.9c-0.1 1.5-0.8 2.8-2.4 3.7c-1.5 .9-3.7 1.4-6.6 1.4c-2.3 0-4.4-0.4-6.3-1.2c-1.8-0.9-3.2-1.8-4-2.7c-0.8-0.8-1.6-1.2-2.6-1.3c-0.9-0.1-1.9 .2-2.9 1c-0.9 .7-1.4 1.5-1.5 2.6c-0.1 1 .2 1.9 1 2.7c1.7 1.6 3.9 3 6.9 4.1Zm137.6 .4c.8 .7 1.7 1 2.8 1c1.1 0 2-0.4 2.6-1c.7-0.8 1.1-1.7 1.1-2.8v-18.5c0-4.1-0.8-7.6-2.4-10.5c-1.6-2.9-3.7-5-6.5-6.5c-2.7-1.4-5.8-2.2-9.2-2.2c-3.3 0-6.3 .7-8.9 2.2c-1.3 .7-2.5 1.6-3.6 2.6v-0.6c0-1.2-0.4-2.1-1.1-2.8c-0.7-0.7-1.6-1.1-2.8-1.1c-1.1 0-2 .4-2.8 1.1c-0.8 .7-1.1 1.7-1.1 2.8v33.5c0 1.1 .4 2 1.1 2.8c.8 .7 1.7 1 2.8 1c1.1 0 2-0.4 2.8-1c.8-0.8 1.1-1.7 1.1-2.8v-23.2c.2-1 .7-2 1.3-2.9c1-1.4 2.4-2.6 4.1-3.4c1.7-0.9 3.6-1.3 5.7-1.3c2.3 0 4.3 .4 6.1 1.3c1.8 .9 3.3 2.2 4.3 4c1.1 1.8 1.6 4.2 1.6 7v18.5c0 1.1 .3 2 1 2.8Zm363.4-1.5c2.9 1.8 6.1 2.7 9.8 2.7c3.6 0 6.9-0.9 9.8-2.7c1.8-1.1 3.3-2.4 4.6-4v2.7c0 1.1 .3 2 1 2.8c.8 .7 1.7 1 2.8 1c1.2 0 2-0.4 2.7-1.1c.7-0.8 1.1-1.7 1.1-2.8v-16.7h.1c0-4-0.9-7.5-2.8-10.7c-1.8-3.1-4.2-5.6-7.3-7.4c-3.1-1.9-6.6-2.8-10.5-2.8c-3.9 0-7.5 .9-10.6 2.8c-3.1 1.8-5.6 4.2-7.4 7.4c-1.8 3.2-2.7 6.7-2.7 10.7c0 4 .9 7.5 2.5 10.7c1.7 3.1 4 5.6 6.9 7.4Zm-3036.1 2.7c-3.8 0-7.1-0.9-10-2.6c-2.8-1.8-5.1-4.2-6.8-7.4c-1.6-3.1-2.5-6.8-2.5-10.8c0-4.1 .9-7.7 2.6-10.8c1.8-3.1 4.2-5.6 7.3-7.3c3.1-1.8 6.7-2.7 10.7-2.7c4 0 7.6 .9 10.6 2.7c3.1 1.8 5.5 4.2 7.3 7.3c1.8 3.1 2.7 6.7 2.7 10.8l.3 .1v16.2c0 4-0.9 7.5-2.6 10.7c-1.8 3.2-4.2 5.8-7.4 7.7c-3.1 1.9-6.7 2.8-10.8 2.8c-3.5 0-6.9-0.7-10-2.1c-3.1-1.4-5.7-3.5-7.9-6.2c-0.6-0.8-0.9-1.7-0.8-2.6c.2-0.9 .7-1.6 1.5-2.2c.9-0.6 1.8-0.8 2.8-0.6c1 .2 1.8 .7 2.4 1.5c1.3 1.7 3 3 5.1 4c2.1 1 4.4 1.4 7 1.4c2.4 0 4.6-0.6 6.6-1.7c2-1.2 3.7-2.9 4.9-5.1c1.2-2.2 1.8-5 1.8-8.2v-3.7c-1.4 2.5-3.3 4.6-5.6 6.2c-2.7 1.7-5.7 2.6-9.2 2.6Zm51.3 0c-4 0-7.6-0.9-10.7-2.6c-3.1-1.8-5.5-4.2-7.4-7.4c-1.8-3.1-2.6-6.8-2.6-10.8c0-4.1 .9-7.7 2.6-10.8c1.8-3.1 4.2-5.6 7.4-7.3c3.1-1.8 6.7-2.7 10.7-2.7c4 0 7.5 .9 10.6 2.7c3.1 1.8 5.5 4.2 7.3 7.3c1.8 3.1 2.7 6.7 2.7 10.8c0 4-0.9 7.7-2.6 10.8c-1.8 3.1-4.2 5.6-7.3 7.4c-3.1 1.7-6.6 2.6-10.7 2.6Zm49.8 0c-4.1 0-7.6-0.9-10.7-2.6c-3.1-1.8-5.6-4.2-7.4-7.4c-1.8-3.1-2.6-6.8-2.6-10.8c0-4.1 .9-7.7 2.6-10.8c1.8-3.1 4.2-5.6 7.4-7.3c3.1-1.8 6.7-2.7 10.7-2.7c4 0 7.5 .9 10.6 2.7c3.1 1.8 5.5 4.2 7.3 7.3c1.8 3.1 2.7 6.7 2.7 10.8c0 4-0.9 7.7-2.6 10.8c-1.8 3.1-4.2 5.6-7.3 7.4c-3.1 1.7-6.6 2.6-10.7 2.6Zm162.8 0c-4 0-7.6-0.9-10.7-2.6c-3.1-1.8-5.6-4.2-7.4-7.4c-1.8-3.1-2.6-6.8-2.6-10.8c0-4.1 .9-7.7 2.6-10.8c1.8-3.1 4.2-5.6 7.4-7.3c3.1-1.8 6.7-2.7 10.7-2.7c4 0 7.5 .9 10.7 2.7c3.1 1.8 5.5 4.2 7.3 7.3c1.8 3.1 2.7 6.7 2.7 10.8c0 4-0.9 7.7-2.6 10.8c-1.8 3.1-4.2 5.6-7.3 7.4c-3.2 1.7-6.8 2.6-10.8 2.6Zm183.1 0c-4.2 0-7.9-0.9-11.1-2.6c-3.2-1.8-5.7-4.2-7.6-7.4c-1.8-3.1-2.7-6.8-2.7-10.8c0-4.1 .8-7.7 2.5-10.8c1.8-3.1 4.1-5.6 7.2-7.3c3-1.8 6.5-2.7 10.5-2.7c3.9 0 7.2 .9 10 2.6c2.8 1.7 4.9 4.1 6.4 7.1c1.5 3 2.2 6.5 2.2 10.4c0 1-0.3 1.8-1 2.4c-0.6 .6-1.5 .9-2.5 .9h-28.6c.2 1.8 .8 3.4 1.7 4.8c1.3 2.1 3 3.8 5.2 5.1c2.2 1.3 4.7 1.9 7.6 1.9c1.5 0 3.1-0.3 4.7-0.8c1.7-0.6 3-1.3 4-2c.8-0.6 1.6-0.8 2.4-0.8c.9-0.1 1.7 .2 2.3 .8c.8 .8 1.3 1.6 1.3 2.5c0 .9-0.3 1.7-1.2 2.3c-1.7 1.3-3.8 2.5-6.4 3.3c-2.2 .7-4.6 1.1-6.9 1.1Zm83.1 0c-4.2 0-7.9-0.9-11.1-2.6c-3.2-1.8-5.7-4.2-7.6-7.4c-1.8-3.1-2.7-6.8-2.7-10.8c0-4.1 .8-7.7 2.5-10.8c1.8-3.1 4.1-5.6 7.2-7.3c3-1.8 6.5-2.7 10.5-2.7c3.9 0 7.2 .9 10 2.6c2.8 1.7 4.9 4.1 6.4 7.1c1.5 3 2.2 6.5 2.2 10.4c0 1-0.3 1.8-1 2.4c-0.6 .6-1.5 .9-2.5 .9h-28.6c.2 1.8 .8 3.4 1.7 4.8c1.3 2.1 3 3.8 5.2 5.1c2.2 1.3 4.7 1.9 7.6 1.9c1.5 0 3.1-0.3 4.7-0.8c1.7-0.6 3-1.3 4-2c.8-0.6 1.6-0.8 2.4-0.8c.9-0.1 1.7 .2 2.3 .8c.8 .8 1.3 1.6 1.3 2.5c0 .9-0.3 1.7-1.2 2.3c-1.7 1.3-3.8 2.5-6.4 3.3c-2.2 .7-4.6 1.1-6.9 1.1Zm112.2-0.2c-1.1 0-2-0.3-2.8-1c-0.7-0.8-1-1.7-1-2.8v-21.5c0-3.1-0.8-5.5-2.3-7c-1.5-1.5-3.6-2.3-6.1-2.3c-2.6 0-4.8 .9-6.4 2.7c-1.7 1.8-2.6 4.1-2.6 6.9h-0.1v21.2c0 1.1-0.3 2-1 2.8c-0.7 .6-1.6 1-2.8 1c-1.1 0-2-0.3-2.8-1c-0.7-0.8-1-1.7-1-2.8v-33.4c0-1.2 .3-2.1 1-2.8c.8-0.7 1.7-1 2.8-1c1.1 0 2.1 .4 2.8 1c.7 .7 1 1.6 1 2.8v.1c.8-0.9 1.8-1.6 2.8-2.2c2.3-1.4 4.9-2.1 7.9-2.1c2.9 0 5.4 .6 7.6 1.9c1.6 1 2.9 2.2 4 3.7c1.2-1.4 2.6-2.6 4.3-3.5c2.5-1.4 5.5-2.1 8.7-2.1c2.8 0 5.4 .6 7.6 1.9c2.2 1.2 3.9 3.1 5.1 5.6c1.2 2.4 1.9 5.3 1.9 8.8v21.5c0 1.1-0.3 2-1 2.8c-0.6 .4-1.5 .8-2.7 .8c-1.1 0-2-0.3-2.8-1c-0.7-0.8-1.1-1.7-1.1-2.8v-21.5c0-3.1-0.8-5.5-2.3-7c-1.6-1.5-3.6-2.3-6.1-2.3c-2.6 0-4.8 .9-6.5 2.7c-1.1 1.2-1.9 2.6-2.2 4.3c.1 .8 .1 1.6 .1 2.5v21.5c0 1.1-0.4 2-1.1 2.8c-0.9 .4-1.8 .8-2.9 .8Zm161.6 .2c-4.2 0-7.8-0.9-11.1-2.6c-3.2-1.8-5.7-4.2-7.6-7.4c-1.8-3.1-2.7-6.8-2.7-10.8c0-4.1 .8-7.7 2.6-10.8c1.8-3.1 4.2-5.6 7.2-7.3c3.1-1.8 6.6-2.7 10.5-2.7c3.9 0 7.2 .9 10.1 2.6c2.8 1.7 4.9 4.1 6.4 7.1c1.5 3 2.2 6.5 2.2 10.4c0 1-0.3 1.8-1 2.4c-0.7 .6-1.5 .9-2.5 .9h-28.6c.2 1.8 .8 3.4 1.7 4.8c1.3 2.1 3 3.8 5.2 5.1c2.2 1.2 4.7 1.9 7.6 1.9c1.6 0 3.1-0.3 4.7-0.8c1.7-0.6 3-1.3 4-2c.8-0.6 1.5-0.8 2.4-0.8c.9-0.1 1.7 .2 2.3 .8c.8 .8 1.3 1.6 1.3 2.5c0 .9-0.3 1.7-1.2 2.3c-1.7 1.3-3.8 2.5-6.4 3.3c-2.4 .7-4.8 1.1-7.1 1.1Zm369.1 0c-3.8 0-7.1-0.9-10-2.6c-2.8-1.8-5.1-4.2-6.8-7.4c-1.7-3.1-2.5-6.8-2.5-10.8c0-4.1 .9-7.7 2.6-10.8c1.8-3.1 4.2-5.6 7.3-7.3c3.1-1.8 6.7-2.7 10.7-2.7c4 0 7.6 .9 10.7 2.7c3.1 1.8 5.5 4.2 7.3 7.3c1.8 3.1 2.7 6.7 2.7 10.8h-0.1l.3 .1v16.2c0 4-0.9 7.5-2.6 10.7c-1.8 3.2-4.2 5.8-7.3 7.7c-3.2 1.9-6.8 2.8-10.9 2.8c-3.5 0-6.9-0.7-10-2.1c-3.1-1.4-5.7-3.5-7.9-6.2c-0.7-0.8-0.9-1.7-0.8-2.6c.2-0.9 .7-1.6 1.5-2.2c.9-0.6 1.8-0.8 2.8-0.6c1 .2 1.8 .7 2.4 1.5c1.3 1.7 3.1 3 5.1 4c2.1 1 4.4 1.4 7 1.4c2.4 0 4.6-0.6 6.6-1.7c2.1-1.2 3.7-2.9 4.9-5.1c1.2-2.2 1.8-5 1.8-8.2v-3.9c-1.5 2.6-3.4 4.8-5.7 6.4c-2.6 1.7-5.6 2.6-9.1 2.6Zm51.3 0c-4.1 0-7.6-0.9-10.7-2.6c-3.1-1.8-5.6-4.2-7.3-7.4c-1.8-3.1-2.6-6.8-2.6-10.8c0-4.1 .9-7.7 2.6-10.8c1.8-3.1 4.2-5.6 7.3-7.3c3.1-1.8 6.7-2.7 10.7-2.7c4 0 7.6 .9 10.7 2.7c3.1 1.8 5.5 4.2 7.3 7.3c1.8 3.1 2.7 6.7 2.7 10.8c0 4-0.9 7.7-2.6 10.8c-1.8 3.1-4.2 5.6-7.3 7.4c-3.2 1.7-6.7 2.6-10.8 2.6Zm49.8 0c-4.1 0-7.6-0.9-10.7-2.6c-3.1-1.8-5.5-4.2-7.3-7.4c-1.8-3.1-2.6-6.8-2.6-10.8c0-4.1 .9-7.7 2.6-10.8c1.8-3.1 4.2-5.6 7.3-7.3c3.1-1.8 6.7-2.7 10.7-2.7c4 0 7.5 .9 10.7 2.7c3.1 1.8 5.5 4.2 7.3 7.3c1.8 3.1 2.7 6.7 2.7 10.8c0 4-0.9 7.7-2.6 10.8c-1.8 3.1-4.2 5.6-7.3 7.4c-3.2 1.7-6.7 2.6-10.8 2.6Zm162.8 0c-4.1 0-7.6-0.9-10.7-2.6c-3.1-1.8-5.6-4.2-7.4-7.4c-1.8-3.1-2.6-6.8-2.6-10.8c0-4.1 .9-7.7 2.6-10.8c1.8-3.1 4.2-5.6 7.4-7.3c3.1-1.8 6.7-2.7 10.7-2.7c4 0 7.5 .9 10.7 2.7c3.1 1.8 5.5 4.2 7.3 7.3c1.8 3.1 2.7 6.7 2.7 10.8c0 4-0.9 7.7-2.6 10.8c-1.8 3.1-4.2 5.6-7.3 7.4c-3.2 1.7-6.8 2.6-10.8 2.6Zm183.1 0c-4.1 0-7.8-0.9-11.1-2.6c-3.2-1.8-5.7-4.2-7.6-7.4c-1.8-3.1-2.7-6.8-2.7-10.8c0-4.1 .9-7.7 2.6-10.8c1.8-3.1 4.2-5.6 7.2-7.3c3.1-1.8 6.6-2.7 10.5-2.7c3.9 0 7.2 .9 10.1 2.6c2.8 1.7 4.9 4.1 6.4 7.1c1.5 3 2.2 6.5 2.2 10.4c0 1-0.3 1.8-1 2.4c-0.7 .6-1.5 .9-2.5 .9h-28.6c.2 1.8 .8 3.4 1.7 4.8c1.3 2.1 3 3.8 5.2 5.1c2.2 1.3 4.7 1.9 7.6 1.9c1.6 0 3.1-0.3 4.7-0.8c1.6-0.6 3-1.3 4-2c.8-0.6 1.5-0.8 2.4-0.8c.9-0.1 1.7 .2 2.3 .8c.8 .8 1.3 1.6 1.3 2.5c.1 .9-0.3 1.7-1.2 2.3c-1.7 1.3-3.8 2.5-6.4 3.3c-2.4 .7-4.8 1.1-7.1 1.1Zm83.1 0c-4.2 0-7.8-0.9-11.1-2.6c-3.2-1.8-5.7-4.2-7.6-7.4c-1.8-3.1-2.7-6.8-2.7-10.8c0-4.1 .8-7.7 2.5-10.8c1.8-3.1 4.2-5.6 7.2-7.3c3-1.8 6.5-2.7 10.5-2.7c3.9 0 7.2 .9 10 2.6c2.8 1.7 4.9 4.1 6.4 7.1c1.5 3 2.2 6.5 2.2 10.4c0 1-0.3 1.8-1 2.4c-0.7 .6-1.5 .9-2.5 .9h-28.6c.2 1.8 .8 3.4 1.7 4.8c1.3 2.1 3 3.8 5.2 5.1c2.2 1.2 4.7 1.9 7.6 1.9c1.5 0 3.1-0.3 4.7-0.8c1.7-0.6 3-1.3 4-2c.8-0.6 1.6-0.8 2.4-0.8c.9-0.1 1.7 .2 2.3 .8c.8 .8 1.3 1.6 1.3 2.5c.1 .9-0.3 1.7-1.2 2.3c-1.7 1.3-3.8 2.5-6.4 3.3c-2.2 .7-4.6 1.1-6.9 1.1Zm112.2-0.2c-1.1 0-2-0.3-2.8-1c-0.7-0.8-1.1-1.7-1.1-2.8v-21.5c0-3.1-0.8-5.5-2.3-7c-1.5-1.5-3.6-2.3-6.1-2.3c-2.6 0-4.8 .9-6.5 2.7c-1.4 1.4-2.1 3.2-2.4 5.3v22.8c0 1.1-0.4 2-1.1 2.8c-0.7 .6-1.6 1-2.8 1c-1.1 0-2-0.3-2.8-1c-0.7-0.8-1.1-1.7-1.1-2.8v-33.4c0-1.2 .4-2.1 1.1-2.8c.8-0.7 1.7-1 2.8-1c1.1 0 2.1 .4 2.8 1c.6 .7 1 1.5 1.1 2.6c.7-0.8 1.6-1.4 2.5-1.9c2.3-1.4 4.9-2.1 7.9-2.1c2.8 0 5.4 .6 7.6 1.9c1.7 .9 3.1 2.2 4.2 3.9c1.2-1.5 2.7-2.8 4.5-3.7c2.5-1.4 5.4-2.1 8.7-2.1c2.8 0 5.4 .6 7.6 1.9c2.2 1.2 3.9 3.1 5.1 5.6c1.2 2.4 1.9 5.3 1.9 8.8v21.5c0 1.1-0.4 2-1.1 2.8c-0.7 .4-1.6 .8-2.8 .8c-1.1 0-2-0.3-2.8-1c-0.7-0.8-1.1-1.7-1.1-2.8v-21.5c0-3.1-0.8-5.5-2.3-7c-1.5-1.5-3.6-2.3-6.1-2.3c-2.6 0-4.8 .9-6.4 2.7c-1.4 1.5-2.2 3.3-2.4 5.5c0 .4 0 .9 0 1.3v21.5c0 1.1-0.3 2-1 2.8c-0.8 .4-1.7 .8-2.8 .8Zm161.6 .2c-4.1 0-7.8-0.9-11.1-2.6c-3.2-1.8-5.7-4.2-7.6-7.4c-1.8-3.1-2.7-6.8-2.7-10.8c0-4.1 .8-7.7 2.5-10.8c1.8-3.1 4.2-5.6 7.2-7.3c3-1.8 6.5-2.7 10.5-2.7c3.9 0 7.2 .9 10 2.6c2.8 1.7 4.9 4.1 6.4 7.1c1.5 3 2.2 6.5 2.2 10.4c0 1-0.3 1.8-1 2.4c-0.7 .6-1.5 .9-2.5 .9h-28.7c.2 1.8 .8 3.4 1.7 4.8c1.3 2.1 3 3.8 5.2 5.1c2.2 1.2 4.7 1.9 7.6 1.9c1.6 0 3.1-0.3 4.7-0.8c1.7-0.6 3-1.3 4-2c.8-0.6 1.6-0.8 2.4-0.8c.9-0.1 1.7 .2 2.3 .8c.9 .8 1.3 1.6 1.4 2.5c.1 .9-0.4 1.7-1.2 2.3c-1.7 1.3-3.8 2.5-6.4 3.3c-2.2 .7-4.6 1.1-6.9 1.1Zm358.9-2.6c2.9 1.7 6.2 2.6 10 2.6c3.5 0 6.5-0.9 9.1-2.6c2.3-1.6 4.2-3.8 5.7-6.4v3.9c0 3.2-0.6 6-1.8 8.2c-1.2 2.2-2.8 3.9-4.9 5.1c-2 1.1-4.2 1.7-6.6 1.7c-2.6 0-4.9-0.4-7-1.4c-2-1-3.8-2.3-5.1-4c-0.6-0.8-1.4-1.3-2.4-1.5c-1-0.2-1.9 0-2.8 .6c-0.8 .6-1.3 1.3-1.5 2.2c-0.1 .9 .1 1.8 .8 2.6c2.2 2.7 4.8 4.8 7.9 6.2c3.1 1.4 6.5 2.1 10 2.1c4.1 0 7.7-0.9 10.9-2.8c3.1-1.9 5.5-4.5 7.3-7.7c1.7-3.2 2.6-6.7 2.6-10.7v-16.2l-0.3-0.1h.1c0-4.1-0.9-7.7-2.7-10.8c-1.8-3.1-4.2-5.5-7.3-7.3c-3.1-1.8-6.7-2.7-10.7-2.7c-4 0-7.6 .9-10.7 2.7c-3.1 1.7-5.5 4.2-7.3 7.3c-1.7 3.1-2.6 6.7-2.6 10.8c0 4 .8 7.7 2.5 10.8c1.7 3.2 4 5.6 6.8 7.4Zm50.6 0c3.1 1.7 6.6 2.6 10.7 2.6c4.1 0 7.6-0.9 10.8-2.6c3.1-1.8 5.5-4.3 7.3-7.4c1.7-3.1 2.6-6.8 2.6-10.8c0-4.1-0.9-7.7-2.7-10.8c-1.8-3.1-4.2-5.5-7.3-7.3c-3.1-1.8-6.7-2.7-10.7-2.7c-4 0-7.6 .9-10.7 2.7c-3.1 1.7-5.5 4.2-7.3 7.3c-1.7 3.1-2.6 6.7-2.6 10.8c0 4 .8 7.7 2.6 10.8c1.7 3.2 4.2 5.6 7.3 7.4Zm49.8 0c3.1 1.7 6.6 2.6 10.7 2.6c4.1 0 7.6-0.9 10.8-2.6c3.1-1.8 5.5-4.3 7.3-7.4c1.7-3.1 2.6-6.8 2.6-10.8c0-4.1-0.9-7.7-2.7-10.8c-1.8-3.1-4.2-5.5-7.3-7.3c-3.2-1.8-6.7-2.7-10.7-2.7c-4 0-7.6 .9-10.7 2.7c-3.1 1.7-5.5 4.2-7.3 7.3c-1.7 3.1-2.6 6.7-2.6 10.8c0 4 .8 7.7 2.6 10.8c1.8 3.2 4.2 5.6 7.3 7.4Zm162.8 0c3.1 1.7 6.6 2.6 10.7 2.6c4 0 7.6-0.9 10.8-2.6c3.1-1.8 5.5-4.3 7.3-7.4c1.7-3.1 2.6-6.8 2.6-10.8c0-4.1-0.9-7.7-2.7-10.8c-1.8-3.1-4.2-5.5-7.3-7.3c-3.2-1.8-6.7-2.7-10.7-2.7c-4 0-7.6 .9-10.7 2.7c-3.2 1.7-5.6 4.2-7.4 7.3c-1.7 3.1-2.6 6.7-2.6 10.8c0 4 .8 7.7 2.6 10.8c1.8 3.2 4.3 5.6 7.4 7.4Zm182.7 0c3.3 1.7 7 2.6 11.1 2.6c2.3 0 4.7-0.4 7.1-1.1c2.6-0.8 4.7-2 6.4-3.3c.9-0.6 1.3-1.4 1.2-2.3c0-0.9-0.5-1.7-1.3-2.5c-0.6-0.6-1.4-0.9-2.3-0.8c-0.9 0-1.6 .2-2.4 .8c-1 .7-2.4 1.4-4 2c-1.6 .5-3.1 .8-4.7 .8c-2.9 0-5.4-0.6-7.6-1.9c-2.2-1.3-3.9-3-5.2-5.1c-0.9-1.4-1.5-3-1.7-4.8h28.6c1 0 1.8-0.3 2.5-0.9c.7-0.6 1-1.4 1-2.4c0-3.9-0.7-7.4-2.2-10.4c-1.5-3-3.6-5.4-6.4-7.1c-2.9-1.7-6.2-2.6-10.1-2.6c-3.9 0-7.4 .9-10.5 2.7c-3 1.7-5.4 4.2-7.2 7.3c-1.7 3.1-2.6 6.7-2.6 10.8c0 4 .9 7.7 2.7 10.8c1.9 3.2 4.4 5.6 7.6 7.4Zm-3.3-21.6c.3-1.4 .7-2.7 1.3-3.9c1.1-2.2 2.6-4 4.6-5.2c2-1.3 4.5-1.9 7.3-1.9c2.5 0 4.6 .6 6.4 1.7c1.8 1.1 3.2 2.7 4.1 4.7c.6 1.4 1.1 2.9 1.3 4.6Zm86.4 21.6c3.3 1.7 6.9 2.6 11.1 2.6c2.3 0 4.7-0.4 6.9-1.1c2.6-0.8 4.7-2 6.4-3.3c.9-0.6 1.3-1.4 1.2-2.3c0-0.9-0.5-1.7-1.3-2.5c-0.6-0.6-1.4-0.9-2.3-0.8c-0.8 0-1.6 .2-2.4 .8c-1 .7-2.3 1.4-4 2c-1.6 .5-3.2 .8-4.7 .8c-2.9 0-5.4-0.7-7.6-1.9c-2.2-1.3-3.9-3-5.2-5.1c-0.9-1.4-1.5-3-1.7-4.8h28.6c1 0 1.8-0.3 2.5-0.9c.7-0.6 1-1.4 1-2.4c0-3.9-0.7-7.4-2.2-10.4c-1.5-3-3.6-5.4-6.4-7.1c-2.8-1.7-6.1-2.6-10-2.6c-4 0-7.5 .9-10.5 2.7c-3 1.7-5.4 4.2-7.2 7.3c-1.7 3.1-2.5 6.7-2.5 10.8c0 4 .9 7.7 2.7 10.8c1.9 3.2 4.4 5.6 7.6 7.4Zm-3.5-21.6c.3-1.4 .7-2.7 1.3-3.9c1.1-2.2 2.6-4 4.6-5.2c2.1-1.3 4.5-1.9 7.4-1.9c2.5 0 4.6 .6 6.4 1.7c1.7 1.1 3.1 2.7 4 4.7c.7 1.4 1.2 2.9 1.4 4.6Zm124 23c.8 .7 1.7 1 2.8 1c1.1 0 2-0.4 2.8-0.8c.7-0.8 1-1.7 1-2.8v-21.5c0-0.4 0-0.9 0-1.3c.2-2.2 1-4 2.4-5.5c1.6-1.8 3.8-2.7 6.4-2.7c2.5 0 4.6 .8 6.1 2.3c1.5 1.5 2.3 3.9 2.3 7v21.5c0 1.1 .4 2 1.1 2.8c.8 .7 1.7 1 2.8 1c1.2 0 2.1-0.4 2.8-0.8c.7-0.8 1.1-1.7 1.1-2.8v-21.5c0-3.5-0.7-6.4-1.9-8.8c-1.2-2.5-2.9-4.4-5.1-5.6c-2.2-1.3-4.8-1.9-7.6-1.9c-3.3 0-6.2 .7-8.7 2.1c-1.8 .9-3.3 2.2-4.5 3.7c-1.1-1.7-2.5-3-4.2-3.9c-2.2-1.3-4.8-1.9-7.6-1.9c-3 0-5.6 .7-7.9 2.1c-0.9 .5-1.8 1.1-2.5 1.9c-0.1-1.1-0.5-1.9-1.1-2.6c-0.7-0.6-1.7-1-2.8-1c-1.1 0-2 .3-2.8 1c-0.7 .7-1.1 1.6-1.1 2.8v33.4c0 1.1 .4 2 1.1 2.8c.8 .7 1.7 1 2.8 1c1.2 0 2.1-0.4 2.8-1c.7-0.8 1.1-1.7 1.1-2.8v-22.8c.3-2.1 1-3.9 2.4-5.3c1.7-1.8 3.9-2.7 6.5-2.7c2.5 0 4.6 .8 6.1 2.3c1.5 1.5 2.3 3.9 2.3 7v21.5c0 1.1 .4 2 1.1 2.8Zm153.3-1.4c3.3 1.7 7 2.6 11.1 2.6c2.3 0 4.7-0.4 6.9-1.1c2.6-0.8 4.7-2 6.4-3.3c.8-0.6 1.3-1.4 1.2-2.3c-0.1-0.9-0.5-1.7-1.4-2.5c-0.6-0.6-1.4-0.9-2.3-0.8c-0.8 0-1.6 .2-2.4 .8c-1 .7-2.3 1.4-4 2c-1.6 .5-3.1 .8-4.7 .8c-2.9 0-5.4-0.7-7.6-1.9c-2.2-1.3-3.9-3-5.2-5.1c-0.9-1.4-1.5-3-1.7-4.8h28.7c1 0 1.8-0.3 2.5-0.9c.7-0.6 1-1.4 1-2.4c0-3.9-0.7-7.4-2.2-10.4c-1.5-3-3.6-5.4-6.4-7.1c-2.8-1.7-6.1-2.6-10-2.6c-4 0-7.5 .9-10.5 2.7c-3 1.7-5.4 4.2-7.2 7.3c-1.7 3.1-2.5 6.7-2.5 10.8c0 4 .9 7.7 2.7 10.8c1.9 3.2 4.4 5.6 7.6 7.4Zm-3.6-21.6c.3-1.4 .7-2.7 1.3-3.9c1.1-2.2 2.6-4 4.6-5.2c2.1-1.3 4.5-1.9 7.4-1.9c2.5 0 4.6 .6 6.4 1.7c1.8 1.1 3.2 2.7 4.1 4.7c.6 1.4 1.1 2.9 1.3 4.6Zm-3368.4 24.3c-3.5 0-6.6-0.7-9.3-2.2c-2.7-1.5-4.8-3.7-6.4-6.5c-1.6-2.9-2.3-6.4-2.3-10.5v-18.5c0-1.1 .4-2 1.1-2.7c.8-0.8 1.7-1.1 2.8-1.1c1.1 0 2 .4 2.7 1.1c.8 .7 1.1 1.6 1.1 2.7v18.5c0 2.8 .5 5.1 1.6 7c1 1.8 2.5 3.2 4.3 4c1.8 .9 3.8 1.3 6.1 1.3c2.2 0 4-0.4 5.7-1.3c1.7-0.8 3-2 4-3.4c.6-0.9 1.1-1.9 1.3-3v-23.1c0-1.1 .4-2.1 1.1-2.8c.8-0.7 1.7-1 2.8-1c1.2 0 2.1 .3 2.8 1c.7 .7 1 1.6 1 2.8v33.5c0 1.1-0.3 2-1 2.8c-0.7 .7-1.7 1-2.8 1c-1.1 0-2-0.3-2.8-1.1c-0.7-0.8-1.1-1.7-1.1-2.8v-0.5c-1.1 1-2.3 1.9-3.6 2.6c-2.8 1.5-5.7 2.2-9.1 2.2Zm109.1-0.4c-1.1 0-2-0.3-2.8-1.1c-0.7-0.8-1.1-1.7-1.1-2.8v-33.3c0-1.1 .4-2.1 1.1-2.8c.8-0.7 1.7-1.1 2.8-1.1c1.2 0 2.1 .4 2.8 1.1c.7 .7 1 1.6 1 2.8v33.4c0 1.1-0.3 2-1 2.8c-0.7 .7-1.7 1-2.8 1Zm1063.9 .4c-3.5 0-6.6-0.7-9.3-2.2c-2.7-1.5-4.8-3.7-6.4-6.5c-1.6-2.9-2.3-6.4-2.3-10.5v-18.5c0-1.1 .4-2 1.1-2.7c.8-0.8 1.7-1.1 2.8-1.1c1.1 0 2 .4 2.7 1.1c.8 .7 1.1 1.6 1.1 2.7v18.5c0 2.8 .5 5.1 1.6 7c1 1.8 2.5 3.2 4.3 4c1.8 .9 3.8 1.3 6.1 1.3c2.2 0 4-0.4 5.7-1.3c1.7-0.8 3.1-2 4.1-3.4c.6-0.9 1.1-1.9 1.3-3v-23.1c0-1.1 .3-2.1 1-2.8c.8-0.7 1.7-1 2.8-1c1.2 0 2.1 .3 2.8 1c.7 .7 1.1 1.6 1.1 2.8v33.5c0 1.1-0.4 2-1.1 2.8c-0.7 .7-1.7 1-2.8 1c-1.1 0-2-0.3-2.8-1.1c-0.7-0.8-1-1.7-1-2.8v-0.5c-1.1 1-2.3 1.9-3.6 2.6c-2.9 1.5-5.8 2.2-9.2 2.2Zm109.1-0.4c-1.1 0-2-0.3-2.8-1.1c-0.7-0.8-1-1.7-1-2.8v-33.3c0-1.1 .3-2.1 1-2.8c.8-0.7 1.7-1.1 2.8-1.1c1.2 0 2.1 .4 2.8 1.1c.7 .7 1.1 1.6 1.1 2.8v33.4c0 1.1-0.4 2-1.1 2.8c-0.7 .7-1.7 1-2.8 1Zm1054.4-1.8c2.7 1.5 5.8 2.2 9.3 2.2c3.4 0 6.3-0.7 9.2-2.2c1.3-0.7 2.5-1.6 3.6-2.6v.5c0 1.1 .3 2 1 2.8c.8 .8 1.7 1.1 2.8 1.1c1.1 0 2.1-0.3 2.8-1c.7-0.8 1.1-1.7 1.1-2.8v-33.5c0-1.2-0.4-2.1-1.1-2.8c-0.7-0.7-1.6-1-2.8-1c-1.1 0-2 .3-2.8 1c-0.7 .7-1 1.7-1 2.8v23.1c-0.2 1.1-0.7 2.1-1.3 3c-1 1.4-2.4 2.6-4.1 3.4c-1.7 .9-3.5 1.3-5.7 1.3c-2.3 0-4.3-0.4-6.1-1.3c-1.8-0.8-3.3-2.2-4.3-4c-1.1-1.9-1.6-4.2-1.6-7v-18.5c0-1.1-0.3-2-1.1-2.7c-0.7-0.7-1.6-1.1-2.7-1.1c-1.1 0-2 .3-2.8 1.1c-0.7 .7-1.1 1.6-1.1 2.7v18.5c0 4.1 .7 7.6 2.3 10.5c1.6 2.8 3.7 5 6.4 6.5Zm115.6 .7c.8 .8 1.7 1.1 2.8 1.1c1.1 0 2.1-0.3 2.8-1c.7-0.8 1.1-1.7 1.1-2.8v-33.4c0-1.2-0.4-2.1-1.1-2.8c-0.7-0.7-1.6-1.1-2.8-1.1c-1.1 0-2 .4-2.8 1.1c-0.7 .7-1 1.7-1 2.8v33.3c0 1.1 .3 2 1 2.8Zm-2289.2 19.1c-0.5 0-1.1-0.2-1.8-0.4c-2.2-1-2.8-2.6-1.8-4.7l7.5-16.9l-16.9-32c-0.5-1-0.6-1.8-0.2-2.7c.4-0.9 1.1-1.5 2-1.9c1-0.4 1.9-0.4 2.7-0.1c.8 .3 1.5 .9 1.9 1.9l13.8 27.4l12.1-27.4c1-2.1 2.6-2.7 4.7-1.8c2.2 1 2.9 2.5 1.9 4.7l-23 51.6c-0.5 1.5-1.5 2.3-2.9 2.3Zm444.8 0c-0.5 0-1.1-0.2-1.8-0.4c-2.2-1-2.8-2.6-1.8-4.7l7.5-16.9l-16.9-32c-0.5-1-0.6-1.8-0.2-2.7c.4-0.9 1.1-1.5 2-1.9c1-0.4 1.8-0.4 2.7-0.1c.8 .3 1.5 .9 2 1.9l13.7 27.3l12.1-27.3c1-2.1 2.6-2.7 4.7-1.8c2.2 1 2.9 2.5 1.9 4.7l-23 51.6c-0.5 1.5-1.5 2.3-2.9 2.3Zm728.2 0c-0.5 0-1.1-0.2-1.8-0.4c-2.2-1-2.8-2.6-1.8-4.7l7.5-17l-16.8-31.9c-0.5-1-0.6-1.8-0.2-2.7c.4-0.9 1.1-1.5 2-1.9c.9-0.4 1.8-0.4 2.7-0.1c.8 .3 1.5 .9 2 1.9l13.7 27.2l12-27.2c1-2.1 2.6-2.7 4.7-1.8c2.2 1 2.9 2.5 1.9 4.7l-22.9 51.6c-0.6 1.5-1.6 2.3-3 2.3Zm444.8 0c-0.5 0-1.1-0.2-1.8-0.4c-2.2-1-2.8-2.6-1.8-4.7l7.5-16.9l-16.9-32c-0.5-1-0.6-1.8-0.2-2.7c.4-0.9 1.1-1.5 2-1.9c1-0.4 1.8-0.4 2.7-0.1c.8 .3 1.5 .9 1.9 1.9l13.8 27.4l12.1-27.4c1-2.1 2.6-2.7 4.7-1.8c2.2 1 2.9 2.5 1.9 4.7l-23 51.6c-0.5 1.5-1.5 2.3-2.9 2.3Zm726.2-0.4c.7 .2 1.3 .4 1.8 .4c1.4 0 2.4-0.8 3-2.3l22.9-51.6c1-2.2 .3-3.7-1.9-4.7c-2.1-0.9-3.7-0.3-4.7 1.8l-12 27.2l-13.7-27.2c-0.5-1-1.2-1.6-2-1.9c-0.9-0.3-1.8-0.3-2.7 .1c-0.9 .4-1.6 1-2 1.9c-0.4 .9-0.3 1.7 .2 2.7l16.8 31.9l-7.5 17c-1 2.1-0.4 3.7 1.8 4.7Zm444.8 0c.7 .2 1.3 .4 1.8 .4c1.4 0 2.4-0.8 2.9-2.3l23-51.6c1-2.2 .3-3.7-1.9-4.7c-2.1-0.9-3.7-0.3-4.7 1.8l-12.1 27.4l-13.8-27.4c-0.4-1-1.1-1.6-1.9-1.9c-0.9-0.3-1.7-0.3-2.7 .1c-0.9 .4-1.6 1-2 1.9c-0.4 .9-0.3 1.7 .2 2.7l16.9 32l-7.5 16.9c-1 2.1-0.4 3.7 1.8 4.7Zm-2232.4-17.7c-1.5 0-2.8-0.8-3.6-2.5l-15.9-33.5c-0.4-0.8-0.5-1.7-0.1-2.5c.3-0.9 1-1.5 1.9-2c.9-0.5 1.7-0.5 2.6-0.2c.9 .3 1.6 .9 2 1.7l13.1 28.1l12.8-28c.5-0.8 1.1-1.4 2-1.7c.9-0.3 1.9-0.2 2.8 .2c.9 .4 1.5 1 1.8 1.9c.3 .9 .2 1.7-0.1 2.5l-15.9 33.5c-0.7 1.7-1.8 2.5-3.4 2.5Zm1173 0c-1.5 0-2.8-0.8-3.6-2.5l-15.9-33.5c-0.4-0.8-0.4-1.7-0.1-2.5c.3-0.9 1-1.5 1.9-2c.8-0.5 1.7-0.5 2.6-0.2c.9 .3 1.6 .9 2 1.7l13 28.1l12.9-28.1c.4-0.8 1.1-1.4 2-1.7c.9-0.3 1.9-0.2 2.8 .2c.9 .4 1.5 1 1.8 1.9c.3 .8 .2 1.7-0.1 2.5l-15.9 33.5c-0.7 1.8-1.8 2.6-3.4 2.6Zm1169.2-2.5c.8 1.7 2.1 2.5 3.6 2.5c1.6 0 2.7-0.8 3.4-2.6l15.9-33.5c.3-0.8 .4-1.7 .1-2.5c-0.3-0.9-0.9-1.5-1.8-1.9c-0.9-0.4-1.9-0.5-2.8-0.2c-0.9 .3-1.6 .9-2 1.7l-12.9 28.1l-13-28.1c-0.4-0.8-1.1-1.4-2-1.7c-0.9-0.3-1.8-0.3-2.6 .2c-0.9 .5-1.6 1.1-1.9 2c-0.3 .8-0.3 1.7 .1 2.5Zm-2394.4-25.2c-0.6 1.2-1 2.5-1.3 3.9h25.1c-0.2-1.7-0.7-3.2-1.4-4.6c-1-2-2.3-3.6-4-4.7c-1.8-1.1-3.9-1.7-6.4-1.7c-2.9 0-5.3 .6-7.4 1.9c-2 1.2-3.5 3-4.6 5.2Zm83.1 0c-0.6 1.2-1 2.5-1.3 3.9h25.1c-0.2-1.7-0.7-3.2-1.4-4.6c-1-2-2.3-3.6-4-4.7c-1.8-1.1-3.9-1.7-6.4-1.7c-2.9 0-5.3 .6-7.4 1.9c-2 1.2-3.5 3-4.6 5.2Zm274 0c-0.6 1.2-1 2.5-1.3 3.9h25c-0.2-1.7-0.7-3.2-1.3-4.6c-1-2-2.3-3.6-4.1-4.7c-1.8-1.1-3.9-1.7-6.4-1.7c-2.8 0-5.3 .6-7.3 1.9c-2 1.2-3.5 3-4.6 5.2Zm816.1 0c-0.6 1.2-1 2.5-1.3 3.9h25c-0.2-1.7-0.7-3.2-1.3-4.6c-0.9-2-2.3-3.6-4.1-4.7c-1.8-1.1-3.9-1.7-6.4-1.7c-2.8 0-5.3 .6-7.3 1.9c-2 1.2-3.5 3-4.6 5.2Zm82.9 0c-0.6 1.2-1 2.5-1.3 3.9h25.1c-0.2-1.7-0.7-3.2-1.4-4.6c-0.9-2-2.3-3.6-4-4.7c-1.8-1.1-3.9-1.7-6.4-1.7c-2.9 0-5.3 .6-7.4 1.9c-2 1.2-3.5 3-4.6 5.2Zm273.7 0c-0.6 1.2-1 2.5-1.3 3.9h25.1c-0.2-1.7-0.7-3.2-1.3-4.6c-0.9-2-2.3-3.6-4.1-4.7c-1.8-1.1-3.9-1.7-6.4-1.7c-2.9 0-5.3 .6-7.4 1.9c-2 1.2-3.5 3-4.6 5.2Zm-1812.6 21.4c2.5 0 4.8-0.6 6.8-1.8c2-1.2 3.6-2.9 4.7-5.1c1.1-2.2 1.7-4.6 1.7-7.2c0-2.7-0.6-5.1-1.7-7.2c-1.1-2.1-2.7-3.8-4.7-5c-2-1.2-4.3-1.9-6.8-1.9c-2.5 0-4.8 .6-6.8 1.9c-2 1.2-3.6 2.9-4.8 5c-1.2 2.1-1.7 4.5-1.7 7.2c0 2.6 .6 5 1.7 7.2c1.2 2.2 2.8 3.8 4.8 5.1c2 1.1 4.3 1.8 6.8 1.8Zm600.4 0c2.5 0 4.8-0.6 6.8-1.8c2-1.2 3.6-2.9 4.7-5.1c1.2-2.2 1.7-4.6 1.7-7.2c0-2.7-0.6-5.1-1.7-7.2c-1.1-2.1-2.7-3.8-4.7-5c-2-1.2-4.3-1.9-6.8-1.9c-2.5 0-4.8 .6-6.8 1.9c-2 1.2-3.6 2.9-4.8 5c-1.2 2.1-1.7 4.5-1.7 7.2c0 2.6 .6 5 1.7 7.2c1.2 2.2 2.8 3.8 4.8 5.1c2.1 1.1 4.3 1.8 6.8 1.8Zm572.6 0c2.6 0 4.8-0.6 6.8-1.8c2-1.2 3.6-2.9 4.7-5.1c1.1-2.2 1.7-4.6 1.7-7.2c0-2.7-0.6-5.1-1.7-7.2c-1.1-2.1-2.7-3.8-4.7-5c-2-1.2-4.3-1.9-6.8-1.9c-2.5 0-4.8 .6-6.8 1.9c-2 1.2-3.6 2.9-4.8 5c-1.1 2.1-1.7 4.5-1.7 7.2c0 2.6 .6 5 1.7 7.2c1.2 2.2 2.8 3.8 4.8 5.1c2 1.1 4.3 1.8 6.8 1.8Zm600.4 0c2.6 0 4.8-0.6 6.8-1.8c2-1.2 3.6-2.9 4.7-5.1c1.2-2.2 1.7-4.6 1.7-7.2c0-2.7-0.6-5.1-1.7-7.2c-1.1-2.1-2.7-3.8-4.7-5c-2-1.2-4.3-1.9-6.8-1.9c-2.5 0-4.8 .6-6.8 1.9c-2 1.2-3.6 2.9-4.8 5c-1.1 2.1-1.7 4.5-1.7 7.2c0 2.6 .6 5 1.7 7.2c1.2 2.2 2.8 3.8 4.8 5.1c2.1 1.1 4.3 1.8 6.8 1.8Zm579.2-1.8c-2 1.2-4.2 1.8-6.8 1.8c-2.5 0-4.8-0.7-6.8-1.8c-2-1.3-3.6-2.9-4.8-5.1c-1.1-2.2-1.7-4.6-1.7-7.2c0-2.7 .6-5.1 1.7-7.2c1.2-2.1 2.8-3.8 4.8-5c2-1.3 4.3-1.9 6.8-1.9c2.5 0 4.8 .7 6.8 1.9c2 1.2 3.6 2.9 4.7 5c1.1 2.1 1.7 4.5 1.7 7.2c0 2.6-0.6 5-1.7 7.2c-1.1 2.2-2.7 3.9-4.7 5.1Zm600.4 0c-2 1.2-4.2 1.8-6.8 1.8c-2.5 0-4.7-0.7-6.8-1.8c-2-1.3-3.6-2.9-4.8-5.1c-1.1-2.2-1.7-4.6-1.7-7.2c0-2.7 .6-5.1 1.7-7.2c1.2-2.1 2.8-3.8 4.8-5c2-1.3 4.3-1.9 6.8-1.9c2.5 0 4.8 .7 6.8 1.9c2 1.2 3.6 2.9 4.7 5c1.1 2.1 1.7 4.5 1.7 7.2c0 2.6-0.5 5-1.7 7.2c-1.1 2.2-2.7 3.9-4.7 5.1Zm-3387.9 1.8c2.6 0 4.8-0.6 6.8-1.8c2-1.2 3.6-2.9 4.7-5c1.1-2.2 1.7-4.5 1.7-7.2c0-2.7-0.6-5.1-1.7-7.2c-1.2-2.2-2.7-3.8-4.7-5c-2-1.2-4.3-1.9-6.8-1.9c-2.5 0-4.8 .6-6.8 1.9c-2 1.2-3.6 2.9-4.8 5c-1.1 2.1-1.7 4.5-1.7 7.2c0 2.6 .6 5 1.7 7.2c1.2 2.1 2.8 3.8 4.8 5c2.1 1.1 4.3 1.8 6.8 1.8Zm102.3 0c2.5 0 4.8-0.6 6.8-1.8c2-1.2 3.6-2.9 4.7-5c1.2-2.2 1.7-4.5 1.7-7.2c0-2.7-0.6-5.1-1.7-7.2c-1.1-2.2-2.7-3.8-4.7-5c-2-1.2-4.3-1.9-6.8-1.9c-2.5 0-4.8 .6-6.8 1.9c-2 1.2-3.6 2.9-4.8 5c-1.2 2.1-1.7 4.5-1.7 7.2c0 2.6 .6 5 1.7 7.2c1.2 2.1 2.8 3.8 4.8 5c2 1.1 4.3 1.8 6.8 1.8Zm183.2 0c2.6 0 4.9-0.6 6.9-1.8c2-1.2 3.6-2.8 4.7-4.9c1.1-2.1 1.7-4.5 1.7-7.3c0-2.8-0.6-5.2-1.7-7.3c-1.1-2.2-2.7-3.8-4.7-5c-2-1.2-4.3-1.8-6.9-1.8c-2.6 0-4.9 .6-6.9 1.8c-2 1.2-3.6 2.9-4.7 5c-1.1 2.1-1.7 4.5-1.7 7.3c0 2.8 .6 5.2 1.7 7.3c1.1 2.1 2.7 3.8 4.7 4.9c2 1.1 4.3 1.8 6.9 1.8Zm49.8 0c2.6 0 4.9-0.6 6.9-1.8c2-1.2 3.6-2.8 4.6-4.9c1.2-2.1 1.7-4.5 1.7-7.3c0-2.8-0.6-5.2-1.7-7.3c-1.1-2.2-2.6-3.8-4.6-5c-2-1.2-4.3-1.8-6.9-1.8c-2.6 0-4.9 .6-6.9 1.8c-2 1.2-3.6 2.9-4.7 5c-1.1 2.1-1.7 4.5-1.7 7.3c0 2.8 .6 5.2 1.7 7.3c1.1 2.1 2.7 3.8 4.7 4.9c2 1.1 4.3 1.8 6.9 1.8Zm49.8 0c2.6 0 4.9-0.6 6.9-1.8c2-1.2 3.5-2.8 4.6-4.9c1.1-2.1 1.7-4.5 1.7-7.3c0-2.8-0.6-5.2-1.7-7.3c-1.1-2.2-2.6-3.8-4.6-5c-2-1.2-4.3-1.8-6.9-1.8c-2.6 0-4.9 .6-6.9 1.8c-2 1.2-3.6 2.9-4.7 5c-1.2 2.1-1.7 4.5-1.7 7.3c0 2.8 .6 5.2 1.7 7.3c1.1 2.1 2.7 3.8 4.7 4.9c2 1.1 4.3 1.8 6.9 1.8Zm162.8 0c2.6 0 4.9-0.6 6.9-1.8c2-1.2 3.5-2.8 4.6-4.9c1.2-2.1 1.7-4.5 1.7-7.3c0-2.8-0.6-5.2-1.7-7.3c-1.1-2.2-2.6-3.8-4.6-5c-2-1.2-4.3-1.8-6.9-1.8c-2.6 0-4.9 .6-6.9 1.8c-2 1.2-3.6 2.9-4.7 5c-1.2 2.1-1.7 4.5-1.7 7.3c0 2.8 .6 5.2 1.7 7.3c1.2 2.1 2.7 3.8 4.7 4.9c2 1.1 4.3 1.8 6.9 1.8Zm437.6 0c2.6 0 4.8-0.6 6.8-1.8c2-1.2 3.6-2.9 4.7-5c1.2-2.2 1.7-4.5 1.7-7.2c0-2.7-0.6-5.1-1.7-7.2c-1.2-2.2-2.7-3.8-4.7-5c-2-1.2-4.3-1.9-6.8-1.9c-2.5 0-4.8 .6-6.8 1.9c-2 1.2-3.6 2.9-4.8 5c-1.1 2.1-1.7 4.5-1.7 7.2c0 2.6 .6 5 1.7 7.2c1.2 2.1 2.8 3.8 4.8 5c2.1 1.1 4.3 1.8 6.8 1.8Zm187.5 0c2.6 0 4.8-0.6 6.8-1.8c2-1.2 3.6-2.9 4.7-5c1.2-2.2 1.7-4.5 1.7-7.2c0-2.7-0.6-5.1-1.7-7.2c-1.2-2.2-2.7-3.8-4.7-5c-2-1.2-4.3-1.9-6.8-1.9c-2.5 0-4.8 .6-6.8 1.9c-2 1.2-3.6 2.9-4.8 5c-1.2 2.1-1.7 4.5-1.7 7.2c0 2.6 .6 5 1.7 7.2c1.2 2.1 2.8 3.8 4.8 5c2.1 1.1 4.3 1.8 6.8 1.8Zm102.3 0c2.5 0 4.8-0.6 6.8-1.8c2-1.2 3.6-2.9 4.7-5c1.2-2.2 1.7-4.5 1.7-7.2c0-2.7-0.6-5.1-1.7-7.2c-1.2-2.2-2.7-3.8-4.7-5c-2-1.2-4.3-1.9-6.8-1.9c-2.5 0-4.8 .6-6.8 1.9c-2 1.2-3.6 2.9-4.8 5c-1.2 2.1-1.7 4.5-1.7 7.2c0 2.6 .6 5 1.7 7.2c1.2 2.1 2.8 3.8 4.8 5c2 1.1 4.3 1.8 6.8 1.8Zm183.2 0c2.6 0 4.9-0.6 6.9-1.8c2-1.2 3.6-2.8 4.7-4.9c1.2-2.1 1.7-4.5 1.7-7.3c0-2.8-0.6-5.2-1.7-7.3c-1.1-2.2-2.7-3.8-4.7-5c-2-1.2-4.3-1.8-6.9-1.8c-2.6 0-4.9 .6-6.9 1.8c-2 1.2-3.6 2.9-4.7 5c-1.1 2.1-1.7 4.5-1.7 7.3c0 2.8 .6 5.2 1.7 7.3c1.2 2.1 2.7 3.8 4.7 4.9c2 1.1 4.3 1.8 6.9 1.8Zm49.8 0c2.6 0 4.9-0.6 6.9-1.8c2-1.2 3.5-2.8 4.7-4.9c1.1-2.1 1.7-4.5 1.7-7.3c0-2.8-0.6-5.2-1.7-7.3c-1.1-2.2-2.7-3.8-4.7-5c-2-1.2-4.3-1.8-6.9-1.8c-2.6 0-4.9 .6-6.9 1.8c-2 1.2-3.6 2.9-4.7 5c-1.2 2.1-1.7 4.5-1.7 7.3c0 2.8 .6 5.2 1.7 7.3c1.2 2.1 2.7 3.8 4.7 4.9c2 1.1 4.3 1.8 6.9 1.8Zm49.8 0c2.6 0 4.9-0.6 6.9-1.8c2-1.2 3.5-2.8 4.6-4.9c1.2-2.1 1.7-4.5 1.7-7.3c0-2.8-0.6-5.2-1.7-7.3c-1.1-2.2-2.6-3.8-4.6-5c-2-1.2-4.3-1.8-6.9-1.8c-2.6 0-4.9 .6-6.9 1.8c-2 1.2-3.6 2.9-4.7 5c-1.2 2.1-1.7 4.5-1.7 7.3c0 2.8 .6 5.2 1.7 7.3c1.1 2.1 2.7 3.8 4.7 4.9c2 1.1 4.3 1.8 6.9 1.8Zm162.8 0c2.6 0 4.9-0.6 6.9-1.8c2-1.2 3.5-2.8 4.6-4.9c1.2-2.1 1.7-4.5 1.7-7.3c0-2.8-0.6-5.2-1.7-7.3c-1.1-2.2-2.6-3.8-4.6-5c-2-1.2-4.3-1.8-6.9-1.8c-2.6 0-4.9 .6-6.9 1.8c-2 1.2-3.6 2.9-4.7 5c-1.2 2.1-1.7 4.5-1.7 7.3c0 2.8 .6 5.2 1.7 7.3c1.2 2.1 2.7 3.8 4.7 4.9c2 1.1 4.3 1.8 6.9 1.8Zm437.7 0c2.5 0 4.8-0.6 6.8-1.8c2-1.2 3.6-2.9 4.7-5c1.2-2.2 1.7-4.5 1.7-7.2c0-2.7-0.6-5.1-1.7-7.2c-1.1-2.2-2.7-3.8-4.7-5c-2-1.2-4.3-1.9-6.8-1.9c-2.5 0-4.8 .6-6.8 1.9c-2 1.2-3.6 2.9-4.8 5c-1.1 2.1-1.7 4.5-1.7 7.2c0 2.6 .6 5 1.7 7.2c1.2 2.1 2.8 3.8 4.8 5c2 1.1 4.3 1.8 6.8 1.8Zm194-1.8c-2 1.2-4.2 1.8-6.8 1.8c-2.5 0-4.7-0.7-6.8-1.8c-2-1.2-3.6-2.9-4.8-5c-1.1-2.2-1.7-4.6-1.7-7.2c0-2.7 .5-5.1 1.7-7.2c1.2-2.1 2.8-3.8 4.8-5c2-1.3 4.3-1.9 6.8-1.9c2.5 0 4.8 .7 6.8 1.9c2 1.2 3.5 2.8 4.7 5c1.1 2.1 1.7 4.5 1.7 7.2c0 2.7-0.5 5-1.7 7.2c-1.1 2.1-2.7 3.8-4.7 5Zm102.3 0c-2 1.2-4.3 1.8-6.8 1.8c-2.5 0-4.8-0.7-6.8-1.8c-2-1.2-3.6-2.9-4.8-5c-1.1-2.2-1.7-4.6-1.7-7.2c0-2.7 .5-5.1 1.7-7.2c1.2-2.1 2.8-3.8 4.8-5c2-1.3 4.3-1.9 6.8-1.9c2.5 0 4.8 .7 6.8 1.9c2 1.2 3.5 2.8 4.7 5c1.1 2.1 1.7 4.5 1.7 7.2c0 2.7-0.5 5-1.7 7.2c-1.1 2.1-2.7 3.8-4.7 5Zm183.3 0c-2 1.2-4.3 1.8-6.9 1.8c-2.6 0-4.9-0.7-6.9-1.8c-2-1.1-3.5-2.8-4.7-4.9c-1.1-2.1-1.7-4.5-1.7-7.3c0-2.8 .6-5.2 1.7-7.3c1.1-2.1 2.7-3.8 4.7-5c2-1.2 4.3-1.8 6.9-1.8c2.6 0 4.9 .6 6.9 1.8c2 1.2 3.6 2.8 4.7 5c1.1 2.1 1.7 4.5 1.7 7.3c0 2.8-0.5 5.2-1.7 7.3c-1.1 2.1-2.7 3.7-4.7 4.9Zm49.8 0c-2 1.2-4.3 1.8-6.9 1.8c-2.6 0-4.9-0.7-6.9-1.8c-2-1.1-3.5-2.8-4.7-4.9c-1.1-2.1-1.7-4.5-1.7-7.3c0-2.8 .5-5.2 1.7-7.3c1.1-2.1 2.7-3.8 4.7-5c2-1.2 4.3-1.8 6.9-1.8c2.6 0 4.9 .6 6.9 1.8c2 1.2 3.6 2.8 4.7 5c1.1 2.1 1.7 4.5 1.7 7.3c0 2.8-0.6 5.2-1.7 7.3c-1.2 2.1-2.7 3.7-4.7 4.9Zm49.8 0c-2 1.2-4.3 1.8-6.9 1.8c-2.6 0-4.9-0.7-6.9-1.8c-2-1.1-3.6-2.8-4.7-4.9c-1.1-2.1-1.7-4.5-1.7-7.3c0-2.8 .5-5.2 1.7-7.3c1.1-2.1 2.7-3.8 4.7-5c2-1.2 4.3-1.8 6.9-1.8c2.6 0 4.9 .6 6.9 1.8c2 1.2 3.5 2.8 4.6 5c1.1 2.1 1.7 4.5 1.7 7.3c0 2.8-0.5 5.2-1.7 7.3c-1.1 2.1-2.6 3.7-4.6 4.9Zm162.8 0c-2 1.2-4.3 1.8-6.9 1.8c-2.6 0-4.9-0.7-6.9-1.8c-2-1.1-3.5-2.8-4.7-4.9c-1.1-2.1-1.7-4.5-1.7-7.3c0-2.8 .5-5.2 1.7-7.3c1.1-2.1 2.7-3.8 4.7-5c2-1.2 4.3-1.8 6.9-1.8c2.6 0 4.9 .6 6.9 1.8c2 1.2 3.5 2.8 4.6 5c1.1 2.1 1.7 4.5 1.7 7.3c0 2.8-0.5 5.2-1.7 7.3c-1.1 2.1-2.6 3.7-4.6 4.9Zm437.6 0c-2 1.2-4.3 1.8-6.8 1.8c-2.5 0-4.8-0.7-6.8-1.8c-2-1.2-3.6-2.9-4.8-5c-1.1-2.2-1.7-4.6-1.7-7.2c0-2.7 .6-5.1 1.7-7.2c1.2-2.1 2.8-3.8 4.8-5c2-1.3 4.3-1.9 6.8-1.9c2.5 0 4.8 .7 6.8 1.9c2 1.2 3.6 2.8 4.7 5c1.1 2.1 1.7 4.5 1.7 7.2c0 2.7-0.5 5-1.7 7.2c-1.1 2.1-2.7 3.8-4.7 5Z" fill-rule="evenodd" style="animation: 6s linear infinite both a0_t;"/></svg>