<svg xmlns="http://www.w3.org/2000/svg" viewBox="0 0 122 1490"><style>
@keyframes a0_t { 0% { transform: translate(19px,18.7px); } 100% { transform: translate(19px,-1164.3px); } }
</style><g><path class="st0" d="M118 1486v-1482h-114v1482h114Z" fill="#fad1d1"/><path class="st1" d="M121.9 1489.9h-121.8v-1489.8h121.8v1489.8Zm-114-7.8h106.2v-1474.2h-106.2v1474.2Z" fill="#010101"/></g><g transform="translate(19,18.7)" style="animation: 8s linear infinite both a0_t;"><path d="M1.6 34.7c-0.7 .7-1.1 1.7-1.1 2.8c0 1.1 .3 2 1.1 2.8c.7 .7 1.6 1 2.7 1h34.2c3.9 0 7.5-1 10.7-2.7c3.1-1.8 5.6-4.3 7.4-7.4c1.9-3.1 2.8-6.6 2.8-10.5c0-3.9-1-7.5-2.8-10.6c-1.8-3.1-4.2-5.5-7.4-7.4c-3.2-1.8-6.8-2.7-10.7-2.7c-3.9 0-7.5 .9-10.6 2.5c-3.1 1.7-5.6 4-7.4 6.9c-1.8 2.9-2.7 6.2-2.7 9.8c0 3 .6 5.7 1.8 8.2c1.2 2.5 2.9 4.6 5 6.3h-20.3c-1.1 0-2 .3-2.7 1Zm24.7-7.3c-1.2-2-1.8-4.2-1.8-6.8c0-2.5 .5-4.7 1.8-6.8c1.2-2 2.9-3.6 5-4.8c2.2-1.1 4.6-1.7 7.2-1.7c2.7 0 5.1 .6 7.2 1.7c2.1 1.2 3.8 2.8 5 4.8c1.3 2 1.9 4.3 1.9 6.8c0 2.5-0.7 4.8-1.9 6.8c-1.2 2-2.9 3.5-5 4.7c-2.1 1.1-4.5 1.7-7.2 1.7c-2.7 0-5.1-0.6-7.2-1.7c-2.1-1.1-3.8-2.7-5-4.7Zm-6.5 34.5c-1.5 2.7-2.2 5.8-2.2 9.3c0 3.4 .7 6.3 2.3 9.1c.7 1.3 1.6 2.5 2.6 3.6h-0.7c-1.1 0-2 .4-2.8 1.1c-0.7 .8-1 1.7-1 2.8c0 1.1 .3 2.1 1 2.8c.8 .7 1.7 1 2.8 1h33.5c1.2 0 2.1-0.3 2.8-1c.7-0.7 1-1.6 1-2.8c0-1.1-0.3-2-1-2.8c-0.7-0.7-1.6-1.1-2.8-1.1h-23c-1.1-0.2-2-0.7-3-1.3c-1.5-1-2.6-2.3-3.5-4c-0.9-1.7-1.3-3.5-1.3-5.7c0-2.3 .5-4.3 1.3-6.1c.9-1.8 2.2-3.3 4-4.3c1.9-1.1 4.2-1.6 7-1.6h18.5c1.1 0 2-0.3 2.7-1.1c.7-0.7 1.1-1.6 1.1-2.7c0-1.1-0.3-2-1.1-2.8c-0.7-0.7-1.6-1.1-2.7-1.1h-18.5c-4.2 0-7.7 .7-10.5 2.3c-2.8 1.6-5 3.7-6.5 6.4Zm.6 49.7c-1.8 2.9-2.7 6.1-2.7 9.8c0 3.6 .9 6.9 2.7 9.8c1.1 1.8 2.4 3.3 4 4.6h-2.7c-1.1 0-2 .4-2.8 1.1c-0.6 .8-1 1.7-1 2.8c0 1.1 .4 2 1.1 2.6c.8 .7 1.7 1.1 2.8 1.1h16.6v.1c4 0 7.5-0.9 10.7-2.8c3.1-1.8 5.6-4.2 7.4-7.3c1.9-3.1 2.8-6.6 2.8-10.5c0-3.9-1-7.4-2.8-10.6c-1.8-3.1-4.2-5.6-7.4-7.4c-3.2-1.8-6.8-2.7-10.7-2.7c-3.9 0-7.5 .8-10.6 2.5c-3.1 1.7-5.6 4-7.4 6.9Zm5.9 18.1c-1.2-2-1.8-4.3-1.8-6.8c0-2.5 .5-4.8 1.8-6.8c1.2-2 2.9-3.6 5-4.8c2.2-1.1 4.6-1.7 7.2-1.7c2.7 0 5.1 .5 7.2 1.7c2.1 1.2 3.8 2.8 5 4.8c1.3 2 1.9 4.3 1.9 6.8c0 2.5-0.7 4.8-1.9 6.8c-1.2 2-2.9 3.6-5 4.7c-2.1 1.1-4.5 1.7-7.2 1.7c-2.7 0-5.1-0.5-7.2-1.7c-2.1-1.1-3.8-2.7-5-4.7Zm-6.5 28.3c-1.2 1.7-1.8 3.6-1.8 5.8h.1v.4c0 1.5 .3 2.8 1 3.7c.7 .9 1.6 1.4 2.7 1.4c1.1 0 2-0.4 2.7-1c.7-0.6 1-1.4 1-2.4v-1.9c0-1.1 .6-2 1.8-2.7c1.2-0.7 2.8-1.1 4.6-1.1h40.9c1.1 0 2-0.4 2.7-1.1c.7-0.7 1-1.6 1-2.7c0-1.1-0.3-2-1-2.7c-0.7-0.7-1.6-1.1-2.7-1.1h-40.9c-2.7 0-5.1 .5-7.2 1.4c-2.1 1-3.7 2.3-4.9 4Zm47.3 18.8c-0.9 1-1.4 2.2-1.4 3.5c0 1.3 .5 2.5 1.4 3.4c1 1 2.2 1.5 3.5 1.5c1.3 0 2.5-0.5 3.4-1.5c1-0.9 1.5-2 1.5-3.4c0-1.3-0.5-2.5-1.5-3.5c-0.9-0.9-2.1-1.4-3.4-1.4c-1.3 0-2.5 .5-3.5 1.4Zm-48.1 .7c-0.7 .8-1 1.7-1 2.8c0 1.1 .3 2.1 1 2.8c.8 .7 1.7 1 2.8 1h33.4c1.2 0 2.1-0.3 2.8-1c.8-0.7 1.1-1.6 1.1-2.8c0-1.1-0.4-2-1.1-2.8c-0.7-0.7-1.6-1.1-2.8-1.1h-33.4c-1.1 0-2 .4-2.8 1.1Zm33 15.7c-0.6 .7-0.9 1.5-0.9 2.6v3.4h-18.6c-2.7 0-5.2 .5-7.4 1.7c-2.2 1.1-3.9 2.7-5.2 4.7c-1.3 2-1.9 4.3-1.9 6.8h.1v1.5c0 1.3 .3 2.3 1 3.1c.7 .9 1.6 1.3 2.7 1.3c1.1 0 2-0.3 2.7-1c.7-0.5 1-1.3 1-2.2v-2.6c0-1.6 .6-2.9 2-4c1.3-1.1 3-1.7 5-1.7h18.6v6.3c0 1.1 .4 1.9 .9 2.6c.5 .7 1.3 1 2.2 1c1 0 1.8-0.3 2.4-1c.6-0.7 .9-1.5 .9-2.6v-6.3h10.8c1.1 0 2-0.4 2.7-1.1c.7-0.7 1-1.6 1-2.7c0-1.1-0.3-2-1-2.7c-0.7-0.7-1.6-1.1-2.7-1.1h-10.8v-3.4c0-1.1-0.3-1.9-0.9-2.6c-0.6-0.7-1.4-1-2.4-1c-0.9 0-1.6 .4-2.2 1Zm-22.5 48.1l27.4 12.1c2.1 1 2.7 2.6 1.8 4.7c-1 2.2-2.5 2.9-4.7 1.9l-51.6-23c-1.6-0.5-2.4-1.5-2.4-2.9c0-0.5 .1-1.1 .5-1.8c1-2.2 2.6-2.8 4.7-1.8l16.9 7.5l32-16.9c1-0.5 1.9-0.6 2.7-0.2c.9 .4 1.5 1.1 1.9 2c.4 1 .4 1.9 .1 2.7c-0.3 .8-0.9 1.5-1.9 1.9Zm-9.2 53.3c-1.7 2.9-2.6 6.2-2.6 10c0 3.5 .9 6.5 2.6 9.2c1.6 2.3 3.6 4.2 6.2 5.6h-3.8c-3.2 0-5.9-0.6-8.2-1.8c-2.3-1.2-4-2.9-5.1-4.9c-1.1-2-1.7-4.2-1.7-6.6c0-2.6 .5-4.9 1.4-7c1-2.1 2.3-3.8 4-5.1c.8-0.6 1.3-1.4 1.5-2.4c.2-1 0-1.9-0.6-2.8c-0.6-0.8-1.3-1.3-2.2-1.5c-0.9-0.1-1.7 .2-2.6 .8c-2.7 2.2-4.7 4.8-6.1 7.9c-1.4 3.1-2.1 6.5-2.1 10c0 4.1 .9 7.7 2.9 10.8c1.9 3.2 4.5 5.6 7.7 7.4c3.2 1.7 6.7 2.6 10.7 2.6h16.1l.1-0.3c4.1 0 7.6-0.9 10.7-2.7c3.1-1.8 5.5-4.2 7.3-7.3c1.8-3 2.7-6.6 2.7-10.6c0-4-0.9-7.6-2.7-10.7c-1.7-3.1-4.1-5.5-7.3-7.3c-3.1-1.7-6.7-2.6-10.8-2.6c-4 0-7.6 .9-10.8 2.5c-3.1 1.7-5.5 4-7.3 6.8Zm6 18.4c-1.2-2-1.8-4.3-1.8-6.9c0-2.6 .6-4.9 1.8-6.9c1.2-2 2.9-3.6 5-4.7c2.1-1.1 4.5-1.7 7.3-1.7c2.8 0 5.2 .6 7.3 1.7c2.1 1.1 3.8 2.7 5 4.7c1.2 2 1.8 4.3 1.8 6.9c0 2.6-0.6 4.9-1.8 6.9c-1.2 2-2.8 3.6-5 4.7c-2.1 1.1-4.5 1.7-7.3 1.7c-2.8 0-5.2-0.6-7.3-1.7c-2.2-1.1-3.8-2.7-5-4.7Zm-6 32.2c-1.7 3.1-2.6 6.7-2.6 10.7c0 4.1 .9 7.6 2.6 10.7c1.8 3.1 4.2 5.5 7.3 7.3c3.2 1.7 6.8 2.6 10.8 2.6c4.1 0 7.7-0.9 10.8-2.7c3.1-1.8 5.5-4.2 7.3-7.3c1.8-3.1 2.7-6.6 2.7-10.6c0-4-0.9-7.6-2.7-10.7c-1.7-3.2-4.1-5.6-7.3-7.4c-3.1-1.7-6.7-2.6-10.8-2.6c-4 0-7.6 .8-10.8 2.6c-3.1 1.9-5.5 4.3-7.3 7.4Zm6 17.6c-1.2-2-1.8-4.3-1.8-6.9c0-2.6 .6-4.9 1.8-6.9c1.2-2 2.9-3.6 5-4.7c2.1-1.1 4.5-1.7 7.3-1.7c2.8 0 5.2 .6 7.3 1.7c2.1 1.1 3.8 2.7 5 4.7c1.2 2 1.8 4.3 1.8 6.9c0 2.6-0.6 4.9-1.8 6.9c-1.2 2-2.8 3.5-5 4.6c-2.1 1.1-4.5 1.7-7.3 1.7c-2.8 0-5.2-0.5-7.3-1.7c-2.2-1-3.8-2.6-5-4.6Zm-6 32.2c-1.7 3.1-2.6 6.6-2.6 10.7c0 4.1 .9 7.6 2.6 10.7c1.8 3.1 4.2 5.5 7.3 7.3c3.2 1.7 6.8 2.6 10.8 2.6c4.1 0 7.7-0.9 10.8-2.7c3.1-1.8 5.5-4.2 7.3-7.3c1.8-3.1 2.7-6.6 2.7-10.6c0-4-0.9-7.6-2.7-10.7c-1.7-3.2-4.1-5.6-7.3-7.4c-3.1-1.7-6.7-2.6-10.8-2.6c-4 0-7.6 .8-10.8 2.6c-3.1 1.8-5.5 4.3-7.3 7.4Zm6 17.6c-1.2-2-1.8-4.3-1.8-6.9c0-2.6 .6-4.9 1.8-6.9c1.2-2 2.9-3.6 5-4.7c2.1-1.1 4.5-1.7 7.3-1.7c2.8 0 5.2 .5 7.3 1.7c2.1 1.1 3.8 2.7 5 4.7c1.2 2 1.8 4.3 1.8 6.9c0 2.6-0.6 4.9-1.8 6.9c-1.2 2-2.8 3.5-5 4.6c-2.1 1.1-4.5 1.7-7.3 1.7c-2.8 0-5.2-0.6-7.3-1.7c-2.2-1.1-3.8-2.6-5-4.6Zm-5.9 32.3c-1.8 3.2-2.7 6.7-2.7 10.6c0 3.9 .9 7.4 2.7 10.7c1.8 3.1 4.3 5.5 7.5 7.3c3.1 1.9 6.6 2.8 10.6 2.8h34.2c1.2 0 2.1-0.4 2.8-1.1c.7-0.7 1-1.7 1-2.8c0-1.1-0.3-2-1-2.8c-0.7-0.7-1.6-1.1-2.8-1.1h-20.2c2.1-1.7 3.7-3.8 4.9-6.3c1.3-2.5 1.9-5.3 1.9-8.2c0-3.6-1-6.9-2.8-9.8c-1.8-2.9-4.2-5.2-7.4-6.9c-3.1-1.7-6.7-2.5-10.6-2.5c-3.9 0-7.5 .9-10.6 2.7c-3.2 1.8-5.7 4.3-7.5 7.4Zm5.9 17.4c-1.2-2-1.8-4.3-1.8-6.8c0-2.5 .5-4.8 1.8-6.8c1.3-2 3-3.6 5.1-4.8c2.2-1.1 4.6-1.7 7.2-1.7c2.7 0 5.1 .5 7.2 1.7c2.1 1.2 3.7 2.8 4.9 4.8c1.3 2 1.9 4.3 1.9 6.8c0 2.5-0.7 4.8-1.9 6.8c-1.1 2-2.8 3.6-4.9 4.7c-2.1 1.1-4.5 1.7-7.2 1.7c-2.6 0-5-0.6-7.2-1.7c-2.1-1.1-3.9-2.7-5.1-4.7Zm-7 31.6c-1.1 3-1.6 6.3-1.6 9.8c0 3.6 .5 6.5 1.8 8.9c1.1 2.4 2.5 4.2 4.4 5.4c1.8 1.3 3.9 1.9 6.2 1.9c2 0 3.7-0.4 5.2-1.4c1.5-0.9 2.9-2.5 4-4.7c1.2-2.2 2.1-5.1 2.9-8.9c.5-2.7 1.1-4.7 1.6-6.1c.7-1.4 1.3-2.4 2-2.9c.8-0.5 1.6-0.7 2.5-0.7c1.5 0 2.5 .7 3.3 2.2c.7 1.5 1.1 3.4 1.1 5.6c0 1.9-0.2 3.5-0.7 5c-0.5 1.4-1.3 2.8-2.5 4c-0.6 .8-1.1 1.7-1.3 2.8c-0.2 1.1-0.1 2.1 .5 2.9c.6 .8 1.4 1.3 2.2 1.3c.9 0 1.8-0.3 2.6-1c1.8-1.5 3.2-3.5 4.3-6.1c1.1-2.6 1.6-5.5 1.6-8.8c0-2.6-0.5-5-1.3-7.4c-0.9-2.4-2.1-4.3-3.8-5.8c-1.6-1.4-3.7-2.2-6.3-2.2c-2.9 0-5.3 1.2-7.3 3.4c-2 2.3-3.5 6-4.5 11c-0.7 3.9-1.6 6.5-2.7 8c-1.1 1.5-2.4 2.2-3.9 2.2c-1.5 0-2.7-0.8-3.7-2.4c-0.9-1.5-1.4-3.7-1.4-6.6c0-2.3 .4-4.4 1.2-6.3c.9-1.9 1.8-3.2 2.7-4.1c.8-0.7 1.2-1.5 1.3-2.5c.1-0.9-0.2-1.9-1-2.9c-0.7-0.9-1.5-1.4-2.6-1.5c-1-0.1-1.9 .2-2.7 1c-1.6 1.7-3 4-4.1 6.9Zm1 63.9c-1.7 3.1-2.6 6.7-2.6 10.7c0 4 .9 7.6 2.6 10.8c1.8 3.1 4.2 5.5 7.3 7.3c3.2 1.7 6.8 2.6 10.8 2.6c4.1 0 7.7-0.9 10.8-2.7c3.1-1.8 5.5-4.2 7.3-7.3c1.8-3.2 2.7-6.7 2.7-10.7c0-4-0.9-7.6-2.7-10.7c-1.7-3.2-4.1-5.6-7.3-7.4c-3.1-1.7-6.7-2.6-10.8-2.6c-4 0-7.6 .8-10.8 2.6c-3.1 1.8-5.5 4.3-7.3 7.4Zm6 17.6c-1.2-2-1.8-4.3-1.8-6.9c0-2.6 .6-4.9 1.8-6.9c1.2-2 2.9-3.5 5-4.7c2.1-1.1 4.5-1.7 7.3-1.7c2.8 0 5.2 .5 7.3 1.7c2.1 1.1 3.8 2.7 5 4.7c1.2 2 1.8 4.3 1.8 6.9c0 2.6-0.6 4.9-1.8 6.9c-1.2 2-2.8 3.5-5 4.6c-2.1 1.1-4.5 1.7-7.3 1.7c-2.8 0-5.2-0.5-7.3-1.7c-2.2-1.1-3.8-2.6-5-4.6Zm-7.4 25.3c-0.6 .8-1 1.7-1 2.8c0 1.1 .4 2 1.1 2.8c.8 .7 1.7 1.1 2.8 1.1h22.5c1.3 .2 2.5 .7 3.5 1.4c1.4 1 2.5 2.3 3.4 4c.9 1.7 1.3 3.6 1.3 5.7c0 2.3-0.4 4.3-1.3 6.1c-0.9 1.8-2.2 3.3-4 4.3c-1.8 1.1-4.2 1.6-7 1.6h-18.5c-1.1 0-2 .3-2.8 1c-0.6 .8-1 1.7-1 2.8c0 1.1 .4 2 1.1 2.7c.8 .7 1.7 1.1 2.8 1.1h18.4c4.2 0 7.7-0.8 10.5-2.4c2.9-1.6 5-3.7 6.5-6.5c1.4-2.7 2.2-5.8 2.2-9.2c0-3.3-0.7-6.2-2.2-8.9c-0.7-1.4-1.6-2.6-2.7-3.7h.6c1.2 0 2.1-0.4 2.8-1.1c.8-0.7 1.1-1.7 1.1-2.8c0-1.1-0.4-2-1.1-2.8c-0.7-0.7-1.6-1-2.8-1h-33.4c-1.1 0-2 .3-2.8 1Zm.9 53.2c-1.2 1.7-1.8 3.6-1.8 5.8h.1v.3c0 1.5 .3 2.8 1 3.7c.7 .9 1.6 1.4 2.7 1.4c1.1 0 2-0.3 2.7-1c.7-0.6 1-1.4 1-2.4v-1.9c0-1.1 .6-2 1.8-2.7c1.2-0.7 2.8-1.1 4.6-1.1h40.9c1.1 0 2-0.3 2.7-1c.7-0.7 1-1.6 1-2.7c0-1.1-0.3-2-1-2.7c-0.7-0.7-1.6-1.1-2.7-1.1h-40.9c-2.7 0-5.1 .4-7.2 1.4c-2.1 1-3.7 2.3-4.9 4Zm9.8 32.2l27.3 12.1c2.1 1 2.7 2.6 1.8 4.7c-1 2.2-2.5 2.9-4.7 1.9l-51.6-23c-1.6-0.5-2.4-1.5-2.4-2.9c0-0.5 .1-1.1 .5-1.8c1-2.2 2.6-2.8 4.7-1.8l16.9 7.5l32-16.9c1-0.5 1.9-0.6 2.7-0.2c.9 .4 1.5 1.1 1.9 2c.4 .9 .4 1.8 .1 2.7c-0.3 .8-0.9 1.5-1.9 2Zm-9.3 54.4c-1.7 3.2-2.6 6.9-2.6 11.1c0 2.3 .4 4.7 1.1 6.9c.8 2.6 1.9 4.7 3.3 6.4c.6 .9 1.4 1.2 2.3 1.2c.9 0 1.7-0.5 2.5-1.3c.6-0.6 .8-1.4 .8-2.3c0-0.8-0.3-1.6-0.8-2.4c-0.7-1-1.4-2.3-2-4c-0.5-1.6-0.8-3.2-0.8-4.7c0-2.9 .6-5.4 1.9-7.6c1.3-2.2 3-3.9 5.1-5.2c1.4-0.9 3-1.4 4.7-1.7v28.6c0 1 .3 1.9 .9 2.5c.6 .7 1.4 1 2.4 1c3.9 0 7.4-0.7 10.4-2.2c3-1.5 5.4-3.6 7.1-6.4c1.7-2.8 2.6-6.1 2.6-10c0-4-0.9-7.5-2.7-10.5c-1.7-3.1-4.1-5.4-7.3-7.2c-3.1-1.7-6.7-2.5-10.8-2.5c-4 0-7.6 .9-10.8 2.7c-3.1 1.9-5.5 4.4-7.3 7.6Zm21.5-3.5v25.1c1.7-0.2 3.2-0.7 4.6-1.4c2-1 3.6-2.3 4.7-4c1.1-1.7 1.7-3.9 1.7-6.4c0-2.9-0.6-5.3-1.9-7.4c-1.2-2-3-3.5-5.2-4.6c-1.2-0.6-2.5-1-3.9-1.3Zm-21.2 49.9c-1.7 .8-2.5 2.1-2.5 3.6c0 1.6 .8 2.7 2.4 3.4l33.5 15.9c.9 .3 1.7 .4 2.6 .1c.9-0.3 1.5-0.9 1.9-1.8c.4-0.9 .5-1.9 .2-2.8c-0.3-0.9-0.9-1.5-1.7-2l-28.1-12.8l28.1-13.1c.8-0.4 1.4-1.1 1.7-2c.3-0.9 .2-1.7-0.2-2.6c-0.4-0.9-1.1-1.6-1.9-1.9c-0.8-0.4-1.6-0.3-2.5 .1Zm-0.3 36.7c-1.7 3.2-2.6 6.9-2.6 11.1c0 2.3 .4 4.7 1.1 6.9c.8 2.6 1.9 4.7 3.3 6.4c.6 .9 1.4 1.2 2.3 1.2c.9 0 1.7-0.5 2.5-1.3c.6-0.6 .8-1.4 .8-2.3c0-0.8-0.3-1.6-0.8-2.4c-0.7-1-1.4-2.3-2-4c-0.5-1.6-0.8-3.2-0.8-4.7c0-2.9 .6-5.4 1.9-7.6c1.3-2.2 3-3.9 5.1-5.2c1.4-0.9 3-1.4 4.7-1.7v28.6c0 1 .3 1.9 .9 2.5c.6 .7 1.4 1 2.4 1c3.9 0 7.4-0.7 10.4-2.2c3-1.5 5.4-3.6 7.1-6.4c1.7-2.8 2.6-6.1 2.6-10c0-4-0.9-7.5-2.7-10.5c-1.7-3.1-4.1-5.4-7.3-7.2c-3.1-1.7-6.7-2.5-10.8-2.5c-4 0-7.6 .9-10.8 2.7c-3.1 1.9-5.5 4.4-7.3 7.6Zm21.5-3.5v25.1c1.7-0.2 3.2-0.7 4.6-1.4c2-1 3.6-2.3 4.7-4c1.1-1.7 1.7-3.9 1.7-6.4c0-2.9-0.6-5.3-1.9-7.4c-1.2-2-3-3.5-5.2-4.6c-1.2-0.6-2.5-1-3.9-1.3Zm-22.9 42c-0.6 .7-0.9 1.6-0.9 2.8c0 1.3 .3 2.2 1 2.8c.7 .7 1.6 1 2.8 1h21.9c2.3 0 4.2 .7 5.7 2.2c1.5 1.5 2.5 3.5 3.1 6.1c.5 2.5 .5 5.4-0.2 8.6c-0.2 .6-0.2 1.3-0.1 1.8c.1 .5 .4 1 .7 1.4c.5 .4 1 .7 1.7 .9c1.3 .4 2.5-0.2 3.4-1.7c1-1.5 1.5-3.7 1.5-6.7c0-3-0.7-5.7-2.1-8.2c-1-1.7-2.1-3.2-3.5-4.4h1.3c1.3 0 2.2-0.3 2.8-1c.7-0.6 1-1.6 1-2.8c0-1.2-0.4-2.1-1-2.8c-0.7-0.7-1.6-1-2.8-1h-33.5c-1.2 0-2.2 .3-2.8 1Zm0 56.9c-0.6 .8-1 1.7-1 2.8c0 1.2 .4 2.1 1.1 2.8c.8 .7 1.7 1 2.8 1h21.1v.1c2.8 0 5.1 .9 6.9 2.6c1.8 1.6 2.7 3.8 2.7 6.4c0 2.5-0.8 4.6-2.3 6.1c-1.5 1.5-3.9 2.3-7 2.3h-21.5c-1.1 0-2 .3-2.8 1c-0.6 .8-1 1.7-1 2.8c0 1.1 .4 2 1.1 2.9c.8 .7 1.7 1.1 2.8 1.1h21.3c.9 0 1.7 0 2.5-0.1c1.6 .3 3 1.1 4.2 2.2c1.8 1.7 2.7 3.9 2.7 6.5c0 2.5-0.8 4.5-2.3 6.1c-1.5 1.5-3.9 2.3-7 2.3h-21.5c-1.1 0-2 .4-2.8 1.1c-0.6 .8-1 1.7-1 2.8c0 1.2 .4 2.1 1.1 2.7c.8 .7 1.7 1 2.8 1h21.3c3.5 0 6.4-0.7 8.8-1.9c2.5-1.2 4.4-2.9 5.6-5.1c1.3-2.2 1.9-4.8 1.9-7.6c0-3.2-0.7-6.2-2.1-8.7c-0.9-1.7-2.1-3.1-3.6-4.2c1.6-1.1 2.8-2.5 3.8-4.1c1.3-2.2 1.9-4.7 1.9-7.6c0-3-0.7-5.6-2.1-7.9c-0.6-1-1.4-2-2.2-2.8c1.2 0 2.1-0.3 2.8-1c.7-0.7 1-1.7 1-2.8c0-1.1-0.3-2-1-2.8c-0.7-0.7-1.6-1-2.8-1h-33.4c-1.1 0-2 .3-2.8 1Zm1.5 75.8c-1.8 2.9-2.7 6.2-2.7 9.8c0 3.7 .9 7 2.7 9.8c1.1 1.8 2.5 3.4 4.2 4.7h-2.9c-1.1 0-2 .4-2.8 1.1c-0.6 .8-1 1.7-1 2.8c0 1.1 .4 2 1.1 2.6c.8 .7 1.7 1.1 2.8 1.1h16.7c4 0 7.4-0.9 10.6-2.8c3.1-1.7 5.6-4.2 7.4-7.3c1.9-3.1 2.8-6.6 2.8-10.5c0-3.9-1-7.5-2.8-10.6c-1.8-3.1-4.2-5.5-7.4-7.4c-3.2-1.8-6.8-2.7-10.7-2.7c-3.9 0-7.5 .8-10.6 2.5c-3.1 1.7-5.6 4-7.4 6.9Zm5.9 18.1c-1.2-2-1.8-4.2-1.8-6.8c0-2.5 .5-4.7 1.8-6.8c1.2-2 2.9-3.6 5-4.8c2.2-1.1 4.6-1.7 7.2-1.7c2.7 0 5.1 .6 7.2 1.7c2.1 1.2 3.8 2.8 5 4.8c1.3 2 1.9 4.3 1.9 6.8c0 2.5-0.7 4.8-1.9 6.8c-1.2 2-2.9 3.5-5 4.7c-2.1 1.1-4.5 1.7-7.2 1.7c-2.7 0-5.1-0.5-7.2-1.7c-2.1-1.1-3.8-2.7-5-4.7Zm-5.9 32.4c-1.8 3.2-2.7 6.7-2.7 10.6c0 3.9 .9 7.4 2.7 10.7c1.8 3.1 4.3 5.5 7.5 7.3c3.1 1.9 6.6 2.8 10.6 2.8h34.2c1.2 0 2.1-0.4 2.8-1.1c.7-0.7 1-1.6 1-2.8c0-1.1-0.3-2-1-2.8c-0.7-0.8-1.6-1.1-2.8-1.1h-20.2c2.1-1.7 3.7-3.8 4.9-6.3c1.3-2.5 1.9-5.3 1.9-8.2c0-3.6-1-6.9-2.8-9.8c-1.8-2.9-4.2-5.2-7.4-6.9c-3.1-1.7-6.7-2.5-10.6-2.5c-3.9 0-7.5 .9-10.6 2.7c-3.2 1.8-5.7 4.3-7.5 7.4Zm5.9 17.4c-1.2-2-1.8-4.3-1.8-6.8c0-2.5 .5-4.7 1.8-6.8c1.3-2 3-3.6 5.1-4.8c2.2-1.1 4.6-1.7 7.2-1.7c2.7 0 5.1 .5 7.2 1.7c2.1 1.2 3.7 2.8 4.9 4.8c1.3 2 1.9 4.3 1.9 6.8c0 2.5-0.7 4.8-1.9 6.8c-1.1 2-2.8 3.6-4.9 4.7c-2.1 1.1-4.5 1.7-7.2 1.7c-2.6 0-5-0.5-7.2-1.7c-2.1-1.1-3.9-2.7-5.1-4.7Zm-6 34.7c-1.7 3.3-2.6 6.9-2.6 11.1c0 2.3 .4 4.7 1.1 7.1c.8 2.6 1.9 4.7 3.3 6.4c.6 .9 1.4 1.3 2.3 1.2c.9 0 1.7-0.5 2.5-1.3c.6-0.6 .8-1.4 .8-2.3c0-0.9-0.3-1.6-0.8-2.4c-0.7-1-1.4-2.3-2-4c-0.5-1.6-0.8-3.1-0.8-4.7c0-2.9 .7-5.4 1.9-7.6c1.3-2.2 3-3.9 5.1-5.2c1.4-0.9 3-1.4 4.7-1.7v28.6c0 1 .3 1.8 .9 2.5c.6 .7 1.4 1 2.4 1c3.9 0 7.4-0.7 10.4-2.2c3-1.5 5.4-3.6 7.1-6.4c1.7-2.9 2.6-6.2 2.6-10.1c0-3.9-0.9-7.4-2.7-10.5c-1.7-3-4.1-5.4-7.3-7.2c-3.1-1.8-6.7-2.6-10.8-2.6c-4 0-7.6 .9-10.8 2.7c-3.1 1.9-5.5 4.4-7.3 7.6Zm21.5-3.3v25c1.7-0.2 3.2-0.7 4.6-1.3c2-1 3.6-2.3 4.7-4.1c1.1-1.8 1.7-3.9 1.7-6.4c0-2.8-0.6-5.3-1.9-7.3c-1.2-2-3-3.5-5.2-4.6c-1.2-0.6-2.5-1.1-3.9-1.3Zm-40.2 123.6c-0.7 .7-1.1 1.7-1.1 2.8c0 1.1 .3 2 1.1 2.8c.7 .7 1.6 1 2.7 1h34.2c3.9 0 7.5-1 10.7-2.7c3.1-1.8 5.6-4.3 7.4-7.4c1.9-3.1 2.8-6.6 2.8-10.5c0-3.9-1-7.5-2.8-10.6c-1.8-3.1-4.2-5.5-7.4-7.4c-3.2-1.8-6.8-2.7-10.7-2.7c-3.9 0-7.5 .9-10.6 2.5c-3.1 1.7-5.6 4-7.4 6.9c-1.8 2.9-2.7 6.2-2.7 9.8c0 3 .6 5.7 1.8 8.2c1.2 2.5 2.9 4.6 5 6.3h-20.3c-1.1 0-2 .3-2.7 1Zm24.7-7.3c-1.2-2-1.8-4.2-1.8-6.8c0-2.5 .5-4.7 1.8-6.8c1.2-2 2.9-3.6 5-4.8c2.2-1.1 4.6-1.7 7.2-1.7c2.7 0 5.1 .6 7.2 1.7c2.1 1.2 3.8 2.8 5 4.8c1.3 2 1.9 4.3 1.9 6.8c0 2.5-0.7 4.8-1.9 6.8c-1.2 2-2.9 3.5-5 4.7c-2.1 1.1-4.5 1.7-7.2 1.7c-2.7 0-5.1-0.6-7.2-1.7c-2.1-1.1-3.8-2.7-5-4.7Zm-6.5 34.5c-1.5 2.7-2.2 5.8-2.2 9.3c0 3.4 .7 6.3 2.3 9.1c.7 1.3 1.6 2.5 2.6 3.6h-0.7c-1.1 0-2 .4-2.8 1.1c-0.7 .8-1 1.7-1 2.8c0 1.1 .3 2.1 1 2.8c.8 .7 1.7 1 2.8 1h33.5c1.2 0 2.1-0.3 2.8-1c.7-0.7 1-1.6 1-2.8c0-1.1-0.3-2-1-2.8c-0.7-0.7-1.6-1.1-2.8-1.1h-23c-1.1-0.2-2-0.7-3-1.3c-1.5-1-2.6-2.3-3.5-4c-0.9-1.7-1.3-3.5-1.3-5.7c0-2.3 .5-4.3 1.3-6.1c.9-1.8 2.2-3.3 4-4.3c1.9-1.1 4.2-1.6 7-1.6h18.5c1.1 0 2-0.3 2.7-1.1c.7-0.7 1.1-1.6 1.1-2.7c0-1.1-0.3-2-1.1-2.8c-0.7-0.7-1.6-1.1-2.7-1.1h-18.5c-4.2 0-7.7 .7-10.5 2.3c-2.8 1.6-5 3.7-6.5 6.4Zm.6 49.7c-1.8 2.9-2.7 6.1-2.7 9.8c0 3.6 .9 6.9 2.7 9.8c1.1 1.8 2.4 3.3 4 4.6h-2.7c-1.1 0-2 .4-2.8 1.1c-0.6 .8-1 1.7-1 2.8c0 1.1 .4 2 1.1 2.6c.8 .7 1.7 1.1 2.8 1.1h16.6v.1c4 0 7.5-0.9 10.7-2.8c3.1-1.8 5.6-4.2 7.4-7.3c1.9-3.1 2.8-6.6 2.8-10.5c0-3.9-1-7.4-2.8-10.6c-1.8-3.1-4.2-5.6-7.4-7.4c-3.2-1.8-6.8-2.7-10.7-2.7c-3.9 0-7.5 .8-10.6 2.5c-3.1 1.7-5.6 4-7.4 6.9Zm5.9 18.1c-1.2-2-1.8-4.3-1.8-6.8c0-2.5 .5-4.8 1.8-6.8c1.2-2 2.9-3.6 5-4.8c2.2-1.1 4.6-1.7 7.2-1.7c2.7 0 5.1 .5 7.2 1.7c2.1 1.2 3.8 2.8 5 4.8c1.3 2 1.9 4.3 1.9 6.8c0 2.5-0.7 4.8-1.9 6.8c-1.2 2-2.9 3.6-5 4.7c-2.1 1.1-4.5 1.7-7.2 1.7c-2.7 0-5.1-0.5-7.2-1.7c-2.1-1.1-3.8-2.7-5-4.7Zm-6.5 28.3c-1.2 1.7-1.8 3.6-1.8 5.8h.1v.4c0 1.5 .3 2.8 1 3.7c.7 .9 1.6 1.4 2.7 1.4c1.1 0 2-0.4 2.7-1c.7-0.6 1-1.4 1-2.4v-1.9c0-1.1 .6-2 1.8-2.7c1.2-0.7 2.8-1.1 4.6-1.1h40.9c1.1 0 2-0.4 2.7-1.1c.7-0.7 1-1.6 1-2.7c0-1.1-0.3-2-1-2.7c-0.7-0.7-1.6-1.1-2.7-1.1h-40.9c-2.7 0-5.1 .5-7.2 1.4c-2.1 1-3.7 2.3-4.9 4Zm47.3 18.8c-0.9 1-1.4 2.2-1.4 3.5c0 1.3 .5 2.5 1.4 3.4c1 1 2.2 1.5 3.5 1.5c1.3 0 2.5-0.5 3.4-1.5c1-0.9 1.5-2 1.5-3.4c0-1.3-0.5-2.5-1.5-3.5c-0.9-0.9-2.1-1.4-3.4-1.4c-1.3 0-2.5 .5-3.5 1.4Zm-48.1 .7c-0.7 .8-1 1.7-1 2.8c0 1.1 .3 2.1 1 2.8c.8 .7 1.7 1 2.8 1h33.4c1.2 0 2.1-0.3 2.8-1c.8-0.7 1.1-1.6 1.1-2.8c0-1.1-0.4-2-1.1-2.8c-0.7-0.7-1.6-1.1-2.8-1.1h-33.4c-1.1 0-2 .4-2.8 1.1Zm33 15.7c-0.6 .7-0.9 1.5-0.9 2.6v3.4h-18.6c-2.7 0-5.2 .5-7.4 1.7c-2.2 1.1-3.9 2.7-5.2 4.7c-1.3 2-1.9 4.3-1.9 6.8h.1v1.5c0 1.3 .3 2.3 1 3.1c.7 .9 1.6 1.3 2.7 1.3c1.1 0 2-0.3 2.7-1c.7-0.5 1-1.3 1-2.2v-2.6c0-1.6 .6-2.9 2-4c1.3-1.1 3-1.7 5-1.7h18.6v6.3c0 1.1 .4 1.9 .9 2.6c.5 .7 1.3 1 2.2 1c1 0 1.8-0.3 2.4-1c.6-0.7 .9-1.5 .9-2.6v-6.3h10.8c1.1 0 2-0.4 2.7-1.1c.7-0.7 1-1.6 1-2.7c0-1.1-0.3-2-1-2.7c-0.7-0.7-1.6-1.1-2.7-1.1h-10.8v-3.4c0-1.1-0.3-1.9-0.9-2.6c-0.6-0.7-1.4-1-2.4-1c-0.9 0-1.6 .4-2.2 1Zm-22.5 48.1l27.4 12.1c2.1 1 2.7 2.6 1.8 4.7c-1 2.2-2.5 2.9-4.7 1.9l-51.6-23c-1.6-0.5-2.4-1.5-2.4-2.9c0-0.5 .1-1.1 .5-1.8c1-2.2 2.6-2.8 4.7-1.8l16.9 7.5l32-16.9c1-0.5 1.9-0.6 2.7-0.2c.9 .4 1.5 1.1 1.9 2c.4 1 .4 1.9 .1 2.7c-0.3 .8-0.9 1.5-1.9 1.9Zm-9.2 53.3c-1.7 2.9-2.6 6.2-2.6 10c0 3.5 .9 6.5 2.6 9.2c1.6 2.3 3.6 4.2 6.2 5.6h-3.8c-3.2 0-5.9-0.6-8.2-1.8c-2.3-1.2-4-2.9-5.1-4.9c-1.1-2-1.7-4.2-1.7-6.6c0-2.6 .5-4.9 1.4-7c1-2.1 2.3-3.8 4-5.1c.8-0.6 1.3-1.4 1.5-2.4c.2-1 0-1.9-0.6-2.8c-0.6-0.8-1.3-1.3-2.2-1.5c-0.9-0.1-1.7 .2-2.6 .8c-2.7 2.2-4.7 4.8-6.1 7.9c-1.4 3.1-2.1 6.5-2.1 10c0 4.1 .9 7.7 2.9 10.8c1.9 3.2 4.5 5.6 7.7 7.4c3.2 1.7 6.7 2.6 10.7 2.6h16.1l.1-0.3c4.1 0 7.6-0.9 10.7-2.7c3.1-1.8 5.5-4.2 7.3-7.3c1.8-3 2.7-6.6 2.7-10.6c0-4-0.9-7.6-2.7-10.7c-1.7-3.1-4.1-5.5-7.3-7.3c-3.1-1.7-6.7-2.6-10.8-2.6c-4 0-7.6 .9-10.8 2.5c-3.1 1.7-5.5 4-7.3 6.8Zm6 18.4c-1.2-2-1.8-4.3-1.8-6.9c0-2.6 .6-4.9 1.8-6.9c1.2-2 2.9-3.6 5-4.7c2.1-1.1 4.5-1.7 7.3-1.7c2.8 0 5.2 .6 7.3 1.7c2.1 1.1 3.8 2.7 5 4.7c1.2 2 1.8 4.3 1.8 6.9c0 2.6-0.6 4.9-1.8 6.9c-1.2 2-2.8 3.6-5 4.7c-2.1 1.1-4.5 1.7-7.3 1.7c-2.8 0-5.2-0.6-7.3-1.7c-2.2-1.1-3.8-2.7-5-4.7Zm-6 32.2c-1.7 3.1-2.6 6.7-2.6 10.7c0 4.1 .9 7.6 2.6 10.7c1.8 3.1 4.2 5.5 7.3 7.3c3.2 1.7 6.8 2.6 10.8 2.6c4.1 0 7.7-0.9 10.8-2.7c3.1-1.8 5.5-4.2 7.3-7.3c1.8-3.1 2.7-6.6 2.7-10.6c0-4-0.9-7.6-2.7-10.7c-1.7-3.2-4.1-5.6-7.3-7.4c-3.1-1.7-6.7-2.6-10.8-2.6c-4 0-7.6 .8-10.8 2.6c-3.1 1.9-5.5 4.3-7.3 7.4Zm6 17.6c-1.2-2-1.8-4.3-1.8-6.9c0-2.6 .6-4.9 1.8-6.9c1.2-2 2.9-3.6 5-4.7c2.1-1.1 4.5-1.7 7.3-1.7c2.8 0 5.2 .6 7.3 1.7c2.1 1.1 3.8 2.7 5 4.7c1.2 2 1.8 4.3 1.8 6.9c0 2.6-0.6 4.9-1.8 6.9c-1.2 2-2.8 3.5-5 4.6c-2.1 1.1-4.5 1.7-7.3 1.7c-2.8 0-5.2-0.5-7.3-1.7c-2.2-1-3.8-2.6-5-4.6Zm-6 32.2c-1.7 3.1-2.6 6.6-2.6 10.7c0 4.1 .9 7.6 2.6 10.7c1.8 3.1 4.2 5.5 7.3 7.3c3.2 1.7 6.8 2.6 10.8 2.6c4.1 0 7.7-0.9 10.8-2.7c3.1-1.8 5.5-4.2 7.3-7.3c1.8-3.1 2.7-6.6 2.7-10.6c0-4-0.9-7.6-2.7-10.7c-1.7-3.2-4.1-5.6-7.3-7.4c-3.1-1.7-6.7-2.6-10.8-2.6c-4 0-7.6 .8-10.8 2.6c-3.1 1.8-5.5 4.3-7.3 7.4Zm6 17.6c-1.2-2-1.8-4.3-1.8-6.9c0-2.6 .6-4.9 1.8-6.9c1.2-2 2.9-3.6 5-4.7c2.1-1.1 4.5-1.7 7.3-1.7c2.8 0 5.2 .5 7.3 1.7c2.1 1.1 3.8 2.7 5 4.7c1.2 2 1.8 4.3 1.8 6.9c0 2.6-0.6 4.9-1.8 6.9c-1.2 2-2.8 3.5-5 4.6c-2.1 1.1-4.5 1.7-7.3 1.7c-2.8 0-5.2-0.6-7.3-1.7c-2.2-1.1-3.8-2.6-5-4.6Zm-5.9 32.3c-1.8 3.2-2.7 6.7-2.7 10.6c0 3.9 .9 7.4 2.7 10.7c1.8 3.1 4.3 5.5 7.5 7.3c3.1 1.9 6.6 2.8 10.6 2.8h34.2c1.2 0 2.1-0.4 2.8-1.1c.7-0.7 1-1.7 1-2.8c0-1.1-0.3-2-1-2.8c-0.7-0.7-1.6-1.1-2.8-1.1h-20.2c2.1-1.7 3.7-3.8 4.9-6.3c1.3-2.5 1.9-5.3 1.9-8.2c0-3.6-1-6.9-2.8-9.8c-1.8-2.9-4.2-5.2-7.4-6.9c-3.1-1.7-6.7-2.5-10.6-2.5c-3.9 0-7.5 .9-10.6 2.7c-3.2 1.8-5.7 4.3-7.5 7.4Zm5.9 17.4c-1.2-2-1.8-4.3-1.8-6.8c0-2.5 .5-4.8 1.8-6.8c1.3-2 3-3.6 5.1-4.8c2.2-1.1 4.6-1.7 7.2-1.7c2.7 0 5.1 .5 7.2 1.7c2.1 1.2 3.7 2.8 4.9 4.8c1.3 2 1.9 4.3 1.9 6.8c0 2.5-0.7 4.8-1.9 6.8c-1.1 2-2.8 3.6-4.9 4.7c-2.1 1.1-4.5 1.7-7.2 1.7c-2.6 0-5-0.6-7.2-1.7c-2.1-1.1-3.9-2.7-5.1-4.7Zm-7 31.6c-1.1 3-1.6 6.3-1.6 9.8c0 3.6 .5 6.5 1.8 8.9c1.1 2.4 2.5 4.2 4.4 5.4c1.8 1.3 3.9 1.9 6.2 1.9c2 0 3.7-0.4 5.2-1.4c1.5-0.9 2.9-2.5 4-4.7c1.2-2.2 2.1-5.1 2.9-8.9c.5-2.7 1.1-4.7 1.6-6.1c.7-1.4 1.3-2.4 2-2.9c.8-0.5 1.6-0.7 2.5-0.7c1.5 0 2.5 .7 3.3 2.2c.7 1.5 1.1 3.4 1.1 5.6c0 1.9-0.2 3.5-0.7 5c-0.5 1.4-1.3 2.8-2.5 4c-0.6 .8-1.1 1.7-1.3 2.8c-0.2 1.1-0.1 2.1 .5 2.9c.6 .8 1.4 1.3 2.2 1.3c.9 0 1.8-0.3 2.6-1c1.8-1.5 3.2-3.5 4.3-6.1c1.1-2.6 1.6-5.5 1.6-8.8c0-2.6-0.5-5-1.3-7.4c-0.9-2.4-2.1-4.3-3.8-5.8c-1.6-1.4-3.7-2.2-6.3-2.2c-2.9 0-5.3 1.2-7.3 3.4c-2 2.3-3.5 6-4.5 11c-0.7 3.9-1.6 6.5-2.7 8c-1.1 1.5-2.4 2.2-3.9 2.2c-1.5 0-2.7-0.8-3.7-2.4c-0.9-1.5-1.4-3.7-1.4-6.6c0-2.3 .4-4.4 1.2-6.3c.9-1.9 1.8-3.2 2.7-4.1c.8-0.7 1.2-1.5 1.3-2.5c.1-0.9-0.2-1.9-1-2.9c-0.7-0.9-1.5-1.4-2.6-1.5c-1-0.1-1.9 .2-2.7 1c-1.6 1.7-3 4-4.1 6.9Zm1 63.9c-1.7 3.1-2.6 6.7-2.6 10.7c0 4 .9 7.6 2.6 10.8c1.8 3.1 4.2 5.5 7.3 7.3c3.2 1.7 6.8 2.6 10.8 2.6c4.1 0 7.7-0.9 10.8-2.7c3.1-1.8 5.5-4.2 7.3-7.3c1.8-3.2 2.7-6.7 2.7-10.7c0-4-0.9-7.6-2.7-10.7c-1.7-3.2-4.1-5.6-7.3-7.4c-3.1-1.7-6.7-2.6-10.8-2.6c-4 0-7.6 .8-10.8 2.6c-3.1 1.8-5.5 4.3-7.3 7.4Zm6 17.6c-1.2-2-1.8-4.3-1.8-6.9c0-2.6 .6-4.9 1.8-6.9c1.2-2 2.9-3.5 5-4.7c2.1-1.1 4.5-1.7 7.3-1.7c2.8 0 5.2 .5 7.3 1.7c2.1 1.1 3.8 2.7 5 4.7c1.2 2 1.8 4.3 1.8 6.9c0 2.6-0.6 4.9-1.8 6.9c-1.2 2-2.8 3.5-5 4.6c-2.1 1.1-4.5 1.7-7.3 1.7c-2.8 0-5.2-0.5-7.3-1.7c-2.2-1.1-3.8-2.6-5-4.6Zm-7.4 25.3c-0.6 .8-1 1.7-1 2.8c0 1.1 .4 2 1.1 2.8c.8 .7 1.7 1.1 2.8 1.1h22.5c1.3 .2 2.5 .7 3.5 1.4c1.4 1 2.5 2.3 3.4 4c.9 1.7 1.3 3.6 1.3 5.7c0 2.3-0.4 4.3-1.3 6.1c-0.9 1.8-2.2 3.3-4 4.3c-1.8 1.1-4.2 1.6-7 1.6h-18.5c-1.1 0-2 .3-2.8 1c-0.6 .8-1 1.7-1 2.8c0 1.1 .4 2 1.1 2.7c.8 .7 1.7 1.1 2.8 1.1h18.4c4.2 0 7.7-0.8 10.5-2.4c2.9-1.6 5-3.7 6.5-6.5c1.4-2.7 2.2-5.8 2.2-9.2c0-3.3-0.7-6.2-2.2-8.9c-0.7-1.4-1.6-2.6-2.7-3.7h.6c1.2 0 2.1-0.4 2.8-1.1c.8-0.7 1.1-1.7 1.1-2.8c0-1.1-0.4-2-1.1-2.8c-0.7-0.7-1.6-1-2.8-1h-33.4c-1.1 0-2 .3-2.8 1Zm.9 53.2c-1.2 1.7-1.8 3.6-1.8 5.8h.1v.3c0 1.5 .3 2.8 1 3.7c.7 .9 1.6 1.4 2.7 1.4c1.1 0 2-0.3 2.7-1c.7-0.6 1-1.4 1-2.4v-1.9c0-1.1 .6-2 1.8-2.7c1.2-0.7 2.8-1.1 4.6-1.1h40.9c1.1 0 2-0.3 2.7-1c.7-0.7 1-1.6 1-2.7c0-1.1-0.3-2-1-2.7c-0.7-0.7-1.6-1.1-2.7-1.1h-40.9c-2.7 0-5.1 .4-7.2 1.4c-2.1 1-3.7 2.3-4.9 4Zm9.8 32.2l27.3 12.1c2.1 1 2.7 2.6 1.8 4.7c-1 2.2-2.5 2.9-4.7 1.9l-51.6-23c-1.6-0.5-2.4-1.5-2.4-2.9c0-0.5 .1-1.1 .5-1.8c1-2.2 2.6-2.8 4.7-1.8l16.9 7.5l32-16.9c1-0.5 1.9-0.6 2.7-0.2c.9 .4 1.5 1.1 1.9 2c.4 .9 .4 1.8 .1 2.7c-0.3 .8-0.9 1.5-1.9 2Zm-9.3 54.4c-1.7 3.2-2.6 6.9-2.6 11.1c0 2.3 .4 4.7 1.1 6.9c.8 2.6 1.9 4.7 3.3 6.4c.6 .9 1.4 1.2 2.3 1.2c.9 0 1.7-0.5 2.5-1.3c.6-0.6 .8-1.4 .8-2.3c0-0.8-0.3-1.6-0.8-2.4c-0.7-1-1.4-2.3-2-4c-0.5-1.6-0.8-3.2-0.8-4.7c0-2.9 .6-5.4 1.9-7.6c1.3-2.2 3-3.9 5.1-5.2c1.4-0.9 3-1.4 4.7-1.7v28.6c0 1 .3 1.9 .9 2.5c.6 .7 1.4 1 2.4 1c3.9 0 7.4-0.7 10.4-2.2c3-1.5 5.4-3.6 7.1-6.4c1.7-2.8 2.6-6.1 2.6-10c0-4-0.9-7.5-2.7-10.5c-1.7-3.1-4.1-5.4-7.3-7.2c-3.1-1.7-6.7-2.5-10.8-2.5c-4 0-7.6 .9-10.8 2.7c-3.1 1.9-5.5 4.4-7.3 7.6Zm21.5-3.5v25.1c1.7-0.2 3.2-0.7 4.6-1.4c2-1 3.6-2.3 4.7-4c1.1-1.7 1.7-3.9 1.7-6.4c0-2.9-0.6-5.3-1.9-7.4c-1.2-2-3-3.5-5.2-4.6c-1.2-0.6-2.5-1-3.9-1.3Zm-21.2 49.9c-1.7 .8-2.5 2.1-2.5 3.6c0 1.6 .8 2.7 2.4 3.4l33.5 15.9c.9 .3 1.7 .4 2.6 .1c.9-0.3 1.5-0.9 1.9-1.8c.4-0.9 .5-1.9 .2-2.8c-0.3-0.9-0.9-1.5-1.7-2l-28.1-12.8l28.1-13.1c.8-0.4 1.4-1.1 1.7-2c.3-0.9 .2-1.7-0.2-2.6c-0.4-0.9-1.1-1.6-1.9-1.9c-0.8-0.4-1.6-0.3-2.5 .1Zm-0.3 36.7c-1.7 3.2-2.6 6.9-2.6 11.1c0 2.3 .4 4.7 1.1 6.9c.8 2.6 1.9 4.7 3.3 6.4c.6 .9 1.4 1.2 2.3 1.2c.9 0 1.7-0.5 2.5-1.3c.6-0.6 .8-1.4 .8-2.3c0-0.8-0.3-1.6-0.8-2.4c-0.7-1-1.4-2.3-2-4c-0.5-1.6-0.8-3.2-0.8-4.7c0-2.9 .6-5.4 1.9-7.6c1.3-2.2 3-3.9 5.1-5.2c1.4-0.9 3-1.4 4.7-1.7v28.6c0 1 .3 1.9 .9 2.5c.6 .7 1.4 1 2.4 1c3.9 0 7.4-0.7 10.4-2.2c3-1.5 5.4-3.6 7.1-6.4c1.7-2.8 2.6-6.1 2.6-10c0-4-0.9-7.5-2.7-10.5c-1.7-3.1-4.1-5.4-7.3-7.2c-3.1-1.7-6.7-2.5-10.8-2.5c-4 0-7.6 .9-10.8 2.7c-3.1 1.9-5.5 4.4-7.3 7.6Zm21.5-3.5v25.1c1.7-0.2 3.2-0.7 4.6-1.4c2-1 3.6-2.3 4.7-4c1.1-1.7 1.7-3.9 1.7-6.4c0-2.9-0.6-5.3-1.9-7.4c-1.2-2-3-3.5-5.2-4.6c-1.2-0.6-2.5-1-3.9-1.3Zm-22.9 42c-0.6 .7-0.9 1.6-0.9 2.8c0 1.3 .3 2.2 1 2.8c.7 .7 1.6 1 2.8 1h21.9c2.3 0 4.2 .7 5.7 2.2c1.5 1.5 2.5 3.5 3.1 6.1c.5 2.5 .5 5.4-0.2 8.6c-0.2 .6-0.2 1.3-0.1 1.8c.1 .5 .4 1 .7 1.4c.5 .4 1 .7 1.7 .9c1.3 .4 2.5-0.2 3.4-1.7c1-1.5 1.5-3.7 1.5-6.7c0-3-0.7-5.7-2.1-8.2c-1-1.7-2.1-3.2-3.5-4.4h1.3c1.3 0 2.2-0.3 2.8-1c.7-0.6 1-1.6 1-2.8c0-1.2-0.4-2.1-1-2.8c-0.7-0.7-1.6-1-2.8-1h-33.5c-1.2 0-2.2 .3-2.8 1Zm0 56.9c-0.6 .8-1 1.7-1 2.8c0 1.2 .4 2.1 1.1 2.8c.8 .7 1.7 1 2.8 1h21.1v.1c2.8 0 5.1 .9 6.9 2.6c1.8 1.6 2.7 3.8 2.7 6.4c0 2.5-0.8 4.6-2.3 6.1c-1.5 1.5-3.9 2.3-7 2.3h-21.5c-1.1 0-2 .3-2.8 1c-0.6 .8-1 1.7-1 2.8c0 1.1 .4 2 1.1 2.9c.8 .7 1.7 1.1 2.8 1.1h21.3c.9 0 1.7 0 2.5-0.1c1.6 .3 3 1.1 4.2 2.2c1.8 1.7 2.7 3.9 2.7 6.5c0 2.5-0.8 4.5-2.3 6.1c-1.5 1.5-3.9 2.3-7 2.3h-21.5c-1.1 0-2 .4-2.8 1.1c-0.6 .8-1 1.7-1 2.8c0 1.2 .4 2.1 1.1 2.7c.8 .7 1.7 1 2.8 1h21.3c3.5 0 6.4-0.7 8.8-1.9c2.5-1.2 4.4-2.9 5.6-5.1c1.3-2.2 1.9-4.8 1.9-7.6c0-3.2-0.7-6.2-2.1-8.7c-0.9-1.7-2.1-3.1-3.6-4.2c1.6-1.1 2.8-2.5 3.8-4.1c1.3-2.2 1.9-4.7 1.9-7.6c0-3-0.7-5.6-2.1-7.9c-0.6-1-1.4-2-2.2-2.8c1.2 0 2.1-0.3 2.8-1c.7-0.7 1-1.7 1-2.8c0-1.1-0.3-2-1-2.8c-0.7-0.7-1.6-1-2.8-1h-33.4c-1.1 0-2 .3-2.8 1Zm1.5 75.8c-1.8 2.9-2.7 6.2-2.7 9.8c0 3.7 .9 7 2.7 9.8c1.1 1.8 2.5 3.4 4.2 4.7h-2.9c-1.1 0-2 .4-2.8 1.1c-0.6 .8-1 1.7-1 2.8c0 1.1 .4 2 1.1 2.6c.8 .7 1.7 1.1 2.8 1.1h16.7c4 0 7.4-0.9 10.6-2.8c3.1-1.7 5.6-4.2 7.4-7.3c1.9-3.1 2.8-6.6 2.8-10.5c0-3.9-1-7.5-2.8-10.6c-1.8-3.1-4.2-5.5-7.4-7.4c-3.2-1.8-6.8-2.7-10.7-2.7c-3.9 0-7.5 .8-10.6 2.5c-3.1 1.7-5.6 4-7.4 6.9Zm5.9 18.1c-1.2-2-1.8-4.2-1.8-6.8c0-2.5 .5-4.7 1.8-6.8c1.2-2 2.9-3.6 5-4.8c2.2-1.1 4.6-1.7 7.2-1.7c2.7 0 5.1 .6 7.2 1.7c2.1 1.2 3.8 2.8 5 4.8c1.3 2 1.9 4.3 1.9 6.8c0 2.5-0.7 4.8-1.9 6.8c-1.2 2-2.9 3.5-5 4.7c-2.1 1.1-4.5 1.7-7.2 1.7c-2.7 0-5.1-0.5-7.2-1.7c-2.1-1.1-3.8-2.7-5-4.7Zm-5.9 32.4c-1.8 3.2-2.7 6.7-2.7 10.6c0 3.9 .9 7.4 2.7 10.7c1.8 3.1 4.3 5.5 7.5 7.3c3.1 1.9 6.6 2.8 10.6 2.8h34.2c1.2 0 2.1-0.4 2.8-1.1c.7-0.7 1-1.6 1-2.8c0-1.1-0.3-2-1-2.8c-0.7-0.8-1.6-1.1-2.8-1.1h-20.2c2.1-1.7 3.7-3.8 4.9-6.3c1.3-2.5 1.9-5.3 1.9-8.2c0-3.6-1-6.9-2.8-9.8c-1.8-2.9-4.2-5.2-7.4-6.9c-3.1-1.7-6.7-2.5-10.6-2.5c-3.9 0-7.5 .9-10.6 2.7c-3.2 1.8-5.7 4.3-7.5 7.4Zm5.9 17.4c-1.2-2-1.8-4.3-1.8-6.8c0-2.5 .5-4.7 1.8-6.8c1.3-2 3-3.6 5.1-4.8c2.2-1.1 4.6-1.7 7.2-1.7c2.7 0 5.1 .5 7.2 1.7c2.1 1.2 3.7 2.8 4.9 4.8c1.3 2 1.9 4.3 1.9 6.8c0 2.5-0.7 4.8-1.9 6.8c-1.1 2-2.8 3.6-4.9 4.7c-2.1 1.1-4.5 1.7-7.2 1.7c-2.6 0-5-0.5-7.2-1.7c-2.1-1.1-3.9-2.7-5.1-4.7Zm-6 34.7c-1.7 3.3-2.6 6.9-2.6 11.1c0 2.3 .4 4.7 1.1 7.1c.8 2.6 1.9 4.7 3.3 6.4c.6 .9 1.4 1.3 2.3 1.2c.9 0 1.7-0.5 2.5-1.3c.6-0.6 .8-1.4 .8-2.3c0-0.9-0.3-1.6-0.8-2.4c-0.7-1-1.4-2.3-2-4c-0.5-1.6-0.8-3.1-0.8-4.7c0-2.9 .7-5.4 1.9-7.6c1.3-2.2 3-3.9 5.1-5.2c1.4-0.9 3-1.4 4.7-1.7v28.6c0 1 .3 1.8 .9 2.5c.6 .7 1.4 1 2.4 1c3.9 0 7.4-0.7 10.4-2.2c3-1.5 5.4-3.6 7.1-6.4c1.7-2.9 2.6-6.2 2.6-10.1c0-3.9-0.9-7.4-2.7-10.5c-1.7-3-4.1-5.4-7.3-7.2c-3.1-1.8-6.7-2.6-10.8-2.6c-4 0-7.6 .9-10.8 2.7c-3.1 1.9-5.5 4.4-7.3 7.6Zm21.5-3.3v25c1.7-0.2 3.2-0.7 4.6-1.3c2-1 3.6-2.3 4.7-4.1c1.1-1.8 1.7-3.9 1.7-6.4c0-2.8-0.6-5.3-1.9-7.3c-1.2-2-3-3.5-5.2-4.6c-1.2-0.6-2.5-1-3.9-1.3Z" fill-rule="evenodd"/><path d="M.5 2403.5c0-1.1 .4-2.1 1.1-2.8c.7-0.7 1.6-1 2.7-1h20.3c-2.1-1.7-3.8-3.8-5-6.3c-1.2-2.5-1.8-5.2-1.8-8.2c0-3.6 .9-6.9 2.7-9.8c1.8-2.9 4.3-5.2 7.4-6.9c3.1-1.6 6.7-2.5 10.6-2.5c3.9 0 7.5 .9 10.7 2.7c3.2 1.9 5.6 4.3 7.4 7.4c1.8 3.1 2.8 6.7 2.8 10.6c0 3.9-0.9 7.4-2.8 10.5c-1.8 3.1-4.3 5.6-7.4 7.4c-3.2 1.7-6.8 2.7-10.7 2.7h-34.2c-1.1 0-2-0.3-2.7-1c-0.8-0.8-1.1-1.7-1.1-2.8Zm24-16.9c0 2.6 .6 4.8 1.8 6.8c1.2 2 2.9 3.6 5 4.7c2.1 1.1 4.5 1.7 7.2 1.7c2.7 0 5.1-0.6 7.2-1.7c2.1-1.2 3.8-2.7 5-4.7c1.2-2 1.9-4.3 1.9-6.8c0-2.5-0.6-4.8-1.9-6.8c-1.2-2-2.9-3.6-5-4.8c-2.1-1.1-4.5-1.7-7.2-1.7c-2.6 0-5 .6-7.2 1.7c-2.1 1.2-3.8 2.8-5 4.8c-1.3 2.1-1.8 4.3-1.8 6.8Zm-6.9 50.6c0-3.5 .7-6.6 2.2-9.3c1.5-2.7 3.7-4.8 6.5-6.4c2.8-1.6 6.3-2.3 10.5-2.3h18.5c1.1 0 2 .4 2.7 1.1c.8 .8 1.1 1.7 1.1 2.8c0 1.1-0.4 2-1.1 2.7c-0.7 .8-1.6 1.1-2.7 1.1h-18.5c-2.8 0-5.1 .5-7 1.6c-1.8 1-3.1 2.5-4 4.3c-0.8 1.8-1.3 3.8-1.3 6.1c0 2.2 .4 4 1.3 5.7c.9 1.7 2 3 3.5 4c1.5 1 3.1 1.5 4.9 1.5v4.7c-3.1 0-5.9-0.8-8.4-2.3c-2.5-1.5-4.5-3.6-5.9-6.2c-1.6-2.8-2.3-5.7-2.3-9.1Zm.4 16.6c0-1.1 .3-2 1-2.8c.8-0.7 1.7-1.1 2.8-1.1h33.5c1.2 0 2.1 .4 2.8 1.1c.7 .8 1 1.7 1 2.8c0 1.2-0.3 2.1-1 2.8c-0.7 .7-1.6 1-2.8 1h-33.5c-1.1 0-2-0.3-2.8-1c-0.7-0.7-1-1.7-1-2.8Zm-0.3 33.6c0-3.7 .9-6.9 2.7-9.8c1.8-2.9 4.3-5.2 7.4-6.9c3.1-1.7 6.7-2.5 10.6-2.5c3.9 0 7.5 .9 10.7 2.7c3.2 1.8 5.6 4.3 7.4 7.4c1.8 3.2 2.8 6.7 2.8 10.6c0 3.9-0.9 7.4-2.8 10.5c-1.8 3.1-4.3 5.5-7.4 7.3c-3.2 1.9-6.7 2.8-10.7 2.8v-2.9c-3.9 0-7.5-0.9-10.6-2.6c-3.1-1.6-5.6-3.9-7.4-6.8c-1.8-2.9-2.7-6.2-2.7-9.8Zm6.8 1.5c0 2.5 .6 4.8 1.8 6.8c1.2 2 2.9 3.6 5 4.7c2.1 1.2 4.5 1.7 7.2 1.7c2.7 0 5.1-0.6 7.2-1.7c2.1-1.1 3.8-2.7 5-4.7c1.2-2 1.9-4.3 1.9-6.8c0-2.5-0.6-4.8-1.9-6.8c-1.2-2-2.9-3.6-5-4.8c-2.1-1.2-4.5-1.7-7.2-1.7c-2.6 0-5 .6-7.2 1.7c-2.1 1.2-3.8 2.8-5 4.8c-1.3 2-1.8 4.3-1.8 6.8Zm-6.6 16.8c0-1.1 .4-2 1-2.8c.8-0.7 1.7-1.1 2.8-1.1h11.5l8 1.4l-2.7 6.2h-16.7c-1.1 0-2-0.4-2.8-1.1c-0.7-0.6-1.1-1.5-1.1-2.6Zm.1 24.1c0-2.2 .6-4.1 1.8-5.8c1.2-1.7 2.8-3 4.9-4c2.1-0.9 4.5-1.4 7.2-1.4h40.9c1.1 0 2 .4 2.7 1.1c.7 .7 1 1.6 1 2.7c0 1.1-0.3 2-1 2.7c-0.7 .7-1.6 1.1-2.7 1.1h-40.9c-1.8 0-3.4 .4-4.6 1.1c-1.2 .7-1.8 1.6-1.8 2.7v1.9c0 1-0.3 1.8-1 2.4c-0.7 .6-1.6 1-2.7 1c-1.1 0-2-0.5-2.7-1.4c-0.7-0.9-1-2.2-1-3.7v-0.4Zm0 16.5c0-1.1 .3-2 1-2.8c.8-0.7 1.7-1.1 2.8-1.1h33.4c1.2 0 2.1 .4 2.8 1.1c.7 .8 1.1 1.7 1.1 2.8c0 1.2-0.3 2.1-1.1 2.8c-0.7 .7-1.6 1-2.8 1h-33.4c-1.1 0-2-0.3-2.8-1c-0.7-0.7-1-1.7-1-2.8Zm47.7 0c0-1.3 .5-2.5 1.4-3.5c1-0.9 2.2-1.4 3.5-1.4c1.3 0 2.5 .5 3.4 1.4c1 1 1.5 2.2 1.5 3.5c0 1.4-0.5 2.5-1.5 3.4c-0.9 1-2.1 1.5-3.4 1.5c-1.3 0-2.5-0.5-3.5-1.5c-0.9-0.9-1.4-2.1-1.4-3.4Zm-47.7 32.1c0-2.5 .6-4.8 1.9-6.8c1.3-2 3-3.6 5.2-4.7c2.2-1.2 4.7-1.7 7.4-1.7h35.8c1.1 0 2 .4 2.7 1.1c.7 .7 1 1.6 1 2.7c0 1.1-0.3 2-1 2.7c-0.7 .7-1.6 1.1-2.7 1.1h-35.8c-2 0-3.7 .6-5 1.7c-1.4 1.1-2 2.4-2 4v2.6c0 .9-0.3 1.7-1 2.2c-0.7 .7-1.6 1-2.7 1c-1.1 0-2-0.4-2.7-1.3c-0.7-0.8-1-1.8-1-3.1v-1.5Zm33.1-16.6c0-1.1 .3-1.9 .9-2.6c.6-0.6 1.3-1 2.2-1c1 0 1.8 .3 2.4 1c.6 .7 .9 1.5 .9 2.6v17.3c0 1.1-0.3 1.9-0.9 2.6c-0.6 .7-1.4 1-2.4 1c-0.9 0-1.7-0.3-2.2-1c-0.5-0.7-0.9-1.5-0.9-2.6v-17.3Zm-51.1 38.3c0-0.5 .1-1.1 .5-1.8c1-2.2 2.6-2.8 4.7-1.8l51.7 22.9c2.1 1 2.7 2.6 1.8 4.7c-1 2.2-2.5 2.9-4.7 1.9l-51.6-23c-1.6-0.5-2.4-1.5-2.4-2.9Zm19.7 8.9c-0.4-0.9-0.5-1.9-0.2-2.7c.3-0.8 1-1.5 2-2l32.6-17.2c1-0.5 1.9-0.6 2.7-0.2c.9 .4 1.5 1.1 1.9 2c.4 1 .4 1.9 .1 2.7c-0.3 .8-0.9 1.5-1.9 1.9l-32.6 16.4c-1 .5-1.9 .7-2.8 .5c-0.8 .1-1.5-0.5-1.8-1.4Zm-2 61.6c0-3.8 .9-7.1 2.6-10c1.8-2.8 4.2-5.1 7.3-6.8c3.2-1.6 6.8-2.5 10.8-2.5c4.1 0 7.7 .9 10.8 2.6c3.2 1.8 5.6 4.2 7.3 7.3c1.8 3.1 2.7 6.7 2.7 10.7c0 4-0.9 7.6-2.7 10.6c-1.8 3.1-4.2 5.5-7.3 7.3c-3.1 1.8-6.7 2.7-10.8 2.7v-4.2c-4 0-7.6-0.8-10.8-2.3c-3.1-1.5-5.5-3.6-7.3-6.2c-1.7-2.7-2.6-5.7-2.6-9.2Zm-16.7 1.4c0-3.5 .7-6.9 2.1-10c1.4-3.1 3.4-5.7 6.1-7.9c.9-0.6 1.7-0.9 2.6-0.8c.9 .2 1.6 .7 2.2 1.5c.6 .9 .8 1.8 .6 2.8c-0.2 1-0.7 1.8-1.5 2.4c-1.7 1.3-3 3-4 5.1c-0.9 2.1-1.4 4.4-1.4 7c0 2.4 .6 4.6 1.7 6.6c1.1 2 2.8 3.7 5.1 4.9c2.3 1.2 5 1.8 8.2 1.8h10.7l6.6 2.5l-1.6 4.9h-16.1c-4 0-7.5-0.9-10.7-2.6c-3.2-1.8-5.8-4.2-7.7-7.4c-2-3.1-2.9-6.7-2.9-10.8Zm23.5 .1c0 2.6 .6 4.9 1.8 6.9c1.2 2 2.8 3.6 5 4.7c2.1 1.1 4.5 1.7 7.3 1.7c2.8 0 5.2-0.6 7.3-1.7c2.2-1.1 3.8-2.7 5-4.7c1.2-2 1.8-4.3 1.8-6.9c0-2.6-0.6-4.9-1.8-6.9c-1.2-2-2.9-3.6-5-4.7c-2.1-1.1-4.5-1.7-7.3-1.7c-2.8 0-5.2 .6-7.3 1.7c-2.1 1.1-3.8 2.7-5 4.7c-1.2 2-1.8 4.3-1.8 6.9Zm-6.8 49.8c0-4 .9-7.6 2.6-10.7c1.8-3.1 4.2-5.5 7.3-7.4c3.2-1.8 6.8-2.6 10.8-2.6c4.1 0 7.7 .9 10.8 2.6c3.2 1.8 5.6 4.2 7.3 7.4c1.8 3.1 2.7 6.7 2.7 10.7c0 4-0.9 7.5-2.7 10.6c-1.8 3.1-4.2 5.5-7.3 7.3c-3.1 1.8-6.7 2.7-10.8 2.7c-4 0-7.6-0.9-10.8-2.6c-3.1-1.8-5.5-4.2-7.3-7.3c-1.7-3.1-2.6-6.6-2.6-10.7Zm6.8 0c0 2.6 .6 4.9 1.8 6.9c1.2 2 2.8 3.6 5 4.6c2.1 1.2 4.5 1.7 7.3 1.7c2.8 0 5.2-0.6 7.3-1.7c2.2-1.1 3.8-2.6 5-4.6c1.2-2 1.8-4.3 1.8-6.9c0-2.6-0.6-4.9-1.8-6.9c-1.2-2-2.9-3.6-5-4.7c-2.1-1.1-4.5-1.7-7.3-1.7c-2.8 0-5.2 .6-7.3 1.7c-2.1 1.1-3.8 2.7-5 4.7c-1.2 2-1.8 4.3-1.8 6.9Zm-6.8 49.8c0-4.1 .9-7.6 2.6-10.7c1.8-3.1 4.2-5.6 7.3-7.4c3.2-1.8 6.8-2.6 10.8-2.6c4.1 0 7.7 .9 10.8 2.6c3.2 1.8 5.6 4.2 7.3 7.4c1.8 3.1 2.7 6.7 2.7 10.7c0 4-0.9 7.5-2.7 10.6c-1.8 3.1-4.2 5.5-7.3 7.3c-3.1 1.8-6.7 2.7-10.8 2.7c-4 0-7.6-0.9-10.8-2.6c-3.1-1.8-5.5-4.2-7.3-7.3c-1.7-3.1-2.6-6.6-2.6-10.7Zm6.8 0c0 2.6 .6 4.9 1.8 6.9c1.2 2 2.8 3.5 5 4.6c2.1 1.1 4.5 1.7 7.3 1.7c2.8 0 5.2-0.6 7.3-1.7c2.2-1.1 3.8-2.6 5-4.6c1.2-2 1.8-4.3 1.8-6.9c0-2.6-0.6-4.9-1.8-6.9c-1.2-2-2.9-3.6-5-4.7c-2.1-1.2-4.5-1.7-7.3-1.7c-2.8 0-5.2 .6-7.3 1.7c-2.1 1.1-3.8 2.7-5 4.7c-1.2 2-1.8 4.3-1.8 6.9Zm-6.8 49.8c0-3.9 .9-7.4 2.7-10.6c1.8-3.1 4.3-5.6 7.5-7.4c3.1-1.8 6.7-2.7 10.6-2.7c3.9 0 7.5 .8 10.6 2.5c3.2 1.7 5.6 4 7.4 6.9c1.8 2.9 2.8 6.2 2.8 9.8c0 2.9-0.6 5.7-1.9 8.2c-1.2 2.5-2.8 4.6-4.9 6.3h20.2c1.2 0 2.1 .4 2.8 1.1c.7 .8 1 1.7 1 2.8c0 1.1-0.3 2.1-1 2.8c-0.7 .7-1.6 1.1-2.8 1.1h-34.2c-4 0-7.5-0.9-10.6-2.8c-3.2-1.8-5.7-4.2-7.5-7.3c-1.8-3.3-2.7-6.8-2.7-10.7Zm6.8 0c0 2.5 .6 4.8 1.8 6.8c1.2 2 3 3.6 5.1 4.7c2.2 1.1 4.6 1.7 7.2 1.7c2.7 0 5.1-0.6 7.2-1.7c2.1-1.1 3.8-2.7 4.9-4.7c1.2-2 1.9-4.3 1.9-6.8c0-2.5-0.6-4.8-1.9-6.8c-1.2-2-2.8-3.6-4.9-4.8c-2.1-1.2-4.5-1.7-7.2-1.7c-2.6 0-5 .6-7.2 1.7c-2.1 1.2-3.8 2.8-5.1 4.8c-1.3 2-1.8 4.3-1.8 6.8Zm-6.8 48.2c0-3.5 .5-6.8 1.6-9.8c1.1-2.9 2.5-5.2 4.1-6.9c.8-0.8 1.7-1.1 2.7-1c1.1 .1 1.9 .6 2.6 1.5c.8 1 1.1 2 1 2.9c-0.1 1-0.5 1.8-1.3 2.5c-0.9 .9-1.8 2.2-2.7 4.1c-0.8 1.9-1.2 4-1.2 6.3c0 2.9 .5 5.1 1.4 6.6c1 1.6 2.2 2.4 3.7 2.4c1.5 0 2.8-0.7 3.9-2.2c1.1-1.5 2-4.1 2.7-8c1-5 2.5-8.7 4.5-11c2-2.2 4.4-3.4 7.3-3.4c2.6 0 4.7 .8 6.3 2.2c1.7 1.5 2.9 3.4 3.8 5.8c.8 2.4 1.3 4.8 1.3 7.4c0 3.3-0.5 6.2-1.6 8.8c-1.1 2.6-2.5 4.6-4.3 6.1c-0.8 .7-1.7 1-2.6 1c-0.8 0-1.6-0.5-2.2-1.3c-0.6-0.8-0.7-1.8-0.5-2.9c.2-1.1 .7-2 1.3-2.8c1.2-1.2 2-2.6 2.5-4c.5-1.5 .7-3.1 .7-5c0-2.2-0.4-4.1-1.1-5.6c-0.8-1.5-1.8-2.2-3.3-2.2c-0.9 0-1.7 .2-2.5 .7c-0.7 .5-1.3 1.5-2 2.9c-0.5 1.4-1.1 3.4-1.6 6.1c-0.8 3.8-1.7 6.7-2.9 8.9c-1.1 2.2-2.5 3.8-4 4.7c-1.5 1-3.2 1.4-5.2 1.4c-2.3 0-4.4-0.6-6.2-1.9c-1.9-1.2-3.3-3-4.4-5.4c-1.3-2.4-1.8-5.3-1.8-8.9Zm0 64.8c0-4 .9-7.6 2.6-10.7c1.8-3.1 4.2-5.6 7.3-7.4c3.2-1.8 6.8-2.6 10.8-2.6c4.1 0 7.7 .9 10.8 2.6c3.2 1.8 5.6 4.2 7.3 7.4c1.8 3.1 2.7 6.7 2.7 10.7c0 4-0.9 7.5-2.7 10.7c-1.8 3.1-4.2 5.5-7.3 7.3c-3.1 1.8-6.7 2.7-10.8 2.7c-4 0-7.6-0.9-10.8-2.6c-3.1-1.8-5.5-4.2-7.3-7.3c-1.7-3.2-2.6-6.8-2.6-10.8Zm6.8 0c0 2.6 .6 4.9 1.8 6.9c1.2 2 2.8 3.5 5 4.6c2.1 1.2 4.5 1.7 7.3 1.7c2.8 0 5.2-0.6 7.3-1.7c2.2-1.1 3.8-2.6 5-4.6c1.2-2 1.8-4.3 1.8-6.9c0-2.6-0.6-4.9-1.8-6.9c-1.2-2-2.9-3.6-5-4.7c-2.1-1.2-4.5-1.7-7.3-1.7c-2.8 0-5.2 .6-7.3 1.7c-2.1 1.2-3.8 2.7-5 4.7c-1.2 2-1.8 4.3-1.8 6.9Zm-6.6 65.8c0-1.1 .4-2 1-2.8c.8-0.7 1.7-1 2.8-1h18.5c2.8 0 5.2-0.5 7-1.6c1.8-1 3.1-2.5 4-4.3c.9-1.8 1.3-3.8 1.3-6.1c0-2.1-0.4-4-1.3-5.7c-0.9-1.7-2-3-3.4-4c-1.4-1-3-1.5-4.9-1.5v-4.7c3.2 0 5.9 .8 8.4 2.2c2.5 1.5 4.5 3.7 5.9 6.3c1.5 2.7 2.2 5.6 2.2 8.9c0 3.4-0.8 6.5-2.2 9.2c-1.5 2.8-3.6 4.9-6.5 6.5c-2.8 1.6-6.3 2.4-10.5 2.4h-18.4c-1.1 0-2-0.4-2.8-1.1c-0.7-0.7-1.1-1.6-1.1-2.7Zm0-30.8c0-1.1 .4-2 1-2.8c.8-0.7 1.7-1 2.8-1h33.4c1.2 0 2.1 .3 2.8 1c.7 .8 1.1 1.7 1.1 2.8c0 1.1-0.3 2.1-1.1 2.8c-0.7 .7-1.6 1.1-2.8 1.1h-33.3c-1.1 0-2-0.4-2.8-1.1c-0.7-0.8-1.1-1.7-1.1-2.8Zm.1 56.2c0-2.2 .6-4.1 1.8-5.8c1.2-1.7 2.8-3 4.9-4c2.1-1 4.5-1.4 7.2-1.4h40.9c1.1 0 2 .4 2.7 1.1c.7 .7 1 1.6 1 2.7c0 1.1-0.3 2-1 2.7c-0.7 .7-1.6 1-2.7 1h-40.9c-1.8 0-3.4 .4-4.6 1.1c-1.2 .7-1.8 1.6-1.8 2.7v1.9c0 1-0.3 1.8-1 2.4c-0.7 .7-1.6 1-2.7 1c-1.1 0-2-0.5-2.7-1.4c-0.7-0.9-1-2.2-1-3.7v-0.3Zm-18 19.2c0-0.5 .1-1.1 .5-1.8c1-2.2 2.6-2.8 4.7-1.8l51.7 22.9c2.1 1 2.7 2.6 1.8 4.7c-1 2.2-2.5 2.9-4.7 1.9l-51.6-23c-1.6-0.5-2.4-1.5-2.4-2.9Zm19.7 8.9c-0.4-1-0.5-1.9-0.2-2.7c.3-0.8 1-1.5 2-2l32.6-17.2c1-0.5 1.9-0.6 2.7-0.2c.9 .4 1.5 1.1 1.9 2c.4 .9 .4 1.8 .1 2.7c-0.3 .8-0.9 1.5-1.9 2l-32.6 16.4c-1 .5-1.9 .7-2.8 .5c-0.8 0-1.5-0.6-1.8-1.5Zm-2 63.8c0-4.2 .9-7.9 2.6-11.1c1.8-3.2 4.2-5.7 7.3-7.6c3.2-1.8 6.8-2.7 10.8-2.7c4.1 0 7.7 .8 10.8 2.5c3.2 1.8 5.6 4.1 7.3 7.2c1.8 3 2.7 6.5 2.7 10.5c0 3.9-0.9 7.2-2.6 10c-1.7 2.8-4.1 4.9-7.1 6.4c-3 1.5-6.5 2.2-10.4 2.2c-1 0-1.8-0.3-2.4-1c-0.6-0.6-0.9-1.5-0.9-2.5v-30.2h6v30l-2.1-3.1c2.5 0 4.7-0.5 6.7-1.5c2-1 3.6-2.3 4.7-4c1.1-1.7 1.7-3.9 1.7-6.4c0-2.9-0.6-5.3-1.9-7.4c-1.2-2-3-3.5-5.2-4.6c-2.1-1-4.6-1.6-7.3-1.6c-2.7 0-5.2 .6-7.3 1.9c-2.1 1.3-3.8 3-5.1 5.2c-1.3 2.2-1.9 4.7-1.9 7.6c0 1.5 .3 3.1 .8 4.7c.6 1.7 1.3 3 2 4c.5 .8 .8 1.6 .8 2.4c0 .9-0.2 1.7-0.8 2.3c-0.8 .8-1.6 1.3-2.5 1.3c-0.9 0-1.7-0.3-2.3-1.2c-1.4-1.7-2.5-3.8-3.3-6.4c-0.7-2.2-1.1-4.6-1.1-6.9Zm.4 38.9c0-1.5 .8-2.8 2.5-3.6l33.5-15.9c.9-0.4 1.7-0.5 2.5-0.1c.8 .3 1.5 1 1.9 1.9c.4 .9 .5 1.7 .2 2.6c-0.3 .9-0.9 1.6-1.7 2l-32 14.9v-3.6l32 14.6c.8 .5 1.4 1.1 1.7 2c.3 .9 .2 1.9-0.2 2.8c-0.4 .9-1 1.5-1.9 1.8c-0.9 .3-1.7 .2-2.6-0.1l-33.5-15.9c-1.6-0.7-2.4-1.8-2.4-3.4Zm-0.4 44.2c0-4.2 .9-7.9 2.6-11.1c1.8-3.2 4.2-5.7 7.3-7.6c3.2-1.8 6.8-2.7 10.8-2.7c4.1 0 7.7 .8 10.8 2.5c3.2 1.8 5.6 4.1 7.3 7.2c1.8 3 2.7 6.5 2.7 10.5c0 3.9-0.9 7.2-2.6 10c-1.7 2.8-4.1 4.9-7.1 6.4c-3 1.5-6.5 2.2-10.4 2.2c-1 0-1.8-0.3-2.4-1c-0.6-0.6-0.9-1.5-0.9-2.5v-30.2h6v30l-2.1-3.1c2.5 0 4.7-0.5 6.7-1.5c2-1 3.6-2.3 4.7-4c1.1-1.7 1.7-3.9 1.7-6.4c0-2.9-0.6-5.3-1.9-7.4c-1.2-2-3-3.5-5.2-4.6c-2.1-1-4.6-1.6-7.3-1.6c-2.7 0-5.2 .6-7.3 1.9c-2.1 1.3-3.8 3-5.1 5.2c-1.3 2.2-1.9 4.7-1.9 7.6c0 1.5 .3 3.1 .8 4.7c.6 1.7 1.3 3 2 4c.5 .8 .8 1.6 .8 2.4c0 .9-0.2 1.7-0.8 2.3c-0.8 .8-1.6 1.3-2.5 1.3c-0.9 0-1.7-0.3-2.3-1.2c-1.4-1.7-2.5-3.8-3.3-6.4c-0.7-2.2-1.1-4.6-1.1-6.9Zm26 30.2c3 0 5.7 .7 8 2.2c2.4 1.5 4.3 3.5 5.7 6c1.4 2.5 2.1 5.2 2.1 8.2c0 3-0.5 5.2-1.5 6.7c-0.9 1.5-2.1 2.1-3.4 1.7c-0.7-0.2-1.2-0.5-1.7-0.9c-0.3-0.4-0.6-0.9-0.7-1.4c-0.1-0.5-0.1-1.2 .1-1.8c.7-3.2 .7-6.1 .2-8.6c-0.6-2.6-1.6-4.6-3.1-6.1c-1.5-1.5-3.4-2.2-5.7-2.2v-3.8Zm-25.7 0c0-1.2 .3-2.1 .9-2.8c.6-0.7 1.6-1 2.8-1h33.5c1.2 0 2.1 .3 2.8 1c.6 .7 1 1.6 1 2.8c0 1.2-0.3 2.2-1 2.8c-0.6 .7-1.5 1-2.8 1h-33.4c-1.2 0-2.1-0.3-2.8-1c-0.7-0.6-1-1.5-1-2.8Zm-0.1 106.9c0-1.1 .4-2 1-2.8c.8-0.7 1.7-1.1 2.8-1.1h21.5c3.1 0 5.5-0.8 7-2.3c1.5-1.6 2.3-3.6 2.3-6.1c0-2.6-0.9-4.8-2.7-6.5c-1.8-1.7-4.1-2.5-6.9-2.5v-6.2c3.2 0 6.1 .7 8.5 2.1c2.5 1.4 4.5 3.3 5.9 5.8c1.4 2.5 2.1 5.5 2.1 8.7c0 2.8-0.6 5.4-1.9 7.6c-1.2 2.2-3.1 3.9-5.6 5.1c-2.4 1.2-5.3 1.9-8.8 1.9h-21.3c-1.1 0-2-0.3-2.8-1c-0.7-0.6-1.1-1.5-1.1-2.7Zm0-50c0-1.1 .4-2 1-2.8c.8-0.7 1.7-1 2.8-1h33.4c1.2 0 2.1 .3 2.8 1c.7 .8 1 1.7 1 2.8c0 1.1-0.3 2.1-1 2.8c-0.7 .7-1.6 1-2.8 1h-33.3c-1.1 0-2-0.3-2.8-1c-0.7-0.7-1.1-1.6-1.1-2.8Zm0 25.1c0-1.1 .4-2 1-2.8c.8-0.7 1.7-1 2.8-1h21.5c3.1 0 5.5-0.8 7-2.3c1.5-1.5 2.3-3.6 2.3-6.1c0-2.6-0.9-4.8-2.7-6.4c-1.8-1.7-4.1-2.6-6.9-2.6v-4.7c3.2 0 6.1 .7 8.5 2c2.5 1.3 4.5 3.1 5.9 5.4c1.4 2.3 2.1 4.9 2.1 7.9c0 2.9-0.6 5.4-1.9 7.6c-1.3 2.2-3.1 3.9-5.6 5.1c-2.4 1.2-5.3 1.9-8.8 1.9h-21.3c-1.1 0-2-0.4-2.8-1.1c-0.7-0.9-1.1-1.8-1.1-2.9Zm-0.2 57.7c0-3.6 .9-6.9 2.7-9.8c1.8-2.9 4.3-5.2 7.4-6.9c3.1-1.7 6.7-2.5 10.6-2.5c3.9 0 7.5 .9 10.7 2.7c3.2 1.9 5.6 4.3 7.4 7.4c1.8 3.1 2.8 6.7 2.8 10.6c0 3.9-0.9 7.4-2.8 10.5c-1.8 3.1-4.3 5.6-7.4 7.3c-3.2 1.9-6.7 2.8-10.7 2.8v-2.9c-3.9 0-7.5-0.9-10.6-2.6c-3.1-1.7-5.6-3.9-7.4-6.8c-1.8-2.8-2.7-6.1-2.7-9.8Zm6.8 1.5c0 2.6 .6 4.8 1.8 6.8c1.2 2 2.9 3.6 5 4.7c2.1 1.2 4.5 1.7 7.2 1.7c2.7 0 5.1-0.6 7.2-1.7c2.1-1.2 3.8-2.7 5-4.7c1.2-2 1.9-4.3 1.9-6.8c0-2.5-0.6-4.8-1.9-6.8c-1.2-2-2.9-3.6-5-4.8c-2.1-1.1-4.5-1.7-7.2-1.7c-2.6 0-5 .6-7.2 1.7c-2.1 1.2-3.8 2.8-5 4.8c-1.3 2.1-1.8 4.3-1.8 6.8Zm-6.6 16.9c0-1.1 .4-2 1-2.8c.8-0.7 1.7-1.1 2.8-1.1h11.5l8 1.4l-2.7 6.2h-16.7c-1.1 0-2-0.4-2.8-1.1c-0.7-0.6-1.1-1.5-1.1-2.6Zm-0.2 32.9c0-3.9 .9-7.4 2.7-10.6c1.8-3.1 4.3-5.6 7.5-7.4c3.1-1.8 6.7-2.7 10.6-2.7c3.9 0 7.5 .8 10.6 2.5c3.2 1.7 5.6 4 7.4 6.9c1.8 2.9 2.8 6.2 2.8 9.8c0 2.9-0.6 5.7-1.9 8.2c-1.2 2.5-2.8 4.6-4.9 6.3h20.2c1.2 0 2.1 .3 2.8 1.1c.7 .8 1 1.7 1 2.8c0 1.2-0.3 2.1-1 2.8c-0.7 .7-1.6 1.1-2.8 1.1h-34.2c-4 0-7.5-0.9-10.6-2.8c-3.2-1.8-5.7-4.2-7.5-7.3c-1.8-3.3-2.7-6.8-2.7-10.7Zm6.8 0c0 2.5 .6 4.8 1.8 6.8c1.2 2 3 3.6 5.1 4.7c2.2 1.2 4.6 1.7 7.2 1.7c2.7 0 5.1-0.6 7.2-1.7c2.1-1.1 3.8-2.7 4.9-4.7c1.2-2 1.9-4.3 1.9-6.8c0-2.5-0.6-4.8-1.9-6.8c-1.2-2-2.8-3.6-4.9-4.8c-2.1-1.2-4.5-1.7-7.2-1.7c-2.6 0-5 .6-7.2 1.7c-2.1 1.2-3.8 2.8-5.1 4.8c-1.3 2.1-1.8 4.3-1.8 6.8Zm-6.8 52.6c0-4.2 .9-7.8 2.6-11.1c1.8-3.2 4.2-5.7 7.3-7.6c3.2-1.8 6.8-2.7 10.8-2.7c4.1 0 7.7 .8 10.8 2.6c3.2 1.8 5.6 4.2 7.3 7.2c1.8 3.1 2.7 6.6 2.7 10.5c0 3.9-0.9 7.2-2.6 10.1c-1.7 2.8-4.1 4.9-7.1 6.4c-3 1.5-6.5 2.2-10.4 2.2c-1 0-1.8-0.3-2.4-1c-0.6-0.7-0.9-1.5-0.9-2.5v-30.2h6v30l-2.1-3.1c2.5-0.1 4.7-0.6 6.7-1.5c2-1 3.6-2.3 4.7-4.1c1.1-1.8 1.7-3.9 1.7-6.4c0-2.8-0.6-5.3-1.9-7.3c-1.2-2-3-3.5-5.2-4.6c-2.1-1.1-4.6-1.6-7.3-1.6c-2.7 0-5.2 .6-7.3 1.9c-2.1 1.3-3.8 3-5.1 5.2c-1.2 2.2-1.9 4.7-1.9 7.6c0 1.6 .3 3.1 .8 4.7c.6 1.7 1.3 3 2 4c.5 .8 .8 1.5 .8 2.4c0 .9-0.2 1.7-0.8 2.3c-0.8 .8-1.6 1.3-2.5 1.3c-0.9 .1-1.7-0.3-2.3-1.2c-1.4-1.7-2.5-3.8-3.3-6.4c-0.7-2.4-1.1-4.8-1.1-7.1Z"/></g></svg>