<svg xmlns="http://www.w3.org/2000/svg" viewBox="0 0 283 283" height="283" width="283"><defs><clipPath id="ClipPath-1"><ellipse cx="112.5" cy="102.6" rx="140" ry="140" fill="#e52421"/></clipPath></defs><style>
@keyframes a0_t { 0% { transform: translate(112.5px,102.6px) rotate(0deg) translate(-141.5px,-141.5px); } 100% { transform: translate(112.5px,102.6px) rotate(360deg) translate(-141.5px,-141.5px); } }
</style><g clip-path="url(#ClipPath-1)" transform="translate(29,38.9)"><path d="M166.9 289c-76 0-137.9-61.8-137.9-137.8c0-61.9 50.4-112.3 112.3-112.3c50.6 0 91.8 41.2 91.8 91.8c0 41.6-33.8 75.4-75.4 75.4c-34.4 0-62.4-28-62.4-62.4c0-28.6 23.3-51.9 51.9-51.9c24 0 43.5 19.5 43.5 43.5c0 20.3-16.5 36.8-36.8 36.8c-17.3 0-31.4-14.1-31.4-31.4c0-15 12.2-27.2 27.2-27.2c4.4 0 8.5 1.2 12.1 3.3c-4-3.2-9.1-5-14.5-5c-17.6 0-31.9 14.3-31.9 31.9c0 23.4 19 42.4 42.4 42.4c30.6 0 55.4-24.9 55.4-55.4c0-39.6-32.2-71.8-71.8-71.8c-50.9 0-92.3 41.4-92.3 92.3c0 65 52.9 117.8 117.8 117.8c37.8 0 69.8-16.9 92.6-48.8c21.1-29.6 32.7-69.9 32.7-113.5h20c0 47.6-12.9 92-36.4 125c-26.7 37.5-64.3 57.3-108.9 57.3Z" fill="#e52421" transform="translate(112.5,102.6) translate(-141.5,-141.5)" style="animation: 8s linear infinite both a0_t;"/></g><path class="st1" d="M141.5 275c73.7 0 133.5-59.8 133.5-133.5c0-73.7-59.8-133.5-133.5-133.5c-73.7 0-133.5 59.8-133.5 133.5c0 73.7 59.8 133.5 133.5 133.5Z" stroke-width="15" stroke="#1d1d1b" stroke-miterlimit="10" fill="none"/></svg>