<svg xmlns="http://www.w3.org/2000/svg" viewBox="0 0 2326 884.1"><defs><clipPath id="ClipPath-1"><path class="st0" d="M1593 598.4l-79.8-138.2l79.8-138.1l159.5-0.1l79.8 138.2l-79.8 138.2h-159.5Z" fill="none"/></clipPath></defs><style>
@keyframes a0_t { 0% { transform: translate(635px,230.3px) rotate(4deg) translate(-635px,-230.3px); animation-timing-function: cubic-bezier(.4,0,.6,1); } 50% { transform: translate(635px,230.3px) rotate(-4deg) translate(-635px,-230.3px); animation-timing-function: cubic-bezier(.4,0,.6,1); } 100% { transform: translate(635px,230.3px) rotate(4deg) translate(-635px,-230.3px); } }
@keyframes a1_t { 0% { transform: translate(1143px,231.1px) rotate(4deg) translate(-1143px,-231.1px); animation-timing-function: cubic-bezier(.4,0,.6,1); } 50% { transform: translate(1143px,231.1px) rotate(-4deg) translate(-1143px,-231.1px); } 100% { transform: translate(1143px,231.1px) rotate(4deg) translate(-1143px,-231.1px); } }
@keyframes a2_t { 0% { transform: translate(1672.8px,230.3px) rotate(4deg) translate(-1672.8px,-230.3px); animation-timing-function: cubic-bezier(.4,0,.6,1); } 50% { transform: translate(1672.8px,230.3px) rotate(-4deg) translate(-1672.8px,-230.3px); animation-timing-function: cubic-bezier(.4,0,.6,1); } 100% { transform: translate(1672.8px,230.3px) rotate(4deg) translate(-1672.8px,-230.3px); } }
</style><g transform="translate(635,230.3) rotate(4) translate(-635,-230.3)" style="animation: 3.8s linear infinite both a0_t;"><path class="st18" d="M696.1 288.6l-61.1-48.4l-61.2 48.4l-4.8-6.2l66-52.1l66 52.1l-4.9 6.2Z" fill="#010202"/><path class="st10" d="M635 659.6c-36.9 0-71.1-19.9-96.3-56.1c-23.8-34.2-36.9-79.2-36.9-126.9c0-47.8 13.1-92.8 36.9-127c25.2-36.2 59.4-56.1 96.3-56.1c36.8 0 71 19.9 96.2 56.1c23.8 34.2 36.9 79.2 36.9 126.9c0 47.8-13.1 92.8-36.9 127c-25.2 36.2-59.4 56.1-96.2 56.1Zm0-358.3c-34.3 0-66.2 18.7-89.9 52.8c-22.9 32.9-35.5 76.3-35.5 122.4c0 46.1 12.6 89.6 35.5 122.5c23.7 34.1 55.6 52.8 89.9 52.8c34.2 0 66.1-18.7 89.8-52.8c22.9-32.9 35.5-76.4 35.5-122.4c0-46.2-12.6-89.7-35.5-122.5c-23.7-34.1-55.6-52.8-89.8-52.8Z" fill="#1d1d1b"/><path class="st10" d="M635 644.8c-31.9 0-61.8-17.7-84.1-49.8c-22.1-31.7-34.2-73.8-34.2-118.4c0-44.7 12.1-86.8 34.2-118.5c22.4-32.1 52.2-49.8 84.1-49.8c31.8 .1 61.7 17.7 84 49.8c22.1 31.7 34.2 73.8 34.2 118.4c0 44.7-12.1 86.8-34.2 118.5c-22.3 32.1-52.2 49.8-84 49.8Zm0-328.6c-60.9 0-110.5 71.9-110.5 160.4c0 88.4 49.6 160.4 110.5 160.4c60.9 0 110.4-72 110.4-160.4c0-88.5-49.5-160.4-110.4-160.4Z" fill="#1d1d1b"/><path class="st10" d="M635 714c-16.9 0-30.5-13.7-30.7-30.4c-34.3-8.4-64.7-30.6-88.3-64.4c-21.7-31.2-35.6-69.9-40.1-112.1c-15.9-1.2-28.4-14.4-28.4-30.6c0-16.1 12.5-29.3 28.4-30.5c4.6-42.2 18.4-80.9 40.1-112.1c30.6-43.9 72.8-68 119-68c46.1 0 88.4 24.1 118.9 68c21.7 31.2 35.6 69.9 40.2 112.1c15.8 1.2 28.3 14.4 28.3 30.6c0 16.1-12.5 29.3-28.3 30.5c-4.6 42.2-18.5 80.9-40.2 112.1c-23.5 33.8-54 56-88.3 64.4c-0.1 16.7-13.8 30.4-30.6 30.4Zm-152.1-214.8l.4 3.7c4 42.2 17.6 80.9 39.1 111.9c23.1 33.2 53.2 54.6 86.8 61.9l3.4 .7l-0.3 3.5c-0.1 .8-0.2 1.6-0.2 2.4c0 12.6 10.3 22.9 22.9 22.9c12.6 0 22.8-10.3 22.8-22.9c0-0.8 0-1.6-0.1-2.4l-0.4-3.5l3.4-0.7c33.7-7.3 63.7-28.7 86.8-61.9c21.6-31 35.1-69.7 39.2-111.9l.3-3.7l3.7 .2c.4 0 .7 0 1.1 0c12.6 0 22.8-10.2 22.8-22.8c0-12.6-10.2-22.9-22.8-22.9c-0.4 0-0.7 0-1.1 .1l-3.7 .1l-0.4-3.7c-4-42.2-17.5-80.9-39.1-111.9c-29-41.7-69-64.6-112.5-64.6c-43.6 0-83.6 22.9-112.6 64.6c-21.5 31-35.1 69.7-39.1 111.9l-0.4 3.7l-3.7-0.2c-0.4 0-0.7 0-1.1 0c-12.6 0-22.8 10.3-22.8 22.8c0 12.6 10.2 22.9 22.8 22.9c.4 0 .8 0 1.1-0.1l3.7-0.1Z" fill="#1d1d1b"/><g><path class="st17" d="M637.7 517.1c-3.7 1.3-13.8 6.3-16 9.5c-1.3 1.8 1.6 1.6 1.3 3.8c-0.3 2.2 3.2 4.6 4.8 6.2c1.8 2 4.6 2.5 7.2 2.3c7.6-0.4 14.5-6.4 16.1-13.9c1.6-8.1-7.2-10.1-13.4-7.9Z" fill="#b3d133"/><path class="st17" d="M695.7 510.4c-6.3 1.9-10.8 8.1-11.5 14.6c-0.4 4.9 1.3 5.2 5.4 7.8c4.2 2.6 10.6 6.4 12.5 1.9c.5-1.1 .7-2.3 1.2-3.4c1.1-2.9 3.9-4.8 6.2-7c9.4-9.1-5.3-16.6-13.8-13.9Z" fill="#b3d133"/><path class="st13" d="M697.7 503.4l.3 2.7c-9.9 1-19.6 4.4-28.1 9.7c0-1.9 0-4 0-6.1c0-2.5 0-4.9 0-6.9c1.4 .1 2.9 .2 4.5 .3c4.6 .4 9.3 .8 14.1 .8c2.6 .1 5.8 0 9.2-0.5Z" fill="#a7f9f7"/><path class="st13" d="M697.7 503.4c9.3-1.2 20.6-4.7 27.4-14.3c7.4-10.2 7-23.9 6.7-33.8c-0.3-11.4-0.7-23.1-4.5-34.4c-4.4-13.1-13.1-22.9-23.7-26.9c-6.1-2.3-12.4-2.7-18.6-3c-6-0.4-11.7-0.7-16.7-2.8c-1.5-0.6-2.9-1.3-4.3-2.2l.2-0.1c-4.8-6-10.8-9.6-17.2-10.5c-4.4-1.8-9-2.5-13.6-2.7c0-0.6-0.2-1.2-0.6-1.7l-7.4-11.4l-0.5-0.4c-6.1-4.8-14.9-3.9-19.5 2.1l-0.4 .5l-4.2 11.9c-0.4 .9-0.3 1.9 0 2.8c-4.2 1.1-8.4 2.7-12.3 5.1c-1.3 .9-2.6 1.8-3.7 2.7c-0.6-0.4-1.3-0.6-2.1-0.7l-13.6-0.6l-0.6 .2c-7.4 2.1-11.8 9.8-9.7 17.1l.2 .6l7.2 10.3c.7 1.1 1.8 1.7 3 1.7c-1 5.2-1.5 10-1.6 13.9c-0.2 6.1 0 12.2 .3 18.1c0 .2 0 .5 0 .7c-0.7 0-1.4 .2-2.1 .6l-11.4 7.4l-0.5 .5c-4.8 6.1-3.8 14.8 2.1 19.5l.5 .4l9.4 3.4c-5 11.9-25.2 25.4-39.6 28.3c-1.2-9.5-1.8-19.2-1.8-29.2c0-88.4 49.6-160.4 110.5-160.4c60.9 .1 110.4 72 110.4 160.4c0 88.5-49.5 160.4-110.4 160.4c-1.5 0-2.9 0-4.4-0.1c24.6-7.1 33-27.9 36.3-35.9c.3-0.8 .5-1.4 .8-1.9c4.3-10.1 4.5-21 4.1-29.4c-0.2-5-1-10-1.8-14.9c-0.7-4.5-1.4-8.7-1.5-12.4v-2.6c5.2-5.4 14.9-5.2 22.6-3.2l1 .3c3.9 1.1 8.8 2.4 13.4 .5l3.5-1.4l-1.7-4.8c3.6-1.6 6.4-4.8 7.5-8.7l5 2.1c2.7-6.2-1-13-6.2-16.1c-3.6-2.1-7.6-2.6-11.1-2.6c-0.2 0-0.3 0-0.4 0c-1.4 0-2.6 .1-3.7 .2c-0.1 0-0.3 0-0.4 .1l-0.3-2.7Z" fill="#a7f9f7"/><path class="st21" d="M629.4 511.3c1.3 .6 2.6 1.1 3.9 1.5c-3 .6-5.9 1.3-8.7 2.3c1.5-1.4 3.1-2.6 4.9-3.8Z" fill="#def98a"/><path class="st20" d="M661.5 535.9c5.6-7.3 10.4-8.1 22.4-5.8c.6-4.7-0.8-10.8 1.5-15c-9.4 2-10.6 5.9-17.9 12.2l-5.1-5.9c.2-0.2 .3-0.3 .5-0.4h-0.6l-1.9 .8c1 2.7 1.2 5.8-0.1 8.7l-5.5-2.3c-0.3 5.3-2.7 9.3-6.4 11l.4 2.9l-2.8 1.2c-4.7 1.9-9.5 .6-13.4-0.5l-1-0.3c-8.1-2.2-18.5-2.3-23.4 4.1c-2.5 3.1-3.3 7.5-4.1 12c-0.4 2-0.8 4.1-1.3 6.1c-1.6 5.8-7.9 12.6-18.9 20.2c-7.4 5.1-15.7 9.7-21.5 12.4c12.2 15.6 26.8 27.2 42.9 33.8c39.5 3.6 49.9-22.1 54.4-33.2c.3-0.7 .5-1.4 .8-2c2.9-6.8 4-14.8 3.5-26c-0.2-4.5-0.9-9.3-1.7-13.9c-0.8-4.8-1.5-9.3-1.6-13.5v-5.6l.8-1Z" fill="#f5a685"/><path class="st20" d="M660.4 521.8c-1.2-3.1-3.6-5.8-6.3-7.4c-2.6-1.5-5.3-2.2-7.9-2.4c-0.2-0.1-17.1 3.2-17.3 3.1c3.4-2.3 7.8-21.4 27.7-16.3c2.6-0.2 2.8 3.5 5.4 3.5c.1 2.2 .1 4.9 .1 7.4c0 4.5 0 8.8 .2 11.3l-2 .8Z" fill="#f5a685"/><path class="st17" d="M724 455.5c.4 11.5 .2 21.6-5.2 29.1c-7.2 10-21.5 11.5-29.7 11.5h-0.6c-4.4 0-9-0.4-13.5-0.8c-7.9-0.6-16.2-1.3-24.4-0.2c-7.7 1.1-14.9 3.6-21.4 7.2c-6.5-4.1-12.1-10.8-15.6-19.1c-5-11.6-5.9-24.8-6-36.2c-0.1-10.2 .2-22.1 3.8-33.1c3.1-9.4 10.4-16.3 18-23.7l1.8-1.6c4-3.9 8.8-5.9 13.6-5.6l.2 .1c3.1 1.4 5.9 3.4 9 5.5c3.5 2.5 7.1 5.1 11.3 6.8c6.3 2.6 12.9 3 19.3 3.4c5.8 .3 11.3 .6 16.2 2.5c8.5 3.2 15.4 11.2 19.1 22.1c3.4 10.2 3.8 21.3 4.1 32.1Zm-12.7 25.8c1.8-1.3 2.2-3.7 .9-5.5c-1.2-1.7-3.7-2.1-5.4-0.9c-4.8 3.5-11.1 4.9-16.9 3.9c-5.8-1-11.2-4.4-14.6-9.2c-1.2-1.8-3.6-2.2-5.4-1c-1.8 1.2-2.2 3.7-1 5.4c.3 .4 .5 .7 .8 1.1c-0.5 .6-0.8 1.3-0.9 2.1l-0.3 6l.2 .6c1 3.6 4.2 5.9 7.7 5.9c.7 0 1.4-0.1 2.1-0.3l.6-0.2l4.6-3.1c.3-0.2 .5-0.4 .7-0.6c1.4 .4 2.8 .8 4.2 1c1.7 .3 3.4 .4 5 .4c6.3 0 12.6-1.9 17.7-5.6Zm-13.6-56.6c.8-3-0.5-5.8-3.1-6.5c-2.6-0.7-5.2 1.1-6 4.1c-0.8 3.1 .5 5.9 3.2 6.6c.3 .1 .7 .1 1.1 .1c2.2 0 4.1-1.7 4.8-4.3Zm-54.8 7.3c1.6-1.5 1.7-4 .2-5.6c-3.5-3.8-9.9-4.6-14.2-1.5c-4.4 3-5.9 9.2-3.5 13.9c.8 1.3 2.1 2.1 3.5 2.1c.6 0 1.2-0.1 1.8-0.4c1.9-1 2.7-3.4 1.7-5.3c-0.7-1.2-0.2-3.1 .9-3.9c1.2-0.8 3.1-0.6 4.1 .4c1.4 1.6 3.9 1.7 5.5 .3Z" fill="#b3d133"/><path class="st6" d="M619.6 365l5.2 7.9c-2.9 .2-5.7 .6-8.3 .9c-2.6 .3-5.2 .6-7.9 1.1l3.3-9.2c1.9-2.1 5.2-2.4 7.7-0.7Z" fill="#ffabab"/><path class="st6" d="M570.1 390.8l8.2 .4c-3.2 4.3-5.4 9-7 13.8l-5.1-7.4c-0.5-2.8 1.1-5.7 3.9-6.8Z" fill="#ffabab"/><path class="st6" d="M568.2 453.9c.1 5.4 0 10.7-0.6 15.9l-7.2-2.6c-2-2-2.3-5.3-0.7-7.8l8.5-5.5Z" fill="#ffabab"/><path class="st20" d="M625.6 519.7c-9.3 2-10.4 7.4-17.6 13.6c-0.7 .6-1.6 .9-2.5 .9c-1.1 0-2.2-0.5-3-1.3c-1.4-1.7-1.2-4.1 .4-5.5c1.6-1.4 3.3-2.7 5-3.9c3.6-6.5 8.5-12.1 14.3-16.6c-6.6-5-12.1-12.1-15.8-20.6c-5.6-12.8-6.5-27-6.6-39.2c-0.1-10.9 .3-23.6 4.2-35.6c3.7-11.2 12-19.2 20-26.9l1.7-1.7c1-0.9 1.9-1.7 2.9-2.4c-3.8 .1-7.6 .6-11.2 1c-8.2 1-17.5 2.2-24.7 6.7c-6.1 3.9-16.4 14-17.3 38.9c-0.2 5.7 0 11.7 .3 17.4c.4 10.2 .8 20.7-1.1 31.1c-2 11.1-13.3 20.5-19.8 25.2c-8.9 6.3-19.1 11-27.3 12.6c4.8 29.9 15.5 56.7 30.1 77.6c12.4-5.6 35.4-19.8 37.6-28.3c.5-1.7 .8-3.6 1.2-5.5c1-5.3 2-10.7 5.6-15.4c5.6-7.2 10.2-6.6 22.2-4.3c0-0.3 1.1-17.1 1.4-17.8Z" fill="#f5a685"/><path class="st10" d="M712.2 475.8c1.3 1.8 .9 4.2-0.9 5.5c-5.1 3.7-11.4 5.6-17.7 5.6c-1.6 0-3.3-0.1-5-0.4c-1.4-0.2-2.8-0.6-4.2-1c-0.2 .2-0.4 .4-0.7 .6l-4.6 3.1l-0.6 .2c-0.7 .2-1.4 .3-2.1 .3c-3.5 0-6.7-2.3-7.7-5.9l-0.2-0.6l.4-6c0-0.8 .3-1.6 .8-2.2c-0.3-0.3-0.5-0.6-0.8-1c-1.2-1.7-0.8-4.2 1-5.4c1.8-1.2 4.2-0.8 5.4 1c3.4 4.8 8.8 8.2 14.6 9.2c5.8 1 12.1-0.4 16.9-3.9c1.7-1.2 4.2-0.8 5.4 .9Zm-35.8 5.9l.1-0.1l-0.1-0.1v.2Z" fill="#1d1d1b"/><path class="st10" d="M694.6 418.2c2.6 .7 3.9 3.5 3.1 6.5c-0.7 2.6-2.6 4.3-4.8 4.3c-0.4 0-0.8 0-1.2-0.1c-2.6-0.7-3.9-3.5-3.1-6.6c.8-3 3.4-4.8 6-4.1Z" fill="#1d1d1b"/><path class="st10" d="M662.9 521h-0.6c-0.1-2.5-0.2-6.8-0.2-11.3c0-2.5 0-5.2 0-7.4c-2.7 0-15-1.2-25.5 3.3c-9.6 8.5 9.4 6.2 9.6 6.3c2.6 .3 5.4 1 7.9 2.5c2.7 1.6 5.1 4.3 6.3 7.4c1 2.7 1.2 5.8-0.1 8.7l-5.5-2.3c-0.3 5.3-2.7 9.3-6.4 11l.4 2.9l-2.8 1.2c-4.6 1.9-9.5 .6-13.4-0.5l-1-0.3c-8.1-2.2-18.5-2.3-23.4 4.1c-2.4 3.1-3.3 7.5-4.1 12c-0.4 2-0.8 4.1-1.3 6.1c-1.5 5.8-7.9 12.6-18.9 20.2c-7.4 5.1-15.7 9.7-21.5 12.4c12.2 15.6 26.8 27.2 42.9 33.8c39.5 3.6 49.9-22.1 54.4-33.2c.3-0.7 .6-1.4 .8-2c2.9-6.8 4-14.8 3.5-26c-0.2-4.5-0.9-9.3-1.7-13.9c-0.8-4.8-1.5-9.3-1.6-13.5v-5.6l.8-1c6.2-8 18-10.6 31.6-6.9l1 .3c1.6 .4 3.1 .8 4.6 1l-2.2-5.9h5.6c2.9 0 5.4-2.4 5.4-5.4c0-2.8-2.2-5.1-4.9-5.4c-1.1 0-2.2 .1-3.5 .2c-11.6 1.1-22.8 5.9-31.6 13.5l-5.1-5.9c.2-0.2 .3-0.3 .5-0.4Zm56.1-162.8c22.1 31.6 34.2 73.7 34.2 118.4c0 44.6-12.1 86.7-34.2 118.4c-22.3 32.1-52.2 49.8-84 49.8c-31.9 0-61.8-17.7-84.1-49.8c-22.1-31.7-34.2-73.8-34.2-118.4c0-44.7 12.1-86.8 34.2-118.4c22.4-32.2 52.2-49.9 84.1-49.9c31.8 0 61.7 17.7 84 49.8Zm12.8 97.1c.3 9.9 .8 23.6-6.7 33.8c-6.8 9.6-18.1 13.1-27.4 14.3c-3.4 .5-6.6 .6-9.2 .5c-4.8 0-9.5-0.4-14.1-0.8c-1.5-0.1-3-0.2-4.5-0.3c0 2 0 4.4 0 6.9c0 2.1 0 4.2 .1 6.1c8.4-5.3 18.1-8.7 28-9.7c.1-0.1 .3-0.1 .4-0.1c1.1-0.1 2.3-0.2 3.7-0.2c.1 0 .2 0 .4 0c3.5 0 7.5 .5 11.1 2.7c5.2 3 8.9 9.8 6.2 16.1l-5-2.2c-1.1 3.9-3.9 7.1-7.5 8.7l1.7 4.8l-3.5 1.4c-4.7 1.9-9.5 .6-13.4-0.5l-1-0.3c-7.7-2-17.4-2.2-22.6 3.2v2.6c.1 3.7 .8 7.9 1.5 12.4c.8 4.9 1.6 9.9 1.8 14.9c.4 8.4 .2 19.3-4.1 29.4c-0.3 .5-0.5 1.2-0.8 1.9c-3.3 8.1-11.7 28.8-36.3 35.9c1.4 .1 2.9 .2 4.4 .2c60.9 0 110.4-72 110.4-160.4c0-88.5-49.5-160.4-110.4-160.4c-60.9 0-110.5 71.9-110.5 160.4c0 9.9 .6 19.6 1.8 29.1c14.4-2.9 34.6-16.4 39.6-28.3l-9.4-3.3l-0.5-0.4c-6-4.8-6.9-13.5-2.1-19.6l.4-0.5l11.5-7.4c.6-0.4 1.4-0.6 2.1-0.6c0-0.2 0-0.5 0-0.7c-0.3-5.9-0.5-12-0.3-18.1c.1-3.9 .5-8.7 1.6-13.9c-1.2 0-2.3-0.6-3-1.6l-7.2-10.4l-0.2-0.6c-2.1-7.3 2.2-15 9.7-17.1l.6-0.2l13.6 .6c.8 .1 1.5 .3 2.1 .8c1.1-1 2.4-1.9 3.7-2.8c3.9-2.4 8.1-4 12.3-5.1c-0.3-0.9-0.4-1.9 0-2.8l4.2-11.9l.4-0.5c4.6-5.9 13.4-6.9 19.5-2.1l.5 .4l7.4 11.4c.4 .5 .6 1.1 .6 1.7c4.6 .2 9.2 .9 13.6 2.7c6.4 .9 12.4 4.5 17.2 10.5l-0.2 .1c1.4 .9 2.8 1.6 4.3 2.2c5 2.1 10.7 2.4 16.7 2.8c6.2 .3 12.5 .7 18.6 3c10.6 4 19.3 13.8 23.7 26.9c3.8 11.3 4.2 23 4.5 34.4Zm-13 29.3c5.4-7.5 5.6-17.6 5.2-29.1c-0.3-10.8-0.7-21.9-4.1-32.1c-3.7-10.9-10.6-18.9-19.1-22.1c-4.9-1.9-10.4-2.2-16.2-2.5c-6.4-0.4-13-0.8-19.3-3.4c-4.2-1.7-7.9-4.3-11.4-6.8c-3-2.1-5.8-4.1-8.9-5.5l-0.2-0.1c-4.8-0.3-9.6 1.7-13.6 5.6l-1.8 1.6c-7.6 7.4-14.9 14.3-18 23.7c-3.6 11-3.9 22.9-3.8 33.1c.1 11.4 .9 24.6 6 36.2c3.5 8.3 9.1 15 15.6 19.1c6.5-3.6 13.7-6.1 21.4-7.2c8.2-1.1 16.5-0.4 24.4 .2c4.5 .4 9.1 .8 13.5 .8h.6c8.2 0 22.5-1.5 29.7-11.5Zm-74.7 47.7c2.8 0 3-4.4 3-5.3c0-2.6-1.7-5.8-3.4-7.4c-0.3 0-0.6 0-0.9 0c-1 0-2 0-3.2 .2c-11.5 1.1-22.8 5.9-31.6 13.5c-0.7 .6-1.6 .9-2.5 .9c-1.1 0-2.2-0.5-3-1.3c-1.4-1.7-1.2-4.1 .4-5.5c1.6-1.4 3.3-2.7 5-3.9c3.6-6.5 8.5-12.1 14.3-16.6c-6.6-5-12.1-12.1-15.8-20.6c-5.6-12.8-6.5-27-6.6-39.2c-0.1-10.9 .3-23.6 4.2-35.6c3.7-11.2 12-19.2 20-26.9l1.7-1.7c1-0.9 1.9-1.7 2.9-2.4c-3.8 .1-7.6 .6-11.2 1c-8.2 1-17.5 2.2-24.7 6.7c-6.1 3.9-16.4 14-17.3 38.9c-0.2 5.7 0 11.7 .3 17.4c.4 10.2 .8 20.7-1.1 31.1c-2 11.1-13.3 20.5-19.8 25.2c-8.9 6.3-19.1 11-27.3 12.6c4.8 29.9 15.5 56.7 30.1 77.6c12.4-5.6 35.4-19.8 37.7-28.3c.4-1.7 .8-3.6 1.1-5.5c1-5.3 2-10.7 5.6-15.4c6.2-8 18-10.5 31.6-6.8l1 .3c2 .5 3.9 1 5.5 1.1l-0.5-4.1h4.5Zm-19.3-159.4l-5.1-7.9c-2.6-1.7-5.9-1.4-7.8 .7l-3.3 9.2c2.7-0.5 5.3-0.8 7.9-1.1c2.6-0.3 5.4-0.7 8.3-0.9Zm-46.5 18.3l-8.2-0.4c-2.8 1.1-4.4 4-3.9 6.8l5.1 7.4c1.6-4.8 3.9-9.5 7-13.8Zm-10.7 78.6c.6-5.2 .7-10.5 .6-15.9l-8.5 5.5c-1.6 2.5-1.3 5.8 .7 7.8l7.2 2.6Z" fill="#1d1d1b"/><path class="st10" d="M643.1 426.4c1.5 1.6 1.4 4.1-0.2 5.6c-1.6 1.4-4.1 1.3-5.5-0.3c-1-1-2.9-1.2-4.1-0.4c-1.1 .8-1.6 2.7-0.9 3.9c1 1.9 .2 4.3-1.7 5.3c-0.6 .3-1.2 .4-1.8 .4c-1.4 0-2.8-0.8-3.5-2.1c-2.4-4.7-0.9-10.9 3.5-13.9c4.3-3.1 10.7-2.3 14.2 1.6v-0.1Z" fill="#1d1d1b"/></g><path class="st11" d="M703.5 423.9c-0.2 0-0.5 0-0.8 0c-1.4-0.3-2.8-1.3-3.7-2.6c-1.8-2.6-1.4-5.7 .8-7.2l.1-0.1c2.2-1.4 5.2-0.6 6.9 2c1.8 2.6 1.4 5.7-0.8 7.2c-0.7 .5-1.6 .7-2.5 .7Z" fill="#1d1e1b"/><path class="st4" d="M628.4 517.7c-3.4 1.8-5.9 5.2-6.7 8.9c-0.8 3.8 .2 7.9 2.5 10.9" stroke="#1d1d1b" stroke-width="7.8px" stroke-miterlimit="10" fill="none"/><path class="st4" d="M687 512.2c-3.4 2-4.4 4.4-4.7 8.4c-0.3 4 1.4 8.1 4.5 10.6" stroke="#1d1d1b" stroke-width="7.8px" stroke-miterlimit="10" fill="none"/><path class="st2" d="M618.6 378.5c-25.8 18.4-31.6 54.2-24.6 83.3" stroke="#1d1d1b" stroke-linecap="round" stroke-width="7.8px" stroke-miterlimit="10" fill="none"/><path class="st2" d="M603.7 494.7c3.4 6.6 8.8 12.2 15.4 15.9" stroke="#1d1d1b" stroke-linecap="round" stroke-width="7.8px" stroke-miterlimit="10" fill="none"/><path class="st2" d="M647.7 501.3c-1.1 4.9-4.5 9.4-8.9 11.7" stroke="#1d1d1b" stroke-linecap="round" stroke-width="7.8px" stroke-miterlimit="10" fill="none"/><path class="st2" d="M625.7 404.5c-1.5-4.3-1.4-9.1 .3-13.2c5 .1 10.3-0.5 15.8 2" stroke="#1d1d1b" stroke-linecap="round" stroke-width="7.8px" stroke-miterlimit="10" fill="none"/></g><g transform="translate(1143,231.1) rotate(4) translate(-1143,-231.1)" style="animation: 4.2s linear infinite both a1_t;"><rect x="1001.6" y="317.2" class="st14" width="282.1" height="278.1" fill="#de9f35"/><path class="st10" d="M1147.6 650.1c-4.4 0-9-0.7-13.6-2.1c-37-11.4-73.4-17.2-108.3-17.2h-24c-6 0-10.9 4.9-10.9 10.9v6.5h-27.9c-8.1 0-14.7-6.6-14.7-14.7v-27.9h6.5c6 0 10.9-4.9 10.9-10.9v-25.8c0-28.8-4.2-58.9-12.5-89.6c-1.8-6.5-2.7-13.9-2.7-21.5c0-7.6 .9-15.1 2.7-21.6c8.3-30.6 12.5-60.8 12.5-89.6v-27.3c0-6-4.9-10.9-10.9-10.9h-6.5v-27.9c0-8 6.6-14.6 14.7-14.6h27.9v4.8c0 6.1 4.9 11 10.9 11h33.4c29.1 0 59.6-4.4 90.5-13c6.6-1.9 14.2-2.8 22-2.8c7.8 0 15.3 .9 21.9 2.8c31 8.6 61.4 13 90.6 13h20.8c6.1 0 11-4.9 11-11v-4.8h27.8c8.1 0 14.7 6.6 14.7 14.6v27.9h-3.9c-6 0-10.9 4.9-10.9 10.9v19.6c0 36.3 5.3 71.3 15.8 104.1c1.6 5 2.4 10 2.4 14.8c0 4.8-0.8 9.7-2.4 14.7c-10.5 32.8-15.8 67.9-15.8 104.1v18.1c0 6 4.9 10.9 10.9 10.9h3.9v27.9c0 8.1-6.6 14.7-14.7 14.7h-27.8v-6.5c0-6-4.9-10.9-11-10.9h-11.4c-34.9 0-71.4 5.8-108.4 17.2c-4.5 1.4-9.1 2.1-13.5 2.1Zm-145.9-27.1h24c35.7 0 72.9 5.9 110.6 17.5c3.9 1.2 7.7 1.8 11.3 1.8c3.6 0 7.4-0.6 11.2-1.8c37.8-11.6 75-17.5 110.7-17.5h11.5c9.8 0 17.9 7.7 18.6 17.4h20.2c3.7 0 6.8-3.1 6.8-6.9v-20.5c-8.4-1.8-14.8-9.3-14.8-18.3v-18.1c0-37.1 5.5-72.9 16.2-106.5c1.3-4.2 2-8.3 2-12.3c0-4-0.7-8.2-2-12.4c-10.7-33.6-16.2-69.4-16.2-106.5v-19.6c0-8.9 6.4-16.5 14.8-18.3v-20.5c0-3.8-3.1-6.8-6.8-6.8h-20.4c-1.4 8.9-9.1 15.8-18.4 15.8h-20.9c-29.9 0-61-4.5-92.7-13.3c-5.9-1.7-12.8-2.5-19.8-2.5c-7.1 0-14 .8-19.9 2.5c-31.6 8.8-62.8 13.3-92.6 13.3h-33.4c-9.3 0-17.1-6.9-18.5-15.8h-20.3c-3.8 0-6.9 3.1-6.9 6.8v20.2c9.7 .7 17.4 8.8 17.4 18.6v27.3c0 29.5-4.3 60.4-12.8 91.7c-1.6 5.8-2.4 12.5-2.4 19.5c0 6.9 .8 13.6 2.4 19.5c8.5 31.3 12.8 62.1 12.8 91.6v25.8c0 9.9-7.7 18-17.4 18.7v20.1c0 3.8 3.1 6.9 6.9 6.9h20.2c.6-9.7 8.8-17.4 18.6-17.4Zm285.9-23.8h-289.9v-285.9h289.9v285.9Zm-282.1-7.8h274.3v-270.3h-274.3v270.3Z" fill="#1d1d1b"/><path class="st10" d="M1303 614.5h-320.8v-316.5h320.8v316.5Zm-313-7.8h305.2v-300.9h-305.2v300.9Z" fill="#1d1d1b"/><path class="st18" d="M1277.5 289.2l-134.9-49.8l-134.9 49.8l-2.7-7.4l137.6-50.7l137.6 50.7l-2.7 7.4Z" fill="#010202"/><g class="st12" style="isolation: isolate;"><g><path class="st15" d="M1069.9 452.5c2.5 1.5 5.1 3 7.8 4.4c-8.1 1.2-16.2 3.2-24 6l-9.9-2c-5.1-1-10.3-1.5-15.5-1.5c12.9-5.4 26.9-7.8 40.8-6.9c.3 0 .5 0 .8 0Z" fill="#b83523"/><path class="st15" d="M1018.6 427.1c-3.5-0.6-6.6-1.7-9.1-3.3c-0.1 0-0.4-0.2-0.3-0.8c.1-0.5 .5-0.5 .6-0.6l10.8-1.9c2.2-0.3 4-1.8 4.8-3.9c.8-2.1 .5-4.4-0.8-6.2c-1.5-2.1-3.3-3.9-5.2-5.6l.5 .1c16.6-0.1 33.7 6.7 49.9 14.3l3.8 1.8c19.7 9.3 40 18.8 62.1 17.7c6.7-0.4 13.2-1.7 19.5-3c4.8-1 9.7-2 14.5-2.6c10.6-1.1 19.1-0.8 25.3 4.4c-2.2 4.3-3.2 9.4-4 13.4c-0.2 .7-0.3 1.3-0.4 1.9c-8.4-6.5-18.8-7.3-28.8-7c-10 .3-19.6 2.7-28.9 5c-2.2 .6-4.4 1.2-6.7 1.7c-7 1.7-14.8 3.2-22.6 3.2c-1.3-0.1-2.6-0.2-4-0.2c-2.2-0.2-4.4-0.5-6.6-1c-8.6-2.1-16.3-6.9-24.5-12c-8.9-5.7-18.2-11.5-29.1-13.5c-3.7-0.7-7.5-0.9-11.2-1c-3.3-0.2-6.5-0.3-9.6-0.9Z" fill="#b83523"/><path class="st15" d="M1263.9 442.5c1.2 5.7 2.5 12.2 1.3 17.9c-0.3 1.5-0.7 2.9-1.2 4.5c-0.8 2.3-1.5 4.6-1.8 7.2c-0.3 2-0.2 4-0.2 5.8c0 3 .1 5.5-0.9 7.5c-2.5 4.8-10.6 4.7-15.2 4.3c-12.9-1.2-25.4-4.4-37.2-9.6c-4.3-1.8-8.6-4-10.7-7.6c-2.5-4.3-1.5-10.4-0.3-15.7c.3-1.4 .6-2.8 .9-4.3c2.2-10.7 3.9-15.1 8.5-15.1c.6 0 1.2 0 1.8 .2c1.5 .3 3 .6 4.5 .9c10.1 2 20.4 4.1 31.9-0.8l.1 .1l2.4-1.2c.6-0.3 1.2-0.7 1.8-1c3.5-1.8 6.9-3.6 9.4-2.6c2.8 1 4.1 5.4 4.9 9.5Z" fill="#b83523"/><path class="st16" d="M1248.8 497.7c-0.6 6.7-1.3 13.6-2.2 20.3c-2.4 17.7-9.2 36.4-21.6 58.9c-3 5.4-7.1 11.7-13 13.4l-129.7-1.4c-3.2-3.2-5.9-8.6-7.2-14.2l-0.6-2.9l-3-0.1c-11-0.4-22.1-4.1-31.4-10.3c7.6-0.3 15.5-3.2 21.9-8.4c10.6-8.7 16.5-21.6 21.2-33l1.2-3c4.2-10.2 8.5-20.9 15.7-28.9c11.4-12.7 30.6-19 50.1-16.3c13.3 1.8 26.9 7.4 40.4 16.7c4.3 3.1 8.9 4 12.3 2.5c1.1-0.4 2.6-1.4 3.8-3.2c12.3 5.1 25.2 8.4 38.5 9.7c1.2 .1 2.4 .1 3.6 .2Z" fill="#6ba2a6"/><path class="st16" d="M1140.2 393.2c-5.4-11.6-1.2-26 12.6-42.7c12.2-14.7 24.5-19.3 41.4-15.4c17.5 4.1 32.6 15.7 41.2 31.9c10.5 19.6 13.2 42.2 14.3 59.9c-1.3 .6-2.6 1.2-3.7 1.8c-0.2 .1-0.3 .2-0.4 .2l-1.3 .7c-10.1 5.1-19 3.3-29.3 1.2c-1.5-0.3-3.1-0.6-4.7-0.9c-0.1 0-0.2 0-0.3-0.1c0 0 0-0.1 0-0.1c-0.4-2.3-1-4.4-2-6.3c-5.6-10.8-16.7-9.3-24.8-8.2c-1.4 .2-2.8 .4-4.1 .5c-15.7 1.6-32-7.9-38.9-22.5Zm24.2-43.7c-5.6-0.5-11.1 3.1-13 8.3c-0.7 2.1 .4 4.3 2.4 5c2 .8 4.2-0.3 5-2.3c.7-2 2.9-3.4 5-3.3c2 .2 4 2 4.4 4c.3 1.9 2 3.2 3.8 3.2c.3 0 .5-0.1 .7-0.1c2.2-0.4 3.6-2.5 3.1-4.6c-1-5.5-5.8-9.8-11.4-10.2Zm42.3 14.8c2.2-0.4 3.5-2.5 3.1-4.6c-1-5.5-5.8-9.8-11.5-10.2c-5.5-0.5-11 3.1-12.9 8.3c-0.7 2.1 .4 4.3 2.4 5c2 .8 4.2-0.3 5-2.3c.7-2 2.9-3.4 5-3.3c2 .2 4 2 4.4 4c.3 1.9 2 3.2 3.8 3.2c.2 0 .5-0.1 .7-0.1Zm-4 42.6c4.8-2.9 7.3-8.9 5.8-14.3c-0.6-2.1-2.7-3.3-4.8-2.8c-2.1 .6-3.3 2.8-2.7 4.8c.5 2-0.5 4.5-2.3 5.6c-1.8 1-4.4 .7-5.9-0.8c-1.5-1.5-4-1.4-5.5 .1c-1.5 1.6-1.5 4 .1 5.5c2.4 2.4 5.7 3.6 8.9 3.6c2.2 0 4.4-0.6 6.4-1.7Z" fill="#6ba2a6"/><path class="st10" d="M1271.6 440.9c1.3 6.5 2.8 13.8 1.3 21.2c-0.4 1.8-1 3.5-1.5 5.2c-0.6 2-1.3 3.9-1.5 5.8c-0.2 1.4-0.1 3-0.1 4.7c0 3.5 .1 7.4-1.8 11.1c-2.1 4.2-5.9 6.9-11.3 8.1c-0.6 7.3-1.4 14.7-2.4 22c-2.5 18.7-9.6 38.3-22.5 61.7c-3.8 6.8-9.3 15-18.3 17.3l-0.5 .1h-0.5l-133.2-1.5l-1.1-0.9c-4.3-3.6-7.9-9.6-9.9-16.4c-15.1-1.2-30-7.8-41.2-18.2c-1.8-1.7-2.1-4.3-0.9-6.3c1.2-2.1 3.7-3 6-2.2c7.6 2.5 17.6 .3 24.9-5.7c9.2-7.5 14.6-19.3 18.9-29.8l1.2-3c4.4-10.9 9-22.2 17.1-31.2c13.1-14.6 34.9-21.8 56.9-18.9c14.6 2 29.3 8.1 43.8 18.1c1.6 1.1 2.9 1.6 3.8 1.7c-3-1.8-5.7-4.2-7.5-7.4c-2.6-4.5-3-9.6-2.4-14.5c-6.5-7.4-15.5-8.7-26.9-8.3c-9.1 .2-17.8 2.4-27.1 4.8c-2.3 .6-4.6 1.1-6.8 1.7c-5.8 1.3-12 2.6-18.3 3.1c-0.8 .5-1.6 .7-2.5 .6c-1.3-0.2-2.7-0.3-4.1-0.3c-1.2-0.1-2.3-0.1-3.5-0.2c-23.5-0.7-48.4 6.1-67.9 18.9c-0.7 .4-1.4 .6-2.2 .6c-0.9 0-1.8-0.3-2.6-1c-1.3-1.1-1.7-2.9-1-4.5c1.5-3.7 3.7-7.2 6.6-10c-6.3-0.4-12.7 0-18.8 1.3c-2.3 .4-4.4-0.7-5.2-2.8c-0.9-2.1-0.2-4.4 1.7-5.7c14.1-9.1 30.4-14.4 47-15.4c-6.2-3.7-12.5-6.8-19.3-8c-3.2-0.6-6.6-0.8-10.2-0.9c-3.4-0.2-7-0.4-10.5-1c-4.5-0.7-8.6-2.3-12-4.4c-3-1.9-4.4-5.4-3.8-8.9c.8-3.5 3.4-6.1 6.9-6.7l8.5-1.5c-2.4-2.7-5.4-4.8-8.7-6.1c-2-0.8-3.2-2.8-3-5c.2-2.2 1.8-3.9 4-4.3c21.6-3.7 43.4 4.7 63.9 14.2l3.8 1.8c18.8 8.9 38.3 18 58.4 17c6.1-0.3 12-1.6 18.3-2.9c5-1 10.1-2 15.3-2.6c2.6-0.3 5.3-0.5 7.9-0.6c8.4-0.2 16.5 1.1 23.3 6.7c.6-0.4 1.3-0.8 2.1-1.1c-0.2-1.3-0.6-2.4-1.1-3.4c-3-5.7-8.3-5.2-16.8-4.1c-1.5 .2-3 .5-4.4 .6c-1 .1-2.1 .2-3.1 .2c-17.9 .4-35.8-10.6-43.6-27.2c-6.8-14.4-2.1-32 13.6-51c14.1-17 29.3-22.6 49.1-18c19.8 4.6 36.7 17.7 46.4 35.9c10.9 20.2 13.8 43.3 15.1 61.5c1.4 0 2.9 .2 4.4 .8c7.2 2.7 8.9 11.1 9.8 15.2Zm-6.4 19.6c1.3-5.8-0.1-12.3-1.3-18c-0.8-4.1-2.1-8.5-4.9-9.6c-2.5-0.9-5.9 .9-9.4 2.7c-0.6 .3-1.2 .7-1.8 1l-2.4 1.2l-0.1-0.1c-11.5 4.9-21.8 2.8-31.9 .8c-1.5-0.3-3-0.6-4.5-0.9c-0.6-0.2-1.2-0.2-1.8-0.2c-4.6 0-6.3 4.4-8.5 15.1c-0.3 1.5-0.6 2.9-0.9 4.3c-1.2 5.3-2.2 11.4 .3 15.7c2.1 3.6 6.4 5.8 10.7 7.6c11.8 5.2 24.3 8.4 37.2 9.6c4.6 .4 12.7 .5 15.2-4.3c1-2 .9-4.5 .9-7.5c0-1.9-0.1-3.8 .2-5.8c.3-2.6 1-4.9 1.8-7.2c.5-1.6 .9-3 1.2-4.5Zm-18.6 57.5c.9-6.7 1.6-13.6 2.2-20.3c-1.2-0.1-2.4-0.1-3.6-0.2c-13.3-1.3-26.2-4.6-38.5-9.7c-1.2 1.8-2.7 2.8-3.8 3.2c-3.4 1.5-8 .6-12.3-2.5c-13.5-9.3-27.1-14.9-40.4-16.7c-19.5-2.7-38.7 3.6-50.1 16.3c-7.2 8-11.5 18.7-15.7 28.9l-1.2 3c-4.7 11.4-10.6 24.3-21.2 33c-6.4 5.2-14.3 8.1-21.9 8.4c9.3 6.2 20.4 9.9 31.4 10.3l3 .1l.6 2.9c1.3 5.6 4 11 7.2 14.2l129.7 1.4c5.9-1.7 10-8 13-13.4c12.4-22.5 19.2-41.2 21.6-58.9Zm-0.6-89.3c1.1-0.6 2.4-1.2 3.7-1.8c-1.1-17.7-3.8-40.3-14.3-59.9c-8.6-16.2-23.7-27.8-41.2-31.9c-16.9-3.9-29.2 .7-41.4 15.4c-13.8 16.7-18 31.1-12.6 42.7c6.9 14.6 23.2 24.1 38.9 22.5c1.3-0.1 2.7-0.3 4.1-0.5c8.1-1.1 19.2-2.6 24.8 8.2c1 1.9 1.6 4 2 6.3c0 0 0 .1 0 .1c.1 .1 .2 .1 .3 .1c1.6 .3 3.2 .6 4.7 .9c10.3 2.1 19.2 3.9 29.3-1.2l1.3-0.7c.1 0 .2-0.1 .4-0.2Zm-55 22.2c.8-3.9 1.8-9.1 4-13.4c-6.2-5.2-14.7-5.5-25.3-4.3c-4.8 .5-9.7 1.5-14.5 2.5c-6.3 1.3-12.8 2.6-19.5 3c-22.1 1.1-42.4-8.4-62.1-17.7l-3.8-1.8c-16.2-7.6-33.3-14.3-49.9-14.3h-0.5c1.9 1.6 3.7 3.4 5.2 5.5c1.3 1.8 1.6 4.2 .8 6.2c-0.8 2.1-2.6 3.6-4.8 3.9l-10.8 2c-0.1 0-0.5 0-0.6 .5c-0.1 .6 .2 .8 .3 .8c2.5 1.6 5.6 2.8 9.1 3.3c3.1 .6 6.3 .7 9.6 .9c3.7 .1 7.5 .3 11.2 1c10.9 2 20.2 7.8 29.1 13.5c8.2 5.1 15.9 9.9 24.5 12c2.2 .5 4.4 .8 6.6 1c1.4 0 2.7 .1 4 .2c7.8 0 15.6-1.5 22.6-3.2c2.3-0.5 4.5-1.1 6.7-1.7c9.3-2.3 19-4.7 28.9-5c10-0.3 20.4 .5 28.8 7c.1-0.6 .2-1.2 .4-1.8Zm-113.3 6c-2.7-1.4-5.2-2.9-7.8-4.4c-0.3 0-0.5 0-0.8 0c-13.9-0.9-27.9 1.5-40.8 6.9c5.2 0 10.4 .5 15.5 1.5l9.9 2c7.8-2.8 15.9-4.8 24-6Z" fill="#1d1d1b"/><path class="st10" d="M1209.8 359.7c.4 2.1-0.9 4.2-3.1 4.6c-0.2 0-0.5 .1-0.7 .1c-1.8 0-3.5-1.3-3.8-3.2c-0.4-2-2.4-3.8-4.5-4c-2-0.1-4.2 1.3-4.9 3.3c-0.8 2-3 3-5 2.3c-2-0.7-3.1-2.9-2.4-5c1.9-5.2 7.4-8.8 13-8.3c5.6 .4 10.4 4.7 11.4 10.2Z" fill="#1d1d1b"/><path class="st10" d="M1208.5 392.6c1.5 5.4-1 11.4-5.8 14.3c-2 1.1-4.2 1.7-6.4 1.7c-3.2 0-6.5-1.2-8.9-3.6c-1.5-1.4-1.6-3.9-0.1-5.5c1.5-1.5 4-1.6 5.5-0.1c1.5 1.5 4.2 1.8 5.9 .8c1.8-1.1 2.8-3.6 2.3-5.6c-0.6-2 .6-4.2 2.7-4.7c2.1-0.6 4.2 .6 4.8 2.7Z" fill="#1d1d1b"/><path class="st10" d="M1175.8 359.7c.5 2.1-0.9 4.2-3 4.6c-0.3 0-0.5 .1-0.8 .1c-1.8 0-3.5-1.3-3.8-3.2c-0.4-2-2.4-3.8-4.4-4c-2.1-0.1-4.3 1.3-5 3.3c-0.8 2-3 3-5 2.3c-2-0.7-3.1-2.9-2.4-5c1.9-5.2 7.4-8.8 13-8.3c5.6 .4 10.4 4.7 11.5 10.2Z" fill="#1d1d1b"/></g></g></g><g transform="translate(1672.8,230.3) rotate(4) translate(-1672.8,-230.3)" style="animation: 3.6s linear infinite both a2_t;"><g><path class="st15" d="M1593 598.4l-79.8-138.2l79.8-138.1l159.5-0.1l79.8 138.2l-79.8 138.2h-159.5Z" fill="#b83523"/><path class="st10" d="M1754.8 602.3h-164.1l-82-142.1l1.1-1.9l80.9-140.1h164.1l82 142l-1.1 2l-80.9 140.1Zm-159.6-7.8h155.1l77.5-134.3l-77.5-134.2l-155.1-0.1l-77.5 134.3l77.5 134.3Z" fill="#1d1d1b"/></g><path class="st18" d="M1733.9 288.6l-61.1-48.4l-61.2 48.4l-4.8-6.2l66-52.1l66 52.1l-4.9 6.2Z" fill="#010202"/><path class="st10" d="M1775.6 638.4h-205.7l-102.9-178.2l1.1-1.9l101.8-176.3h205.7l102.9 178.2l-1.1 2l-101.8 176.2Zm-201.2-7.8h196.7l98.4-170.4l-98.4-170.4h-196.7l-98.4 170.4l98.4 170.4Z" fill="#1d1d1b"/><path class="st10" d="M1759.7 610.8h-173.9l-86.9-150.6l1.1-1.9l85.8-148.6h173.9l86.9 150.5l-1.1 2l-85.8 148.6Zm-169.4-7.8h164.9l82.4-142.8l-82.4-142.8l-164.9 .1l-82.4 142.7l82.4 142.8Z" fill="#1d1d1b"/><path class="st10" d="M1754.8 602.3h-164.1l-82-142.1l1.1-1.9l80.9-140.1h164.1l82 142l-1.1 2l-80.9 140.1Zm-159.6-7.8h155.1l77.5-134.3l-77.5-134.2l-155.1-0.1l-77.5 134.3l77.5 134.3Z" fill="#1d1d1b"/><g class="st19" clip-path="url(#ClipPath-1)"><g><path class="st7" d="M1732 343.9c13-11.8 32.1-16.6 49.1-12.3c1.2 .2 2.4 .6 2.9 1.6c.6 1.4-0.4 3-1.4 4.2c-9.3 11.2-18.5 22.4-27.8 33.6" stroke="#1d1e1b" stroke-width="7.8px" fill="#de9f35" stroke-miterlimit="10"/><g><path class="st9" d="M1752.1 527.4l7.1-10.9l1.9 3l10.5 16v27.5h-24.8v-27.5l5.3-8.1Z" fill="#b58268"/><path class="st9" d="M1649.7 535.5v27.5h-24.8v-27.5l12.4-19l7.2 11.1l5.2 7.9Z" fill="#b58268"/><rect x="1666.2" y="592.8" class="st9" width="64.2" height="84.2" fill="#b58268"/><path class="st9" d="M1822.2 522.8l-7.8 171.5l-9 29.7h-214.2l-9-29.7l-7.8-171.5h49.5l-6.8 10.4v37.6h40.4v-37.6l-6.8-10.4h95.1l-6.8 10.4v37.6h40.4v-37.6l-6.8-10.4h49.6Zm-84 162v-99.8h-79.8v99.8h79.8Z" fill="#b58268"/><path d="M1750.3 515h17.8c0 .7 .1 1.3 .1 2l-7.1 2.5l-1.9-3l-7.1 10.9l-1.5-10.2c-0.1-0.8-0.2-1.5-0.3-2.2Z"/><path d="M1738.2 585v99.8h-79.8v-99.8h79.8Zm-7.8 92v-84.2h-64.2v84.2h64.2Z"/><path d="M1701 437.8c-0.8 0-1.7 0-2.6 0h-0.2c-1 0-1.8 0-2.7 0c-15.1 1-25.9 8.3-34 23.1c-6.8 12.2-11.5 29-15.2 54.1h-17.8c3.5-37 14.1-63.8 31.3-79.7c10-9.2 22.2-14.5 35.3-15.3h.2c.9 0 1.9 .1 3 .1c1.1 0 2.1-0.1 3-0.1h.2c13.1 .8 25.3 6.1 35.3 15.3c17.3 15.9 27.8 42.7 31.3 79.7h-17.8c-3.7-25.1-8.5-41.9-15.2-54.1c-8.1-14.8-19-22.1-34-23.1Z"/><path d="M1644.5 527.6Z"/><path d="M1635.5 519.2l1.8-2.7l-12.4 19v27.5h24.8v-27.5l-5.2-7.9l1.5-10.3c.1-0.8 .2-1.5 .3-2.3h104c.1 .7 .2 1.4 .3 2.2l1.5 10.2l-5.3 8.1v27.5h24.8v-27.5l-10.5-16l7.1-2.5c0-0.7-0.1-1.3-0.1-2h62.3l-8.2 180.6l-11 36.2h-225.8l-11-36.2v-0.5l-8.2-180.1h62.4c-0.1 .6-0.2 1.1-0.2 1.7l7.1 2.5Zm178.9 175.1l7.8-171.5h-49.6l6.8 10.4v37.6h-40.4v-37.6l6.8-10.4h-95.1l6.8 10.4v37.6h-40.4v-37.6l6.8-10.4h-49.5l7.8 171.5l9 29.7h214.2l9-29.7Z"/><path d="M1628.5 515h17.8c-0.1 .8-0.2 1.5-0.3 2.3l-1.5 10.3l-7.2-11.1l-1.8 2.7l-7.1-2.5c0-0.5 .1-1.1 .1-1.7Z"/></g><g><g><path class="st14" d="M1624.7 430.9c11.5-5.8 22-13.4 31.1-22.5l-0.3-5.5c-3.9 2.3-9 .7-12.3-2.3c-3.3-3-5.2-7.2-7.5-11c-8.2-14.1-21.5-25.2-36.8-30.8c-15.3-5.6-32.6-5.7-48-0.2l-1.7 .3c-1.1-4.6 1.8-7.6 4.9-9.8c18.3-13.2 44.7-9.3 63.9 2.6c20.6 12.7 35.5 33.1 54.6 47.8c3 2.2 7.2-0.5 6.3-4.1c-4.4-18.9 1.3-39.2 7.5-58.6c1-3.1 2.2-6.5 5.1-8c2.9-1.4 6.4-0.4 9.4 .7c35.4 13.1 63.7 43.9 74.2 80.2c1 3.3-0.4 7-3.5 8.7c-14.8 8.6-40-3.5-53.9 8.7c-5 4.4-7.3 11-10.6 16.8c-12.3 21.4-38.1 30.2-61.7 37.3l-0.6-13.5c-6.2 4.9-14 7.9-21.9 8.4c-1.7-5.2-0.2-11.3 3.5-15.2c-11.7-0.8-22.6-9.5-26-20.8c8.4-2.2 16.6-5.3 24.3-9.2Z" fill="#de9f35"/><path class="st5" d="M1655.5 402.9l.3 5.5c-9.1 9.1-19.6 16.7-31.1 22.5c-11.2-29.8-36.5-54.1-67-63.6c-3.6-1.1-6.6-3.7-8-7.1c-0.2-0.5-0.4-0.9-0.5-1.3l1.7-0.3c15.4-5.5 32.7-5.4 48 .2c15.3 5.6 28.6 16.7 36.8 30.8c2.3 3.8 4.2 8 7.5 11c3.3 3 8.4 4.6 12.3 2.3Z" fill="#ce593d"/></g><path class="st3" d="M1550.9 358.6c15.4-5.5 32.7-5.4 48 .2c15.3 5.6 28.6 16.7 36.8 30.8c2.3 3.8 4.2 8 7.5 11c3.3 3 8.4 4.6 12.3 2.3l.3 5.5c-9.1 9-19.6 16.7-31.1 22.5c-7.7 3.9-15.9 7-24.3 9.2c3.4 11.3 14.3 19.9 26 20.8c-3.7 3.9-5.2 9.9-3.5 15.1c7.9-0.5 15.7-3.4 21.9-8.4l.6 13.6c23.6-7.1 49.4-15.9 61.7-37.3c3.3-5.8 5.6-12.4 10.6-16.8c13.9-12.2 39.1-0.1 53.9-8.7c3.1-1.7 4.5-5.4 3.5-8.7c-10.5-36.3-38.8-67.1-74.2-80.2c-3-1.2-6.5-2.1-9.4-0.7c-2.9 1.5-4.1 4.9-5.1 8c-6.2 19.4-11.9 39.6-7.5 58.6c.9 3.6-3.3 6.3-6.3 4.1c-19.1-14.7-34-35.1-54.6-47.8c-19.2-11.9-45.6-15.9-63.9-2.6c-3.1 2.2-6 5.2-4.9 9.7c.1 .5 .3 .9 .5 1.3c1.4 3.5 4.4 6.1 8 7.2c30.5 9.5 55.8 33.7 67 63.6c.3 .8 .7 1.7 1 2.5" stroke="#1d1e1b" stroke-width="7.8px" stroke-miterlimit="10" fill="none"/></g><path class="st1" d="M1719.6 377.6c-5.8-0.7-11.5 4.2-11.8 10" stroke="#1d1e1b" stroke-linecap="round" stroke-width="7.8px" stroke-miterlimit="10" fill="none"/><path class="st1" d="M1733 406.4c3.6 7.2 13.9 10.1 20.7 5.8" stroke="#1d1e1b" stroke-linecap="round" stroke-width="7.8px" stroke-miterlimit="10" fill="none"/></g></g></g><g><path class="st18" d="M1140 243.6c4.6 0 8.4-3.8 8.4-8.4c0-4.6-3.8-8.3-8.4-8.3c-4.5 0-8.3 3.7-8.3 8.3c0 4.6 3.8 8.4 8.3 8.4Z" fill="#010202"/><path d="M1142.6 170.1c24.9 0 45.2 20.2 45.2 45.1c0 25-20.3 45.2-45.2 45.2c-24.9 0-45.1-20.3-45.1-45.2c0-24.9 20.2-45.1 45.1-45.1Zm38.8 45.1c0-21.4-17.4-38.8-38.8-38.8c-21.4 0-38.8 17.4-38.8 38.8c0 21.5 17.4 38.9 38.8 38.9c21.4 0 38.8-17.5 38.8-38.9Z"/><path class="st8" d="M1142.6 254.1c21.5 0 38.8-17.4 38.8-38.9c0-21.4-17.3-38.8-38.8-38.8c-21.4 0-38.8 17.4-38.8 38.8c0 21.5 17.4 38.9 38.8 38.9Z" fill="#feca05"/><path d="M1142.6 238.8c22 0 30.8-15.7 31.2-16.4c.8-1.5 .2-3.4-1.3-4.3c-1.5-0.8-3.5-0.2-4.3 1.3c-0.3 .6-7.6 13.1-25.6 13.1c-18 0-25.3-12.6-25.6-13.1c-0.8-1.5-2.7-2.1-4.3-1.2c-1.5 .8-2.1 2.7-1.2 4.2c.4 .7 9.2 16.4 31.1 16.4Z"/><path d="M1125.6 210.2c8.4 0 11.8-6.2 12-6.4c.8-1.6 .2-3.5-1.3-4.3c-1.5-0.9-3.4-0.3-4.3 1.2c-0.1 .2-1.9 3.1-6.4 3.1c-4.4 0-6.3-3-6.3-3.1c-0.9-1.5-2.8-2-4.3-1.2c-1.5 .9-2.1 2.7-1.3 4.3c.2 .2 3.6 6.4 11.9 6.4Z"/><path d="M1159.5 210.2c8.3 0 11.8-6.2 11.9-6.4c.8-1.6 .3-3.5-1.3-4.3c-1.5-0.9-3.4-0.3-4.2 1.2c-0.1 .2-2 3.1-6.4 3.1c-4.4 0-6.3-3-6.4-3.1c-0.8-1.5-2.8-2-4.3-1.2c-1.5 .9-2 2.7-1.2 4.3c.1 .2 3.6 6.4 11.9 6.4Z"/></g><g><path class="st18" d="M632.4 243.6c4.6 0 8.3-3.8 8.3-8.4c0-4.6-3.7-8.3-8.3-8.3c-4.6 0-8.3 3.7-8.3 8.3c0 4.6 3.7 8.4 8.3 8.4Z" fill="#010202"/><path d="M635 170.1c24.9 0 45.1 20.2 45.1 45.1c0 25-20.2 45.2-45.1 45.2c-24.9 0-45.2-20.3-45.2-45.2c0-24.9 20.3-45.1 45.2-45.1Zm38.8 45.1c0-21.4-17.4-38.8-38.8-38.8c-21.4 0-38.9 17.4-38.9 38.8c0 21.5 17.5 38.9 38.9 38.9c21.4 0 38.8-17.5 38.8-38.9Z"/><path class="st8" d="M635 254.1c21.4 0 38.8-17.4 38.8-38.9c0-21.4-17.4-38.8-38.8-38.8c-21.5 0-38.9 17.4-38.9 38.8c0 21.5 17.4 38.9 38.9 38.9Z" fill="#feca05"/><path d="M635 238.8c21.9 0 30.7-15.7 31.1-16.4c.8-1.5 .3-3.4-1.3-4.3c-1.5-0.8-3.4-0.2-4.3 1.3c-0.3 .6-7.5 13.1-25.5 13.1c-18.1 0-25.3-12.6-25.6-13.1c-0.9-1.5-2.8-2.1-4.3-1.2c-1.5 .8-2.1 2.7-1.3 4.2c.4 .7 9.2 16.4 31.2 16.4Z"/><path d="M618 210.2c8.3 0 11.8-6.2 11.9-6.4c.8-1.6 .3-3.5-1.3-4.3c-1.5-0.9-3.4-0.3-4.2 1.2c-0.1 .2-2 3.1-6.4 3.1c-4.4 0-6.3-3-6.4-3.1c-0.9-1.5-2.8-2-4.3-1.2c-1.5 .9-2 2.7-1.2 4.3c.1 .2 3.6 6.4 11.9 6.4Z"/><path d="M651.9 210.2c8.3 0 11.7-6.2 11.9-6.4c.8-1.6 .2-3.5-1.3-4.3c-1.5-0.9-3.4-0.3-4.3 1.2c-0.1 .2-1.9 3.1-6.3 3.1c-4.5 0-6.4-3-6.4-3.1c-0.9-1.5-2.8-2-4.3-1.2c-1.5 .9-2.1 2.7-1.3 4.3c.2 .2 3.6 6.4 12 6.4Z"/></g><g><path class="st18" d="M1670.2 243.6c4.6 0 8.3-3.8 8.3-8.4c0-4.6-3.7-8.3-8.3-8.3c-4.6 0-8.3 3.7-8.3 8.3c0 4.6 3.7 8.4 8.3 8.4Z" fill="#010202"/><path d="M1672.8 170.1c24.9 0 45.1 20.2 45.1 45.1c0 25-20.2 45.2-45.1 45.2c-24.9 0-45.2-20.3-45.2-45.2c0-24.9 20.3-45.1 45.2-45.1Zm38.8 45.1c0-21.4-17.4-38.8-38.8-38.8c-21.4 0-38.9 17.4-38.9 38.8c0 21.5 17.5 38.9 38.9 38.9c21.4 0 38.8-17.5 38.8-38.9Z"/><path class="st8" d="M1672.8 254.1c21.4 0 38.8-17.4 38.8-38.9c0-21.4-17.4-38.8-38.8-38.8c-21.5 0-38.9 17.4-38.9 38.8c0 21.5 17.4 38.9 38.9 38.9Z" fill="#feca05"/><path d="M1672.8 238.8c21.9 0 30.7-15.7 31.1-16.4c.8-1.5 .3-3.4-1.3-4.3c-1.5-0.8-3.4-0.2-4.3 1.3c-0.3 .6-7.5 13.1-25.5 13.1c-18 0-25.3-12.6-25.6-13.1c-0.9-1.5-2.8-2.1-4.3-1.2c-1.5 .8-2.1 2.7-1.3 4.2c.4 .7 9.2 16.4 31.2 16.4Z"/><path d="M1655.8 210.2c8.3 0 11.8-6.2 11.9-6.4c.8-1.6 .3-3.5-1.3-4.3c-1.5-0.9-3.4-0.3-4.2 1.2c-0.2 .2-2 3.1-6.4 3.1c-4.4 0-6.3-3-6.4-3.1c-0.9-1.5-2.8-2-4.3-1.2c-1.5 .9-2 2.7-1.2 4.3c.1 .2 3.6 6.4 11.9 6.4Z"/><path d="M1689.6 210.2c8.4 0 11.8-6.2 12-6.4c.8-1.6 .2-3.5-1.3-4.3c-1.5-0.9-3.4-0.3-4.3 1.2c-0.1 .2-1.9 3.1-6.4 3.1c-4.4 0-6.3-3-6.3-3.1c-0.9-1.5-2.8-2-4.3-1.2c-1.5 .9-2.1 2.7-1.3 4.3c.2 .2 3.6 6.4 11.9 6.4Z"/></g></svg>