<svg width="42" height="42" viewBox="0 0 42 42" fill="none" xmlns="http://www.w3.org/2000/svg">
<path d="M42 21C42 32.598 32.598 42 21 42C9.40202 42 0 32.598 0 21C0 9.40202 9.40202 0 21 0C32.598 0 42 9.40202 42 21Z" fill="#FFC107"/>
<path d="M13.7196 22.6693C13.1104 23.8421 13.8021 24.4027 15.3803 25.3604C16.722 26.1721 18.5754 26.4689 19.766 26.5877L18.7682 27.5279C17.354 28.8467 16.0124 30.1236 15.0742 31.0083C13.7087 32.2901 15.907 34.3466 17.2715 33.0921L20.9656 29.6029C22.3798 30.9353 23.7354 32.2122 24.6596 33.097C26.0252 34.3564 28.2225 32.3174 26.8719 31.0132L23.1778 27.5327L22.1661 26.5926C23.3716 26.4738 25.1973 26.1594 26.5231 25.3653L26.5221 25.3643C28.1003 24.4017 28.792 23.8421 28.1917 22.6693C27.8289 22.0036 26.851 21.4468 25.5491 22.4094C25.5491 22.4094 23.791 23.7282 20.9557 23.7282C18.1193 23.7282 16.3622 22.4094 16.3622 22.4094C15.0603 21.442 14.0784 22.0036 13.7196 22.6693Z" fill="white"/>
<path d="M20.9536 21.8905C24.3724 21.8905 27.1641 19.0049 27.1641 15.4526C27.1641 11.8855 24.3724 8.99988 20.9536 8.99988C17.5338 8.99988 14.7422 11.8855 14.7422 15.4526C14.7422 19.0049 17.5338 21.8905 20.9536 21.8905ZM20.9536 12.2687C22.6335 12.2687 24.0038 13.6924 24.0038 15.4526C24.0038 17.198 22.6335 18.6217 20.9536 18.6217C19.2737 18.6217 17.9034 17.198 17.9034 15.4526C17.9025 13.6913 19.2727 12.2687 20.9536 12.2687Z" fill="white"/>
</svg>
