<svg width="10" height="10" viewBox="0 0 10 10" fill="none" xmlns="http://www.w3.org/2000/svg">
<path d="M0.626826 0.000260591C0.372961 0.000329235 0.144445 0.154248 0.0489182 0.389515C-0.0466084 0.624783 0.00989543 0.894491 0.191828 1.07161L4.11781 4.99864L0.191828 8.92568C0.0288485 9.08221 -0.0368012 9.31463 0.0201953 9.53331C0.0771919 9.752 0.247926 9.92278 0.466554 9.97979C0.685182 10.0368 0.917542 9.97113 1.07402 9.80812L5 5.88108L8.92598 9.80812C9.08246 9.97114 9.31482 10.0368 9.53345 9.9798C9.75207 9.92279 9.92281 9.75201 9.97981 9.53332C10.0368 9.31463 9.97115 9.08221 9.80817 8.92569L5.88219 4.99865L9.80817 1.07161C9.99268 0.892208 10.0482 0.617894 9.94787 0.38086C9.84758 0.14382 9.6121 -0.00731519 9.35488 0.000273089C9.1928 0.00510313 9.03897 0.072861 8.92597 0.189188L4.99999 4.11623L1.07401 0.189188C0.956558 0.0684179 0.79527 0.000266832 0.626826 0.000260591Z" fill="#217A01"/>
</svg>
