<svg width="17" height="10" viewBox="0 0 17 10" fill="none" xmlns="http://www.w3.org/2000/svg">
<path d="M8.99995 9.50005C9.09845 9.50015 9.19601 9.48079 9.287 9.44307C9.378 9.40536 9.46065 9.35005 9.5302 9.2803L17.0302 1.7803C17.3233 1.48723 17.3233 1.01267 17.0302 0.719797C16.7371 0.426922 16.2626 0.426734 15.9697 0.719797L8.99995 7.68955L2.0302 0.719796C1.73714 0.426733 1.26258 0.426733 0.969702 0.719795C0.676826 1.01286 0.676639 1.48742 0.969702 1.7803L8.4697 9.2803C8.53926 9.35005 8.62191 9.40536 8.7129 9.44307C8.8039 9.48079 8.90145 9.50015 8.99995 9.50005Z" fill="#7A7A7A"/>
</svg>
