<svg width="20" height="21" viewBox="0 0 20 21" fill="none" xmlns="http://www.w3.org/2000/svg">
<path d="M8.4371 18.9375C8.27134 18.9375 8.11237 18.8717 7.99516 18.7544C7.87795 18.6372 7.8121 18.4783 7.8121 18.3125V12.3031L2.01835 5.93125C1.79028 5.67992 1.64006 5.3678 1.58592 5.03276C1.53179 4.69772 1.57607 4.35417 1.71338 4.04381C1.8507 3.73345 2.07514 3.46961 2.35949 3.28432C2.64383 3.09904 2.97584 3.00027 3.31522 3H16.684C17.0234 3.00027 17.3554 3.09904 17.6397 3.28432C17.9241 3.46961 18.1485 3.73345 18.2858 4.04381C18.4231 4.35417 18.4674 4.69772 18.4133 5.03276C18.3591 5.3678 18.2089 5.67992 17.9808 5.93125L12.1871 12.3031V15.8125C12.187 15.9061 12.1659 15.9985 12.1254 16.0829C12.0848 16.1673 12.0258 16.2415 11.9527 16.3L8.82772 18.8C8.71692 18.8889 8.57915 18.9374 8.4371 18.9375ZM3.31522 4.25C3.21797 4.25024 3.12287 4.27867 3.04143 4.33184C2.95999 4.38501 2.89571 4.46064 2.85637 4.54958C2.81702 4.63852 2.8043 4.73696 2.81973 4.83298C2.83517 4.92901 2.87811 5.0185 2.94335 5.09062L8.8996 11.6531C9.00164 11.7653 9.0594 11.9108 9.0621 12.0625V17.0125L10.9371 15.5V12.0625C10.9367 11.9065 10.9947 11.756 11.0996 11.6406L17.0558 5.07812C17.1172 5.00567 17.1568 4.91734 17.1701 4.82334C17.1834 4.72933 17.1698 4.63348 17.1309 4.54688C17.092 4.46027 17.0294 4.38643 16.9503 4.3339C16.8712 4.28136 16.7789 4.25228 16.684 4.25H3.31522Z" fill="#217B00"/>
</svg>
