<svg width="6" height="10" viewBox="0 0 6 10" fill="none" xmlns="http://www.w3.org/2000/svg">
    <path d="M5.625 5C5.62506 4.94254 5.61376 4.88563 5.59176 4.83255C5.56976 4.77947 5.5375 4.73126 5.49681 4.69068L1.12181 0.315684C0.950856 0.144731 0.674028 0.144731 0.503184 0.315684C0.332341 0.486637 0.332231 0.763465 0.503184 0.934309L4.56887 5L0.503184 9.06568C0.332231 9.23664 0.332231 9.51347 0.503184 9.68431C0.674137 9.85515 0.950965 9.85526 1.12181 9.68431L5.49681 5.30931C5.5375 5.26874 5.56976 5.22052 5.59176 5.16744C5.61376 5.11436 5.62506 5.05746 5.625 5Z" fill="#217B00"/>
</svg>
