<svg width="6" height="10" viewBox="0 0 6 10" fill="none" xmlns="http://www.w3.org/2000/svg">
    <path d="M0.375 5C0.37506 5.05746 0.38636 5.11436 0.40836 5.16744C0.43036 5.22052 0.46261 5.26874 0.503291 5.30931L4.87829 9.68431C5.04924 9.85526 5.32607 9.85515 5.49702 9.68431C5.66797 9.51347 5.66787 9.23664 5.49702 9.06568L1.43133 5L5.49702 0.934309C5.66787 0.763465 5.66787 0.486637 5.49702 0.315684C5.32607 0.144731 5.04924 0.144731 4.87829 0.315684L0.503291 4.69068C0.46261 4.73126 0.43036 4.77947 0.40836 4.83255C0.38636 4.88563 0.37506 4.94254 0.375 5Z" fill="#217B00"/>
</svg>
