<svg width="16" height="16" viewBox="0 0 16 16" fill="none" xmlns="http://www.w3.org/2000/svg">
<path d="M15.8482 15.1295L11.7173 11.0646C12.799 9.88931 13.4637 8.33496 13.4637 6.62455C13.4632 2.96568 10.4495 0 6.73158 0C3.0137 0 0 2.96568 0 6.62455C0 10.2834 3.0137 13.2491 6.73158 13.2491C8.33796 13.2491 9.8113 12.6935 10.9686 11.7698L15.1156 15.8507C15.3176 16.0498 15.6457 16.0498 15.8477 15.8507C16.0503 15.6517 16.0503 15.3286 15.8482 15.1295ZM6.73158 12.2299C3.58585 12.2299 1.03575 9.72029 1.03575 6.62455C1.03575 3.52881 3.58585 1.01923 6.73158 1.01923C9.87734 1.01923 12.4274 3.52881 12.4274 6.62455C12.4274 9.72029 9.87734 12.2299 6.73158 12.2299Z" fill="#7A7A7A"/>
</svg>
