<svg width="16" height="16" viewBox="0 0 16 16" fill="none" xmlns="http://www.w3.org/2000/svg">
<path d="M14.276 0H1.72394C0.773375 0 0 0.773344 0 1.72394V12.2677C0 13.2183 0.773375 13.9917 1.72394 13.9917H5.7975L7.6685 15.8627C7.75641 15.9506 7.87563 16 7.99994 16C8.12425 16 8.2435 15.9506 8.33141 15.8627L10.2024 13.9917H14.276C15.2266 13.9917 16 13.2183 16 12.2677V1.72394C16 0.773344 15.2266 0 14.276 0ZM12.2866 6.19156L10.4833 7.94925L10.9048 10.4057C10.9125 10.4393 10.9166 10.4744 10.9166 10.5104C10.9166 10.7689 10.7074 10.9785 10.449 10.9792C10.4484 10.9792 10.4478 10.9792 10.4471 10.9792C10.3725 10.9792 10.2977 10.9614 10.2291 10.9253L8 9.75353L5.77116 10.9253C5.61325 11.0083 5.42184 10.9945 5.2775 10.8896C5.13316 10.7847 5.06087 10.607 5.09103 10.4312L5.51662 7.94925L3.71334 6.19153C3.58553 6.067 3.53956 5.88072 3.59469 5.71103C3.64984 5.54131 3.79653 5.41763 3.97309 5.392L6.46503 5.02984L7.57963 2.77166C7.65856 2.61166 7.82153 2.51038 7.99994 2.51038C8.17834 2.51038 8.34131 2.61166 8.42028 2.77163L9.53497 5.02984L12.0267 5.392C12.2033 5.41766 12.35 5.54131 12.4051 5.71103C12.4603 5.88075 12.4144 6.06703 12.2866 6.19156Z" fill="#7A7A7A"/>
</svg>
