<svg width="42" height="42" viewBox="0 0 42 42" fill="none" xmlns="http://www.w3.org/2000/svg">
<path d="M42 21C42 32.598 32.598 42 21 42C9.40202 42 0 32.598 0 21C0 9.40202 9.40202 0 21 0C32.598 0 42 9.40202 42 21Z" fill="#FF0000"/>
<g clip-path="url(#clip0_31_1728)">
<path d="M31.0673 15.9589C30.8252 15.0593 30.116 14.3502 29.2165 14.1079C27.5732 13.6582 20.9998 13.6582 20.9998 13.6582C20.9998 13.6582 14.4266 13.6582 12.7832 14.0908C11.9011 14.3329 11.1745 15.0595 10.9324 15.9589C10.5 17.6021 10.5 21.0099 10.5 21.0099C10.5 21.0099 10.5 24.4349 10.9324 26.0609C11.1747 26.9603 11.8838 27.6696 12.7834 27.9119C14.4439 28.3616 21 28.3616 21 28.3616C21 28.3616 27.5732 28.3616 29.2165 27.929C30.1161 27.6869 30.8252 26.9777 31.0675 26.0782C31.4999 24.4349 31.4999 21.0272 31.4999 21.0272C31.4999 21.0272 31.5172 17.6021 31.0673 15.9589Z" fill="white"/>
<path d="M18.9062 24.1598L24.3724 21.0116L18.9062 17.8633V24.1598Z" fill="#FF0000"/>
</g>
<defs>
<clipPath id="clip0_31_1728">
<rect width="21" height="21" fill="white" transform="translate(10.5 10.5)"/>
</clipPath>
</defs>
</svg>
