<svg width="281" height="45" viewBox="0 0 281 45" fill="none" xmlns="http://www.w3.org/2000/svg">
<path d="M12.2696 43.3448L16.1096 19.1848L26.4296 43.3448H31.0796L41.9196 19.1848L45.2296 43.3448H56.9096L50.1396 1.40479H38.5496L28.9196 23.7848L19.7996 1.40479H8.28961L0.669617 43.3448H12.2696Z" fill="black"/>
<path d="M81.8996 1.40479H70.2396V43.3448H81.8996V1.40479Z" fill="black"/>
<path d="M97.3096 1.40479V43.3448H122.97V34.1048H108.96V1.40479H97.3096Z" fill="black"/>
<path d="M157.719 0.154785C165.229 0.154785 171.37 2.49456 176.12 7.16455C180.42 11.4446 182.57 16.5049 182.57 22.4849C182.57 28.4647 180.42 33.5745 176.12 37.8345C171.37 42.5045 165.169 44.8452 157.519 44.8452C150.439 44.8451 144.57 42.6844 139.9 38.3745C135.23 34.0646 132.899 28.655 132.899 22.1353C132.899 16.4153 135.069 11.4245 139.389 7.16455C144.099 2.49459 150.21 0.154823 157.719 0.154785ZM157.719 10.7144C156.198 10.7144 154.776 10.9359 153.451 11.3774C152.184 11.7966 151.013 12.4202 149.924 13.2417C149.873 13.28 149.82 13.3158 149.769 13.355C149.513 13.5542 149.263 13.767 149.016 13.9888C148.954 14.0441 148.891 14.098 148.83 14.1548C148.826 14.1579 148.823 14.1615 148.82 14.1646L148.369 14.5991C148.257 14.712 148.15 14.8279 148.044 14.9429C148.014 14.9751 147.982 15.0052 147.953 15.0376C146.05 17.1388 145.099 19.5775 145.099 22.3452C145.099 25.695 146.32 28.5248 148.759 30.8247C151.229 33.1147 154.21 34.2749 157.75 34.2749C161.29 34.2749 164.21 33.1247 166.67 30.8247C166.937 30.5747 167.188 30.3175 167.426 30.0562C169.387 27.911 170.37 25.3853 170.37 22.4751C170.37 19.2051 169.139 16.4448 166.679 14.1548C164.219 11.8649 161.189 10.7144 157.719 10.7144Z" fill="black"/>
<path d="M213.28 34.0348C212.8 34.3948 212.21 34.6648 211.52 34.8648C210.82 35.0648 210.05 35.1648 209.23 35.1648C205.81 35.1648 202.38 33.7448 198.93 30.9048L193.93 39.6748C198.78 42.8248 203.98 44.4048 209.54 44.4048C215.1 44.4048 219.37 43.0848 222.42 40.4648C225.5 37.8448 227.04 34.1648 227.04 29.4348C227.04 26.4248 226.18 24.0148 224.46 22.1848C222.72 20.3548 219.92 18.8948 216.02 17.8148C212.75 16.8848 210.79 16.2548 210.12 15.9048C208.67 15.1348 207.95 14.1748 207.95 13.0548C207.95 12.0248 208.41 11.1748 209.37 10.5048C210.32 9.79481 211.5 9.44481 212.94 9.44481C215.5 9.44481 218.05 10.3948 220.59 12.2948L225.24 3.78481C220.61 1.50481 215.86 0.364807 211 0.364807C206.45 0.364807 202.77 1.67481 199.95 4.30481C197.14 6.91481 195.74 10.3148 195.74 14.5148C195.74 18.2248 196.93 21.0048 199.29 22.8448C200.7 23.9148 203.56 25.0348 207.83 26.2248C210.56 26.9448 212.41 27.6448 213.39 28.3348C214.36 29.0248 214.84 29.9248 214.84 31.0448C214.84 31.6648 214.7 32.2248 214.43 32.7348C214.16 33.2448 213.78 33.6648 213.29 34.0248L213.28 34.0348Z" fill="black"/>
<path d="M280.51 43.3448V1.40479H268.86V17.5848H251.99V1.40479H240.35V43.3448H251.99V26.0648H268.86V43.3448H280.51Z" fill="black"/>
</svg>
