<svg width="224" height="286" viewBox="0 0 224 286" fill="none" xmlns="http://www.w3.org/2000/svg">
    <mask id="mask0_6008_41263" style="mask-type:luminance" maskUnits="userSpaceOnUse" x="0" y="73" width="224" height="213">
        <path d="M223.35 73.54H0.550049V285.3H223.35V73.54Z" fill="white"/>
    </mask>
    <g mask="url(#mask0_6008_41263)">
        <path d="M161.02 83.6902C143.2 89.1802 102 93.1402 62.8601 83.6902C28.8201 75.4702 4.45007 72.4602 4.45007 83.6902V91.5002C4.45007 102.77 28.3301 119.85 63.1901 128.97C67.1401 134.43 65.1201 164.69 63.1901 182.94C59.1701 221.05 46.3001 247.37 41.5401 256.81C40.2701 259.35 40.5101 262.45 42.3301 264.62C50.4201 274.25 80.7501 281.4 116.94 281.4C159.32 281.4 193.68 271.59 193.68 259.48L193.33 257.64C190.46 251.69 174.86 225.63 170.34 182.94C168.41 164.67 166.39 131.8 170.34 126.34H169.77C199.65 116.86 219.46 101.78 219.46 91.5002V83.6902C219.46 72.4402 194.51 73.3802 161.03 83.6902H161.02Z" fill="white"/>
        <path d="M161.02 83.6902C143.2 89.1802 102 93.1402 62.8601 83.6902C28.8201 75.4702 4.45007 72.4602 4.45007 83.6902V91.5002C4.45007 102.77 28.3301 119.85 63.1901 128.97C67.1401 134.43 65.1201 164.69 63.1901 182.94C59.1701 221.05 46.3001 247.37 41.5401 256.81C40.2701 259.35 40.5101 262.45 42.3301 264.62C50.4201 274.25 80.7501 281.4 116.94 281.4C159.32 281.4 193.68 271.59 193.68 259.48L193.33 257.64C190.46 251.69 174.86 225.63 170.34 182.94C168.41 164.67 166.39 131.8 170.34 126.34H169.77C199.65 116.86 219.46 101.78 219.46 91.5002V83.6902C219.46 72.4402 194.51 73.3802 161.03 83.6902H161.02Z" fill="#FFCD00"/>
        <mask id="mask1_6008_41263" style="mask-type:luminance" maskUnits="userSpaceOnUse" x="4" y="75" width="216" height="207">
            <path d="M161.02 83.6902C143.2 89.1802 102 93.1402 62.8601 83.6902C28.8201 75.4702 4.45007 72.4602 4.45007 83.6902V91.5002C4.45007 102.77 28.3301 119.85 63.1901 128.97C67.1401 134.43 65.1201 164.69 63.1901 182.94C59.1701 221.05 46.3001 247.37 41.5401 256.81C40.2701 259.35 40.5101 262.45 42.3301 264.62C50.4201 274.25 80.7501 281.4 116.94 281.4C159.32 281.4 193.68 271.59 193.68 259.48L193.33 257.64C190.46 251.69 174.86 225.63 170.34 182.94C168.41 164.67 166.39 131.8 170.34 126.34H169.77C199.65 116.86 219.46 101.78 219.46 91.5002V83.6902C219.46 72.4402 194.51 73.3802 161.03 83.6902H161.02Z" fill="white"/>
        </mask>
        <g mask="url(#mask1_6008_41263)">
            <mask id="mask2_6008_41263" style="mask-type:luminance" maskUnits="userSpaceOnUse" x="192" y="29" width="65" height="65">
                <path d="M256.55 29.3H192.55V93.3H256.55V29.3Z" fill="white"/>
            </mask>
            <g mask="url(#mask2_6008_41263)">
                <path d="M208.55 105.85C215.481 105.85 221.1 100.231 221.1 93.3C221.1 86.3688 215.481 80.75 208.55 80.75C201.619 80.75 196 86.3688 196 93.3C196 100.231 201.619 105.85 208.55 105.85Z" fill="#590368"/>
            </g>
            <mask id="mask3_6008_41263" style="mask-type:luminance" maskUnits="userSpaceOnUse" x="192" y="93" width="65" height="65">
                <path d="M256.55 93.3H192.55V157.3H256.55V93.3Z" fill="white"/>
            </mask>
            <g mask="url(#mask3_6008_41263)">
                <path d="M208.55 169.85C215.481 169.85 221.1 164.231 221.1 157.3C221.1 150.369 215.481 144.75 208.55 144.75C201.619 144.75 196 150.369 196 157.3C196 164.231 201.619 169.85 208.55 169.85Z" fill="#590368"/>
                <path d="M224.55 137.85C231.481 137.85 237.1 132.231 237.1 125.3C237.1 118.369 231.481 112.75 224.55 112.75C217.619 112.75 212 118.369 212 125.3C212 132.231 217.619 137.85 224.55 137.85Z" fill="#590368"/>
                <path d="M192.55 137.85C199.481 137.85 205.1 132.231 205.1 125.3C205.1 118.369 199.481 112.75 192.55 112.75C185.619 112.75 180 118.369 180 125.3C180 132.231 185.619 137.85 192.55 137.85Z" fill="#590368"/>
                <path d="M208.55 105.85C215.481 105.85 221.1 100.231 221.1 93.3C221.1 86.3688 215.481 80.75 208.55 80.75C201.619 80.75 196 86.3688 196 93.3C196 100.231 201.619 105.85 208.55 105.85Z" fill="#590368"/>
            </g>
            <mask id="mask4_6008_41263" style="mask-type:luminance" maskUnits="userSpaceOnUse" x="192" y="157" width="65" height="65">
                <path d="M256.55 157.3H192.55V221.3H256.55V157.3Z" fill="white"/>
            </mask>
            <g mask="url(#mask4_6008_41263)">
                <path d="M208.55 233.85C215.481 233.85 221.1 228.231 221.1 221.3C221.1 214.369 215.481 208.75 208.55 208.75C201.619 208.75 196 214.369 196 221.3C196 228.231 201.619 233.85 208.55 233.85Z" fill="#590368"/>
                <path d="M224.55 201.85C231.481 201.85 237.1 196.231 237.1 189.3C237.1 182.369 231.481 176.75 224.55 176.75C217.619 176.75 212 182.369 212 189.3C212 196.231 217.619 201.85 224.55 201.85Z" fill="#590368"/>
                <path d="M192.55 201.85C199.481 201.85 205.1 196.231 205.1 189.3C205.1 182.369 199.481 176.75 192.55 176.75C185.619 176.75 180 182.369 180 189.3C180 196.231 185.619 201.85 192.55 201.85Z" fill="#590368"/>
                <path d="M208.55 169.85C215.481 169.85 221.1 164.231 221.1 157.3C221.1 150.369 215.481 144.75 208.55 144.75C201.619 144.75 196 150.369 196 157.3C196 164.231 201.619 169.85 208.55 169.85Z" fill="#590368"/>
            </g>
            <mask id="mask5_6008_41263" style="mask-type:luminance" maskUnits="userSpaceOnUse" x="192" y="221" width="65" height="65">
                <path d="M256.55 221.3H192.55V285.3H256.55V221.3Z" fill="white"/>
            </mask>
            <g mask="url(#mask5_6008_41263)">
                <path d="M208.55 297.85C215.481 297.85 221.1 292.231 221.1 285.3C221.1 278.369 215.481 272.75 208.55 272.75C201.619 272.75 196 278.369 196 285.3C196 292.231 201.619 297.85 208.55 297.85Z" fill="#590368"/>
                <path d="M224.55 265.85C231.481 265.85 237.1 260.231 237.1 253.3C237.1 246.369 231.481 240.75 224.55 240.75C217.619 240.75 212 246.369 212 253.3C212 260.231 217.619 265.85 224.55 265.85Z" fill="#590368"/>
                <path d="M192.55 265.85C199.481 265.85 205.1 260.231 205.1 253.3C205.1 246.369 199.481 240.75 192.55 240.75C185.619 240.75 180 246.369 180 253.3C180 260.231 185.619 265.85 192.55 265.85Z" fill="#590368"/>
                <path d="M208.55 233.85C215.481 233.85 221.1 228.231 221.1 221.3C221.1 214.369 215.481 208.75 208.55 208.75C201.619 208.75 196 214.369 196 221.3C196 228.231 201.619 233.85 208.55 233.85Z" fill="#590368"/>
            </g>
            <mask id="mask6_6008_41263" style="mask-type:luminance" maskUnits="userSpaceOnUse" x="128" y="29" width="65" height="65">
                <path d="M192.55 29.3H128.55V93.3H192.55V29.3Z" fill="white"/>
            </mask>
            <g mask="url(#mask6_6008_41263)">
                <path d="M176.55 105.85C183.481 105.85 189.1 100.231 189.1 93.3C189.1 86.3688 183.481 80.75 176.55 80.75C169.619 80.75 164 86.3688 164 93.3C164 100.231 169.619 105.85 176.55 105.85Z" fill="#590368"/>
                <path d="M144.55 105.85C151.481 105.85 157.1 100.231 157.1 93.3C157.1 86.3688 151.481 80.75 144.55 80.75C137.619 80.75 132 86.3688 132 93.3C132 100.231 137.619 105.85 144.55 105.85Z" fill="#590368"/>
            </g>
            <mask id="mask7_6008_41263" style="mask-type:luminance" maskUnits="userSpaceOnUse" x="128" y="93" width="65" height="65">
                <path d="M192.55 93.3H128.55V157.3H192.55V93.3Z" fill="white"/>
            </mask>
            <g mask="url(#mask7_6008_41263)">
                <path d="M176.55 169.85C183.481 169.85 189.1 164.231 189.1 157.3C189.1 150.369 183.481 144.75 176.55 144.75C169.619 144.75 164 150.369 164 157.3C164 164.231 169.619 169.85 176.55 169.85Z" fill="#590368"/>
                <path d="M144.55 169.85C151.481 169.85 157.1 164.231 157.1 157.3C157.1 150.369 151.481 144.75 144.55 144.75C137.619 144.75 132 150.369 132 157.3C132 164.231 137.619 169.85 144.55 169.85Z" fill="#590368"/>
                <path d="M192.55 137.85C199.481 137.85 205.1 132.231 205.1 125.3C205.1 118.369 199.481 112.75 192.55 112.75C185.619 112.75 180 118.369 180 125.3C180 132.231 185.619 137.85 192.55 137.85Z" fill="#590368"/>
                <path d="M160.55 137.85C167.481 137.85 173.1 132.231 173.1 125.3C173.1 118.369 167.481 112.75 160.55 112.75C153.619 112.75 148 118.369 148 125.3C148 132.231 153.619 137.85 160.55 137.85Z" fill="#590368"/>
                <path d="M128.55 137.85C135.481 137.85 141.1 132.231 141.1 125.3C141.1 118.369 135.481 112.75 128.55 112.75C121.619 112.75 116 118.369 116 125.3C116 132.231 121.619 137.85 128.55 137.85Z" fill="#590368"/>
                <path d="M176.55 105.85C183.481 105.85 189.1 100.231 189.1 93.3C189.1 86.3688 183.481 80.75 176.55 80.75C169.619 80.75 164 86.3688 164 93.3C164 100.231 169.619 105.85 176.55 105.85Z" fill="#590368"/>
                <path d="M144.55 105.85C151.481 105.85 157.1 100.231 157.1 93.3C157.1 86.3688 151.481 80.75 144.55 80.75C137.619 80.75 132 86.3688 132 93.3C132 100.231 137.619 105.85 144.55 105.85Z" fill="#590368"/>
            </g>
            <mask id="mask8_6008_41263" style="mask-type:luminance" maskUnits="userSpaceOnUse" x="128" y="157" width="65" height="65">
                <path d="M192.55 157.3H128.55V221.3H192.55V157.3Z" fill="white"/>
            </mask>
            <g mask="url(#mask8_6008_41263)">
                <path d="M176.55 233.85C183.481 233.85 189.1 228.231 189.1 221.3C189.1 214.369 183.481 208.75 176.55 208.75C169.619 208.75 164 214.369 164 221.3C164 228.231 169.619 233.85 176.55 233.85Z" fill="#590368"/>
                <path d="M144.55 233.85C151.481 233.85 157.1 228.231 157.1 221.3C157.1 214.369 151.481 208.75 144.55 208.75C137.619 208.75 132 214.369 132 221.3C132 228.231 137.619 233.85 144.55 233.85Z" fill="#590368"/>
                <path d="M192.55 201.85C199.481 201.85 205.1 196.231 205.1 189.3C205.1 182.369 199.481 176.75 192.55 176.75C185.619 176.75 180 182.369 180 189.3C180 196.231 185.619 201.85 192.55 201.85Z" fill="#590368"/>
                <path d="M160.55 201.85C167.481 201.85 173.1 196.231 173.1 189.3C173.1 182.369 167.481 176.75 160.55 176.75C153.619 176.75 148 182.369 148 189.3C148 196.231 153.619 201.85 160.55 201.85Z" fill="#590368"/>
                <path d="M128.55 201.85C135.481 201.85 141.1 196.231 141.1 189.3C141.1 182.369 135.481 176.75 128.55 176.75C121.619 176.75 116 182.369 116 189.3C116 196.231 121.619 201.85 128.55 201.85Z" fill="#590368"/>
                <path d="M176.55 169.85C183.481 169.85 189.1 164.231 189.1 157.3C189.1 150.369 183.481 144.75 176.55 144.75C169.619 144.75 164 150.369 164 157.3C164 164.231 169.619 169.85 176.55 169.85Z" fill="#590368"/>
                <path d="M144.55 169.85C151.481 169.85 157.1 164.231 157.1 157.3C157.1 150.369 151.481 144.75 144.55 144.75C137.619 144.75 132 150.369 132 157.3C132 164.231 137.619 169.85 144.55 169.85Z" fill="#590368"/>
            </g>
            <mask id="mask9_6008_41263" style="mask-type:luminance" maskUnits="userSpaceOnUse" x="128" y="221" width="65" height="65">
                <path d="M192.55 221.3H128.55V285.3H192.55V221.3Z" fill="white"/>
            </mask>
            <g mask="url(#mask9_6008_41263)">
                <path d="M176.55 297.85C183.481 297.85 189.1 292.231 189.1 285.3C189.1 278.369 183.481 272.75 176.55 272.75C169.619 272.75 164 278.369 164 285.3C164 292.231 169.619 297.85 176.55 297.85Z" fill="#590368"/>
                <path d="M144.55 297.85C151.481 297.85 157.1 292.231 157.1 285.3C157.1 278.369 151.481 272.75 144.55 272.75C137.619 272.75 132 278.369 132 285.3C132 292.231 137.619 297.85 144.55 297.85Z" fill="#590368"/>
                <path d="M192.55 265.85C199.481 265.85 205.1 260.231 205.1 253.3C205.1 246.369 199.481 240.75 192.55 240.75C185.619 240.75 180 246.369 180 253.3C180 260.231 185.619 265.85 192.55 265.85Z" fill="#590368"/>
                <path d="M160.55 265.85C167.481 265.85 173.1 260.231 173.1 253.3C173.1 246.369 167.481 240.75 160.55 240.75C153.619 240.75 148 246.369 148 253.3C148 260.231 153.619 265.85 160.55 265.85Z" fill="#590368"/>
                <path d="M128.55 265.85C135.481 265.85 141.1 260.231 141.1 253.3C141.1 246.369 135.481 240.75 128.55 240.75C121.619 240.75 116 246.369 116 253.3C116 260.231 121.619 265.85 128.55 265.85Z" fill="#590368"/>
                <path d="M176.55 233.85C183.481 233.85 189.1 228.231 189.1 221.3C189.1 214.369 183.481 208.75 176.55 208.75C169.619 208.75 164 214.369 164 221.3C164 228.231 169.619 233.85 176.55 233.85Z" fill="#590368"/>
                <path d="M144.55 233.85C151.481 233.85 157.1 228.231 157.1 221.3C157.1 214.369 151.481 208.75 144.55 208.75C137.619 208.75 132 214.369 132 221.3C132 228.231 137.619 233.85 144.55 233.85Z" fill="#590368"/>
            </g>
            <mask id="mask10_6008_41263" style="mask-type:luminance" maskUnits="userSpaceOnUse" x="64" y="29" width="65" height="65">
                <path d="M128.55 29.3H64.55V93.3H128.55V29.3Z" fill="white"/>
            </mask>
            <g mask="url(#mask10_6008_41263)">
                <path d="M112.55 105.85C119.481 105.85 125.1 100.231 125.1 93.3C125.1 86.3688 119.481 80.75 112.55 80.75C105.619 80.75 100 86.3688 100 93.3C100 100.231 105.619 105.85 112.55 105.85Z" fill="#590368"/>
                <path d="M80.55 105.85C87.4812 105.85 93.1 100.231 93.1 93.3C93.1 86.3688 87.4812 80.75 80.55 80.75C73.6188 80.75 68 86.3688 68 93.3C68 100.231 73.6188 105.85 80.55 105.85Z" fill="#590368"/>
            </g>
            <mask id="mask11_6008_41263" style="mask-type:luminance" maskUnits="userSpaceOnUse" x="64" y="93" width="65" height="65">
                <path d="M128.55 93.3H64.55V157.3H128.55V93.3Z" fill="white"/>
            </mask>
            <g mask="url(#mask11_6008_41263)">
                <path d="M112.55 169.85C119.481 169.85 125.1 164.231 125.1 157.3C125.1 150.369 119.481 144.75 112.55 144.75C105.619 144.75 100 150.369 100 157.3C100 164.231 105.619 169.85 112.55 169.85Z" fill="#590368"/>
                <path d="M80.55 169.85C87.4812 169.85 93.1 164.231 93.1 157.3C93.1 150.369 87.4812 144.75 80.55 144.75C73.6188 144.75 68 150.369 68 157.3C68 164.231 73.6188 169.85 80.55 169.85Z" fill="#590368"/>
                <path d="M128.55 137.85C135.481 137.85 141.1 132.231 141.1 125.3C141.1 118.369 135.481 112.75 128.55 112.75C121.619 112.75 116 118.369 116 125.3C116 132.231 121.619 137.85 128.55 137.85Z" fill="#590368"/>
                <path d="M96.55 137.85C103.481 137.85 109.1 132.231 109.1 125.3C109.1 118.369 103.481 112.75 96.55 112.75C89.6188 112.75 84 118.369 84 125.3C84 132.231 89.6188 137.85 96.55 137.85Z" fill="#590368"/>
                <path d="M64.55 137.85C71.4812 137.85 77.1 132.231 77.1 125.3C77.1 118.369 71.4812 112.75 64.55 112.75C57.6188 112.75 52 118.369 52 125.3C52 132.231 57.6188 137.85 64.55 137.85Z" fill="#590368"/>
                <path d="M112.55 105.85C119.481 105.85 125.1 100.231 125.1 93.3C125.1 86.3688 119.481 80.75 112.55 80.75C105.619 80.75 100 86.3688 100 93.3C100 100.231 105.619 105.85 112.55 105.85Z" fill="#590368"/>
                <path d="M80.55 105.85C87.4812 105.85 93.1 100.231 93.1 93.3C93.1 86.3688 87.4812 80.75 80.55 80.75C73.6188 80.75 68 86.3688 68 93.3C68 100.231 73.6188 105.85 80.55 105.85Z" fill="#590368"/>
            </g>
            <mask id="mask12_6008_41263" style="mask-type:luminance" maskUnits="userSpaceOnUse" x="64" y="157" width="65" height="65">
                <path d="M128.55 157.3H64.55V221.3H128.55V157.3Z" fill="white"/>
            </mask>
            <g mask="url(#mask12_6008_41263)">
                <path d="M112.55 233.85C119.481 233.85 125.1 228.231 125.1 221.3C125.1 214.369 119.481 208.75 112.55 208.75C105.619 208.75 100 214.369 100 221.3C100 228.231 105.619 233.85 112.55 233.85Z" fill="#590368"/>
                <path d="M80.55 233.85C87.4812 233.85 93.1 228.231 93.1 221.3C93.1 214.369 87.4812 208.75 80.55 208.75C73.6188 208.75 68 214.369 68 221.3C68 228.231 73.6188 233.85 80.55 233.85Z" fill="#590368"/>
                <path d="M128.55 201.85C135.481 201.85 141.1 196.231 141.1 189.3C141.1 182.369 135.481 176.75 128.55 176.75C121.619 176.75 116 182.369 116 189.3C116 196.231 121.619 201.85 128.55 201.85Z" fill="#590368"/>
                <path d="M96.55 201.85C103.481 201.85 109.1 196.231 109.1 189.3C109.1 182.369 103.481 176.75 96.55 176.75C89.6188 176.75 84 182.369 84 189.3C84 196.231 89.6188 201.85 96.55 201.85Z" fill="#590368"/>
                <path d="M64.55 201.85C71.4812 201.85 77.1 196.231 77.1 189.3C77.1 182.369 71.4812 176.75 64.55 176.75C57.6188 176.75 52 182.369 52 189.3C52 196.231 57.6188 201.85 64.55 201.85Z" fill="#590368"/>
                <path d="M112.55 169.85C119.481 169.85 125.1 164.231 125.1 157.3C125.1 150.369 119.481 144.75 112.55 144.75C105.619 144.75 100 150.369 100 157.3C100 164.231 105.619 169.85 112.55 169.85Z" fill="#590368"/>
                <path d="M80.55 169.85C87.4812 169.85 93.1 164.231 93.1 157.3C93.1 150.369 87.4812 144.75 80.55 144.75C73.6188 144.75 68 150.369 68 157.3C68 164.231 73.6188 169.85 80.55 169.85Z" fill="#590368"/>
            </g>
            <mask id="mask13_6008_41263" style="mask-type:luminance" maskUnits="userSpaceOnUse" x="64" y="221" width="65" height="65">
                <path d="M128.55 221.3H64.55V285.3H128.55V221.3Z" fill="white"/>
            </mask>
            <g mask="url(#mask13_6008_41263)">
                <path d="M112.55 297.85C119.481 297.85 125.1 292.231 125.1 285.3C125.1 278.369 119.481 272.75 112.55 272.75C105.619 272.75 100 278.369 100 285.3C100 292.231 105.619 297.85 112.55 297.85Z" fill="#590368"/>
                <path d="M80.55 297.85C87.4812 297.85 93.1 292.231 93.1 285.3C93.1 278.369 87.4812 272.75 80.55 272.75C73.6188 272.75 68 278.369 68 285.3C68 292.231 73.6188 297.85 80.55 297.85Z" fill="#590368"/>
                <path d="M128.55 265.85C135.481 265.85 141.1 260.231 141.1 253.3C141.1 246.369 135.481 240.75 128.55 240.75C121.619 240.75 116 246.369 116 253.3C116 260.231 121.619 265.85 128.55 265.85Z" fill="#590368"/>
                <path d="M96.55 265.85C103.481 265.85 109.1 260.231 109.1 253.3C109.1 246.369 103.481 240.75 96.55 240.75C89.6188 240.75 84 246.369 84 253.3C84 260.231 89.6188 265.85 96.55 265.85Z" fill="#590368"/>
                <path d="M64.55 265.85C71.4812 265.85 77.1 260.231 77.1 253.3C77.1 246.369 71.4812 240.75 64.55 240.75C57.6188 240.75 52 246.369 52 253.3C52 260.231 57.6188 265.85 64.55 265.85Z" fill="#590368"/>
                <path d="M112.55 233.85C119.481 233.85 125.1 228.231 125.1 221.3C125.1 214.369 119.481 208.75 112.55 208.75C105.619 208.75 100 214.369 100 221.3C100 228.231 105.619 233.85 112.55 233.85Z" fill="#590368"/>
                <path d="M80.55 233.85C87.4812 233.85 93.1 228.231 93.1 221.3C93.1 214.369 87.4812 208.75 80.55 208.75C73.6188 208.75 68 214.369 68 221.3C68 228.231 73.6188 233.85 80.55 233.85Z" fill="#590368"/>
            </g>
            <mask id="mask14_6008_41263" style="mask-type:luminance" maskUnits="userSpaceOnUse" x="0" y="29" width="65" height="65">
                <path d="M64.55 29.3H0.550049V93.3H64.55V29.3Z" fill="white"/>
            </mask>
            <g mask="url(#mask14_6008_41263)">
                <path d="M48.55 105.85C55.4812 105.85 61.1 100.231 61.1 93.3C61.1 86.3688 55.4812 80.75 48.55 80.75C41.6188 80.75 36 86.3688 36 93.3C36 100.231 41.6188 105.85 48.55 105.85Z" fill="#590368"/>
                <path d="M16.55 105.85C23.4812 105.85 29.1 100.231 29.1 93.3C29.1 86.3688 23.4812 80.75 16.55 80.75C9.61883 80.75 4 86.3688 4 93.3C4 100.231 9.61883 105.85 16.55 105.85Z" fill="#590368"/>
            </g>
            <mask id="mask15_6008_41263" style="mask-type:luminance" maskUnits="userSpaceOnUse" x="0" y="93" width="65" height="65">
                <path d="M64.55 93.3H0.550049V157.3H64.55V93.3Z" fill="white"/>
            </mask>
            <g mask="url(#mask15_6008_41263)">
                <path d="M48.55 169.85C55.4812 169.85 61.1 164.231 61.1 157.3C61.1 150.369 55.4812 144.75 48.55 144.75C41.6188 144.75 36 150.369 36 157.3C36 164.231 41.6188 169.85 48.55 169.85Z" fill="#590368"/>
                <path d="M16.55 169.85C23.4812 169.85 29.1 164.231 29.1 157.3C29.1 150.369 23.4812 144.75 16.55 144.75C9.61883 144.75 4 150.369 4 157.3C4 164.231 9.61883 169.85 16.55 169.85Z" fill="#590368"/>
                <path d="M64.55 137.85C71.4812 137.85 77.1 132.231 77.1 125.3C77.1 118.369 71.4812 112.75 64.55 112.75C57.6188 112.75 52 118.369 52 125.3C52 132.231 57.6188 137.85 64.55 137.85Z" fill="#590368"/>
                <path d="M32.55 137.85C39.4812 137.85 45.1 132.231 45.1 125.3C45.1 118.369 39.4812 112.75 32.55 112.75C25.6188 112.75 20 118.369 20 125.3C20 132.231 25.6188 137.85 32.55 137.85Z" fill="#590368"/>
                <path d="M0.55 137.85C7.48117 137.85 13.1 132.231 13.1 125.3C13.1 118.369 7.48117 112.75 0.55 112.75C-6.38117 112.75 -12 118.369 -12 125.3C-12 132.231 -6.38117 137.85 0.55 137.85Z" fill="#590368"/>
                <path d="M48.55 105.85C55.4812 105.85 61.1 100.231 61.1 93.3C61.1 86.3688 55.4812 80.75 48.55 80.75C41.6188 80.75 36 86.3688 36 93.3C36 100.231 41.6188 105.85 48.55 105.85Z" fill="#590368"/>
                <path d="M16.55 105.85C23.4812 105.85 29.1 100.231 29.1 93.3C29.1 86.3688 23.4812 80.75 16.55 80.75C9.61883 80.75 4 86.3688 4 93.3C4 100.231 9.61883 105.85 16.55 105.85Z" fill="#590368"/>
            </g>
            <mask id="mask16_6008_41263" style="mask-type:luminance" maskUnits="userSpaceOnUse" x="0" y="157" width="65" height="65">
                <path d="M64.55 157.3H0.550049V221.3H64.55V157.3Z" fill="white"/>
            </mask>
            <g mask="url(#mask16_6008_41263)">
                <path d="M48.55 233.85C55.4812 233.85 61.1 228.231 61.1 221.3C61.1 214.369 55.4812 208.75 48.55 208.75C41.6188 208.75 36 214.369 36 221.3C36 228.231 41.6188 233.85 48.55 233.85Z" fill="#590368"/>
                <path d="M16.55 233.85C23.4812 233.85 29.1 228.231 29.1 221.3C29.1 214.369 23.4812 208.75 16.55 208.75C9.61883 208.75 4 214.369 4 221.3C4 228.231 9.61883 233.85 16.55 233.85Z" fill="#590368"/>
                <path d="M64.55 201.85C71.4812 201.85 77.1 196.231 77.1 189.3C77.1 182.369 71.4812 176.75 64.55 176.75C57.6188 176.75 52 182.369 52 189.3C52 196.231 57.6188 201.85 64.55 201.85Z" fill="#590368"/>
                <path d="M32.55 201.85C39.4812 201.85 45.1 196.231 45.1 189.3C45.1 182.369 39.4812 176.75 32.55 176.75C25.6188 176.75 20 182.369 20 189.3C20 196.231 25.6188 201.85 32.55 201.85Z" fill="#590368"/>
                <path d="M0.55 201.85C7.48117 201.85 13.1 196.231 13.1 189.3C13.1 182.369 7.48117 176.75 0.55 176.75C-6.38117 176.75 -12 182.369 -12 189.3C-12 196.231 -6.38117 201.85 0.55 201.85Z" fill="#590368"/>
                <path d="M48.55 169.85C55.4812 169.85 61.1 164.231 61.1 157.3C61.1 150.369 55.4812 144.75 48.55 144.75C41.6188 144.75 36 150.369 36 157.3C36 164.231 41.6188 169.85 48.55 169.85Z" fill="#590368"/>
                <path d="M16.55 169.85C23.4812 169.85 29.1 164.231 29.1 157.3C29.1 150.369 23.4812 144.75 16.55 144.75C9.61883 144.75 4 150.369 4 157.3C4 164.231 9.61883 169.85 16.55 169.85Z" fill="#590368"/>
            </g>
            <mask id="mask17_6008_41263" style="mask-type:luminance" maskUnits="userSpaceOnUse" x="0" y="221" width="65" height="65">
                <path d="M64.55 221.3H0.550049V285.3H64.55V221.3Z" fill="white"/>
            </mask>
            <g mask="url(#mask17_6008_41263)">
                <path d="M48.55 297.85C55.4812 297.85 61.1 292.231 61.1 285.3C61.1 278.369 55.4812 272.75 48.55 272.75C41.6188 272.75 36 278.369 36 285.3C36 292.231 41.6188 297.85 48.55 297.85Z" fill="#590368"/>
                <path d="M16.55 297.85C23.4812 297.85 29.1 292.231 29.1 285.3C29.1 278.369 23.4812 272.75 16.55 272.75C9.61883 272.75 4 278.369 4 285.3C4 292.231 9.61883 297.85 16.55 297.85Z" fill="#590368"/>
                <path d="M64.55 265.85C71.4812 265.85 77.1 260.231 77.1 253.3C77.1 246.369 71.4812 240.75 64.55 240.75C57.6188 240.75 52 246.369 52 253.3C52 260.231 57.6188 265.85 64.55 265.85Z" fill="#590368"/>
                <path d="M32.55 265.85C39.4812 265.85 45.1 260.231 45.1 253.3C45.1 246.369 39.4812 240.75 32.55 240.75C25.6188 240.75 20 246.369 20 253.3C20 260.231 25.6188 265.85 32.55 265.85Z" fill="#590368"/>
                <path d="M0.55 265.85C7.48117 265.85 13.1 260.231 13.1 253.3C13.1 246.369 7.48117 240.75 0.55 240.75C-6.38117 240.75 -12 246.369 -12 253.3C-12 260.231 -6.38117 265.85 0.55 265.85Z" fill="#590368"/>
                <path d="M48.55 233.85C55.4812 233.85 61.1 228.231 61.1 221.3C61.1 214.369 55.4812 208.75 48.55 208.75C41.6188 208.75 36 214.369 36 221.3C36 228.231 41.6188 233.85 48.55 233.85Z" fill="#590368"/>
                <path d="M16.55 233.85C23.4812 233.85 29.1 228.231 29.1 221.3C29.1 214.369 23.4812 208.75 16.55 208.75C9.61883 208.75 4 214.369 4 221.3C4 228.231 9.61883 233.85 16.55 233.85Z" fill="#590368"/>
            </g>
        </g>
        <path d="M164.52 94.46L125.99 99.08L74.9101 94.68L64.34 94.46L63.6801 97.98L82.6201 114.27L114.54 119.34L133.7 117.36L161.66 107.67L170.47 98.2L171.13 94.46H164.52Z" fill="#590368"/>
        <path d="M65.44 156.33L111.95 161.61L148.67 159.63L168.31 155.59L171.79 194.64L142.07 197.94L103.09 199.27L62.14 194.2L65.44 156.33Z" fill="#FF0000"/>
        <path d="M111.95 91.3901C142 91.3901 169.24 86.3701 188.55 83.4301C198.37 81.9401 205.8 81.0501 210.72 81.4101C213.2 81.5901 214.47 82.0601 215.05 82.4601C215.34 82.6601 215.55 82.8501 215.55 83.6901H223.35C223.35 80.5201 222.06 77.8301 219.49 76.0401C217.2 74.4501 214.25 73.8401 211.29 73.6301C205.33 73.2001 197.01 74.2601 187.38 75.7201C167.78 78.7001 141.27 83.5901 111.95 83.5901V91.3901ZM8.35004 83.6901C8.35004 82.8501 8.57004 82.6601 8.85004 82.4601C9.42004 82.0601 10.7 81.5901 13.18 81.4201C18.1 81.0601 25.53 81.9501 35.35 83.4401C54.66 86.3701 81.9 91.3901 111.95 91.3901V83.5901C82.63 83.5901 56.12 78.7001 36.52 75.7301C26.89 74.2701 18.57 73.2101 12.61 73.6401C9.65004 73.8501 6.70004 74.4701 4.41004 76.0501C1.83004 77.8301 0.540039 80.5301 0.540039 83.6901H8.34004H8.35004ZM111.95 123.51C82.84 123.51 56.52 116.71 37.56 108.01C28.07 103.65 20.56 98.8801 15.49 94.3601C10.21 89.6501 8.35004 85.9201 8.35004 83.6901H0.550039C0.550039 89.4701 4.71004 95.2001 10.3 100.19C16.11 105.37 24.34 110.53 34.31 115.1C54.26 124.26 81.69 131.31 111.95 131.31V123.51ZM215.55 83.6901C215.55 85.9201 213.69 89.6601 208.41 94.3601C203.34 98.8801 195.83 103.65 186.34 108.01C167.38 116.71 141.06 123.51 111.95 123.51V131.31C142.21 131.31 169.64 124.26 189.59 115.1C199.55 110.53 207.79 105.37 213.6 100.19C219.2 95.2001 223.35 89.4701 223.35 83.6901H215.55Z" fill="black"/>
        <path d="M116.95 102.73C132.16 102.73 145.95 100.19 155.54 98.7301C160.5 97.9801 163.99 97.5701 166.2 97.7301C167.32 97.8101 167.54 98.0101 167.4 97.9101C167.27 97.8201 167.08 97.6401 166.94 97.3601C166.81 97.0901 166.8 96.9001 166.8 96.9101H174.6C174.6 94.7401 173.68 92.7701 171.82 91.4901C170.25 90.4001 168.35 90.0601 166.75 89.9501C163.52 89.7201 159.13 90.2901 154.37 91.0201C144.5 92.5201 131.42 94.9301 116.95 94.9301V102.73ZM67.1 96.9201C67.1 96.9201 67.1 97.1001 66.96 97.3701C66.82 97.6501 66.63 97.8301 66.5 97.9201C66.36 98.0201 66.58 97.8201 67.7 97.7401C69.91 97.5801 73.4 97.9801 78.36 98.7401C87.95 100.19 101.74 102.74 116.95 102.74V94.9401C102.48 94.9401 89.4 92.5301 79.53 91.0301C74.76 90.3101 70.38 89.7301 67.15 89.9601C65.55 90.0701 63.66 90.4101 62.08 91.5001C60.22 92.7801 59.3 94.7601 59.3 96.9201H67.1ZM116.95 114.87C102.69 114.87 89.8 111.53 80.57 107.3C75.94 105.18 72.37 102.89 70.02 100.8C67.46 98.5201 67.1 97.1501 67.1 96.9301H59.3C59.3 100.7 61.95 104.07 64.83 106.63C67.92 109.38 72.22 112.06 77.32 114.4C87.54 119.09 101.53 122.68 116.95 122.68V114.88V114.87ZM166.8 96.9201C166.8 97.1501 166.44 98.5201 163.88 100.8C161.53 102.89 157.95 105.18 153.33 107.3C144.1 111.53 131.22 114.87 116.95 114.87V122.67C132.37 122.67 146.36 119.08 156.58 114.39C161.68 112.05 165.98 109.38 169.07 106.62C171.95 104.06 174.6 100.69 174.6 96.9101H166.8V96.9201Z" fill="black"/>
        <path d="M223.35 91.5002V83.6902H215.55V91.5002H223.35ZM111.95 139.12C142.21 139.12 169.64 132.07 189.59 122.92C199.55 118.35 207.79 113.19 213.6 108.01C219.2 103.02 223.35 97.2802 223.35 91.5102H215.55C215.55 93.7502 213.69 97.4802 208.41 102.19C203.34 106.71 195.83 111.48 186.34 115.83C167.38 124.53 141.06 131.32 111.95 131.32V139.12ZM0.550049 91.5002C0.550049 97.2802 4.71005 103.01 10.3 108C16.11 113.18 24.34 118.34 34.3101 122.91C54.2601 132.07 81.69 139.12 111.95 139.12V131.32C82.84 131.32 56.5201 124.52 37.5601 115.82C28.0701 111.46 20.56 106.69 15.49 102.17C10.21 97.4602 8.35005 93.7302 8.35005 91.5002H0.550049ZM0.550049 83.6902V91.5002H8.35005V83.6902H0.550049Z" fill="black"/>
        <path d="M67.06 183.35C68.03 174.16 69.03 161.92 69.29 151.25C69.42 145.92 69.36 140.9 69.01 136.8C68.83 134.76 68.58 132.86 68.2 131.23C67.85 129.69 67.3 128.01 66.35 126.68L60.03 131.25C60.03 131.25 60.1 131.34 60.22 131.67C60.34 131.98 60.47 132.41 60.6 132.98C60.86 134.12 61.08 135.63 61.24 137.47C61.56 141.15 61.62 145.86 61.49 151.06C61.24 161.45 60.26 173.46 59.31 182.52L67.07 183.34L67.06 183.35ZM45.01 258.56C49.86 248.93 62.95 222.13 67.06 183.35L59.3 182.53C55.34 219.96 42.72 245.78 38.05 255.06L45.02 258.57L45.01 258.56ZM45.31 262.11C44.58 261.24 44.38 259.83 45.02 258.55L38.04 255.06C36.14 258.86 36.42 263.65 39.33 267.12L45.31 262.11ZM116.93 277.5C99.07 277.5 82.74 275.73 69.96 272.82C63.57 271.36 58.14 269.64 53.89 267.74C49.57 265.82 46.78 263.86 45.31 262.11L39.34 267.13C41.91 270.2 45.95 272.74 50.72 274.87C55.56 277.03 61.5 278.89 68.23 280.43C81.68 283.5 98.61 285.31 116.94 285.31V277.51L116.93 277.5ZM189.77 259.48C189.77 260.53 189 262.39 185.46 264.78C182.06 267.08 176.88 269.3 170.13 271.23C156.68 275.07 137.87 277.5 116.94 277.5V285.3C138.39 285.3 157.95 282.82 172.27 278.73C179.41 276.69 185.46 274.19 189.83 271.24C194.06 268.38 197.58 264.48 197.58 259.47H189.78L189.77 259.48ZM189.49 258.37L189.84 260.21L197.5 258.75L197.15 256.91L189.49 258.37ZM166.45 183.35C171.05 226.83 187 253.5 189.8 259.33L196.83 255.95C193.9 249.86 178.64 224.43 174.2 182.53L166.44 183.35H166.45ZM167.17 124.05C166.19 125.41 165.65 127.17 165.31 128.75C164.94 130.44 164.68 132.44 164.51 134.6C164.16 138.93 164.1 144.27 164.23 149.92C164.49 161.24 165.48 174.13 166.46 183.35L174.22 182.53C173.26 173.47 172.29 160.8 172.04 149.75C171.92 144.22 171.98 139.18 172.3 135.24C172.46 133.27 172.68 131.65 172.95 130.43C173.08 129.82 173.22 129.36 173.34 129.03C173.47 128.68 173.54 128.59 173.51 128.63L167.19 124.06L167.17 124.05ZM41.53 256.81L38.05 255.06L41.54 256.81H41.53ZM193.67 259.48H197.57V259.11L197.5 258.75L193.67 259.48ZM193.32 257.64L197.15 256.91L197.05 256.41L196.83 255.95L193.32 257.64Z" fill="black"/>
        <path d="M116.93 157.32C96.26 157.32 77.66 154.95 64.25 151.19L62.14 158.7C76.41 162.7 95.75 165.11 116.92 165.11V157.31L116.93 157.32ZM167.34 151.8C154.13 155.21 136.45 157.32 116.93 157.32V165.12C136.94 165.12 155.3 162.97 169.28 159.36L167.33 151.81L167.34 151.8Z" fill="black"/>
        <path d="M117.93 195.62C97.26 195.62 78.66 193.25 65.25 189.49L63.14 197C77.41 201 96.75 203.41 117.92 203.41V195.61L117.93 195.62ZM168.34 190.1C155.13 193.51 137.45 195.62 117.93 195.62V203.42C137.94 203.42 156.3 201.27 170.28 197.66L168.33 190.11L168.34 190.1Z" fill="black"/>
        <path d="M88.94 190.18C87.9 190.02 86.93 189.7 86.04 189.24C85.15 188.78 84.38 188.21 83.73 187.53C83.08 186.86 82.58 186.12 82.24 185.33C82.11 185.05 82.11 184.81 82.23 184.6C82.35 184.4 82.56 184.28 82.85 184.23C83.08 184.2 83.3 184.25 83.52 184.4C83.74 184.55 83.91 184.74 84.02 184.99C84.26 185.51 84.62 186 85.09 186.45C85.56 186.91 86.12 187.29 86.78 187.6C87.43 187.91 88.15 188.12 88.93 188.23C89.8 188.35 90.56 188.3 91.24 188.08C91.91 187.86 92.44 187.46 92.83 186.91C93.22 186.36 93.41 185.64 93.41 184.78C93.41 183.69 93.05 182.72 92.31 181.87C91.58 181.03 90.42 180.44 88.85 180.12C86.94 179.72 85.44 178.97 84.36 177.91C83.28 176.85 82.74 175.64 82.74 174.23C82.74 173.22 83.01 172.36 83.54 171.62C84.07 170.88 84.81 170.31 85.74 169.9C86.68 169.49 87.75 169.28 88.96 169.28C89.86 169.28 90.68 169.43 91.42 169.74C92.16 170.05 92.8 170.46 93.35 170.98C93.9 171.5 94.34 172.06 94.69 172.68C94.85 172.97 94.91 173.25 94.85 173.52C94.79 173.79 94.64 174.01 94.42 174.13C94.19 174.25 93.92 174.26 93.67 174.16C93.42 174.06 93.22 173.89 93.09 173.63C92.85 173.21 92.54 172.82 92.17 172.45C91.8 172.08 91.36 171.78 90.83 171.56C90.31 171.34 89.67 171.21 88.94 171.19C87.66 171.16 86.6 171.45 85.82 172C85.04 172.55 84.64 173.35 84.64 174.43C84.64 175 84.79 175.53 85.08 176.03C85.37 176.53 85.86 176.97 86.54 177.37C87.22 177.76 88.13 178.09 89.27 178.34C91.31 178.79 92.83 179.56 93.82 180.68C94.81 181.8 95.3 183.22 95.3 184.92C95.3 185.9 95.13 186.75 94.81 187.48C94.49 188.21 94.04 188.79 93.45 189.23C92.87 189.67 92.19 189.97 91.41 190.13C90.63 190.29 89.8 190.3 88.92 190.16L88.94 190.18Z" fill="black"/>
        <path d="M100.26 191.31C99.98 191.28 99.75 191.16 99.57 190.94C99.39 190.72 99.3 190.45 99.3 190.14C99.32 182.35 99.33 178.46 99.35 170.67C99.35 170.36 99.44 170.1 99.62 169.89C99.8 169.69 100.03 169.59 100.31 169.59C100.59 169.59 100.82 169.69 101 169.9C101.18 170.11 101.27 170.37 101.27 170.68C101.27 174.17 101.26 175.91 101.25 179.39C106.05 179.58 108.46 179.65 113.27 179.71V170.72C113.27 170.39 113.36 170.12 113.54 169.91C113.72 169.7 113.95 169.59 114.23 169.59C114.51 169.59 114.74 169.7 114.92 169.91C115.1 170.12 115.19 170.39 115.19 170.72C115.19 178.83 115.19 182.89 115.18 191C115.18 191.33 115.09 191.6 114.91 191.8C114.73 192.01 114.5 192.11 114.22 192.1C113.94 192.1 113.71 191.98 113.53 191.77C113.35 191.55 113.26 191.28 113.26 190.96V181.72C108.45 181.65 106.04 181.57 101.24 181.34C101.24 184.93 101.23 186.72 101.22 190.3C101.22 190.62 101.13 190.87 100.95 191.06C100.77 191.25 100.54 191.33 100.26 191.3V191.31Z" fill="black"/>
        <path d="M129.04 190.05C130.18 189.99 131.23 189.7 132.2 189.18C133.17 188.66 134.01 187.95 134.72 187.07C135.43 186.19 135.98 185.19 136.37 184.06C136.76 182.93 136.95 181.72 136.95 180.42C136.95 179.12 136.75 177.96 136.35 176.87C135.95 175.78 135.4 174.82 134.68 174C133.96 173.18 133.12 172.54 132.15 172.09C131.18 171.64 130.13 171.41 129 171.42C127.85 171.42 126.79 171.66 125.83 172.14C124.86 172.61 124.02 173.28 123.31 174.14C122.6 175 122.04 176 121.65 177.15C121.26 178.3 121.06 179.53 121.06 180.86C121.06 182.19 121.26 183.45 121.65 184.59C122.04 185.73 122.6 186.72 123.32 187.56C124.04 188.4 124.88 189.04 125.85 189.48C126.82 189.92 127.88 190.11 129.03 190.05H129.04ZM129.04 192.16C127.61 192.24 126.29 192.01 125.09 191.47C123.89 190.93 122.85 190.15 121.96 189.12C121.08 188.1 120.4 186.88 119.91 185.47C119.42 184.07 119.18 182.53 119.18 180.85C119.18 179.17 119.42 177.66 119.91 176.26C120.39 174.85 121.07 173.63 121.95 172.59C122.83 171.55 123.86 170.74 125.06 170.16C126.26 169.58 127.57 169.3 128.99 169.3C130.41 169.3 131.7 169.59 132.9 170.15C134.1 170.71 135.14 171.49 136.03 172.48C136.92 173.47 137.61 174.63 138.09 175.96C138.58 177.29 138.82 178.74 138.83 180.32C138.83 181.92 138.6 183.4 138.12 184.78C137.64 186.16 136.96 187.39 136.07 188.46C135.19 189.53 134.15 190.4 132.95 191.05C131.75 191.7 130.44 192.07 129.03 192.15L129.04 192.16Z" fill="black"/>
        <path d="M144.73 181.04C146.31 180.92 147.1 180.86 148.68 180.72C149.51 180.65 150.26 180.39 150.91 179.95C151.56 179.51 152.07 178.94 152.44 178.24C152.81 177.54 152.99 176.77 152.99 175.92C152.99 175.07 152.8 174.27 152.44 173.61C152.08 172.95 151.56 172.44 150.9 172.06C150.24 171.68 149.5 171.5 148.66 171.51C147.08 171.54 146.28 171.55 144.7 171.57C144.7 175.36 144.71 177.25 144.72 181.03H144.73V181.04ZM143.79 190.53C143.51 190.57 143.28 190.5 143.1 190.32C142.92 190.15 142.83 189.9 142.83 189.6C142.81 182.01 142.8 178.22 142.78 170.64C142.78 170.33 142.87 170.08 143.05 169.88C143.23 169.68 143.46 169.58 143.74 169.58H148.66C149.87 169.58 150.95 169.86 151.88 170.39C152.81 170.93 153.54 171.66 154.07 172.59C154.59 173.52 154.86 174.58 154.86 175.81C154.86 177.04 154.6 178.09 154.08 179.07C153.56 180.05 152.83 180.87 151.9 181.51C150.97 182.16 149.9 182.55 148.69 182.67C147.11 182.83 146.32 182.9 144.74 183.04C144.74 185.57 144.74 186.83 144.76 189.36C144.76 189.66 144.67 189.92 144.49 190.14C144.31 190.36 144.08 190.49 143.8 190.52L143.79 190.53Z" fill="black"/>
    </g>
    <mask id="mask18_6008_41263" style="mask-type:luminance" maskUnits="userSpaceOnUse" x="63" y="0" width="106" height="120">
        <path d="M63.9 99.52L79.67 111.74L116.95 119.09L141.19 115.6L161.66 107.67L168.93 67.38L166.73 6.39L80.64 0L63.9 13.87V99.52Z" fill="white"/>
    </mask>
    <g mask="url(#mask18_6008_41263)">
        <path d="M139.88 70.4201C143.94 65.6401 147.42 58.1301 149.21 49.3101C152.49 33.1101 148.84 18.7001 141.05 17.1201C133.26 15.5401 124.28 27.3901 121 43.5901C119.29 52.0201 119.48 59.9501 121.13 65.8501C119.84 65.7701 118.54 65.7001 117.21 65.7001C115.88 65.7001 114.59 65.7601 113.29 65.8501C114.95 59.9401 115.13 52.0201 113.42 43.5901C110.14 27.3901 101.16 15.5401 93.37 17.1201C85.58 18.7001 81.92 33.1101 85.21 49.3101C87 58.1301 90.48 65.6401 94.54 70.4201C81.81 76.1301 73.27 86.4501 73.27 98.2901C73.27 116.28 92.94 130.87 117.21 130.87C141.48 130.87 161.15 116.28 161.15 98.2901C161.15 86.4601 152.61 76.1301 139.88 70.4201Z" fill="white" stroke="black" stroke-width="7.8" stroke-miterlimit="10"/>
        <path d="M97.89 104.35C99.7733 104.35 101.3 102.823 101.3 100.94C101.3 99.0567 99.7733 97.53 97.89 97.53C96.0067 97.53 94.48 99.0567 94.48 100.94C94.48 102.823 96.0067 104.35 97.89 104.35Z" fill="black"/>
        <path d="M134.82 104.35C136.703 104.35 138.23 102.823 138.23 100.94C138.23 99.0567 136.703 97.53 134.82 97.53C132.937 97.53 131.41 99.0567 131.41 100.94C131.41 102.823 132.937 104.35 134.82 104.35Z" fill="black"/>
        <path d="M112.28 108.14L122.13 115.34" stroke="#1D1D1B" stroke-miterlimit="10"/>
        <path d="M122.13 108.14L112.28 115.34" stroke="#1D1D1B" stroke-miterlimit="10"/>
    </g>
    <path d="M171.82 91.4999C170.25 90.4099 168.35 90.0699 166.75 89.9599C165.43 89.8699 163.91 89.9099 162.26 90.0399C163.39 91.5099 163.79 93.5199 162.67 95.4399C162.31 96.1499 161.87 96.8099 161.35 97.4199C161.19 97.6299 161.02 97.8199 160.83 98.0099C163.09 97.7499 164.88 97.6399 166.19 97.7399C166.3 97.7399 166.39 97.7599 166.48 97.7699C166.13 98.4299 165.39 99.4599 163.88 100.81C161.53 102.9 157.95 105.19 153.33 107.31C144.1 111.54 131.22 114.88 116.95 114.88C102.68 114.88 89.8 111.54 80.57 107.31C75.94 105.19 72.37 102.9 70.02 100.81C68.51 99.4599 67.77 98.4399 67.42 97.7799C67.51 97.7799 67.6 97.7599 67.71 97.7499C68.94 97.6599 70.59 97.7499 72.66 97.9799C72.11 97.2299 71.74 96.2799 71.67 95.1299C71.57 93.2699 71.89 91.7399 72.5 90.1199C70.51 89.9299 68.69 89.8599 67.14 89.9699C65.54 90.0799 63.65 90.4199 62.07 91.5099C60.21 92.7899 59.29 94.7699 59.29 96.9299C59.29 100.7 61.94 104.07 64.82 106.63C67.91 109.38 72.21 112.06 77.31 114.4C87.53 119.09 101.52 122.68 116.94 122.68C132.36 122.68 146.35 119.09 156.57 114.4C161.67 112.06 165.97 109.39 169.06 106.63C171.94 104.07 174.59 100.7 174.59 96.9199C174.59 94.7499 173.67 92.7799 171.81 91.4999H171.82Z" fill="black"/>
</svg>
