<svg width="414" height="390" viewBox="0 0 414 390" fill="none" xmlns="http://www.w3.org/2000/svg">
<g clip-path="url(#clip0_6083_2579)">
<path d="M316.78 340.52H85.5096L60.5596 164.96H341.73L316.78 340.52Z" fill="white"/>
<path d="M395.076 6.02014L320.233 173.333L333.013 179.05L407.856 11.7368L395.076 6.02014Z" fill="#7C7C7C"/>
<mask id="mask0_6083_2579" style="mask-type:luminance" maskUnits="userSpaceOnUse" x="60" y="164" width="282" height="177">
<path d="M316.78 340.52H85.5096L60.5596 164.96H341.73L316.78 340.52Z" fill="white"/>
</mask>
<g mask="url(#mask0_6083_2579)">
<mask id="mask1_6083_2579" style="mask-type:luminance" maskUnits="userSpaceOnUse" x="0" y="6" width="408" height="378">
<path d="M407.85 6H0V383.15H407.85V6Z" fill="white"/>
</mask>
<g mask="url(#mask1_6083_2579)">
<path d="M339.32 211.84L316.35 213.65L293.39 211.84V201.43L316.35 199.63L339.32 201.43V211.84Z" fill="#FF0000"/>
<path d="M371.92 194.83L348.95 196.64L325.98 194.83V184.42L348.95 182.62L371.92 184.42V194.83Z" fill="#FF0000"/>
<path d="M306.72 194.83L283.76 196.64L260.79 194.83V184.42L283.76 182.62L306.72 184.42V194.83Z" fill="#FF0000"/>
<path d="M339.32 177.83L316.35 179.63L293.39 177.83V167.42L316.35 165.61L339.32 167.42V177.83Z" fill="#FF0000"/>
</g>
<path d="M78.5296 347.9L55.5696 349.71L32.5996 347.9V337.5L55.5696 335.69L78.5296 337.5V347.9Z" fill="#FF0000"/>
<mask id="mask2_6083_2579" style="mask-type:luminance" maskUnits="userSpaceOnUse" x="0" y="6" width="408" height="378">
<path d="M407.85 6H0V383.15H407.85V6Z" fill="white"/>
</mask>
<g mask="url(#mask2_6083_2579)">
<path d="M339.32 279.87L316.35 281.68L293.39 279.87V269.46L316.35 267.66L339.32 269.46V279.87Z" fill="#FF0000"/>
<path d="M371.92 262.87L348.95 264.67L325.98 262.87V252.46L348.95 250.65L371.92 252.46V262.87Z" fill="#FF0000"/>
<path d="M306.72 262.87L283.76 264.67L260.79 262.87V252.46L283.76 250.65L306.72 252.46V262.87Z" fill="#FF0000"/>
<path d="M339.32 245.86L316.35 247.66L293.39 245.86V235.45L316.35 233.65L339.32 235.45V245.86Z" fill="#FF0000"/>
<path d="M371.92 228.85L348.95 230.65L325.98 228.85V218.44L348.95 216.64L371.92 218.44V228.85Z" fill="#FF0000"/>
<path d="M306.72 228.85L283.76 230.65L260.79 228.85V218.44L283.76 216.64L306.72 218.44V228.85Z" fill="#FF0000"/>
<path d="M339.32 211.84L316.35 213.65L293.39 211.84V201.43L316.35 199.63L339.32 201.43V211.84Z" fill="#FF0000"/>
</g>
<mask id="mask3_6083_2579" style="mask-type:luminance" maskUnits="userSpaceOnUse" x="0" y="6" width="408" height="378">
<path d="M407.85 6H0V383.15H407.85V6Z" fill="white"/>
</mask>
<g mask="url(#mask3_6083_2579)">
<path d="M339.32 347.9L316.35 349.71L293.39 347.9V337.5L316.35 335.69L339.32 337.5V347.9Z" fill="#FF0000"/>
<path d="M371.92 330.9L348.95 332.7L325.98 330.9V320.49L348.95 318.68L371.92 320.49V330.9Z" fill="#FF0000"/>
<path d="M306.72 330.9L283.76 332.7L260.79 330.9V320.49L283.76 318.68L306.72 320.49V330.9Z" fill="#FF0000"/>
<path d="M339.32 313.89L316.35 315.69L293.39 313.89V303.48L316.35 301.68L339.32 303.48V313.89Z" fill="#FF0000"/>
<path d="M371.92 296.88L348.95 298.68L325.98 296.88V286.47L348.95 284.67L371.92 286.47V296.88Z" fill="#FF0000"/>
<path d="M306.72 296.88L283.76 298.68L260.79 296.88V286.47L283.76 284.67L306.72 286.47V296.88Z" fill="#FF0000"/>
<path d="M339.32 279.87L316.35 281.68L293.39 279.87V269.46L316.35 267.66L339.32 269.46V279.87Z" fill="#FF0000"/>
</g>
<path d="M111.13 330.9L88.1702 332.7L65.2002 330.9V320.49L88.1702 318.68L111.13 320.49V330.9Z" fill="#FF0000"/>
<mask id="mask4_6083_2579" style="mask-type:luminance" maskUnits="userSpaceOnUse" x="0" y="6" width="408" height="378">
<path d="M407.85 6H0V383.15H407.85V6Z" fill="white"/>
</mask>
<g mask="url(#mask4_6083_2579)">
<path d="M274.129 211.84L251.159 213.65L228.189 211.84V201.43L251.159 199.63L274.129 201.43V211.84Z" fill="#FF0000"/>
<path d="M306.72 194.83L283.76 196.64L260.79 194.83V184.42L283.76 182.62L306.72 184.42V194.83Z" fill="#FF0000"/>
<path d="M241.53 194.83L218.56 196.64L195.59 194.83V184.42L218.56 182.62L241.53 184.42V194.83Z" fill="#FF0000"/>
<path d="M274.129 177.83L251.159 179.63L228.189 177.83V167.42L251.159 165.61L274.129 167.42V177.83Z" fill="#FF0000"/>
</g>
<mask id="mask5_6083_2579" style="mask-type:luminance" maskUnits="userSpaceOnUse" x="0" y="6" width="408" height="378">
<path d="M407.85 6H0V383.15H407.85V6Z" fill="white"/>
</mask>
<g mask="url(#mask5_6083_2579)">
<path d="M274.129 347.9L251.159 349.71L228.189 347.9V337.5L251.159 335.69L274.129 337.5V347.9Z" fill="#FF0000"/>
<path d="M306.72 330.9L283.76 332.7L260.79 330.9V320.49L283.76 318.68L306.72 320.49V330.9Z" fill="#FF0000"/>
<path d="M241.53 330.9L218.56 332.7L195.59 330.9V320.49L218.56 318.68L241.53 320.49V330.9Z" fill="#FF0000"/>
<path d="M274.129 313.89L251.159 315.69L228.189 313.89V303.48L251.159 301.68L274.129 303.48V313.89Z" fill="#FF0000"/>
<path d="M306.72 296.88L283.76 298.68L260.79 296.88V286.47L283.76 284.67L306.72 286.47V296.88Z" fill="#FF0000"/>
<path d="M241.53 296.88L218.56 298.68L195.59 296.88V286.47L218.56 284.67L241.53 286.47V296.88Z" fill="#FF0000"/>
<path d="M274.129 279.87L251.159 281.68L228.189 279.87V269.46L251.159 267.66L274.129 269.46V279.87Z" fill="#FF0000"/>
</g>
<mask id="mask6_6083_2579" style="mask-type:luminance" maskUnits="userSpaceOnUse" x="0" y="6" width="408" height="378">
<path d="M407.85 6H0V383.15H407.85V6Z" fill="white"/>
</mask>
<g mask="url(#mask6_6083_2579)">
<path d="M208.929 211.84L185.959 213.65L162.989 211.84V201.43L185.959 199.63L208.929 201.43V211.84Z" fill="#FF0000"/>
<path d="M241.53 194.83L218.56 196.64L195.59 194.83V184.42L218.56 182.62L241.53 184.42V194.83Z" fill="#FF0000"/>
<path d="M176.33 194.83L153.36 196.64L130.39 194.83V184.42L153.36 182.62L176.33 184.42V194.83Z" fill="#FF0000"/>
<path d="M208.929 177.83L185.959 179.63L162.989 177.83V167.42L185.959 165.61L208.929 167.42V177.83Z" fill="#FF0000"/>
</g>
<mask id="mask7_6083_2579" style="mask-type:luminance" maskUnits="userSpaceOnUse" x="0" y="6" width="408" height="378">
<path d="M407.85 6H0V383.15H407.85V6Z" fill="white"/>
</mask>
<g mask="url(#mask7_6083_2579)">
<path d="M274.129 279.87L251.159 281.68L228.189 279.87V269.46L251.159 267.66L274.129 269.46V279.87Z" fill="#FF0000"/>
<path d="M306.72 262.87L283.76 264.67L260.79 262.87V252.46L283.76 250.65L306.72 252.46V262.87Z" fill="#FF0000"/>
<path d="M241.53 262.87L218.56 264.67L195.59 262.87V252.46L218.56 250.65L241.53 252.46V262.87Z" fill="#FF0000"/>
<path d="M274.129 245.86L251.159 247.66L228.189 245.86V235.45L251.159 233.65L274.129 235.45V245.86Z" fill="#FF0000"/>
<path d="M306.72 228.85L283.76 230.65L260.79 228.85V218.44L283.76 216.64L306.72 218.44V228.85Z" fill="#FF0000"/>
<path d="M241.53 228.85L218.56 230.65L195.59 228.85V218.44L218.56 216.64L241.53 218.44V228.85Z" fill="#FF0000"/>
<path d="M274.129 211.84L251.159 213.65L228.189 211.84V201.43L251.159 199.63L274.129 201.43V211.84Z" fill="#FF0000"/>
</g>
<mask id="mask8_6083_2579" style="mask-type:luminance" maskUnits="userSpaceOnUse" x="0" y="6" width="408" height="378">
<path d="M407.85 6H0V383.15H407.85V6Z" fill="white"/>
</mask>
<g mask="url(#mask8_6083_2579)">
<path d="M208.929 279.87L185.959 281.68L162.989 279.87V269.46L185.959 267.66L208.929 269.46V279.87Z" fill="#FF0000"/>
<path d="M241.53 262.87L218.56 264.67L195.59 262.87V252.46L218.56 250.65L241.53 252.46V262.87Z" fill="#FF0000"/>
<path d="M176.33 262.87L153.36 264.67L130.39 262.87V252.46L153.36 250.65L176.33 252.46V262.87Z" fill="#FF0000"/>
<path d="M208.929 245.86L185.959 247.66L162.989 245.86V235.45L185.959 233.65L208.929 235.45V245.86Z" fill="#FF0000"/>
<path d="M241.53 228.85L218.56 230.65L195.59 228.85V218.44L218.56 216.64L241.53 218.44V228.85Z" fill="#FF0000"/>
<path d="M176.33 228.85L153.36 230.65L130.39 228.85V218.44L153.36 216.64L176.33 218.44V228.85Z" fill="#FF0000"/>
<path d="M208.929 211.84L185.959 213.65L162.989 211.84V201.43L185.959 199.63L208.929 201.43V211.84Z" fill="#FF0000"/>
</g>
<mask id="mask9_6083_2579" style="mask-type:luminance" maskUnits="userSpaceOnUse" x="0" y="6" width="408" height="378">
<path d="M407.85 6H0V383.15H407.85V6Z" fill="white"/>
</mask>
<g mask="url(#mask9_6083_2579)">
<path d="M208.929 347.9L185.959 349.71L162.989 347.9V337.5L185.959 335.69L208.929 337.5V347.9Z" fill="#FF0000"/>
<path d="M241.53 330.9L218.56 332.7L195.59 330.9V320.49L218.56 318.68L241.53 320.49V330.9Z" fill="#FF0000"/>
<path d="M176.33 330.9L153.36 332.7L130.39 330.9V320.49L153.36 318.68L176.33 320.49V330.9Z" fill="#FF0000"/>
<path d="M208.929 313.89L185.959 315.69L162.989 313.89V303.48L185.959 301.68L208.929 303.48V313.89Z" fill="#FF0000"/>
<path d="M241.53 296.88L218.56 298.68L195.59 296.88V286.47L218.56 284.67L241.53 286.47V296.88Z" fill="#FF0000"/>
<path d="M176.33 296.88L153.36 298.68L130.39 296.88V286.47L153.36 284.67L176.33 286.47V296.88Z" fill="#FF0000"/>
<path d="M208.929 279.87L185.959 281.68L162.989 279.87V269.46L185.959 267.66L208.929 269.46V279.87Z" fill="#FF0000"/>
</g>
<path d="M78.5296 313.89L55.5696 315.69L32.5996 313.89V303.48L55.5696 301.68L78.5296 303.48V313.89Z" fill="#FF0000"/>
<path d="M111.13 296.88L88.1702 298.68L65.2002 296.88V286.47L88.1702 284.67L111.13 286.47V296.88Z" fill="#FF0000"/>
<path d="M78.5296 279.87L55.5696 281.68L32.5996 279.87V269.46L55.5696 267.66L78.5296 269.46V279.87Z" fill="#FF0000"/>
<mask id="mask10_6083_2579" style="mask-type:luminance" maskUnits="userSpaceOnUse" x="0" y="6" width="408" height="378">
<path d="M407.85 6H0V383.15H407.85V6Z" fill="white"/>
</mask>
<g mask="url(#mask10_6083_2579)">
<path d="M143.73 211.84L120.76 213.65L97.7998 211.84V201.43L120.76 199.63L143.73 201.43V211.84Z" fill="#FF0000"/>
<path d="M176.331 194.83L153.361 196.64L130.391 194.83V184.42L153.361 182.62L176.331 184.42V194.83Z" fill="#FF0000"/>
<path d="M111.13 194.83L88.1702 196.64L65.2002 194.83V184.42L88.1702 182.62L111.13 184.42V194.83Z" fill="#FF0000"/>
<path d="M143.73 177.83L120.76 179.63L97.7998 177.83V167.42L120.76 165.61L143.73 167.42V177.83Z" fill="#FF0000"/>
</g>
<mask id="mask11_6083_2579" style="mask-type:luminance" maskUnits="userSpaceOnUse" x="0" y="6" width="408" height="378">
<path d="M407.85 6H0V383.15H407.85V6Z" fill="white"/>
</mask>
<g mask="url(#mask11_6083_2579)">
<path d="M78.5296 279.87L55.5696 281.68L32.5996 279.87V269.46L55.5696 267.66L78.5296 269.46V279.87Z" fill="#FF0000"/>
<path d="M111.13 262.87L88.1702 264.67L65.2002 262.87V252.46L88.1702 250.65L111.13 252.46V262.87Z" fill="#FF0000"/>
<path d="M78.5296 245.86L55.5696 247.66L32.5996 245.86V235.45L55.5696 233.65L78.5296 235.45V245.86Z" fill="#FF0000"/>
<path d="M111.13 228.85L88.1702 230.65L65.2002 228.85V218.44L88.1702 216.64L111.13 218.44V228.85Z" fill="#FF0000"/>
<path d="M78.5296 211.84L55.5696 213.65L32.5996 211.84V201.43L55.5696 199.63L78.5296 201.43V211.84Z" fill="#FF0000"/>
</g>
<mask id="mask12_6083_2579" style="mask-type:luminance" maskUnits="userSpaceOnUse" x="0" y="6" width="408" height="378">
<path d="M407.85 6H0V383.15H407.85V6Z" fill="white"/>
</mask>
<g mask="url(#mask12_6083_2579)">
<path d="M143.73 347.9L120.76 349.71L97.7998 347.9V337.5L120.76 335.69L143.73 337.5V347.9Z" fill="#FF0000"/>
<path d="M176.331 330.9L153.361 332.7L130.391 330.9V320.49L153.361 318.68L176.331 320.49V330.9Z" fill="#FF0000"/>
<path d="M111.13 330.9L88.1702 332.7L65.2002 330.9V320.49L88.1702 318.68L111.13 320.49V330.9Z" fill="#FF0000"/>
<path d="M143.73 313.89L120.76 315.69L97.7998 313.89V303.48L120.76 301.68L143.73 303.48V313.89Z" fill="#FF0000"/>
<path d="M176.331 296.88L153.361 298.68L130.391 296.88V286.47L153.361 284.67L176.331 286.47V296.88Z" fill="#FF0000"/>
<path d="M111.13 296.88L88.1702 298.68L65.2002 296.88V286.47L88.1702 284.67L111.13 286.47V296.88Z" fill="#FF0000"/>
<path d="M143.73 279.87L120.76 281.68L97.7998 279.87V269.46L120.76 267.66L143.73 269.46V279.87Z" fill="#FF0000"/>
</g>
<mask id="mask13_6083_2579" style="mask-type:luminance" maskUnits="userSpaceOnUse" x="0" y="6" width="408" height="378">
<path d="M407.85 6H0V383.15H407.85V6Z" fill="white"/>
</mask>
<g mask="url(#mask13_6083_2579)">
<path d="M143.73 279.87L120.76 281.68L97.7998 279.87V269.46L120.76 267.66L143.73 269.46V279.87Z" fill="#FF0000"/>
<path d="M176.331 262.87L153.361 264.67L130.391 262.87V252.46L153.361 250.65L176.331 252.46V262.87Z" fill="#FF0000"/>
<path d="M111.13 262.87L88.1702 264.67L65.2002 262.87V252.46L88.1702 250.65L111.13 252.46V262.87Z" fill="#FF0000"/>
<path d="M143.73 245.86L120.76 247.66L97.7998 245.86V235.45L120.76 233.65L143.73 235.45V245.86Z" fill="#FF0000"/>
<path d="M176.331 228.85L153.361 230.65L130.391 228.85V218.44L153.361 216.64L176.331 218.44V228.85Z" fill="#FF0000"/>
<path d="M111.13 228.85L88.1702 230.65L65.2002 228.85V218.44L88.1702 216.64L111.13 218.44V228.85Z" fill="#FF0000"/>
<path d="M143.73 211.84L120.76 213.65L97.7998 211.84V201.43L120.76 199.63L143.73 201.43V211.84Z" fill="#FF0000"/>
</g>
<mask id="mask14_6083_2579" style="mask-type:luminance" maskUnits="userSpaceOnUse" x="0" y="6" width="408" height="378">
<path d="M407.85 6H0V383.15H407.85V6Z" fill="white"/>
</mask>
<g mask="url(#mask14_6083_2579)">
<path d="M78.5296 211.84L55.5696 213.65L32.5996 211.84V201.43L55.5696 199.63L78.5296 201.43V211.84Z" fill="#FF0000"/>
<path d="M111.13 194.83L88.1702 196.64L65.2002 194.83V184.42L88.1702 182.62L111.13 184.42V194.83Z" fill="#FF0000"/>
<path d="M78.5296 177.83L55.5696 179.63L32.5996 177.83V167.42L55.5696 165.61L78.5296 167.42V177.83Z" fill="#FF0000"/>
</g>
</g>
<path d="M119.43 164.96H115.06V340.53H119.43V164.96Z" fill="#FF0000"/>
<path d="M125.65 164.96H121.28V340.53H125.65V164.96Z" fill="#FF0000"/>
<path d="M153.09 164.96H148.72V340.53H153.09V164.96Z" fill="#FF0000"/>
<path d="M159.31 164.96H154.94V340.53H159.31V164.96Z" fill="#FF0000"/>
<path d="M186.75 164.96H182.38V340.53H186.75V164.96Z" fill="#FF0000"/>
<path d="M192.97 164.96H188.6V340.53H192.97V164.96Z" fill="#FF0000"/>
<path d="M220.42 164.96H216.05V340.53H220.42V164.96Z" fill="#FF0000"/>
<path d="M226.64 164.96H222.27V340.53H226.64V164.96Z" fill="#FF0000"/>
<path d="M254.08 164.96H249.71V340.53H254.08V164.96Z" fill="#FF0000"/>
<path d="M260.3 164.96H255.93V340.53H260.3V164.96Z" fill="#FF0000"/>
<path d="M287.74 164.96H283.37V340.53H287.74V164.96Z" fill="#FF0000"/>
<path d="M293.96 164.96H289.59V340.53H293.96V164.96Z" fill="#FF0000"/>
<path d="M320.4 164.96H316.03V271.89H320.4V164.96Z" fill="#FF0000"/>
<path d="M326.62 164.96H322.25V271.89H326.62V164.96Z" fill="#FF0000"/>
<path d="M79.4198 164.96H75.0498V271.89H79.4198V164.96Z" fill="#FF0000"/>
<path d="M85.6395 164.96H81.2695V271.89H85.6395V164.96Z" fill="#FF0000"/>
<path d="M340.95 164.96H60.5596V170.5H340.95V164.96Z" fill="#FF0000"/>
<path d="M113.86 378.14C134.091 378.14 150.49 361.74 150.49 341.51C150.49 321.28 134.091 304.88 113.86 304.88C93.6303 304.88 77.2305 321.28 77.2305 341.51C77.2305 361.74 93.6303 378.14 113.86 378.14Z" fill="white"/>
<path d="M296.93 378.14C317.16 378.14 333.56 361.74 333.56 341.51C333.56 321.28 317.16 304.88 296.93 304.88C276.7 304.88 260.3 321.28 260.3 341.51C260.3 361.74 276.7 378.14 296.93 378.14Z" fill="white"/>
<path d="M150.9 334.42C150.9 355.3 139.78 375.18 118.91 375.18C102.21 375.18 88.6699 361.64 88.6699 344.94C88.6699 331.58 99.4999 320.75 112.86 320.75C123.55 320.75 132.22 329.42 132.22 340.11C132.22 348.66 125.29 355.59 116.74 355.59C109.9 355.59 104.35 350.04 104.35 343.2C104.35 337.73 108.79 333.29 114.26 333.29C118.64 333.29 122.19 336.84 122.19 341.22C122.19 344.72 119.35 347.56 115.85 347.56C113.05 347.56 110.78 345.29 110.78 342.49C110.78 340.25 112.6 338.43 114.84 338.43C116.63 338.43 118.09 339.88 118.09 341.68C118.09 343.11 116.93 344.28 115.49 344.28C114.34 344.28 113.41 343.35 113.41 342.2C113.41 341.28 114.15 340.54 115.07 340.54" stroke="#FF0000" stroke-width="8" stroke-miterlimit="10"/>
<path d="M332.14 334.42C332.14 355.3 321.02 375.18 300.15 375.18C283.45 375.18 269.91 361.64 269.91 344.94C269.91 331.58 280.74 320.75 294.1 320.75C304.79 320.75 313.46 329.42 313.46 340.11C313.46 348.66 306.53 355.59 297.98 355.59C291.14 355.59 285.59 350.04 285.59 343.2C285.59 337.73 290.03 333.29 295.5 333.29C299.88 333.29 303.43 336.84 303.43 341.22C303.43 344.72 300.59 347.56 297.09 347.56C294.29 347.56 292.02 345.29 292.02 342.49C292.02 340.25 293.84 338.43 296.08 338.43C297.87 338.43 299.33 339.88 299.33 341.68C299.33 343.11 298.17 344.28 296.73 344.28C295.58 344.28 294.65 343.35 294.65 342.2C294.65 341.28 295.39 340.54 296.31 340.54" stroke="#FF0000" stroke-width="8" stroke-miterlimit="10"/>
<path d="M113.86 309.88C131.33 309.88 145.49 324.04 145.49 341.51H155.49C155.49 318.52 136.85 299.88 113.86 299.88V309.88ZM82.2305 341.51C82.2305 324.04 96.3905 309.88 113.86 309.88V299.88C90.8705 299.88 72.2305 318.52 72.2305 341.51H82.2305ZM113.86 373.14C96.3905 373.14 82.2305 358.98 82.2305 341.51H72.2305C72.2305 364.5 90.8705 383.14 113.86 383.14V373.14ZM145.49 341.51C145.49 358.98 131.33 373.14 113.86 373.14V383.14C136.85 383.14 155.49 364.5 155.49 341.51H145.49Z" fill="#7C7C7C"/>
<path d="M113.86 348.6C117.775 348.6 120.95 345.426 120.95 341.51C120.95 337.594 117.775 334.42 113.86 334.42C109.944 334.42 106.77 337.594 106.77 341.51C106.77 345.426 109.944 348.6 113.86 348.6Z" fill="#7C7C7C"/>
<path d="M296.93 309.88C314.4 309.88 328.56 324.04 328.56 341.51H338.56C338.56 318.52 319.92 299.88 296.93 299.88V309.88ZM265.3 341.51C265.3 324.04 279.46 309.88 296.93 309.88V299.88C273.94 299.88 255.3 318.52 255.3 341.51H265.3ZM296.93 373.14C279.46 373.14 265.3 358.98 265.3 341.51H255.3C255.3 364.5 273.94 383.14 296.93 383.14V373.14ZM328.56 341.51C328.56 358.98 314.4 373.14 296.93 373.14V383.14C319.92 383.14 338.56 364.5 338.56 341.51H328.56Z" fill="#7C7C7C"/>
<path d="M299.872 347.945C303.438 346.327 305.016 342.125 303.398 338.559C301.78 334.993 297.578 333.415 294.012 335.033C290.446 336.651 288.867 340.853 290.486 344.419C292.104 347.985 296.306 349.564 299.872 347.945Z" fill="#7C7C7C"/>
<path d="M268.43 247.14H133.08L121.9 235.96V205.76L133.08 194.58H268.43L279.61 205.76V235.96L268.43 247.14Z" fill="white" stroke="#FF0000" stroke-width="5" stroke-miterlimit="10"/>
<path d="M160.51 233.25C159.11 233.25 157.77 233.03 156.51 232.59C155.25 232.15 154.14 231.54 153.2 230.75C152.26 229.96 151.57 229.05 151.13 228.03C150.91 227.57 150.92 227.14 151.15 226.75C151.38 226.36 151.77 226.11 152.32 226C152.71 225.91 153.1 225.97 153.49 226.18C153.87 226.39 154.16 226.7 154.36 227.12C154.62 227.67 155.05 228.17 155.66 228.63C156.26 229.09 156.99 229.46 157.84 229.75C158.69 230.03 159.59 230.18 160.53 230.18C161.58 230.18 162.55 230.02 163.43 229.69C164.31 229.36 165.03 228.89 165.58 228.26C166.13 227.64 166.4 226.86 166.4 225.95C166.4 224.79 165.95 223.75 165.04 222.83C164.13 221.91 162.64 221.34 160.56 221.12C157.85 220.86 155.71 220.06 154.16 218.72C152.61 217.39 151.83 215.73 151.83 213.76C151.83 212.32 152.23 211.09 153.04 210.08C153.85 209.07 154.95 208.31 156.34 207.78C157.73 207.25 159.28 206.99 160.98 206.99C162.31 206.99 163.48 207.18 164.48 207.55C165.48 207.92 166.35 208.44 167.09 209.09C167.83 209.75 168.48 210.52 169.03 211.42C169.34 211.9 169.46 212.36 169.41 212.78C169.36 213.21 169.14 213.54 168.77 213.78C168.35 214.04 167.91 214.1 167.42 213.94C166.94 213.79 166.58 213.5 166.34 213.09C165.99 212.46 165.56 211.92 165.06 211.48C164.56 211.04 163.97 210.7 163.29 210.45C162.61 210.2 161.81 210.07 160.89 210.07C159.27 210.05 157.91 210.35 156.82 210.97C155.73 211.59 155.18 212.55 155.18 213.84C155.18 214.5 155.35 215.13 155.69 215.73C156.03 216.33 156.65 216.85 157.56 217.29C158.47 217.73 159.78 218.03 161.48 218.21C164.08 218.47 166.11 219.27 167.57 220.59C169.02 221.91 169.75 223.66 169.75 225.82C169.75 227.07 169.49 228.15 168.98 229.07C168.47 229.99 167.78 230.76 166.91 231.38C166.05 232 165.06 232.47 163.96 232.78C162.85 233.09 161.71 233.24 160.53 233.24L160.51 233.25Z" fill="black"/>
<path d="M176.66 232.93C176.18 232.93 175.77 232.77 175.45 232.44C175.13 232.11 174.96 231.71 174.96 231.23V209.01C174.96 208.51 175.12 208.1 175.45 207.78C175.78 207.46 176.18 207.3 176.66 207.3C177.14 207.3 177.57 207.46 177.89 207.78C178.21 208.1 178.37 208.51 178.37 209.01V218.43H193.6V209.01C193.6 208.51 193.76 208.1 194.09 207.78C194.42 207.46 194.82 207.3 195.3 207.3C195.78 207.3 196.21 207.46 196.51 207.78C196.82 208.1 196.97 208.51 196.97 209.01V231.23C196.97 231.71 196.82 232.12 196.51 232.44C196.2 232.77 195.8 232.93 195.3 232.93C194.8 232.93 194.41 232.77 194.09 232.44C193.76 232.11 193.6 231.71 193.6 231.23V221.45H178.37V231.23C178.37 231.71 178.21 232.12 177.89 232.44C177.57 232.77 177.16 232.93 176.66 232.93Z" fill="black"/>
<path d="M215.389 233.25C213.459 233.25 211.699 232.93 210.099 232.28C208.499 231.63 207.129 230.73 205.979 229.56C204.829 228.39 203.939 227 203.309 225.39C202.669 223.78 202.359 222.01 202.359 220.09C202.359 218.17 202.679 216.4 203.309 214.81C203.939 213.21 204.839 211.83 205.979 210.66C207.129 209.49 208.499 208.58 210.099 207.94C211.699 207.3 213.459 206.97 215.389 206.97C217.319 206.97 219.069 207.29 220.659 207.94C222.249 208.59 223.619 209.49 224.779 210.66C225.939 211.83 226.839 213.21 227.469 214.81C228.099 216.41 228.419 218.17 228.419 220.09C228.419 222.01 228.099 223.78 227.469 225.39C226.839 227 225.939 228.39 224.779 229.56C223.619 230.73 222.249 231.64 220.659 232.28C219.069 232.92 217.319 233.25 215.389 233.25ZM215.389 230.17C216.809 230.17 218.119 229.91 219.309 229.4C220.499 228.89 221.539 228.17 222.409 227.27C223.289 226.36 223.959 225.3 224.429 224.07C224.899 222.85 225.139 221.52 225.139 220.1C225.139 218.68 224.899 217.35 224.429 216.13C223.959 214.91 223.289 213.84 222.409 212.93C221.529 212.02 220.499 211.32 219.309 210.81C218.119 210.31 216.809 210.06 215.389 210.06C213.969 210.06 212.659 210.31 211.469 210.81C210.279 211.31 209.249 212.02 208.379 212.93C207.509 213.84 206.839 214.9 206.359 216.13C205.879 217.36 205.639 218.68 205.639 220.1C205.639 221.52 205.879 222.85 206.359 224.07C206.839 225.3 207.509 226.36 208.379 227.27C209.239 228.18 210.269 228.89 211.469 229.4C212.659 229.91 213.969 230.17 215.389 230.17Z" fill="black"/>
<path d="M235.479 232.93C234.999 232.93 234.589 232.77 234.269 232.44C233.949 232.11 233.779 231.71 233.779 231.23V209.01C233.779 208.51 233.939 208.1 234.269 207.78C234.599 207.46 234.999 207.3 235.479 207.3H242.039C243.679 207.3 245.139 207.66 246.409 208.38C247.679 209.1 248.669 210.1 249.379 211.38C250.089 212.66 250.449 214.13 250.449 215.8C250.449 217.47 250.089 218.82 249.379 220.07C248.669 221.32 247.679 222.29 246.409 222.99C245.139 223.69 243.689 224.04 242.039 224.04H237.179V231.23C237.179 231.71 237.019 232.12 236.699 232.44C236.379 232.76 235.969 232.93 235.469 232.93H235.479ZM237.189 220.88H242.049C243.059 220.88 243.939 220.66 244.709 220.22C245.479 219.78 246.079 219.18 246.509 218.42C246.939 217.66 247.169 216.78 247.169 215.79C247.169 214.74 246.949 213.82 246.509 213.02C246.069 212.22 245.469 211.59 244.709 211.13C243.939 210.67 243.059 210.44 242.049 210.44H237.189V220.88Z" fill="black"/>
</g>
<g clip-path="url(#clip1_6083_2579)">
<path d="M269.37 246.3H134.01L122.83 235.12V204.92C127.2 200.55 129.65 198.1 134.01 193.74H269.37C273.74 198.11 276.19 200.56 280.55 204.92V235.12L269.37 246.3Z" stroke="black" stroke-width="10" stroke-miterlimit="10"/>
<path d="M114.8 372.12C132.219 372.12 146.34 357.999 146.34 340.58C146.34 323.161 132.219 309.04 114.8 309.04C97.3807 309.04 83.2598 323.161 83.2598 340.58C83.2598 357.999 97.3807 372.12 114.8 372.12Z" stroke="black" stroke-width="7.8" stroke-miterlimit="10"/>
<path d="M323.2 301.16L342.67 164.12H340.25L408.79 10.8699L396.01 5.1499L324.91 164.12H61.4902L82.0902 309.04" stroke="black" stroke-width="7.8" stroke-miterlimit="10"/>
<path d="M250.37 339.68H256.37" stroke="black" stroke-width="7.8" stroke-miterlimit="10"/>
<path d="M155.68 339.68H250.37" stroke="black" stroke-width="7.8" stroke-miterlimit="10"/>
<path d="M297.25 372.12C314.669 372.12 328.79 357.999 328.79 340.58C328.79 323.161 314.669 309.04 297.25 309.04C279.831 309.04 265.71 323.161 265.71 340.58C265.71 357.999 279.831 372.12 297.25 372.12Z" stroke="black" stroke-width="7.8" stroke-miterlimit="10"/>
<path d="M114.8 299.67C137.36 299.67 155.7 318.02 155.7 340.58C155.7 363.14 137.35 381.49 114.8 381.49C92.2498 381.49 73.8898 363.14 73.8898 340.58C73.8898 318.02 92.2398 299.67 114.8 299.67ZM114.8 291.87C87.9398 291.87 66.0898 313.72 66.0898 340.58C66.0898 367.44 87.9398 389.29 114.8 389.29C141.66 389.29 163.5 367.44 163.5 340.58C163.5 313.72 141.65 291.87 114.8 291.87Z" fill="black"/>
<path d="M297.25 299.67C319.81 299.67 338.15 318.02 338.15 340.58C338.15 363.14 319.8 381.49 297.25 381.49C274.7 381.49 256.34 363.14 256.34 340.58C256.34 318.02 274.69 299.67 297.25 299.67ZM297.25 291.87C270.39 291.87 248.54 313.72 248.54 340.58C248.54 367.44 270.39 389.29 297.25 389.29C324.11 389.29 345.95 367.44 345.95 340.58C345.95 313.72 324.1 291.87 297.25 291.87Z" fill="black"/>
</g>
<defs>
<clipPath id="clip0_6083_2579">
<rect width="407.85" height="377.15" fill="white" transform="translate(0 6)"/>
</clipPath>
<clipPath id="clip1_6083_2579">
<rect width="356.95" height="389.29" fill="white" transform="translate(57)"/>
</clipPath>
</defs>
</svg>
