<svg width="413" height="390" viewBox="0 0 413 390" fill="none" xmlns="http://www.w3.org/2000/svg">
<g clip-path="url(#clip0_6085_6023)">
<path d="M316.781 340.52H85.5105L60.5605 164.96H341.731L316.781 340.52Z" fill="white"/>
<path d="M395.077 6.02014L320.234 173.333L333.014 179.05L407.857 11.7368L395.077 6.02014Z" fill="#7C7C7C"/>
<mask id="mask0_6085_6023" style="mask-type:luminance" maskUnits="userSpaceOnUse" x="60" y="164" width="282" height="177">
<path d="M316.781 340.52H85.5105L60.5605 164.96H341.731L316.781 340.52Z" fill="white"/>
</mask>
<g mask="url(#mask0_6085_6023)">
<mask id="mask1_6085_6023" style="mask-type:luminance" maskUnits="userSpaceOnUse" x="0" y="6" width="408" height="378">
<path d="M407.85 6H0V383.15H407.85V6Z" fill="white"/>
</mask>
<g mask="url(#mask1_6085_6023)">
<path d="M339.319 211.84L316.349 213.65L293.389 211.84V201.43L316.349 199.63L339.319 201.43V211.84Z" fill="#00BDFF"/>
<path d="M371.919 194.83L348.949 196.64L325.979 194.83V184.42L348.949 182.62L371.919 184.42V194.83Z" fill="#00BDFF"/>
<path d="M306.719 194.83L283.759 196.64L260.789 194.83V184.42L283.759 182.62L306.719 184.42V194.83Z" fill="#00BDFF"/>
<path d="M339.319 177.83L316.349 179.63L293.389 177.83V167.42L316.349 165.61L339.319 167.42V177.83Z" fill="#00BDFF"/>
</g>
<path d="M78.5296 347.9L55.5696 349.71L32.5996 347.9V337.5L55.5696 335.69L78.5296 337.5V347.9Z" fill="#00BDFF"/>
<mask id="mask2_6085_6023" style="mask-type:luminance" maskUnits="userSpaceOnUse" x="0" y="6" width="408" height="378">
<path d="M407.85 6H0V383.15H407.85V6Z" fill="white"/>
</mask>
<g mask="url(#mask2_6085_6023)">
<path d="M339.319 279.87L316.349 281.68L293.389 279.87V269.46L316.349 267.66L339.319 269.46V279.87Z" fill="#00BDFF"/>
<path d="M371.919 262.87L348.949 264.67L325.979 262.87V252.46L348.949 250.65L371.919 252.46V262.87Z" fill="#00BDFF"/>
<path d="M306.719 262.87L283.759 264.67L260.789 262.87V252.46L283.759 250.65L306.719 252.46V262.87Z" fill="#00BDFF"/>
<path d="M339.319 245.86L316.349 247.66L293.389 245.86V235.45L316.349 233.65L339.319 235.45V245.86Z" fill="#00BDFF"/>
<path d="M371.919 228.85L348.949 230.65L325.979 228.85V218.44L348.949 216.64L371.919 218.44V228.85Z" fill="#00BDFF"/>
<path d="M306.719 228.85L283.759 230.65L260.789 228.85V218.44L283.759 216.64L306.719 218.44V228.85Z" fill="#00BDFF"/>
<path d="M339.319 211.84L316.349 213.65L293.389 211.84V201.43L316.349 199.63L339.319 201.43V211.84Z" fill="#00BDFF"/>
</g>
<mask id="mask3_6085_6023" style="mask-type:luminance" maskUnits="userSpaceOnUse" x="0" y="6" width="408" height="378">
<path d="M407.85 6H0V383.15H407.85V6Z" fill="white"/>
</mask>
<g mask="url(#mask3_6085_6023)">
<path d="M339.319 347.9L316.349 349.71L293.389 347.9V337.5L316.349 335.69L339.319 337.5V347.9Z" fill="#00BDFF"/>
<path d="M371.919 330.9L348.949 332.7L325.979 330.9V320.49L348.949 318.68L371.919 320.49V330.9Z" fill="#00BDFF"/>
<path d="M306.719 330.9L283.759 332.7L260.789 330.9V320.49L283.759 318.68L306.719 320.49V330.9Z" fill="#00BDFF"/>
<path d="M339.319 313.89L316.349 315.69L293.389 313.89V303.48L316.349 301.68L339.319 303.48V313.89Z" fill="#00BDFF"/>
<path d="M371.919 296.88L348.949 298.68L325.979 296.88V286.47L348.949 284.67L371.919 286.47V296.88Z" fill="#00BDFF"/>
<path d="M306.719 296.88L283.759 298.68L260.789 296.88V286.47L283.759 284.67L306.719 286.47V296.88Z" fill="#00BDFF"/>
<path d="M339.319 279.87L316.349 281.68L293.389 279.87V269.46L316.349 267.66L339.319 269.46V279.87Z" fill="#00BDFF"/>
</g>
<path d="M111.129 330.9L88.1692 332.7L65.1992 330.9V320.49L88.1692 318.68L111.129 320.49V330.9Z" fill="#00BDFF"/>
<mask id="mask4_6085_6023" style="mask-type:luminance" maskUnits="userSpaceOnUse" x="0" y="6" width="408" height="378">
<path d="M407.85 6H0V383.15H407.85V6Z" fill="white"/>
</mask>
<g mask="url(#mask4_6085_6023)">
<path d="M274.129 211.84L251.159 213.65L228.189 211.84V201.43L251.159 199.63L274.129 201.43V211.84Z" fill="#00BDFF"/>
<path d="M306.719 194.83L283.759 196.64L260.789 194.83V184.42L283.759 182.62L306.719 184.42V194.83Z" fill="#00BDFF"/>
<path d="M241.53 194.83L218.56 196.64L195.59 194.83V184.42L218.56 182.62L241.53 184.42V194.83Z" fill="#00BDFF"/>
<path d="M274.129 177.83L251.159 179.63L228.189 177.83V167.42L251.159 165.61L274.129 167.42V177.83Z" fill="#00BDFF"/>
</g>
<mask id="mask5_6085_6023" style="mask-type:luminance" maskUnits="userSpaceOnUse" x="0" y="6" width="408" height="378">
<path d="M407.85 6H0V383.15H407.85V6Z" fill="white"/>
</mask>
<g mask="url(#mask5_6085_6023)">
<path d="M274.129 347.9L251.159 349.71L228.189 347.9V337.5L251.159 335.69L274.129 337.5V347.9Z" fill="#00BDFF"/>
<path d="M306.719 330.9L283.759 332.7L260.789 330.9V320.49L283.759 318.68L306.719 320.49V330.9Z" fill="#00BDFF"/>
<path d="M241.53 330.9L218.56 332.7L195.59 330.9V320.49L218.56 318.68L241.53 320.49V330.9Z" fill="#00BDFF"/>
<path d="M274.129 313.89L251.159 315.69L228.189 313.89V303.48L251.159 301.68L274.129 303.48V313.89Z" fill="#00BDFF"/>
<path d="M306.719 296.88L283.759 298.68L260.789 296.88V286.47L283.759 284.67L306.719 286.47V296.88Z" fill="#00BDFF"/>
<path d="M241.53 296.88L218.56 298.68L195.59 296.88V286.47L218.56 284.67L241.53 286.47V296.88Z" fill="#00BDFF"/>
<path d="M274.129 279.87L251.159 281.68L228.189 279.87V269.46L251.159 267.66L274.129 269.46V279.87Z" fill="#00BDFF"/>
</g>
<mask id="mask6_6085_6023" style="mask-type:luminance" maskUnits="userSpaceOnUse" x="0" y="6" width="408" height="378">
<path d="M407.85 6H0V383.15H407.85V6Z" fill="white"/>
</mask>
<g mask="url(#mask6_6085_6023)">
<path d="M208.93 211.84L185.96 213.65L162.99 211.84V201.43L185.96 199.63L208.93 201.43V211.84Z" fill="#00BDFF"/>
<path d="M241.53 194.83L218.56 196.64L195.59 194.83V184.42L218.56 182.62L241.53 184.42V194.83Z" fill="#00BDFF"/>
<path d="M176.331 194.83L153.361 196.64L130.391 194.83V184.42L153.361 182.62L176.331 184.42V194.83Z" fill="#00BDFF"/>
<path d="M208.93 177.83L185.96 179.63L162.99 177.83V167.42L185.96 165.61L208.93 167.42V177.83Z" fill="#00BDFF"/>
</g>
<mask id="mask7_6085_6023" style="mask-type:luminance" maskUnits="userSpaceOnUse" x="0" y="6" width="408" height="378">
<path d="M407.85 6H0V383.15H407.85V6Z" fill="white"/>
</mask>
<g mask="url(#mask7_6085_6023)">
<path d="M274.129 279.87L251.159 281.68L228.189 279.87V269.46L251.159 267.66L274.129 269.46V279.87Z" fill="#00BDFF"/>
<path d="M306.719 262.87L283.759 264.67L260.789 262.87V252.46L283.759 250.65L306.719 252.46V262.87Z" fill="#00BDFF"/>
<path d="M241.53 262.87L218.56 264.67L195.59 262.87V252.46L218.56 250.65L241.53 252.46V262.87Z" fill="#00BDFF"/>
<path d="M274.129 245.86L251.159 247.66L228.189 245.86V235.45L251.159 233.65L274.129 235.45V245.86Z" fill="#00BDFF"/>
<path d="M306.719 228.85L283.759 230.65L260.789 228.85V218.44L283.759 216.64L306.719 218.44V228.85Z" fill="#00BDFF"/>
<path d="M241.53 228.85L218.56 230.65L195.59 228.85V218.44L218.56 216.64L241.53 218.44V228.85Z" fill="#00BDFF"/>
<path d="M274.129 211.84L251.159 213.65L228.189 211.84V201.43L251.159 199.63L274.129 201.43V211.84Z" fill="#00BDFF"/>
</g>
<mask id="mask8_6085_6023" style="mask-type:luminance" maskUnits="userSpaceOnUse" x="0" y="6" width="408" height="378">
<path d="M407.85 6H0V383.15H407.85V6Z" fill="white"/>
</mask>
<g mask="url(#mask8_6085_6023)">
<path d="M208.93 279.87L185.96 281.68L162.99 279.87V269.46L185.96 267.66L208.93 269.46V279.87Z" fill="#00BDFF"/>
<path d="M241.53 262.87L218.56 264.67L195.59 262.87V252.46L218.56 250.65L241.53 252.46V262.87Z" fill="#00BDFF"/>
<path d="M176.331 262.87L153.361 264.67L130.391 262.87V252.46L153.361 250.65L176.331 252.46V262.87Z" fill="#00BDFF"/>
<path d="M208.93 245.86L185.96 247.66L162.99 245.86V235.45L185.96 233.65L208.93 235.45V245.86Z" fill="#00BDFF"/>
<path d="M241.53 228.85L218.56 230.65L195.59 228.85V218.44L218.56 216.64L241.53 218.44V228.85Z" fill="#00BDFF"/>
<path d="M176.331 228.85L153.361 230.65L130.391 228.85V218.44L153.361 216.64L176.331 218.44V228.85Z" fill="#00BDFF"/>
<path d="M208.93 211.84L185.96 213.65L162.99 211.84V201.43L185.96 199.63L208.93 201.43V211.84Z" fill="#00BDFF"/>
</g>
<mask id="mask9_6085_6023" style="mask-type:luminance" maskUnits="userSpaceOnUse" x="0" y="6" width="408" height="378">
<path d="M407.85 6H0V383.15H407.85V6Z" fill="white"/>
</mask>
<g mask="url(#mask9_6085_6023)">
<path d="M208.93 347.9L185.96 349.71L162.99 347.9V337.5L185.96 335.69L208.93 337.5V347.9Z" fill="#00BDFF"/>
<path d="M241.53 330.9L218.56 332.7L195.59 330.9V320.49L218.56 318.68L241.53 320.49V330.9Z" fill="#00BDFF"/>
<path d="M176.331 330.9L153.361 332.7L130.391 330.9V320.49L153.361 318.68L176.331 320.49V330.9Z" fill="#00BDFF"/>
<path d="M208.93 313.89L185.96 315.69L162.99 313.89V303.48L185.96 301.68L208.93 303.48V313.89Z" fill="#00BDFF"/>
<path d="M241.53 296.88L218.56 298.68L195.59 296.88V286.47L218.56 284.67L241.53 286.47V296.88Z" fill="#00BDFF"/>
<path d="M176.331 296.88L153.361 298.68L130.391 296.88V286.47L153.361 284.67L176.331 286.47V296.88Z" fill="#00BDFF"/>
<path d="M208.93 279.87L185.96 281.68L162.99 279.87V269.46L185.96 267.66L208.93 269.46V279.87Z" fill="#00BDFF"/>
</g>
<path d="M78.5296 313.89L55.5696 315.69L32.5996 313.89V303.48L55.5696 301.68L78.5296 303.48V313.89Z" fill="#00BDFF"/>
<path d="M111.129 296.88L88.1692 298.68L65.1992 296.88V286.47L88.1692 284.67L111.129 286.47V296.88Z" fill="#00BDFF"/>
<path d="M78.5296 279.87L55.5696 281.68L32.5996 279.87V269.46L55.5696 267.66L78.5296 269.46V279.87Z" fill="#00BDFF"/>
<mask id="mask10_6085_6023" style="mask-type:luminance" maskUnits="userSpaceOnUse" x="0" y="6" width="408" height="378">
<path d="M407.85 6H0V383.15H407.85V6Z" fill="white"/>
</mask>
<g mask="url(#mask10_6085_6023)">
<path d="M143.729 211.84L120.759 213.65L97.7988 211.84V201.43L120.759 199.63L143.729 201.43V211.84Z" fill="#00BDFF"/>
<path d="M176.329 194.83L153.359 196.64L130.389 194.83V184.42L153.359 182.62L176.329 184.42V194.83Z" fill="#00BDFF"/>
<path d="M111.129 194.83L88.1692 196.64L65.1992 194.83V184.42L88.1692 182.62L111.129 184.42V194.83Z" fill="#00BDFF"/>
<path d="M143.729 177.83L120.759 179.63L97.7988 177.83V167.42L120.759 165.61L143.729 167.42V177.83Z" fill="#00BDFF"/>
</g>
<mask id="mask11_6085_6023" style="mask-type:luminance" maskUnits="userSpaceOnUse" x="0" y="6" width="408" height="378">
<path d="M407.85 6H0V383.15H407.85V6Z" fill="white"/>
</mask>
<g mask="url(#mask11_6085_6023)">
<path d="M78.5296 279.87L55.5696 281.68L32.5996 279.87V269.46L55.5696 267.66L78.5296 269.46V279.87Z" fill="#00BDFF"/>
<path d="M111.129 262.87L88.1692 264.67L65.1992 262.87V252.46L88.1692 250.65L111.129 252.46V262.87Z" fill="#00BDFF"/>
<path d="M78.5296 245.86L55.5696 247.66L32.5996 245.86V235.45L55.5696 233.65L78.5296 235.45V245.86Z" fill="#00BDFF"/>
<path d="M111.129 228.85L88.1692 230.65L65.1992 228.85V218.44L88.1692 216.64L111.129 218.44V228.85Z" fill="#00BDFF"/>
<path d="M78.5296 211.84L55.5696 213.65L32.5996 211.84V201.43L55.5696 199.63L78.5296 201.43V211.84Z" fill="#00BDFF"/>
</g>
<mask id="mask12_6085_6023" style="mask-type:luminance" maskUnits="userSpaceOnUse" x="0" y="6" width="408" height="378">
<path d="M407.85 6H0V383.15H407.85V6Z" fill="white"/>
</mask>
<g mask="url(#mask12_6085_6023)">
<path d="M143.729 347.9L120.759 349.71L97.7988 347.9V337.5L120.759 335.69L143.729 337.5V347.9Z" fill="#00BDFF"/>
<path d="M176.329 330.9L153.359 332.7L130.389 330.9V320.49L153.359 318.68L176.329 320.49V330.9Z" fill="#00BDFF"/>
<path d="M111.129 330.9L88.1692 332.7L65.1992 330.9V320.49L88.1692 318.68L111.129 320.49V330.9Z" fill="#00BDFF"/>
<path d="M143.729 313.89L120.759 315.69L97.7988 313.89V303.48L120.759 301.68L143.729 303.48V313.89Z" fill="#00BDFF"/>
<path d="M176.329 296.88L153.359 298.68L130.389 296.88V286.47L153.359 284.67L176.329 286.47V296.88Z" fill="#00BDFF"/>
<path d="M111.129 296.88L88.1692 298.68L65.1992 296.88V286.47L88.1692 284.67L111.129 286.47V296.88Z" fill="#00BDFF"/>
<path d="M143.729 279.87L120.759 281.68L97.7988 279.87V269.46L120.759 267.66L143.729 269.46V279.87Z" fill="#00BDFF"/>
</g>
<mask id="mask13_6085_6023" style="mask-type:luminance" maskUnits="userSpaceOnUse" x="0" y="6" width="408" height="378">
<path d="M407.85 6H0V383.15H407.85V6Z" fill="white"/>
</mask>
<g mask="url(#mask13_6085_6023)">
<path d="M143.729 279.87L120.759 281.68L97.7988 279.87V269.46L120.759 267.66L143.729 269.46V279.87Z" fill="#00BDFF"/>
<path d="M176.329 262.87L153.359 264.67L130.389 262.87V252.46L153.359 250.65L176.329 252.46V262.87Z" fill="#00BDFF"/>
<path d="M111.129 262.87L88.1692 264.67L65.1992 262.87V252.46L88.1692 250.65L111.129 252.46V262.87Z" fill="#00BDFF"/>
<path d="M143.729 245.86L120.759 247.66L97.7988 245.86V235.45L120.759 233.65L143.729 235.45V245.86Z" fill="#00BDFF"/>
<path d="M176.329 228.85L153.359 230.65L130.389 228.85V218.44L153.359 216.64L176.329 218.44V228.85Z" fill="#00BDFF"/>
<path d="M111.129 228.85L88.1692 230.65L65.1992 228.85V218.44L88.1692 216.64L111.129 218.44V228.85Z" fill="#00BDFF"/>
<path d="M143.729 211.84L120.759 213.65L97.7988 211.84V201.43L120.759 199.63L143.729 201.43V211.84Z" fill="#00BDFF"/>
</g>
<mask id="mask14_6085_6023" style="mask-type:luminance" maskUnits="userSpaceOnUse" x="0" y="6" width="408" height="378">
<path d="M407.85 6H0V383.15H407.85V6Z" fill="white"/>
</mask>
<g mask="url(#mask14_6085_6023)">
<path d="M78.5296 211.84L55.5696 213.65L32.5996 211.84V201.43L55.5696 199.63L78.5296 201.43V211.84Z" fill="#00BDFF"/>
<path d="M111.129 194.83L88.1692 196.64L65.1992 194.83V184.42L88.1692 182.62L111.129 184.42V194.83Z" fill="#00BDFF"/>
<path d="M78.5296 177.83L55.5696 179.63L32.5996 177.83V167.42L55.5696 165.61L78.5296 167.42V177.83Z" fill="#00BDFF"/>
</g>
</g>
<path d="M119.431 164.96H115.061V340.53H119.431V164.96Z" fill="#00BDFF"/>
<path d="M125.649 164.96H121.279V340.53H125.649V164.96Z" fill="#00BDFF"/>
<path d="M153.091 164.96H148.721V340.53H153.091V164.96Z" fill="#00BDFF"/>
<path d="M159.309 164.96H154.939V340.53H159.309V164.96Z" fill="#00BDFF"/>
<path d="M186.751 164.96H182.381V340.53H186.751V164.96Z" fill="#00BDFF"/>
<path d="M192.97 164.96H188.6V340.53H192.97V164.96Z" fill="#00BDFF"/>
<path d="M220.421 164.96H216.051V340.53H220.421V164.96Z" fill="#00BDFF"/>
<path d="M226.64 164.96H222.27V340.53H226.64V164.96Z" fill="#00BDFF"/>
<path d="M254.081 164.96H249.711V340.53H254.081V164.96Z" fill="#00BDFF"/>
<path d="M260.3 164.96H255.93V340.53H260.3V164.96Z" fill="#00BDFF"/>
<path d="M287.739 164.96H283.369V340.53H287.739V164.96Z" fill="#00BDFF"/>
<path d="M293.96 164.96H289.59V340.53H293.96V164.96Z" fill="#00BDFF"/>
<path d="M320.399 164.96H316.029V271.89H320.399V164.96Z" fill="#00BDFF"/>
<path d="M326.62 164.96H322.25V271.89H326.62V164.96Z" fill="#00BDFF"/>
<path d="M79.4208 164.96H75.0508V271.89H79.4208V164.96Z" fill="#00BDFF"/>
<path d="M85.6395 164.96H81.2695V271.89H85.6395V164.96Z" fill="#00BDFF"/>
<path d="M340.951 164.96H60.5605V170.5H340.951V164.96Z" fill="#00BDFF"/>
<path d="M113.86 378.14C134.091 378.14 150.49 361.74 150.49 341.51C150.49 321.28 134.091 304.88 113.86 304.88C93.6303 304.88 77.2305 321.28 77.2305 341.51C77.2305 361.74 93.6303 378.14 113.86 378.14Z" fill="white"/>
<path d="M296.931 378.14C317.161 378.14 333.561 361.74 333.561 341.51C333.561 321.28 317.161 304.88 296.931 304.88C276.701 304.88 260.301 321.28 260.301 341.51C260.301 361.74 276.701 378.14 296.931 378.14Z" fill="white"/>
<path d="M150.14 331.03C150.14 351.91 139.02 371.79 118.15 371.79C101.45 371.79 87.9102 358.25 87.9102 341.55C87.9102 328.19 98.7402 317.36 112.1 317.36C122.79 317.36 131.46 326.03 131.46 336.72C131.46 345.27 124.53 352.2 115.98 352.2C109.14 352.2 103.59 346.65 103.59 339.81C103.59 334.34 108.03 329.9 113.5 329.9C117.88 329.9 121.43 333.45 121.43 337.83C121.43 341.33 118.59 344.17 115.09 344.17C112.29 344.17 110.02 341.9 110.02 339.1C110.02 336.86 111.84 335.04 114.08 335.04C115.87 335.04 117.33 336.49 117.33 338.29C117.33 339.72 116.17 340.89 114.73 340.89C113.58 340.89 112.65 339.96 112.65 338.81C112.65 337.89 113.39 337.15 114.31 337.15" stroke="#FF0000" stroke-width="8" stroke-miterlimit="10"/>
<path d="M331.38 331.03C331.38 351.91 320.26 371.79 299.39 371.79C282.69 371.79 269.15 358.25 269.15 341.55C269.15 328.19 279.98 317.36 293.34 317.36C304.03 317.36 312.7 326.03 312.7 336.72C312.7 345.27 305.77 352.2 297.22 352.2C290.38 352.2 284.83 346.65 284.83 339.81C284.83 334.34 289.27 329.9 294.74 329.9C299.12 329.9 302.67 333.45 302.67 337.83C302.67 341.33 299.83 344.17 296.33 344.17C293.53 344.17 291.26 341.9 291.26 339.1C291.26 336.86 293.08 335.04 295.32 335.04C297.11 335.04 298.57 336.49 298.57 338.29C298.57 339.72 297.41 340.89 295.97 340.89C294.82 340.89 293.89 339.96 293.89 338.81C293.89 337.89 294.63 337.15 295.55 337.15" stroke="#FF0000" stroke-width="8" stroke-miterlimit="10"/>
<path d="M113.86 309.88C131.33 309.88 145.49 324.04 145.49 341.51H155.49C155.49 318.52 136.85 299.88 113.86 299.88V309.88ZM82.2305 341.51C82.2305 324.04 96.3905 309.88 113.86 309.88V299.88C90.8705 299.88 72.2305 318.52 72.2305 341.51H82.2305ZM113.86 373.14C96.3905 373.14 82.2305 358.98 82.2305 341.51H72.2305C72.2305 364.5 90.8705 383.14 113.86 383.14V373.14ZM145.49 341.51C145.49 358.98 131.33 373.14 113.86 373.14V383.14C136.85 383.14 155.49 364.5 155.49 341.51H145.49Z" fill="#7C7C7C"/>
<path d="M113.86 348.6C117.775 348.6 120.95 345.426 120.95 341.51C120.95 337.594 117.775 334.42 113.86 334.42C109.944 334.42 106.77 337.594 106.77 341.51C106.77 345.426 109.944 348.6 113.86 348.6Z" fill="#7C7C7C"/>
<path d="M296.931 309.88C314.401 309.88 328.561 324.04 328.561 341.51H338.561C338.561 318.52 319.921 299.88 296.931 299.88V309.88ZM265.301 341.51C265.301 324.04 279.461 309.88 296.931 309.88V299.88C273.941 299.88 255.301 318.52 255.301 341.51H265.301ZM296.931 373.14C279.461 373.14 265.301 358.98 265.301 341.51H255.301C255.301 364.5 273.941 383.14 296.931 383.14V373.14ZM328.561 341.51C328.561 358.98 314.401 373.14 296.931 373.14V383.14C319.921 383.14 338.561 364.5 338.561 341.51H328.561Z" fill="#7C7C7C"/>
<path d="M299.871 347.945C303.437 346.327 305.015 342.125 303.397 338.559C301.779 334.993 297.577 333.415 294.011 335.033C290.445 336.651 288.867 340.853 290.485 344.419C292.103 347.985 296.305 349.564 299.871 347.945Z" fill="#7C7C7C"/>
<path d="M268.43 247.14H133.08L121.9 235.96V205.76L133.08 194.58H268.43L279.61 205.76V235.96L268.43 247.14Z" fill="white" stroke="black" stroke-width="10" stroke-miterlimit="10"/>
<path d="M160.51 233.25C159.11 233.25 157.77 233.03 156.51 232.59C155.25 232.15 154.14 231.54 153.2 230.75C152.26 229.96 151.57 229.05 151.13 228.03C150.91 227.57 150.92 227.14 151.15 226.75C151.38 226.36 151.77 226.11 152.32 226C152.71 225.91 153.1 225.97 153.49 226.18C153.87 226.39 154.16 226.7 154.36 227.12C154.62 227.67 155.05 228.17 155.66 228.63C156.26 229.09 156.99 229.46 157.84 229.75C158.69 230.03 159.59 230.18 160.53 230.18C161.58 230.18 162.55 230.02 163.43 229.69C164.31 229.36 165.03 228.89 165.58 228.26C166.13 227.64 166.4 226.86 166.4 225.95C166.4 224.79 165.95 223.75 165.04 222.83C164.13 221.91 162.64 221.34 160.56 221.12C157.85 220.86 155.71 220.06 154.16 218.72C152.61 217.39 151.83 215.73 151.83 213.76C151.83 212.32 152.23 211.09 153.04 210.08C153.85 209.07 154.95 208.31 156.34 207.78C157.73 207.25 159.28 206.99 160.98 206.99C162.31 206.99 163.48 207.18 164.48 207.55C165.48 207.92 166.35 208.44 167.09 209.09C167.83 209.75 168.48 210.52 169.03 211.42C169.34 211.9 169.46 212.36 169.41 212.78C169.36 213.21 169.14 213.54 168.77 213.78C168.35 214.04 167.91 214.1 167.42 213.94C166.94 213.79 166.58 213.5 166.34 213.09C165.99 212.46 165.56 211.92 165.06 211.48C164.56 211.04 163.97 210.7 163.29 210.45C162.61 210.2 161.81 210.07 160.89 210.07C159.27 210.05 157.91 210.35 156.82 210.97C155.73 211.59 155.18 212.55 155.18 213.84C155.18 214.5 155.35 215.13 155.69 215.73C156.03 216.33 156.65 216.85 157.56 217.29C158.47 217.73 159.78 218.03 161.48 218.21C164.08 218.47 166.11 219.27 167.57 220.59C169.02 221.91 169.75 223.66 169.75 225.82C169.75 227.07 169.49 228.15 168.98 229.07C168.47 229.99 167.78 230.76 166.91 231.38C166.05 232 165.06 232.47 163.96 232.78C162.85 233.09 161.71 233.24 160.53 233.24L160.51 233.25Z" fill="black"/>
<path d="M176.659 232.93C176.179 232.93 175.769 232.77 175.449 232.44C175.129 232.11 174.959 231.71 174.959 231.23V209.01C174.959 208.51 175.119 208.1 175.449 207.78C175.779 207.46 176.179 207.3 176.659 207.3C177.139 207.3 177.569 207.46 177.889 207.78C178.209 208.1 178.369 208.51 178.369 209.01V218.43H193.599V209.01C193.599 208.51 193.759 208.1 194.089 207.78C194.419 207.46 194.819 207.3 195.299 207.3C195.779 207.3 196.209 207.46 196.509 207.78C196.819 208.1 196.969 208.51 196.969 209.01V231.23C196.969 231.71 196.819 232.12 196.509 232.44C196.199 232.77 195.799 232.93 195.299 232.93C194.799 232.93 194.409 232.77 194.089 232.44C193.759 232.11 193.599 231.71 193.599 231.23V221.45H178.369V231.23C178.369 231.71 178.209 232.12 177.889 232.44C177.569 232.77 177.159 232.93 176.659 232.93Z" fill="black"/>
<path d="M215.389 233.25C213.459 233.25 211.699 232.93 210.099 232.28C208.499 231.63 207.129 230.73 205.979 229.56C204.829 228.39 203.939 227 203.309 225.39C202.669 223.78 202.359 222.01 202.359 220.09C202.359 218.17 202.679 216.4 203.309 214.81C203.939 213.21 204.839 211.83 205.979 210.66C207.129 209.49 208.499 208.58 210.099 207.94C211.699 207.3 213.459 206.97 215.389 206.97C217.319 206.97 219.069 207.29 220.659 207.94C222.249 208.59 223.619 209.49 224.779 210.66C225.939 211.83 226.839 213.21 227.469 214.81C228.099 216.41 228.419 218.17 228.419 220.09C228.419 222.01 228.099 223.78 227.469 225.39C226.839 227 225.939 228.39 224.779 229.56C223.619 230.73 222.249 231.64 220.659 232.28C219.069 232.92 217.319 233.25 215.389 233.25ZM215.389 230.17C216.809 230.17 218.119 229.91 219.309 229.4C220.499 228.89 221.539 228.17 222.409 227.27C223.289 226.36 223.959 225.3 224.429 224.07C224.899 222.85 225.139 221.52 225.139 220.1C225.139 218.68 224.899 217.35 224.429 216.13C223.959 214.91 223.289 213.84 222.409 212.93C221.529 212.02 220.499 211.32 219.309 210.81C218.119 210.31 216.809 210.06 215.389 210.06C213.969 210.06 212.659 210.31 211.469 210.81C210.279 211.31 209.249 212.02 208.379 212.93C207.509 213.84 206.839 214.9 206.359 216.13C205.879 217.36 205.639 218.68 205.639 220.1C205.639 221.52 205.879 222.85 206.359 224.07C206.839 225.3 207.509 226.36 208.379 227.27C209.239 228.18 210.269 228.89 211.469 229.4C212.659 229.91 213.969 230.17 215.389 230.17Z" fill="black"/>
<path d="M235.479 232.93C234.999 232.93 234.589 232.77 234.269 232.44C233.949 232.11 233.779 231.71 233.779 231.23V209.01C233.779 208.51 233.939 208.1 234.269 207.78C234.599 207.46 234.999 207.3 235.479 207.3H242.039C243.679 207.3 245.139 207.66 246.409 208.38C247.679 209.1 248.669 210.1 249.379 211.38C250.089 212.66 250.449 214.13 250.449 215.8C250.449 217.47 250.089 218.82 249.379 220.07C248.669 221.32 247.679 222.29 246.409 222.99C245.139 223.69 243.689 224.04 242.039 224.04H237.179V231.23C237.179 231.71 237.019 232.12 236.699 232.44C236.379 232.76 235.969 232.93 235.469 232.93H235.479ZM237.189 220.88H242.049C243.059 220.88 243.939 220.66 244.709 220.22C245.479 219.78 246.079 219.18 246.509 218.42C246.939 217.66 247.169 216.78 247.169 215.79C247.169 214.74 246.949 213.82 246.509 213.02C246.069 212.22 245.469 211.59 244.709 211.13C243.939 210.67 243.059 210.44 242.049 210.44H237.189V220.88Z" fill="black"/>
</g>
<g clip-path="url(#clip1_6085_6023)">
<path d="M268.37 246.3H133.01L121.83 235.12V204.92C126.2 200.55 128.65 198.1 133.01 193.74H268.37C272.74 198.11 275.19 200.56 279.55 204.92V235.12L268.37 246.3Z" stroke="black" stroke-width="10" stroke-miterlimit="10"/>
<path d="M113.8 372.12C131.219 372.12 145.34 357.999 145.34 340.58C145.34 323.161 131.219 309.04 113.8 309.04C96.3807 309.04 82.2598 323.161 82.2598 340.58C82.2598 357.999 96.3807 372.12 113.8 372.12Z" stroke="black" stroke-width="7.8" stroke-miterlimit="10"/>
<path d="M322.2 301.16L341.67 164.12H339.25L407.79 10.8699L395.01 5.1499L323.91 164.12H60.4902L81.0902 309.04" stroke="black" stroke-width="7.8" stroke-miterlimit="10"/>
<path d="M249.369 339.68H255.369" stroke="black" stroke-width="7.8" stroke-miterlimit="10"/>
<path d="M154.68 339.68H249.37" stroke="black" stroke-width="7.8" stroke-miterlimit="10"/>
<path d="M296.251 372.12C313.67 372.12 327.791 357.999 327.791 340.58C327.791 323.161 313.67 309.04 296.251 309.04C278.832 309.04 264.711 323.161 264.711 340.58C264.711 357.999 278.832 372.12 296.251 372.12Z" stroke="black" stroke-width="7.8" stroke-miterlimit="10"/>
<path d="M113.8 299.67C136.36 299.67 154.7 318.02 154.7 340.58C154.7 363.14 136.35 381.49 113.8 381.49C91.2498 381.49 72.8898 363.14 72.8898 340.58C72.8898 318.02 91.2398 299.67 113.8 299.67ZM113.8 291.87C86.9398 291.87 65.0898 313.72 65.0898 340.58C65.0898 367.44 86.9398 389.29 113.8 389.29C140.66 389.29 162.5 367.44 162.5 340.58C162.5 313.72 140.65 291.87 113.8 291.87Z" fill="black"/>
<path d="M296.249 299.67C318.809 299.67 337.149 318.02 337.149 340.58C337.149 363.14 318.799 381.49 296.249 381.49C273.699 381.49 255.339 363.14 255.339 340.58C255.339 318.02 273.689 299.67 296.249 299.67ZM296.249 291.87C269.389 291.87 247.539 313.72 247.539 340.58C247.539 367.44 269.389 389.29 296.249 389.29C323.109 389.29 344.949 367.44 344.949 340.58C344.949 313.72 323.099 291.87 296.249 291.87Z" fill="black"/>
</g>
<defs>
<clipPath id="clip0_6085_6023">
<rect width="407.85" height="377.15" fill="white" transform="translate(0 6)"/>
</clipPath>
<clipPath id="clip1_6085_6023">
<rect width="356.95" height="389.29" fill="white" transform="translate(56)"/>
</clipPath>
</defs>
</svg>
