<svg width="413" height="390" viewBox="0 0 413 390" fill="none" xmlns="http://www.w3.org/2000/svg">
<g clip-path="url(#clip0_6085_1071)">
<path d="M316.78 339.52H85.5096L60.5596 163.96H341.73L316.78 339.52Z" fill="white"/>
<path d="M395.077 5.02014L320.234 172.333L333.014 178.05L407.857 10.7368L395.077 5.02014Z" fill="#7C7C7C"/>
<mask id="mask0_6085_1071" style="mask-type:luminance" maskUnits="userSpaceOnUse" x="60" y="163" width="282" height="177">
<path d="M316.78 339.52H85.5096L60.5596 163.96H341.73L316.78 339.52Z" fill="white"/>
</mask>
<g mask="url(#mask0_6085_1071)">
<mask id="mask1_6085_1071" style="mask-type:luminance" maskUnits="userSpaceOnUse" x="0" y="5" width="408" height="378">
<path d="M407.85 5H0V382.15H407.85V5Z" fill="white"/>
</mask>
<g mask="url(#mask1_6085_1071)">
<path d="M339.319 210.84L316.349 212.65L293.389 210.84V200.43L316.349 198.63L339.319 200.43V210.84Z" fill="#83FF00"/>
<path d="M371.919 193.83L348.949 195.64L325.979 193.83V183.42L348.949 181.62L371.919 183.42V193.83Z" fill="#83FF00"/>
<path d="M306.719 193.83L283.759 195.64L260.789 193.83V183.42L283.759 181.62L306.719 183.42V193.83Z" fill="#83FF00"/>
<path d="M339.319 176.83L316.349 178.63L293.389 176.83V166.42L316.349 164.61L339.319 166.42V176.83Z" fill="#83FF00"/>
</g>
<path d="M78.5296 346.9L55.5696 348.71L32.5996 346.9V336.5L55.5696 334.69L78.5296 336.5V346.9Z" fill="#83FF00"/>
<mask id="mask2_6085_1071" style="mask-type:luminance" maskUnits="userSpaceOnUse" x="0" y="5" width="408" height="378">
<path d="M407.85 5H0V382.15H407.85V5Z" fill="white"/>
</mask>
<g mask="url(#mask2_6085_1071)">
<path d="M339.319 278.87L316.349 280.68L293.389 278.87V268.46L316.349 266.66L339.319 268.46V278.87Z" fill="#83FF00"/>
<path d="M371.919 261.87L348.949 263.67L325.979 261.87V251.46L348.949 249.65L371.919 251.46V261.87Z" fill="#83FF00"/>
<path d="M306.719 261.87L283.759 263.67L260.789 261.87V251.46L283.759 249.65L306.719 251.46V261.87Z" fill="#83FF00"/>
<path d="M339.319 244.86L316.349 246.66L293.389 244.86V234.45L316.349 232.65L339.319 234.45V244.86Z" fill="#83FF00"/>
<path d="M371.919 227.85L348.949 229.65L325.979 227.85V217.44L348.949 215.64L371.919 217.44V227.85Z" fill="#83FF00"/>
<path d="M306.719 227.85L283.759 229.65L260.789 227.85V217.44L283.759 215.64L306.719 217.44V227.85Z" fill="#83FF00"/>
<path d="M339.319 210.84L316.349 212.65L293.389 210.84V200.43L316.349 198.63L339.319 200.43V210.84Z" fill="#83FF00"/>
</g>
<mask id="mask3_6085_1071" style="mask-type:luminance" maskUnits="userSpaceOnUse" x="0" y="5" width="408" height="378">
<path d="M407.85 5H0V382.15H407.85V5Z" fill="white"/>
</mask>
<g mask="url(#mask3_6085_1071)">
<path d="M339.319 346.9L316.349 348.71L293.389 346.9V336.5L316.349 334.69L339.319 336.5V346.9Z" fill="#83FF00"/>
<path d="M371.919 329.9L348.949 331.7L325.979 329.9V319.49L348.949 317.68L371.919 319.49V329.9Z" fill="#83FF00"/>
<path d="M306.719 329.9L283.759 331.7L260.789 329.9V319.49L283.759 317.68L306.719 319.49V329.9Z" fill="#83FF00"/>
<path d="M339.319 312.89L316.349 314.69L293.389 312.89V302.48L316.349 300.68L339.319 302.48V312.89Z" fill="#83FF00"/>
<path d="M371.919 295.88L348.949 297.68L325.979 295.88V285.47L348.949 283.67L371.919 285.47V295.88Z" fill="#83FF00"/>
<path d="M306.719 295.88L283.759 297.68L260.789 295.88V285.47L283.759 283.67L306.719 285.47V295.88Z" fill="#83FF00"/>
<path d="M339.319 278.87L316.349 280.68L293.389 278.87V268.46L316.349 266.66L339.319 268.46V278.87Z" fill="#83FF00"/>
</g>
<path d="M111.13 329.9L88.1702 331.7L65.2002 329.9V319.49L88.1702 317.68L111.13 319.49V329.9Z" fill="#83FF00"/>
<mask id="mask4_6085_1071" style="mask-type:luminance" maskUnits="userSpaceOnUse" x="0" y="5" width="408" height="378">
<path d="M407.85 5H0V382.15H407.85V5Z" fill="white"/>
</mask>
<g mask="url(#mask4_6085_1071)">
<path d="M274.129 210.84L251.159 212.65L228.189 210.84V200.43L251.159 198.63L274.129 200.43V210.84Z" fill="#83FF00"/>
<path d="M306.719 193.83L283.759 195.64L260.789 193.83V183.42L283.759 181.62L306.719 183.42V193.83Z" fill="#83FF00"/>
<path d="M241.53 193.83L218.56 195.64L195.59 193.83V183.42L218.56 181.62L241.53 183.42V193.83Z" fill="#83FF00"/>
<path d="M274.129 176.83L251.159 178.63L228.189 176.83V166.42L251.159 164.61L274.129 166.42V176.83Z" fill="#83FF00"/>
</g>
<mask id="mask5_6085_1071" style="mask-type:luminance" maskUnits="userSpaceOnUse" x="0" y="5" width="408" height="378">
<path d="M407.85 5H0V382.15H407.85V5Z" fill="white"/>
</mask>
<g mask="url(#mask5_6085_1071)">
<path d="M274.129 346.9L251.159 348.71L228.189 346.9V336.5L251.159 334.69L274.129 336.5V346.9Z" fill="#83FF00"/>
<path d="M306.719 329.9L283.759 331.7L260.789 329.9V319.49L283.759 317.68L306.719 319.49V329.9Z" fill="#83FF00"/>
<path d="M241.53 329.9L218.56 331.7L195.59 329.9V319.49L218.56 317.68L241.53 319.49V329.9Z" fill="#83FF00"/>
<path d="M274.129 312.89L251.159 314.69L228.189 312.89V302.48L251.159 300.68L274.129 302.48V312.89Z" fill="#83FF00"/>
<path d="M306.719 295.88L283.759 297.68L260.789 295.88V285.47L283.759 283.67L306.719 285.47V295.88Z" fill="#83FF00"/>
<path d="M241.53 295.88L218.56 297.68L195.59 295.88V285.47L218.56 283.67L241.53 285.47V295.88Z" fill="#83FF00"/>
<path d="M274.129 278.87L251.159 280.68L228.189 278.87V268.46L251.159 266.66L274.129 268.46V278.87Z" fill="#83FF00"/>
</g>
<mask id="mask6_6085_1071" style="mask-type:luminance" maskUnits="userSpaceOnUse" x="0" y="5" width="408" height="378">
<path d="M407.85 5H0V382.15H407.85V5Z" fill="white"/>
</mask>
<g mask="url(#mask6_6085_1071)">
<path d="M208.929 210.84L185.959 212.65L162.989 210.84V200.43L185.959 198.63L208.929 200.43V210.84Z" fill="#83FF00"/>
<path d="M241.53 193.83L218.56 195.64L195.59 193.83V183.42L218.56 181.62L241.53 183.42V193.83Z" fill="#83FF00"/>
<path d="M176.33 193.83L153.36 195.64L130.39 193.83V183.42L153.36 181.62L176.33 183.42V193.83Z" fill="#83FF00"/>
<path d="M208.929 176.83L185.959 178.63L162.989 176.83V166.42L185.959 164.61L208.929 166.42V176.83Z" fill="#83FF00"/>
</g>
<mask id="mask7_6085_1071" style="mask-type:luminance" maskUnits="userSpaceOnUse" x="0" y="5" width="408" height="378">
<path d="M407.85 5H0V382.15H407.85V5Z" fill="white"/>
</mask>
<g mask="url(#mask7_6085_1071)">
<path d="M274.129 278.87L251.159 280.68L228.189 278.87V268.46L251.159 266.66L274.129 268.46V278.87Z" fill="#83FF00"/>
<path d="M306.719 261.87L283.759 263.67L260.789 261.87V251.46L283.759 249.65L306.719 251.46V261.87Z" fill="#83FF00"/>
<path d="M241.53 261.87L218.56 263.67L195.59 261.87V251.46L218.56 249.65L241.53 251.46V261.87Z" fill="#83FF00"/>
<path d="M274.129 244.86L251.159 246.66L228.189 244.86V234.45L251.159 232.65L274.129 234.45V244.86Z" fill="#83FF00"/>
<path d="M306.719 227.85L283.759 229.65L260.789 227.85V217.44L283.759 215.64L306.719 217.44V227.85Z" fill="#83FF00"/>
<path d="M241.53 227.85L218.56 229.65L195.59 227.85V217.44L218.56 215.64L241.53 217.44V227.85Z" fill="#83FF00"/>
<path d="M274.129 210.84L251.159 212.65L228.189 210.84V200.43L251.159 198.63L274.129 200.43V210.84Z" fill="#83FF00"/>
</g>
<mask id="mask8_6085_1071" style="mask-type:luminance" maskUnits="userSpaceOnUse" x="0" y="5" width="408" height="378">
<path d="M407.85 5H0V382.15H407.85V5Z" fill="white"/>
</mask>
<g mask="url(#mask8_6085_1071)">
<path d="M208.929 278.87L185.959 280.68L162.989 278.87V268.46L185.959 266.66L208.929 268.46V278.87Z" fill="#83FF00"/>
<path d="M241.53 261.87L218.56 263.67L195.59 261.87V251.46L218.56 249.65L241.53 251.46V261.87Z" fill="#83FF00"/>
<path d="M176.33 261.87L153.36 263.67L130.39 261.87V251.46L153.36 249.65L176.33 251.46V261.87Z" fill="#83FF00"/>
<path d="M208.929 244.86L185.959 246.66L162.989 244.86V234.45L185.959 232.65L208.929 234.45V244.86Z" fill="#83FF00"/>
<path d="M241.53 227.85L218.56 229.65L195.59 227.85V217.44L218.56 215.64L241.53 217.44V227.85Z" fill="#83FF00"/>
<path d="M176.33 227.85L153.36 229.65L130.39 227.85V217.44L153.36 215.64L176.33 217.44V227.85Z" fill="#83FF00"/>
<path d="M208.929 210.84L185.959 212.65L162.989 210.84V200.43L185.959 198.63L208.929 200.43V210.84Z" fill="#83FF00"/>
</g>
<mask id="mask9_6085_1071" style="mask-type:luminance" maskUnits="userSpaceOnUse" x="0" y="5" width="408" height="378">
<path d="M407.85 5H0V382.15H407.85V5Z" fill="white"/>
</mask>
<g mask="url(#mask9_6085_1071)">
<path d="M208.929 346.9L185.959 348.71L162.989 346.9V336.5L185.959 334.69L208.929 336.5V346.9Z" fill="#83FF00"/>
<path d="M241.53 329.9L218.56 331.7L195.59 329.9V319.49L218.56 317.68L241.53 319.49V329.9Z" fill="#83FF00"/>
<path d="M176.33 329.9L153.36 331.7L130.39 329.9V319.49L153.36 317.68L176.33 319.49V329.9Z" fill="#83FF00"/>
<path d="M208.929 312.89L185.959 314.69L162.989 312.89V302.48L185.959 300.68L208.929 302.48V312.89Z" fill="#83FF00"/>
<path d="M241.53 295.88L218.56 297.68L195.59 295.88V285.47L218.56 283.67L241.53 285.47V295.88Z" fill="#83FF00"/>
<path d="M176.33 295.88L153.36 297.68L130.39 295.88V285.47L153.36 283.67L176.33 285.47V295.88Z" fill="#83FF00"/>
<path d="M208.929 278.87L185.959 280.68L162.989 278.87V268.46L185.959 266.66L208.929 268.46V278.87Z" fill="#83FF00"/>
</g>
<path d="M78.5296 312.89L55.5696 314.69L32.5996 312.89V302.48L55.5696 300.68L78.5296 302.48V312.89Z" fill="#83FF00"/>
<path d="M111.13 295.88L88.1702 297.68L65.2002 295.88V285.47L88.1702 283.67L111.13 285.47V295.88Z" fill="#83FF00"/>
<path d="M78.5296 278.87L55.5696 280.68L32.5996 278.87V268.46L55.5696 266.66L78.5296 268.46V278.87Z" fill="#83FF00"/>
<mask id="mask10_6085_1071" style="mask-type:luminance" maskUnits="userSpaceOnUse" x="0" y="5" width="408" height="378">
<path d="M407.85 5H0V382.15H407.85V5Z" fill="white"/>
</mask>
<g mask="url(#mask10_6085_1071)">
<path d="M143.73 210.84L120.76 212.65L97.7998 210.84V200.43L120.76 198.63L143.73 200.43V210.84Z" fill="#83FF00"/>
<path d="M176.331 193.83L153.361 195.64L130.391 193.83V183.42L153.361 181.62L176.331 183.42V193.83Z" fill="#83FF00"/>
<path d="M111.13 193.83L88.1702 195.64L65.2002 193.83V183.42L88.1702 181.62L111.13 183.42V193.83Z" fill="#83FF00"/>
<path d="M143.73 176.83L120.76 178.63L97.7998 176.83V166.42L120.76 164.61L143.73 166.42V176.83Z" fill="#83FF00"/>
</g>
<mask id="mask11_6085_1071" style="mask-type:luminance" maskUnits="userSpaceOnUse" x="0" y="5" width="408" height="378">
<path d="M407.85 5H0V382.15H407.85V5Z" fill="white"/>
</mask>
<g mask="url(#mask11_6085_1071)">
<path d="M78.5296 278.87L55.5696 280.68L32.5996 278.87V268.46L55.5696 266.66L78.5296 268.46V278.87Z" fill="#83FF00"/>
<path d="M111.13 261.87L88.1702 263.67L65.2002 261.87V251.46L88.1702 249.65L111.13 251.46V261.87Z" fill="#83FF00"/>
<path d="M78.5296 244.86L55.5696 246.66L32.5996 244.86V234.45L55.5696 232.65L78.5296 234.45V244.86Z" fill="#83FF00"/>
<path d="M111.13 227.85L88.1702 229.65L65.2002 227.85V217.44L88.1702 215.64L111.13 217.44V227.85Z" fill="#83FF00"/>
<path d="M78.5296 210.84L55.5696 212.65L32.5996 210.84V200.43L55.5696 198.63L78.5296 200.43V210.84Z" fill="#83FF00"/>
</g>
<mask id="mask12_6085_1071" style="mask-type:luminance" maskUnits="userSpaceOnUse" x="0" y="5" width="408" height="378">
<path d="M407.85 5H0V382.15H407.85V5Z" fill="white"/>
</mask>
<g mask="url(#mask12_6085_1071)">
<path d="M143.73 346.9L120.76 348.71L97.7998 346.9V336.5L120.76 334.69L143.73 336.5V346.9Z" fill="#83FF00"/>
<path d="M176.331 329.9L153.361 331.7L130.391 329.9V319.49L153.361 317.68L176.331 319.49V329.9Z" fill="#83FF00"/>
<path d="M111.13 329.9L88.1702 331.7L65.2002 329.9V319.49L88.1702 317.68L111.13 319.49V329.9Z" fill="#83FF00"/>
<path d="M143.73 312.89L120.76 314.69L97.7998 312.89V302.48L120.76 300.68L143.73 302.48V312.89Z" fill="#83FF00"/>
<path d="M176.331 295.88L153.361 297.68L130.391 295.88V285.47L153.361 283.67L176.331 285.47V295.88Z" fill="#83FF00"/>
<path d="M111.13 295.88L88.1702 297.68L65.2002 295.88V285.47L88.1702 283.67L111.13 285.47V295.88Z" fill="#83FF00"/>
<path d="M143.73 278.87L120.76 280.68L97.7998 278.87V268.46L120.76 266.66L143.73 268.46V278.87Z" fill="#83FF00"/>
</g>
<mask id="mask13_6085_1071" style="mask-type:luminance" maskUnits="userSpaceOnUse" x="0" y="5" width="408" height="378">
<path d="M407.85 5H0V382.15H407.85V5Z" fill="white"/>
</mask>
<g mask="url(#mask13_6085_1071)">
<path d="M143.73 278.87L120.76 280.68L97.7998 278.87V268.46L120.76 266.66L143.73 268.46V278.87Z" fill="#83FF00"/>
<path d="M176.331 261.87L153.361 263.67L130.391 261.87V251.46L153.361 249.65L176.331 251.46V261.87Z" fill="#83FF00"/>
<path d="M111.13 261.87L88.1702 263.67L65.2002 261.87V251.46L88.1702 249.65L111.13 251.46V261.87Z" fill="#83FF00"/>
<path d="M143.73 244.86L120.76 246.66L97.7998 244.86V234.45L120.76 232.65L143.73 234.45V244.86Z" fill="#83FF00"/>
<path d="M176.331 227.85L153.361 229.65L130.391 227.85V217.44L153.361 215.64L176.331 217.44V227.85Z" fill="#83FF00"/>
<path d="M111.13 227.85L88.1702 229.65L65.2002 227.85V217.44L88.1702 215.64L111.13 217.44V227.85Z" fill="#83FF00"/>
<path d="M143.73 210.84L120.76 212.65L97.7998 210.84V200.43L120.76 198.63L143.73 200.43V210.84Z" fill="#83FF00"/>
</g>
<mask id="mask14_6085_1071" style="mask-type:luminance" maskUnits="userSpaceOnUse" x="0" y="5" width="408" height="378">
<path d="M407.85 5H0V382.15H407.85V5Z" fill="white"/>
</mask>
<g mask="url(#mask14_6085_1071)">
<path d="M78.5296 210.84L55.5696 212.65L32.5996 210.84V200.43L55.5696 198.63L78.5296 200.43V210.84Z" fill="#83FF00"/>
<path d="M111.13 193.83L88.1702 195.64L65.2002 193.83V183.42L88.1702 181.62L111.13 183.42V193.83Z" fill="#83FF00"/>
<path d="M78.5296 176.83L55.5696 178.63L32.5996 176.83V166.42L55.5696 164.61L78.5296 166.42V176.83Z" fill="#83FF00"/>
</g>
</g>
<path d="M119.43 163.96H115.06V339.53H119.43V163.96Z" fill="#83FF00"/>
<path d="M125.65 163.96H121.28V339.53H125.65V163.96Z" fill="#83FF00"/>
<path d="M153.09 163.96H148.72V339.53H153.09V163.96Z" fill="#83FF00"/>
<path d="M159.31 163.96H154.94V339.53H159.31V163.96Z" fill="#83FF00"/>
<path d="M186.75 163.96H182.38V339.53H186.75V163.96Z" fill="#83FF00"/>
<path d="M192.97 163.96H188.6V339.53H192.97V163.96Z" fill="#83FF00"/>
<path d="M220.42 163.96H216.05V339.53H220.42V163.96Z" fill="#83FF00"/>
<path d="M226.64 163.96H222.27V339.53H226.64V163.96Z" fill="#83FF00"/>
<path d="M254.081 163.96H249.711V339.53H254.081V163.96Z" fill="#83FF00"/>
<path d="M260.3 163.96H255.93V339.53H260.3V163.96Z" fill="#83FF00"/>
<path d="M287.739 163.96H283.369V339.53H287.739V163.96Z" fill="#83FF00"/>
<path d="M293.96 163.96H289.59V339.53H293.96V163.96Z" fill="#83FF00"/>
<path d="M320.399 163.96H316.029V270.89H320.399V163.96Z" fill="#83FF00"/>
<path d="M326.62 163.96H322.25V270.89H326.62V163.96Z" fill="#83FF00"/>
<path d="M79.4198 163.96H75.0498V270.89H79.4198V163.96Z" fill="#83FF00"/>
<path d="M85.6395 163.96H81.2695V270.89H85.6395V163.96Z" fill="#83FF00"/>
<path d="M340.95 163.96H60.5596V169.5H340.95V163.96Z" fill="#83FF00"/>
<path d="M113.86 377.14C134.091 377.14 150.49 360.74 150.49 340.51C150.49 320.28 134.091 303.88 113.86 303.88C93.6303 303.88 77.2305 320.28 77.2305 340.51C77.2305 360.74 93.6303 377.14 113.86 377.14Z" fill="white"/>
<path d="M296.931 377.14C317.161 377.14 333.561 360.74 333.561 340.51C333.561 320.28 317.161 303.88 296.931 303.88C276.701 303.88 260.301 320.28 260.301 340.51C260.301 360.74 276.701 377.14 296.931 377.14Z" fill="white"/>
<path d="M113.86 308.88C131.33 308.88 145.49 323.04 145.49 340.51H155.49C155.49 317.52 136.85 298.88 113.86 298.88V308.88ZM82.2305 340.51C82.2305 323.04 96.3905 308.88 113.86 308.88V298.88C90.8705 298.88 72.2305 317.52 72.2305 340.51H82.2305ZM113.86 372.14C96.3905 372.14 82.2305 357.98 82.2305 340.51H72.2305C72.2305 363.5 90.8705 382.14 113.86 382.14V372.14ZM145.49 340.51C145.49 357.98 131.33 372.14 113.86 372.14V382.14C136.85 382.14 155.49 363.5 155.49 340.51H145.49Z" fill="#7C7C7C"/>
<path d="M113.86 347.6C117.775 347.6 120.95 344.426 120.95 340.51C120.95 336.594 117.775 333.42 113.86 333.42C109.944 333.42 106.77 336.594 106.77 340.51C106.77 344.426 109.944 347.6 113.86 347.6Z" fill="#7C7C7C"/>
<path d="M296.931 308.88C314.401 308.88 328.561 323.04 328.561 340.51H338.561C338.561 317.52 319.921 298.88 296.931 298.88V308.88ZM265.301 340.51C265.301 323.04 279.461 308.88 296.931 308.88V298.88C273.941 298.88 255.301 317.52 255.301 340.51H265.301ZM296.931 372.14C279.461 372.14 265.301 357.98 265.301 340.51H255.301C255.301 363.5 273.941 382.14 296.931 382.14V372.14ZM328.561 340.51C328.561 357.98 314.401 372.14 296.931 372.14V382.14C319.921 382.14 338.561 363.5 338.561 340.51H328.561Z" fill="#7C7C7C"/>
<path d="M299.871 346.945C303.437 345.327 305.015 341.125 303.397 337.559C301.779 333.993 297.577 332.415 294.011 334.033C290.445 335.651 288.867 339.853 290.485 343.419C292.103 346.985 296.305 348.564 299.871 346.945Z" fill="#7C7C7C"/>
<path d="M268.43 246.14H133.08L121.9 234.96V204.76L133.08 193.58H268.43L279.61 204.76V234.96L268.43 246.14Z" fill="white" stroke="#83FF00" stroke-width="10" stroke-miterlimit="10"/>
<path d="M160.51 232.25C159.11 232.25 157.77 232.03 156.51 231.59C155.25 231.15 154.14 230.54 153.2 229.75C152.26 228.96 151.57 228.05 151.13 227.03C150.91 226.57 150.92 226.14 151.15 225.75C151.38 225.36 151.77 225.11 152.32 225C152.71 224.91 153.1 224.97 153.49 225.18C153.87 225.39 154.16 225.7 154.36 226.12C154.62 226.67 155.05 227.17 155.66 227.63C156.26 228.09 156.99 228.46 157.84 228.75C158.69 229.03 159.59 229.18 160.53 229.18C161.58 229.18 162.55 229.02 163.43 228.69C164.31 228.36 165.03 227.89 165.58 227.26C166.13 226.64 166.4 225.86 166.4 224.95C166.4 223.79 165.95 222.75 165.04 221.83C164.13 220.91 162.64 220.34 160.56 220.12C157.85 219.86 155.71 219.06 154.16 217.72C152.61 216.39 151.83 214.73 151.83 212.76C151.83 211.32 152.23 210.09 153.04 209.08C153.85 208.07 154.95 207.31 156.34 206.78C157.73 206.25 159.28 205.99 160.98 205.99C162.31 205.99 163.48 206.18 164.48 206.55C165.48 206.92 166.35 207.44 167.09 208.09C167.83 208.75 168.48 209.52 169.03 210.42C169.34 210.9 169.46 211.36 169.41 211.78C169.36 212.21 169.14 212.54 168.77 212.78C168.35 213.04 167.91 213.1 167.42 212.94C166.94 212.79 166.58 212.5 166.34 212.09C165.99 211.46 165.56 210.92 165.06 210.48C164.56 210.04 163.97 209.7 163.29 209.45C162.61 209.2 161.81 209.07 160.89 209.07C159.27 209.05 157.91 209.35 156.82 209.97C155.73 210.59 155.18 211.55 155.18 212.84C155.18 213.5 155.35 214.13 155.69 214.73C156.03 215.33 156.65 215.85 157.56 216.29C158.47 216.73 159.78 217.03 161.48 217.21C164.08 217.47 166.11 218.27 167.57 219.59C169.02 220.91 169.75 222.66 169.75 224.82C169.75 226.07 169.49 227.15 168.98 228.07C168.47 228.99 167.78 229.76 166.91 230.38C166.05 231 165.06 231.47 163.96 231.78C162.85 232.09 161.71 232.24 160.53 232.24L160.51 232.25Z" fill="black"/>
<path d="M176.66 231.93C176.18 231.93 175.77 231.77 175.45 231.44C175.13 231.11 174.96 230.71 174.96 230.23V208.01C174.96 207.51 175.12 207.1 175.45 206.78C175.78 206.46 176.18 206.3 176.66 206.3C177.14 206.3 177.57 206.46 177.89 206.78C178.21 207.1 178.37 207.51 178.37 208.01V217.43H193.6V208.01C193.6 207.51 193.76 207.1 194.09 206.78C194.42 206.46 194.82 206.3 195.3 206.3C195.78 206.3 196.21 206.46 196.51 206.78C196.82 207.1 196.97 207.51 196.97 208.01V230.23C196.97 230.71 196.82 231.12 196.51 231.44C196.2 231.77 195.8 231.93 195.3 231.93C194.8 231.93 194.41 231.77 194.09 231.44C193.76 231.11 193.6 230.71 193.6 230.23V220.45H178.37V230.23C178.37 230.71 178.21 231.12 177.89 231.44C177.57 231.77 177.16 231.93 176.66 231.93Z" fill="black"/>
<path d="M215.389 232.25C213.459 232.25 211.699 231.93 210.099 231.28C208.499 230.63 207.129 229.73 205.979 228.56C204.829 227.39 203.939 226 203.309 224.39C202.669 222.78 202.359 221.01 202.359 219.09C202.359 217.17 202.679 215.4 203.309 213.81C203.939 212.21 204.839 210.83 205.979 209.66C207.129 208.49 208.499 207.58 210.099 206.94C211.699 206.3 213.459 205.97 215.389 205.97C217.319 205.97 219.069 206.29 220.659 206.94C222.249 207.59 223.619 208.49 224.779 209.66C225.939 210.83 226.839 212.21 227.469 213.81C228.099 215.41 228.419 217.17 228.419 219.09C228.419 221.01 228.099 222.78 227.469 224.39C226.839 226 225.939 227.39 224.779 228.56C223.619 229.73 222.249 230.64 220.659 231.28C219.069 231.92 217.319 232.25 215.389 232.25ZM215.389 229.17C216.809 229.17 218.119 228.91 219.309 228.4C220.499 227.89 221.539 227.17 222.409 226.27C223.289 225.36 223.959 224.3 224.429 223.07C224.899 221.85 225.139 220.52 225.139 219.1C225.139 217.68 224.899 216.35 224.429 215.13C223.959 213.91 223.289 212.84 222.409 211.93C221.529 211.02 220.499 210.32 219.309 209.81C218.119 209.31 216.809 209.06 215.389 209.06C213.969 209.06 212.659 209.31 211.469 209.81C210.279 210.31 209.249 211.02 208.379 211.93C207.509 212.84 206.839 213.9 206.359 215.13C205.879 216.36 205.639 217.68 205.639 219.1C205.639 220.52 205.879 221.85 206.359 223.07C206.839 224.3 207.509 225.36 208.379 226.27C209.239 227.18 210.269 227.89 211.469 228.4C212.659 228.91 213.969 229.17 215.389 229.17Z" fill="black"/>
<path d="M235.479 231.93C234.999 231.93 234.589 231.77 234.269 231.44C233.949 231.11 233.779 230.71 233.779 230.23V208.01C233.779 207.51 233.939 207.1 234.269 206.78C234.599 206.46 234.999 206.3 235.479 206.3H242.039C243.679 206.3 245.139 206.66 246.409 207.38C247.679 208.1 248.669 209.1 249.379 210.38C250.089 211.66 250.449 213.13 250.449 214.8C250.449 216.47 250.089 217.82 249.379 219.07C248.669 220.32 247.679 221.29 246.409 221.99C245.139 222.69 243.689 223.04 242.039 223.04H237.179V230.23C237.179 230.71 237.019 231.12 236.699 231.44C236.379 231.76 235.969 231.93 235.469 231.93H235.479ZM237.189 219.88H242.049C243.059 219.88 243.939 219.66 244.709 219.22C245.479 218.78 246.079 218.18 246.509 217.42C246.939 216.66 247.169 215.78 247.169 214.79C247.169 213.74 246.949 212.82 246.509 212.02C246.069 211.22 245.469 210.59 244.709 210.13C243.939 209.67 243.059 209.44 242.049 209.44H237.189V219.88Z" fill="black"/>
<path d="M113.248 305C133.234 305 149.49 321.256 149.49 341.248C149.49 361.24 133.234 377.49 113.248 377.49C93.262 377.49 77 361.234 77 341.248C77 321.262 93.262 305 113.248 305ZM144.412 341.248C144.412 324.06 130.43 310.084 113.248 310.084C96.0655 310.084 82.0837 324.06 82.0837 341.248C82.0837 358.436 96.0595 372.412 113.248 372.412C130.436 372.412 144.412 358.43 144.412 341.248Z" fill="black"/>
<path d="M113.248 310.084C130.431 310.084 144.413 324.06 144.413 341.248C144.413 358.436 130.431 372.412 113.248 372.412C96.0658 372.412 82.084 358.43 82.084 341.248C82.084 324.066 96.0598 310.084 113.248 310.084Z" fill="#FFCB00"/>
<path d="M113.254 360.187C130.882 360.187 137.951 347.547 138.24 347.012C138.913 345.778 138.462 344.238 137.223 343.57C135.99 342.903 134.449 343.36 133.776 344.581C133.511 345.068 127.717 355.11 113.254 355.11C98.791 355.11 92.9552 345.008 92.7206 344.575C92.0347 343.354 90.5006 342.897 89.2733 343.576C88.0459 344.25 87.5887 345.784 88.2565 347.012C88.5513 347.547 95.6204 360.187 113.248 360.187H113.254Z" fill="black"/>
<path d="M99.6333 337.175C106.323 337.175 109.079 332.242 109.187 332.031C109.861 330.798 109.41 329.258 108.17 328.59C106.937 327.922 105.415 328.367 104.735 329.576C104.645 329.733 103.177 332.097 99.6273 332.097C96.0777 332.097 94.5616 329.679 94.5014 329.576C93.7975 328.373 92.2513 327.946 91.048 328.626C89.8448 329.312 89.3936 330.816 90.0554 332.031C90.1757 332.242 92.9311 337.175 99.6273 337.175H99.6333Z" fill="black"/>
<path d="M126.809 337.175C133.499 337.175 136.255 332.242 136.363 332.031C137.037 330.798 136.585 329.258 135.346 328.59C134.119 327.922 132.591 328.367 131.911 329.576C131.821 329.733 130.353 332.097 126.803 332.097C123.253 332.097 121.737 329.679 121.677 329.576C120.973 328.373 119.421 327.946 118.224 328.626C117.021 329.312 116.569 330.816 117.231 332.031C117.351 332.242 120.107 337.175 126.803 337.175H126.809Z" fill="black"/>
<path d="M297.248 305C317.234 305 333.49 321.256 333.49 341.248C333.49 361.24 317.234 377.49 297.248 377.49C277.262 377.49 261 361.234 261 341.248C261 321.262 277.262 305 297.248 305ZM328.412 341.248C328.412 324.06 314.43 310.084 297.248 310.084C280.066 310.084 266.084 324.06 266.084 341.248C266.084 358.436 280.06 372.412 297.248 372.412C314.436 372.412 328.412 358.43 328.412 341.248Z" fill="black"/>
<path d="M297.248 310.084C314.431 310.084 328.413 324.06 328.413 341.248C328.413 358.436 314.431 372.412 297.248 372.412C280.066 372.412 266.084 358.43 266.084 341.248C266.084 324.066 280.06 310.084 297.248 310.084Z" fill="#FFCB00"/>
<path d="M297.254 360.187C314.882 360.187 321.951 347.547 322.24 347.012C322.913 345.778 322.462 344.238 321.223 343.57C319.99 342.903 318.449 343.36 317.776 344.581C317.511 345.068 311.717 355.11 297.254 355.11C282.791 355.11 276.955 345.008 276.721 344.575C276.035 343.354 274.501 342.897 273.273 343.576C272.046 344.25 271.589 345.784 272.257 347.012C272.551 347.547 279.62 360.187 297.248 360.187H297.254Z" fill="black"/>
<path d="M283.633 337.175C290.323 337.175 293.079 332.242 293.187 332.031C293.861 330.798 293.41 329.258 292.17 328.59C290.937 327.922 289.415 328.367 288.735 329.576C288.645 329.733 287.177 332.097 283.627 332.097C280.078 332.097 278.562 329.679 278.501 329.576C277.797 328.373 276.251 327.946 275.048 328.626C273.845 329.312 273.394 330.816 274.055 332.031C274.176 332.242 276.931 337.175 283.627 337.175H283.633Z" fill="black"/>
<path d="M310.809 337.175C317.499 337.175 320.255 332.242 320.363 332.031C321.037 330.798 320.585 329.258 319.346 328.59C318.119 327.922 316.591 328.367 315.911 329.576C315.821 329.733 314.353 332.097 310.803 332.097C307.253 332.097 305.737 329.679 305.677 329.576C304.973 328.373 303.421 327.946 302.224 328.626C301.021 329.312 300.569 330.816 301.231 332.031C301.351 332.242 304.107 337.175 310.803 337.175H310.809Z" fill="black"/>
</g>
<g clip-path="url(#clip1_6085_1071)">
<path d="M268.37 246.3H133.01L121.83 235.12V204.92C126.2 200.55 128.65 198.1 133.01 193.74H268.37C272.74 198.11 275.19 200.56 279.55 204.92V235.12L268.37 246.3Z" stroke="black" stroke-width="10" stroke-miterlimit="10"/>
<path d="M322.2 301.16L341.67 164.12H339.25L407.79 10.8699L395.01 5.1499L323.91 164.12H60.4902L81.0902 309.04" stroke="black" stroke-width="7.8" stroke-miterlimit="10"/>
<path d="M249.369 339.68H255.369" stroke="black" stroke-width="7.8" stroke-miterlimit="10"/>
<path d="M154.68 339.68H249.37" stroke="black" stroke-width="7.8" stroke-miterlimit="10"/>
<path d="M113.8 299.67C136.36 299.67 154.7 318.02 154.7 340.58C154.7 363.14 136.35 381.49 113.8 381.49C91.2498 381.49 72.8898 363.14 72.8898 340.58C72.8898 318.02 91.2398 299.67 113.8 299.67ZM113.8 291.87C86.9398 291.87 65.0898 313.72 65.0898 340.58C65.0898 367.44 86.9398 389.29 113.8 389.29C140.66 389.29 162.5 367.44 162.5 340.58C162.5 313.72 140.65 291.87 113.8 291.87Z" fill="black"/>
<path d="M296.249 299.67C318.809 299.67 337.149 318.02 337.149 340.58C337.149 363.14 318.799 381.49 296.249 381.49C273.699 381.49 255.339 363.14 255.339 340.58C255.339 318.02 273.689 299.67 296.249 299.67ZM296.249 291.87C269.389 291.87 247.539 313.72 247.539 340.58C247.539 367.44 269.389 389.29 296.249 389.29C323.109 389.29 344.949 367.44 344.949 340.58C344.949 313.72 323.099 291.87 296.249 291.87Z" fill="black"/>
</g>
<defs>
<clipPath id="clip0_6085_1071">
<rect width="407.85" height="377.15" fill="white" transform="translate(0 5)"/>
</clipPath>
<clipPath id="clip1_6085_1071">
<rect width="356.95" height="389.29" fill="white" transform="translate(56)"/>
</clipPath>
</defs>
</svg>
