<svg width="116" height="139" viewBox="0 0 116 139" fill="none" xmlns="http://www.w3.org/2000/svg">
<path d="M58.15 10.99C33.49 10.99 13.42 31.06 13.42 55.72C13.42 74.49 25.05 90.59 41.47 97.21C41.21 96.83 40.95 96.45 40.71 96.07C36.61 89.5 36.17 84.45 36.85 80.94C36.65 80.83 36.43 80.73 36.23 80.62L33.89 78.19L33.43 77.82C33.03 77.53 32.72 77.3 32.43 77.08C26.4 72.42 22.74 66.1 22.12 59.29C21.44 51.74 24.44 44.37 30.58 38.47L31.06 37.35L36.88 21.78L44.28 30.2C47.71 29 51.32 28.22 55.04 27.9C56.28 27.79 57.56 27.74 58.85 27.74H59.85L64.12 17.34L71.65 26.47C75.62 27.58 88.41 32.18 93.03 46.73C98.4 63.63 84.61 76.72 76.08 81.2C76.83 82.33 77.52 83.51 78.14 84.77C78.14 84.77 78.16 84.75 78.17 84.75C78.17 84.75 78.89 85.98 79.09 86.65C80.32 89.55 80.82 92.16 81.1 94.1C94.15 86.28 102.9 72 102.9 55.71C102.9 31.05 82.83 10.98 58.17 10.98H58.15V10.99Z" fill="black"/>
<path d="M47.98 69.71C53.07 68.14 58.99 68.43 63.43 70.45C67.5 72.3 71.6 75.46 74.38 78.65C82.85 74.41 96.15 60.09 89.14 44.93C83.75 33.28 72.91 29.92 71.84 29.63L70.62 29.71C70.62 29.71 65.89 23.98 64.98 22.87L61.78 30.65L61.15 30.62C59.22 30.52 57.22 30.54 55.31 30.71C51.38 31.05 47.57 31.93 44.01 33.32L43.43 33.55L37.91 27.27L33.74 38.43L33.03 40.1C27.24 45.47 24.39 52.19 25.01 59.04C25.56 65.07 28.83 70.68 34.23 74.85C34.53 75.08 34.83 75.31 35.14 75.53L35.3 75.64C35.6 75.86 35.85 76.03 36.1 76.19C36.75 76.62 37.44 76.98 38.13 77.36C39.98 73.81 43.42 71.12 47.99 69.71H47.98ZM63.72 53.86C69.88 50.31 75.87 50.04 77.55 50.04C77.88 50.04 78.08 50.04 78.12 50.06L78.7 50.09L78.9 50.62C78.95 50.77 79.22 51.54 79.14 52.2C79.05 52.94 78.74 53.48 78.71 53.53L78.43 53.99L77.62 53.95C76.17 53.95 71.03 54.19 65.74 57.23L65.25 57.52L64.79 57.19C64.72 57.14 64.16 56.74 63.81 56.14C63.39 55.42 63.3 54.77 63.3 54.7L63.24 54.15L63.73 53.87L63.72 53.86ZM53.95 61.02C54.48 60.3 56.08 59.61 57.75 59.4C58.17 59.35 58.57 59.33 58.95 59.33C59.66 59.33 62 59.42 62.26 60.64C62.42 61.36 61.96 61.74 61.69 61.97C61.28 62.32 58.96 64.4 58.96 64.4L58.51 64.8L57.97 64.53C56.81 63.94 54.98 63.03 54.68 62.89C54.46 62.8 53.89 62.55 53.75 61.89C53.7 61.68 53.7 61.36 53.96 61.01H53.95V61.02ZM36.03 60.87L35.92 60.9H35.8C35.54 60.9 34.89 60.77 34.47 59.56C34.16 58.68 34.34 57.84 34.36 57.75L34.48 57.25L34.99 57.11C39.33 55.96 43.17 55.71 45.64 55.71C47.94 55.71 49.37 55.92 49.53 55.94L50 56.01L50.2 56.43C50.23 56.51 50.55 57.21 50.48 58.03C50.4 59.05 49.65 59.59 49.56 59.65L49.28 59.84L48.94 59.79C48.94 59.79 47.69 59.61 45.66 59.61C43.42 59.61 39.92 59.82 36.04 60.86L36.03 60.87Z" fill="black"/>
<path d="M58.15 100.44C54.16 100.44 50.29 99.91 46.6 98.92C45.21 97.38 43.87 95.69 42.92 94.19C39.85 89.34 38.7 84.83 39.6 81.15L39.82 80.23L40.4 80.97C41.46 82.33 42.49 83.39 43.45 84.14L43.64 84.29L43.88 84.2C43.88 84.2 44.38 84 44.95 83.46C45.52 82.91 45.67 82.37 45.7 82.21L45.73 81.99L45.54 81.84C44.04 80.68 42.53 78.61 41.76 77.49L41.57 77.21L41.8 76.95C42.47 76.18 43.28 75.48 44.21 74.86L44.59 74.61L44.84 74.98C45.83 76.41 47.36 78.39 49.02 79.68L49.2 79.82L49.43 79.75C49.55 79.71 49.96 79.55 50.53 78.95C50.99 78.47 51.2 77.86 51.2 77.83L51.29 77.57L51.07 77.4C49.83 76.44 48.6 74.86 47.78 73.71L47.44 73.23C47.44 73.23 48.35 72.92 48.52 72.87C52.83 71.54 57.84 71.75 61.59 73.4C70.24 77.22 75.6 83.97 77.95 95.79C71.97 98.76 65.24 100.44 58.13 100.44H58.15Z" fill="black"/>
<path d="M54.67 62.9C54.97 63.04 56.81 63.95 57.96 64.54L58.5 64.81L58.95 64.41C58.95 64.41 61.26 62.33 61.68 61.98C61.95 61.75 62.41 61.37 62.25 60.65C61.99 59.43 59.66 59.34 58.94 59.34C58.56 59.34 58.16 59.36 57.74 59.41C56.07 59.62 54.47 60.3 53.94 61.03C53.69 61.38 53.69 61.7 53.73 61.91C53.87 62.57 54.44 62.82 54.66 62.91H54.67V62.9Z" fill="white"/>
<path d="M63.81 56.13C64.16 56.73 64.72 57.13 64.79 57.18L65.25 57.51L65.74 57.22C71.03 54.18 76.17 53.94 77.62 53.94L78.43 53.98L78.71 53.52C78.71 53.52 79.05 52.94 79.14 52.19C79.22 51.53 78.95 50.76 78.9 50.61L78.7 50.08L78.12 50.05C78.12 50.05 77.88 50.03 77.55 50.03C75.86 50.03 69.87 50.31 63.72 53.85L63.23 54.13L63.29 54.68C63.29 54.75 63.38 55.39 63.8 56.12H63.81V56.13Z" fill="white"/>
<path d="M48.94 59.8L49.28 59.85L49.56 59.66C49.65 59.6 50.4 59.06 50.48 58.04C50.54 57.21 50.23 56.51 50.2 56.44L50 56.02L49.53 55.95C49.37 55.93 47.94 55.72 45.64 55.72C43.17 55.72 39.32 55.97 34.99 57.12L34.48 57.26L34.36 57.76C34.34 57.85 34.17 58.69 34.47 59.57C34.89 60.78 35.53 60.91 35.8 60.91H35.92L36.03 60.88C39.92 59.84 43.41 59.63 45.65 59.63C47.68 59.63 48.92 59.81 48.93 59.81L48.94 59.8Z" fill="white"/>
<path d="M110.62 55.55C110.62 27.08 86.96 4 57.77 4C28.58 4 4.92 28.08 4.92 56.55C4.92 85.02 28.58 108.1 57.77 108.1C59.32 108.1 60.84 108.03 62.36 107.9L85.63 128.18L81.4 102.66C98.72 94.2 110.62 76.72 110.62 56.54V55.55Z" stroke="black" stroke-width="8" stroke-miterlimit="10"/>
</svg>
