<svg width="66" height="52" viewBox="0 0 66 52" fill="none" xmlns="http://www.w3.org/2000/svg">
<path d="M52.5303 17.31C51.8103 11.15 46.7003 6.16003 40.5303 5.56003C35.9103 5.11003 31.7103 7.02003 28.9803 10.21C28.5503 10.71 27.7603 10.71 27.3303 10.21C24.6003 7.01003 20.4003 5.11003 15.7803 5.56003C9.55026 6.16003 4.42024 11.24 3.76024 17.47C3.20024 22.73 5.69029 27.45 9.68029 30.1C12.4303 31.93 15.0302 33.98 17.3902 36.3L28.5203 47.24L39.8403 35.84C41.8803 33.78 44.0303 31.79 46.4703 30.22C50.6003 27.56 53.1803 22.71 52.5503 17.3L52.5303 17.31Z" stroke="black" stroke-width="5.81" stroke-miterlimit="10"/>
<path d="M51.0603 12.69L61.4303 5.5" stroke="black" stroke-width="5.81" stroke-miterlimit="10"/>
<path d="M6.45032 43.62L28.3203 28.46" stroke="black" stroke-width="5.81" stroke-miterlimit="10"/>
<path d="M54.8303 3.76001H62.7103V11.65" stroke="black" stroke-width="5.81" stroke-miterlimit="10"/>
</svg>
