<svg width="62" height="62" viewBox="0 0 62 62" fill="none" xmlns="http://www.w3.org/2000/svg">
<path d="M25.5692 47.2586C37.6532 47.2586 47.4492 37.4626 47.4492 25.3786C47.4492 13.2946 37.6532 3.4986 25.5692 3.4986C13.4852 3.4986 3.68933 13.2946 3.68933 25.3786C3.68933 37.4626 13.4852 47.2586 25.5692 47.2586Z" stroke="black" stroke-width="5.81" stroke-miterlimit="10"/>
<path d="M34.5792 34.3986C29.6092 39.3686 21.5093 39.3686 16.5393 34.3986C11.5693 29.4286 11.5693 21.3286 16.5393 16.3586C21.5093 11.3886 29.5992 11.3886 34.5792 16.3586C39.5492 21.3286 39.5492 29.4186 34.5792 34.3986Z" stroke="black" stroke-width="4.12" stroke-miterlimit="10"/>
<path d="M44.8235 38.8606C45.8503 38.4787 46.5337 38.5479 46.8811 38.8245L46.9456 38.8821L46.9485 38.885C47.1479 39.0817 47.2684 39.4205 47.22 39.9514C47.1717 40.4806 46.9581 41.1361 46.5774 41.8547L46.4045 42.1809L60.7161 56.4924C61.082 56.8587 61.2449 57.4105 61.1594 58.051C61.0739 58.692 60.7395 59.3909 60.1555 59.9749C59.5715 60.5589 58.8727 60.8932 58.2317 60.9788C57.6709 61.0536 57.1784 60.9379 56.8186 60.6624L56.6731 60.5354L42.3616 46.2239L42.0354 46.3967C41.3164 46.7777 40.6637 46.991 40.136 47.0393C39.6738 47.0816 39.3544 46.9953 39.1458 46.8372L39.0627 46.7649C38.7459 46.4479 38.6409 45.7453 39.0491 44.6467C39.3912 43.7259 40.0516 42.6642 40.9788 41.6458L41.3928 41.2122L41.3938 41.2112C42.5398 40.0604 43.773 39.2513 44.8235 38.8606Z" fill="black" stroke="black"/>
</svg>
