<svg width="1432" height="544" viewBox="0 0 1432 544" fill="none" xmlns="http://www.w3.org/2000/svg">
<g clip-path="url(#clip0_6057_846)">
<path d="M507.7 134.44H505.14V110.46C505.14 104.5 509.97 99.6802 515.92 99.6802H539.9V100.66C539.9 108.85 546.54 115.48 554.72 115.48H588.08C619.08 115.48 649.81 110.66 679.67 102.34C685.73 100.65 692.9 99.6802 700.58 99.6802C708.26 99.6802 715.44 100.66 721.49 102.34C751.35 110.66 782.08 115.48 813.08 115.48H833.95C842.14 115.48 848.77 108.84 848.77 100.66V99.6802H872.75C878.71 99.6802 883.53 104.51 883.53 110.46V134.44C875.34 134.44 868.71 141.08 868.71 149.26V168.86C868.71 204.56 873.83 240.14 884.69 274.15C886.04 278.37 886.9 282.93 886.9 287.69C886.9 292.45 886.04 297.01 884.69 301.23C873.83 335.24 868.71 370.82 868.71 406.52V424.64C868.71 432.83 875.35 439.46 883.53 439.46V463.44C883.53 469.4 878.7 474.22 872.75 474.22H848.77V471.66C848.77 463.47 842.13 456.84 833.95 456.84H822.5C785.31 456.84 748.53 463.23 712.99 474.16C709.09 475.36 704.92 476.1 700.58 476.1C696.24 476.1 692.07 475.35 688.17 474.16C652.63 463.23 615.84 456.84 578.66 456.84H554.72C546.53 456.84 539.9 463.48 539.9 471.66V474.22H515.92C509.96 474.22 505.14 469.39 505.14 463.44V439.46H507.7C515.89 439.46 522.52 432.82 522.52 424.64V398.85C522.52 368.19 517.88 337.79 509.85 308.21C508.23 302.24 507.3 295.21 507.3 287.69C507.3 280.17 508.23 273.14 509.85 267.17C517.88 237.58 522.52 207.18 522.52 176.53V149.26C522.52 141.07 515.88 134.44 507.7 134.44ZM554.58 425.23H836.65V147.09H554.58V425.22V425.23Z" stroke="#1D1D1B" stroke-width="7.8" stroke-miterlimit="10"/>
<path d="M539.08 440.5L852.15 440.5V131.81L539.08 131.81V440.5Z" stroke="#1D1D1B" stroke-width="7.8" stroke-miterlimit="10"/>
<path d="M559.39 115.42L695.62 65.1499L831.85 115.42" stroke="#010202" stroke-width="7.8" stroke-miterlimit="10"/>
<path d="M693.05 73.4798C697.651 73.4798 701.38 69.7504 701.38 65.1498C701.38 60.5493 697.651 56.8198 693.05 56.8198C688.449 56.8198 684.72 60.5493 684.72 65.1498C684.72 69.7504 688.449 73.4798 693.05 73.4798Z" fill="#010202"/>
<path d="M695.62 0C720.52 0 740.77 20.25 740.77 45.16C740.77 70.07 720.52 90.31 695.62 90.31C670.72 90.31 650.46 70.06 650.46 45.16C650.46 20.26 670.72 0 695.62 0ZM734.44 45.16C734.44 23.75 717.02 6.34 695.62 6.34C674.22 6.34 656.8 23.75 656.8 45.16C656.8 66.57 674.21 83.98 695.62 83.98C717.03 83.98 734.44 66.56 734.44 45.16Z" fill="black"/>
<path d="M695.62 83.9798C717.06 83.9798 734.44 66.5995 734.44 45.1598C734.44 23.7201 717.06 6.33984 695.62 6.33984C674.18 6.33984 656.8 23.7201 656.8 45.1598C656.8 66.5995 674.18 83.9798 695.62 83.9798Z" fill="#FECA05"/>
<path d="M695.62 68.7502C717.58 68.7502 726.39 53.0002 726.75 52.3402C727.59 50.8102 727.02 48.8802 725.49 48.0502C723.95 47.2202 722.04 47.7802 721.19 49.3102C720.86 49.9102 713.64 62.4302 695.62 62.4302C677.6 62.4302 670.34 49.8402 670.04 49.3102C669.19 47.7902 667.27 47.2202 665.75 48.0702C664.22 48.9102 663.65 50.8202 664.49 52.3502C664.86 53.0202 673.67 68.7602 695.63 68.7602L695.62 68.7502Z" fill="black"/>
<path d="M678.65 40.0799C686.98 40.0799 690.42 33.9399 690.55 33.6699C691.39 32.1399 690.82 30.2099 689.29 29.3799C687.75 28.5499 685.86 29.0999 685.01 30.6099C684.9 30.7999 683.07 33.7499 678.65 33.7499C674.23 33.7499 672.34 30.7399 672.27 30.6099C671.39 29.1099 669.47 28.5799 667.97 29.4299C666.47 30.2799 665.91 32.1499 666.73 33.6699C666.88 33.9299 670.31 40.0799 678.65 40.0799Z" fill="black"/>
<path d="M712.51 40.0799C720.84 40.0799 724.28 33.9399 724.41 33.6699C725.25 32.1399 724.68 30.2099 723.15 29.3799C721.62 28.5499 719.72 29.0999 718.87 30.6099C718.76 30.7999 716.93 33.7499 712.51 33.7499C708.09 33.7499 706.2 30.7399 706.13 30.6099C705.25 29.1099 703.32 28.5799 701.83 29.4299C700.33 30.2799 699.77 32.1499 700.59 33.6699C700.74 33.9299 704.17 40.0799 712.51 40.0799Z" fill="black"/>
<path d="M124.39 115.42L187.97 65.1499L251.55 115.42" stroke="#010202" stroke-width="7.8" stroke-miterlimit="10"/>
<path d="M185.4 73.4798C190.001 73.4798 193.73 69.7504 193.73 65.1498C193.73 60.5493 190.001 56.8198 185.4 56.8198C180.799 56.8198 177.07 60.5493 177.07 65.1498C177.07 69.7504 180.799 73.4798 185.4 73.4798Z" fill="#010202"/>
<path d="M187.97 0C212.87 0 233.12 20.25 233.12 45.16C233.12 70.07 212.87 90.31 187.97 90.31C163.07 90.31 142.81 70.06 142.81 45.16C142.81 20.26 163.07 0 187.97 0ZM226.79 45.16C226.79 23.75 209.37 6.34 187.97 6.34C166.57 6.34 149.15 23.75 149.15 45.16C149.15 66.57 166.56 83.98 187.97 83.98C209.38 83.98 226.79 66.56 226.79 45.16Z" fill="black"/>
<path d="M187.97 83.9798C209.41 83.9798 226.79 66.5995 226.79 45.1598C226.79 23.7201 209.41 6.33984 187.97 6.33984C166.53 6.33984 149.15 23.7201 149.15 45.1598C149.15 66.5995 166.53 83.9798 187.97 83.9798Z" fill="#FECA05"/>
<path d="M187.97 68.7502C209.93 68.7502 218.74 53.0002 219.1 52.3402C219.94 50.8102 219.37 48.8802 217.84 48.0502C216.3 47.2202 214.39 47.7802 213.54 49.3102C213.21 49.9102 205.99 62.4302 187.97 62.4302C169.95 62.4302 162.69 49.8402 162.39 49.3102C161.54 47.7902 159.62 47.2202 158.1 48.0702C156.57 48.9102 156 50.8202 156.84 52.3502C157.21 53.0202 166.02 68.7602 187.98 68.7602L187.97 68.7502Z" fill="black"/>
<path d="M171 40.0799C179.33 40.0799 182.77 33.9399 182.9 33.6699C183.74 32.1399 183.17 30.2099 181.64 29.3799C180.1 28.5499 178.21 29.0999 177.36 30.6099C177.25 30.7999 175.42 33.7499 171 33.7499C166.58 33.7499 164.69 30.7399 164.62 30.6099C163.74 29.1099 161.82 28.5799 160.32 29.4299C158.82 30.2799 158.26 32.1499 159.08 33.6699C159.23 33.9299 162.66 40.0799 171 40.0799Z" fill="black"/>
<path d="M204.86 40.0799C213.19 40.0799 216.63 33.9399 216.76 33.6699C217.6 32.1399 217.03 30.2099 215.5 29.3799C213.97 28.5499 212.07 29.0999 211.22 30.6099C211.11 30.7999 209.28 33.7499 204.86 33.7499C200.44 33.7499 198.55 30.7399 198.48 30.6099C197.6 29.1099 195.67 28.5799 194.18 29.4299C192.68 30.2799 192.12 32.1499 192.94 33.6699C193.09 33.9299 196.52 40.0799 204.86 40.0799Z" fill="black"/>
<path d="M187.97 485.65C152.41 485.65 119.36 466.29 94.9 431.15C71.58 397.65 58.74 353.37 58.74 306.47C58.74 259.57 71.58 215.3 94.9 181.79C119.36 146.65 152.41 127.29 187.97 127.29C223.53 127.29 256.58 146.65 281.04 181.79C304.36 215.29 317.2 259.57 317.2 306.47C317.2 353.37 304.36 397.64 281.04 431.15C256.58 466.3 223.53 485.65 187.97 485.65Z" stroke="#1D1D1B" stroke-width="7.8" stroke-miterlimit="10"/>
<path d="M187.97 470.77C251.129 470.77 302.33 397.21 302.33 306.47C302.33 215.73 251.129 142.17 187.97 142.17C124.811 142.17 73.61 215.73 73.61 306.47C73.61 397.21 124.811 470.77 187.97 470.77Z" stroke="#1D1D1B" stroke-width="7.8" stroke-miterlimit="10"/>
<path d="M344.82 279.74C344.39 279.74 343.96 279.75 343.54 279.77C339.46 237.24 325.68 197.58 303.71 166.02C273.93 123.24 232.83 99.6802 187.97 99.6802C143.11 99.6802 102.01 123.24 72.23 166.02C50.26 197.58 36.48 237.24 32.4 279.77C31.97 279.75 31.55 279.74 31.12 279.74C16.36 279.74 4.38999 291.71 4.38999 306.47C4.38999 321.23 16.36 333.2 31.12 333.2C31.55 333.2 31.98 333.19 32.4 333.17C36.48 375.7 50.26 415.36 72.23 446.92C96.01 481.09 127.02 502.98 161.39 510.41C161.29 511.35 161.24 512.3 161.24 513.26C161.24 528.02 173.21 539.99 187.97 539.99C202.73 539.99 214.7 528.02 214.7 513.26C214.7 512.3 214.65 511.35 214.55 510.41C248.92 502.97 279.93 481.08 303.71 446.92C325.68 415.36 339.46 375.7 343.54 333.17C343.97 333.19 344.39 333.2 344.82 333.2C359.58 333.2 371.55 321.23 371.55 306.47C371.55 291.71 359.58 279.74 344.82 279.74Z" stroke="#1D1D1B" stroke-width="7.8" stroke-miterlimit="10"/>
<path d="M1162.18 115.42L1225.76 65.1499L1289.34 115.42" stroke="#010202" stroke-width="7.8" stroke-miterlimit="10"/>
<path d="M1223.2 73.4798C1227.8 73.4798 1231.53 69.7504 1231.53 65.1498C1231.53 60.5493 1227.8 56.8198 1223.2 56.8198C1218.6 56.8198 1214.87 60.5493 1214.87 65.1498C1214.87 69.7504 1218.6 73.4798 1223.2 73.4798Z" fill="#010202"/>
<path d="M1225.76 0C1250.66 0 1270.91 20.25 1270.91 45.16C1270.91 70.07 1250.66 90.31 1225.76 90.31C1200.86 90.31 1180.6 70.06 1180.6 45.16C1180.6 20.26 1200.87 0 1225.76 0ZM1264.58 45.16C1264.58 23.75 1247.16 6.34 1225.76 6.34C1204.36 6.34 1186.94 23.75 1186.94 45.16C1186.94 66.57 1204.35 83.98 1225.76 83.98C1247.17 83.98 1264.58 66.56 1264.58 45.16Z" fill="black"/>
<path d="M1225.76 83.9798C1247.2 83.9798 1264.58 66.5995 1264.58 45.1598C1264.58 23.7201 1247.2 6.33984 1225.76 6.33984C1204.32 6.33984 1186.94 23.7201 1186.94 45.1598C1186.94 66.5995 1204.32 83.9798 1225.76 83.9798Z" fill="#FECA05"/>
<path d="M1225.77 68.7502C1247.73 68.7502 1256.54 53.0002 1256.9 52.3402C1257.74 50.8102 1257.17 48.8802 1255.64 48.0502C1254.1 47.2202 1252.19 47.7802 1251.34 49.3102C1251.01 49.9102 1243.79 62.4302 1225.77 62.4302C1207.75 62.4302 1200.49 49.8402 1200.19 49.3102C1199.34 47.7902 1197.42 47.2202 1195.9 48.0702C1194.37 48.9102 1193.8 50.8202 1194.64 52.3502C1195.01 53.0202 1203.82 68.7602 1225.78 68.7602L1225.77 68.7502Z" fill="black"/>
<path d="M1208.8 40.0799C1217.13 40.0799 1220.57 33.9399 1220.7 33.6699C1221.54 32.1399 1220.97 30.2099 1219.44 29.3799C1217.9 28.5499 1216.01 29.0999 1215.16 30.6099C1215.05 30.7999 1213.22 33.7499 1208.8 33.7499C1204.38 33.7499 1202.49 30.7399 1202.42 30.6099C1201.54 29.1099 1199.62 28.5799 1198.12 29.4299C1196.62 30.2799 1196.06 32.1499 1196.88 33.6699C1197.03 33.9299 1200.46 40.0799 1208.8 40.0799Z" fill="black"/>
<path d="M1242.65 40.0799C1250.98 40.0799 1254.42 33.9399 1254.55 33.6699C1255.39 32.1399 1254.82 30.2099 1253.29 29.3799C1251.76 28.5499 1249.86 29.0999 1249.01 30.6099C1248.9 30.7999 1247.07 33.7499 1242.65 33.7499C1238.23 33.7499 1236.34 30.7399 1236.27 30.6099C1235.39 29.1099 1233.46 28.5799 1231.97 29.4299C1230.47 30.2799 1229.91 32.1499 1230.73 33.6699C1230.88 33.9299 1234.31 40.0799 1242.65 40.0799Z" fill="black"/>
<path d="M1326.38 115.86H1125.14L1024.52 290.14L1125.14 464.42H1326.38L1427 290.14L1326.38 115.86Z" stroke="#1D1D1B" stroke-width="7.8" stroke-miterlimit="10"/>
<path d="M1141.08 436.8L1056.41 290.14L1141.08 143.47H1310.44L1395.11 290.14L1310.44 436.8H1141.08Z" stroke="#1D1D1B" stroke-width="7.8" stroke-miterlimit="10"/>
<path d="M1145.99 428.3L1066.22 290.14L1145.99 151.97H1305.53L1385.3 290.14L1305.53 428.3H1145.99Z" stroke="#1D1D1B" stroke-width="7.8" stroke-miterlimit="10"/>
<g clip-path="url(#clip1_6057_846)">
<path d="M1145.99 428.3L1066.22 290.14L1145.99 151.97H1305.53L1385.3 290.14L1305.53 428.3H1145.99Z" fill="#B83523" stroke="#1D1D1B" stroke-width="7.8" stroke-miterlimit="10"/>
<path d="M836.65 147.09H554.58V425.23H836.65V147.09Z" fill="#DE9F35"/>
<path d="M507.7 134.44H505.14V110.46C505.14 104.5 509.97 99.6802 515.92 99.6802H539.9V100.66C539.9 108.85 546.54 115.48 554.72 115.48H588.08C619.08 115.48 649.81 110.66 679.67 102.34C685.73 100.65 692.9 99.6802 700.58 99.6802C708.26 99.6802 715.44 100.66 721.49 102.34C751.35 110.66 782.08 115.48 813.08 115.48H833.95C842.14 115.48 848.77 108.84 848.77 100.66V99.6802H872.75C878.71 99.6802 883.53 104.51 883.53 110.46V134.44C875.34 134.44 868.71 141.08 868.71 149.26V168.86C868.71 204.56 873.83 240.14 884.69 274.15C886.04 278.37 886.9 282.93 886.9 287.69C886.9 292.45 886.04 297.01 884.69 301.23C873.83 335.24 868.71 370.82 868.71 406.52V424.64C868.71 432.83 875.35 439.46 883.53 439.46V463.44C883.53 469.4 878.7 474.22 872.75 474.22H848.77V471.66C848.77 463.47 842.13 456.84 833.95 456.84H822.5C785.31 456.84 748.53 463.23 712.99 474.16C709.09 475.36 704.92 476.1 700.58 476.1C696.24 476.1 692.07 475.35 688.17 474.16C652.63 463.23 615.84 456.84 578.66 456.84H554.72C546.53 456.84 539.9 463.48 539.9 471.66V474.22H515.92C509.96 474.22 505.14 469.39 505.14 463.44V439.46H507.7C515.89 439.46 522.52 432.82 522.52 424.64V398.85C522.52 368.19 517.88 337.79 509.85 308.21C508.23 302.24 507.3 295.21 507.3 287.69C507.3 280.17 508.23 273.14 509.85 267.17C517.88 237.58 522.52 207.18 522.52 176.53V149.26C522.52 141.07 515.88 134.44 507.7 134.44ZM554.58 425.23H836.65V147.09H554.58V425.22V425.23Z" stroke="#1D1D1B" stroke-width="7.8" stroke-miterlimit="10"/>
<path d="M539.08 440.5H852.15V131.81H539.08V440.5Z" stroke="#1D1D1B" stroke-width="7.8" stroke-miterlimit="10"/>
<path d="M559.39 115.42L695.62 65.1499L831.85 115.42" stroke="#010202" stroke-width="7.8" stroke-miterlimit="10"/>
<path d="M693.05 73.4798C697.65 73.4798 701.38 69.7498 701.38 65.1498C701.38 60.5498 697.65 56.8198 693.05 56.8198C688.45 56.8198 684.72 60.5498 684.72 65.1498C684.72 69.7498 688.45 73.4798 693.05 73.4798Z" fill="#010202"/>
<path d="M695.62 0C720.52 0 740.77 20.25 740.77 45.16C740.77 70.07 720.52 90.31 695.62 90.31C670.72 90.31 650.46 70.06 650.46 45.16C650.46 20.26 670.72 0 695.62 0ZM734.44 45.16C734.44 23.75 717.02 6.34 695.62 6.34C674.22 6.34 656.8 23.75 656.8 45.16C656.8 66.57 674.21 83.98 695.62 83.98C717.03 83.98 734.44 66.56 734.44 45.16Z" fill="black"/>
<path d="M695.62 83.9798C717.06 83.9798 734.44 66.5998 734.44 45.1598C734.44 23.7198 717.06 6.33984 695.62 6.33984C674.18 6.33984 656.8 23.7198 656.8 45.1598C656.8 66.5998 674.18 83.9798 695.62 83.9798Z" fill="#FECA05"/>
<path d="M695.62 68.7502C717.58 68.7502 726.39 53.0002 726.75 52.3402C727.59 50.8102 727.02 48.8802 725.49 48.0502C723.95 47.2202 722.04 47.7802 721.19 49.3102C720.86 49.9102 713.64 62.4302 695.62 62.4302C677.6 62.4302 670.34 49.8402 670.04 49.3102C669.19 47.7902 667.27 47.2202 665.75 48.0702C664.22 48.9102 663.65 50.8202 664.49 52.3502C664.86 53.0202 673.67 68.7602 695.63 68.7602H695.62V68.7502Z" fill="black"/>
<path d="M678.65 40.0799C686.98 40.0799 690.42 33.9399 690.55 33.6699C691.39 32.1399 690.82 30.2099 689.29 29.3799C687.75 28.5499 685.86 29.0999 685.01 30.6099C684.9 30.7999 683.07 33.7499 678.65 33.7499C674.23 33.7499 672.34 30.7399 672.27 30.6099C671.39 29.1099 669.47 28.5799 667.97 29.4299C666.47 30.2799 665.91 32.1499 666.73 33.6699C666.88 33.9299 670.31 40.0799 678.65 40.0799Z" fill="black"/>
<path d="M712.51 40.0799C720.84 40.0799 724.28 33.9399 724.41 33.6699C725.25 32.1399 724.68 30.2099 723.15 29.3799C721.62 28.5499 719.72 29.0999 718.87 30.6099C718.76 30.7999 716.93 33.7499 712.51 33.7499C708.09 33.7499 706.2 30.7399 706.13 30.6099C705.25 29.1099 703.32 28.5799 701.83 29.4299C700.33 30.2799 699.77 32.1499 700.59 33.6699C700.74 33.9299 704.17 40.0799 712.51 40.0799Z" fill="black"/>
<path d="M124.39 115.42L187.97 65.1499L251.55 115.42" stroke="#010202" stroke-width="7.8" stroke-miterlimit="10"/>
<path d="M185.4 73.4798C190 73.4798 193.73 69.7498 193.73 65.1498C193.73 60.5498 190 56.8198 185.4 56.8198C180.8 56.8198 177.07 60.5498 177.07 65.1498C177.07 69.7498 180.8 73.4798 185.4 73.4798Z" fill="#010202"/>
<path d="M187.97 0C212.87 0 233.12 20.25 233.12 45.16C233.12 70.07 212.87 90.31 187.97 90.31C163.07 90.31 142.81 70.06 142.81 45.16C142.81 20.26 163.07 0 187.97 0ZM226.79 45.16C226.79 23.75 209.37 6.34 187.97 6.34C166.57 6.34 149.15 23.75 149.15 45.16C149.15 66.57 166.56 83.98 187.97 83.98C209.38 83.98 226.79 66.56 226.79 45.16Z" fill="black"/>
<path d="M187.97 83.9798C209.41 83.9798 226.79 66.5998 226.79 45.1598C226.79 23.7198 209.41 6.33984 187.97 6.33984C166.53 6.33984 149.15 23.7198 149.15 45.1598C149.15 66.5998 166.53 83.9798 187.97 83.9798Z" fill="#FECA05"/>
<path d="M187.97 68.7502C209.93 68.7502 218.74 53.0002 219.1 52.3402C219.94 50.8102 219.37 48.8802 217.84 48.0502C216.3 47.2202 214.39 47.7802 213.54 49.3102C213.21 49.9102 205.99 62.4302 187.97 62.4302C169.95 62.4302 162.69 49.8402 162.39 49.3102C161.54 47.7902 159.62 47.2202 158.1 48.0702C156.57 48.9102 156 50.8202 156.84 52.3502C157.21 53.0202 166.02 68.7602 187.98 68.7602H187.97V68.7502Z" fill="black"/>
<path d="M171 40.0799C179.33 40.0799 182.77 33.9399 182.9 33.6699C183.74 32.1399 183.17 30.2099 181.64 29.3799C180.1 28.5499 178.21 29.0999 177.36 30.6099C177.25 30.7999 175.42 33.7499 171 33.7499C166.58 33.7499 164.69 30.7399 164.62 30.6099C163.74 29.1099 161.82 28.5799 160.32 29.4299C158.82 30.2799 158.26 32.1499 159.08 33.6699C159.23 33.9299 162.66 40.0799 171 40.0799Z" fill="black"/>
<path d="M204.86 40.0799C213.19 40.0799 216.63 33.9399 216.76 33.6699C217.6 32.1399 217.03 30.2099 215.5 29.3799C213.97 28.5499 212.07 29.0999 211.22 30.6099C211.11 30.7999 209.28 33.7499 204.86 33.7499C200.44 33.7499 198.55 30.7399 198.48 30.6099C197.6 29.1099 195.67 28.5799 194.18 29.4299C192.68 30.2799 192.12 32.1499 192.94 33.6699C193.09 33.9299 196.52 40.0799 204.86 40.0799Z" fill="black"/>
<path d="M187.97 485.65C152.41 485.65 119.36 466.29 94.9 431.15C71.58 397.65 58.74 353.37 58.74 306.47C58.74 259.57 71.58 215.3 94.9 181.79C119.36 146.65 152.41 127.29 187.97 127.29C223.53 127.29 256.58 146.65 281.04 181.79C304.36 215.29 317.2 259.57 317.2 306.47C317.2 353.37 304.36 397.64 281.04 431.15C256.58 466.3 223.53 485.65 187.97 485.65Z" stroke="#1D1D1B" stroke-width="7.8" stroke-miterlimit="10"/>
<path d="M187.97 470.77C251.13 470.77 302.33 397.21 302.33 306.47C302.33 215.73 251.13 142.17 187.97 142.17C124.81 142.17 73.61 215.73 73.61 306.47C73.61 397.21 124.81 470.77 187.97 470.77Z" stroke="#1D1D1B" stroke-width="7.8" stroke-miterlimit="10"/>
<path d="M344.82 279.74C344.39 279.74 343.96 279.75 343.54 279.77C339.46 237.24 325.68 197.58 303.71 166.02C273.93 123.24 232.83 99.6802 187.97 99.6802C143.11 99.6802 102.01 123.24 72.23 166.02C50.26 197.58 36.48 237.24 32.4 279.77C31.97 279.75 31.55 279.74 31.12 279.74C16.36 279.74 4.38998 291.71 4.38998 306.47C4.38998 321.23 16.36 333.2 31.12 333.2C31.55 333.2 31.98 333.19 32.4 333.17C36.48 375.7 50.26 415.36 72.23 446.92C96.01 481.09 127.02 502.98 161.39 510.41C161.29 511.35 161.24 512.3 161.24 513.26C161.24 528.02 173.21 539.99 187.97 539.99C202.73 539.99 214.7 528.02 214.7 513.26C214.7 512.3 214.65 511.35 214.55 510.41C248.92 502.97 279.93 481.08 303.71 446.92C325.68 415.36 339.46 375.7 343.54 333.17C343.97 333.19 344.39 333.2 344.82 333.2C359.58 333.2 371.55 321.23 371.55 306.47C371.55 291.71 359.58 279.74 344.82 279.74Z" stroke="#1D1D1B" stroke-width="7.8" stroke-miterlimit="10"/>
<path d="M1162.18 115.42L1225.76 65.1499L1289.34 115.42" stroke="#010202" stroke-width="7.8" stroke-miterlimit="10"/>
<path d="M1223.2 73.4798C1227.8 73.4798 1231.53 69.7498 1231.53 65.1498C1231.53 60.5498 1227.8 56.8198 1223.2 56.8198C1218.6 56.8198 1214.87 60.5498 1214.87 65.1498C1214.87 69.7498 1218.6 73.4798 1223.2 73.4798Z" fill="#010202"/>
<path d="M1225.76 0C1250.66 0 1270.91 20.25 1270.91 45.16C1270.91 70.07 1250.66 90.31 1225.76 90.31C1200.86 90.31 1180.6 70.06 1180.6 45.16C1180.6 20.26 1200.87 0 1225.76 0ZM1264.58 45.16C1264.58 23.75 1247.16 6.34 1225.76 6.34C1204.36 6.34 1186.94 23.75 1186.94 45.16C1186.94 66.57 1204.35 83.98 1225.76 83.98C1247.17 83.98 1264.58 66.56 1264.58 45.16Z" fill="black"/>
<path d="M1225.76 83.9798C1247.2 83.9798 1264.58 66.5998 1264.58 45.1598C1264.58 23.7198 1247.2 6.33984 1225.76 6.33984C1204.32 6.33984 1186.94 23.7198 1186.94 45.1598C1186.94 66.5998 1204.32 83.9798 1225.76 83.9798Z" fill="#FECA05"/>
<path d="M1225.77 68.7502C1247.73 68.7502 1256.54 53.0002 1256.9 52.3402C1257.74 50.8102 1257.17 48.8802 1255.64 48.0502C1254.1 47.2202 1252.19 47.7802 1251.34 49.3102C1251.01 49.9102 1243.79 62.4302 1225.77 62.4302C1207.75 62.4302 1200.49 49.8402 1200.19 49.3102C1199.34 47.7902 1197.42 47.2202 1195.9 48.0702C1194.37 48.9102 1193.8 50.8202 1194.64 52.3502C1195.01 53.0202 1203.82 68.7602 1225.78 68.7602H1225.77V68.7502Z" fill="black"/>
<path d="M1208.8 40.0799C1217.13 40.0799 1220.57 33.9399 1220.7 33.6699C1221.54 32.1399 1220.97 30.2099 1219.44 29.3799C1217.9 28.5499 1216.01 29.0999 1215.16 30.6099C1215.05 30.7999 1213.22 33.7499 1208.8 33.7499C1204.38 33.7499 1202.49 30.7399 1202.42 30.6099C1201.54 29.1099 1199.62 28.5799 1198.12 29.4299C1196.62 30.2799 1196.06 32.1499 1196.88 33.6699C1197.03 33.9299 1200.46 40.0799 1208.8 40.0799Z" fill="black"/>
<path d="M1242.65 40.0799C1250.98 40.0799 1254.42 33.9399 1254.55 33.6699C1255.39 32.1399 1254.82 30.2099 1253.29 29.3799C1251.76 28.5499 1249.86 29.0999 1249.01 30.6099C1248.9 30.7999 1247.07 33.7499 1242.65 33.7499C1238.23 33.7499 1236.34 30.7399 1236.27 30.6099C1235.39 29.1099 1233.46 28.5799 1231.97 29.4299C1230.47 30.2799 1229.91 32.1499 1230.73 33.6699C1230.88 33.9299 1234.31 40.0799 1242.65 40.0799Z" fill="black"/>
<path d="M1326.38 115.86H1125.14L1024.52 290.14L1125.14 464.42H1326.38L1427 290.14L1326.38 115.86Z" stroke="#1D1D1B" stroke-width="7.8" stroke-miterlimit="10"/>
<path d="M1141.08 436.8L1056.41 290.14L1141.08 143.47H1310.44L1395.11 290.14L1310.44 436.8H1141.08Z" stroke="#1D1D1B" stroke-width="7.8" stroke-miterlimit="10"/>
<path d="M1145.99 428.3L1066.22 290.14L1145.99 151.97H1305.53L1385.3 290.14L1305.53 428.3H1145.99Z" stroke="#1D1D1B" stroke-width="7.8" stroke-miterlimit="10"/>
<path d="M622.9 282.4C625.45 283.94 628.05 285.44 630.72 286.8C622.56 288.03 614.48 290.04 606.71 292.77L596.79 290.81C591.73 289.81 586.54 289.31 581.34 289.29C594.18 283.88 608.24 281.47 622.13 282.41C622.39 282.43 622.65 282.43 622.9 282.4Z" fill="#B83523"/>
<path d="M571.57 257.05C568.14 256.47 565.02 255.34 562.55 253.76C562.44 253.69 562.1 253.47 562.2 252.95C562.3 252.46 562.66 252.4 562.8 252.37L573.57 250.46C575.77 250.08 577.57 248.62 578.4 246.56C579.25 244.47 578.95 242.13 577.61 240.32C576.1 238.25 574.34 236.39 572.39 234.77H572.95C589.52 234.77 606.58 241.55 622.76 249.12L626.59 250.92C646.28 260.18 666.63 269.75 688.71 268.6C695.38 268.25 701.9 266.91 708.2 265.61C712.97 264.62 717.9 263.6 722.73 263.07C733.32 261.91 741.77 262.25 748.03 267.41C745.81 271.68 744.76 276.87 743.96 280.87C743.84 281.51 743.71 282.13 743.58 282.74C735.17 276.18 724.85 275.4 714.78 275.69C704.85 275.97 695.24 278.4 685.94 280.76C683.71 281.32 681.48 281.89 679.24 282.42C672.22 284.1 664.39 285.64 656.64 285.6C655.3 285.52 653.96 285.46 652.61 285.43C650.39 285.24 648.18 284.91 646.01 284.39C637.37 282.31 629.68 277.49 621.55 272.38C612.57 266.75 603.29 260.92 592.44 258.94C588.66 258.24 584.88 258.06 581.23 257.89C577.86 257.73 574.69 257.57 571.57 257.05Z" fill="#B83523"/>
<path d="M816.92 272.41C818.11 278.12 819.45 284.6 818.24 290.37C817.94 291.8 817.47 293.25 816.98 294.79C816.24 297.07 815.48 299.43 815.16 302.03C814.91 304.03 814.95 305.97 814.99 307.84C815.04 310.78 815.09 313.32 814.09 315.28C811.63 320.08 803.52 320.05 798.91 319.61C786.04 318.4 773.5 315.18 761.65 310.06C757.36 308.2 753.11 305.99 751.03 302.41C748.53 298.08 749.46 292.03 750.71 286.69C751.03 285.32 751.31 283.9 751.61 282.4C753.76 271.67 755.52 267.3 760.13 267.3C760.68 267.3 761.26 267.36 761.89 267.48C763.43 267.77 764.94 268.07 766.43 268.38C776.46 270.43 786.8 272.54 798.28 267.65L798.37 267.74L800.83 266.48C801.42 266.18 802.02 265.86 802.62 265.54C806.14 263.68 809.48 261.92 812 262.87C814.82 263.94 816.07 268.29 816.92 272.41Z" fill="#B83523"/>
<path d="M801.83 327.58C801.23 334.36 800.48 341.18 799.58 347.89C797.23 365.59 790.37 384.32 777.99 406.82C775.04 412.19 770.91 418.51 765.02 420.25L635.28 418.79C632.14 415.58 629.4 410.21 628.13 404.66L627.47 401.75L624.48 401.64C613.45 401.2 602.41 397.53 593.08 391.33C600.69 391.06 608.59 388.13 614.99 382.92C625.63 374.26 631.51 361.36 636.2 349.95L637.42 346.95C641.6 336.68 645.92 326.05 653.13 318C664.51 305.3 683.68 299.05 703.17 301.68C716.49 303.49 730.08 309.12 743.56 318.44C747.95 321.48 752.46 322.38 755.94 320.92C756.98 320.49 758.53 319.56 759.72 317.69C771.98 322.85 784.91 326.12 798.17 327.38C799.44 327.5 800.65 327.56 801.83 327.58Z" fill="#6BA2A6"/>
<path d="M693.23 223.13C687.76 211.48 692 197.1 705.85 180.38C717.99 165.74 730.34 161.16 747.17 165.04C764.73 169.11 779.77 180.74 788.44 196.96C798.87 216.47 801.56 239.12 802.72 256.77C801.4 257.37 800.15 258.03 798.97 258.65C798.85 258.71 798.73 258.78 798.61 258.84L797.28 259.52C787.2 264.66 778.3 262.84 767.99 260.74C766.46 260.43 764.92 260.11 763.35 259.81C763.23 259.79 763.12 259.78 763.01 259.76C763.01 259.71 763.01 259.66 763 259.61C762.65 257.29 761.98 255.18 761.03 253.34C755.38 242.49 744.31 244.02 736.22 245.14C734.77 245.34 733.41 245.53 732.08 245.66C716.45 247.22 700.1 237.74 693.23 223.13ZM717.36 179.38C711.78 178.95 706.33 182.48 704.44 187.76C703.71 189.79 704.77 192.02 706.79 192.75C708.82 193.47 711.05 192.42 711.78 190.39C712.48 188.45 714.72 187 716.76 187.15C718.82 187.31 720.8 189.08 721.19 191.11C721.55 192.98 723.18 194.28 725.02 194.28C725.26 194.28 725.51 194.25 725.75 194.2C727.87 193.8 729.26 191.76 728.85 189.64C727.79 184.12 722.96 179.8 717.36 179.38ZM759.74 194.2C761.86 193.8 763.24 191.76 762.84 189.64C761.78 184.12 756.95 179.8 751.35 179.38C745.77 178.95 740.32 182.48 738.43 187.76C737.7 189.79 738.76 192.02 740.78 192.75C742.81 193.47 745.04 192.42 745.77 190.39C746.47 188.45 748.71 186.99 750.75 187.15C752.81 187.31 754.79 189.08 755.18 191.11C755.54 192.98 757.17 194.28 759.01 194.28C759.25 194.28 759.49 194.25 759.74 194.2ZM755.69 236.78C760.53 233.93 762.97 227.93 761.48 222.51C760.91 220.43 758.77 219.21 756.69 219.77C754.61 220.34 753.39 222.49 753.96 224.56C754.5 226.55 753.5 229.02 751.73 230.07C749.95 231.11 747.3 230.8 745.82 229.36C744.27 227.86 741.8 227.9 740.31 229.45C738.81 231 738.85 233.47 740.4 234.97C742.8 237.29 746.05 238.5 749.3 238.5C751.52 238.5 753.74 237.94 755.69 236.78Z" fill="#6BA2A6"/>
<path d="M824.56 270.82C825.9 277.28 827.42 284.6 825.88 291.97C825.49 293.81 824.94 295.53 824.4 297.19C823.75 299.21 823.13 301.12 822.9 302.98C822.72 304.43 822.75 306.02 822.78 307.7C822.85 311.18 822.93 315.13 821.03 318.83C818.91 322.97 815.07 325.67 809.73 326.88C809.1 334.22 808.29 341.64 807.32 348.92C804.83 367.61 797.69 387.21 784.83 410.58C781.03 417.47 775.51 425.67 766.47 427.94L765.98 428.06H765.48L632.26 426.56L631.18 425.64C626.91 421.98 623.32 415.99 621.28 409.25C606.19 407.98 591.33 401.43 580.12 391.02C578.34 389.36 577.98 386.77 579.21 384.7C580.44 382.64 582.88 381.73 585.16 382.5C592.78 385.06 602.79 382.8 610.07 376.87C619.28 369.37 624.66 357.51 628.98 346.99L630.2 344.01C634.63 333.12 639.21 321.86 647.32 312.79C660.4 298.2 682.2 290.98 704.21 293.95C718.76 295.92 733.49 302 748 312.03C749.58 313.12 750.9 313.61 751.81 313.76C748.85 311.89 746.14 309.52 744.29 306.32C741.66 301.8 741.33 296.72 741.88 291.79C735.37 284.45 726.42 283.16 715 283.48C705.93 283.74 697.15 285.97 687.86 288.32C685.59 288.89 683.33 289.46 681.06 290.01C675.35 291.37 669.13 292.64 662.75 293.16C662.04 293.58 661.21 293.8 660.34 293.71C658.95 293.57 657.56 293.47 656.16 293.39C655.01 293.37 653.86 293.32 652.71 293.25C629.17 292.55 604.31 299.36 584.85 312.1C584.15 312.53 583.38 312.75 582.63 312.75C581.69 312.75 580.77 312.41 580.03 311.77C578.72 310.63 578.3 308.83 578.95 307.24C580.45 303.49 582.73 300.07 585.58 297.23C579.29 296.85 572.92 297.27 566.77 298.5C564.54 298.93 562.41 297.78 561.55 295.7C560.7 293.63 561.41 291.31 563.28 290.06C577.36 280.95 593.68 275.63 610.28 274.61C604.05 270.92 597.84 267.85 591.04 266.61C587.76 266.01 584.41 265.85 580.85 265.68C577.41 265.51 573.85 265.34 570.28 264.74C565.82 263.99 561.69 262.47 558.35 260.33C555.35 258.41 553.86 254.92 554.55 251.43C555.25 247.96 557.95 245.31 561.44 244.69L569.91 243.19C567.52 240.54 564.5 238.41 561.22 237.09C559.2 236.3 557.99 234.3 558.21 232.12C558.43 229.96 560.01 228.25 562.16 227.87C583.75 224.16 605.63 232.49 626.06 242.05L629.91 243.86C648.73 252.71 668.18 261.86 688.31 260.81C694.39 260.49 700.33 259.27 706.62 257.97C711.57 256.95 716.68 255.89 721.87 255.32C724.52 255.03 727.19 254.8 729.84 254.74C738.21 254.52 746.35 255.87 753.07 261.46C753.73 261.02 754.44 260.64 755.21 260.33C754.97 259.05 754.61 257.9 754.11 256.94C751.15 251.26 745.79 251.69 737.29 252.87C735.83 253.07 734.33 253.28 732.86 253.43C731.85 253.53 730.83 253.59 729.81 253.62C711.94 254.05 693.96 243.01 686.17 226.44C679.4 212.03 684.13 194.38 699.85 175.41C713.94 158.4 729.08 152.86 748.93 157.44C768.68 162.02 785.59 175.08 795.32 193.29C806.17 213.56 809.14 236.58 810.4 254.8C811.83 254.8 813.29 255.02 814.76 255.58C821.96 258.31 823.72 266.76 824.56 270.82ZM818.24 290.37C819.45 284.6 818.11 278.12 816.92 272.41C816.07 268.29 814.82 263.94 812 262.87C809.48 261.92 806.14 263.68 802.62 265.54C802.02 265.86 801.42 266.18 800.83 266.48L798.37 267.74L798.28 267.65C786.8 272.54 776.46 270.43 766.43 268.38C764.94 268.07 763.43 267.77 761.89 267.48C761.26 267.36 760.68 267.3 760.13 267.3C755.52 267.3 753.76 271.67 751.61 282.4C751.31 283.9 751.03 285.32 750.71 286.69C749.46 292.03 748.53 298.08 751.03 302.41C753.11 305.99 757.36 308.2 761.65 310.06C773.5 315.18 786.04 318.4 798.91 319.61C803.52 320.05 811.63 320.08 814.09 315.28C815.09 313.32 815.04 310.78 814.99 307.84C814.95 305.97 814.91 304.03 815.16 302.03C815.48 299.43 816.24 297.07 816.98 294.79C817.47 293.25 817.94 291.8 818.24 290.37ZM799.58 347.89C800.48 341.18 801.23 334.36 801.83 327.58C800.65 327.56 799.44 327.5 798.17 327.38C784.91 326.12 771.98 322.85 759.72 317.69C758.53 319.56 756.98 320.49 755.94 320.92C752.46 322.38 747.95 321.48 743.56 318.44C730.08 309.12 716.49 303.49 703.17 301.68C683.68 299.05 664.51 305.3 653.13 318C645.92 326.05 641.6 336.68 637.42 346.95L636.2 349.95C631.51 361.36 625.63 374.26 614.99 382.92C608.59 388.13 600.69 391.06 593.08 391.33C602.41 397.53 613.45 401.2 624.48 401.64L627.47 401.75L628.13 404.66C629.4 410.21 632.14 415.58 635.28 418.79L765.02 420.25C770.91 418.51 775.04 412.19 777.99 406.82C790.37 384.32 797.23 365.59 799.58 347.89ZM798.97 258.65C800.15 258.03 801.4 257.37 802.72 256.77C801.56 239.12 798.87 216.47 788.44 196.96C779.77 180.74 764.73 169.11 747.17 165.04C730.34 161.16 717.99 165.74 705.85 180.38C692 197.1 687.76 211.48 693.23 223.13C700.1 237.74 716.45 247.22 732.08 245.66C733.41 245.53 734.77 245.34 736.22 245.14C744.31 244.02 755.38 242.49 761.03 253.34C761.98 255.18 762.65 257.29 763 259.61C763.01 259.66 763.01 259.71 763.01 259.76C763.12 259.78 763.23 259.79 763.35 259.81C764.92 260.11 766.46 260.43 767.99 260.74C778.3 262.84 787.2 264.66 797.28 259.52L798.61 258.84C798.73 258.78 798.85 258.71 798.97 258.65ZM743.96 280.87C744.76 276.87 745.81 271.68 748.03 267.41C741.77 262.25 733.32 261.91 722.73 263.07C717.9 263.6 712.97 264.62 708.2 265.61C701.9 266.91 695.38 268.25 688.71 268.6C666.63 269.75 646.28 260.18 626.59 250.92L622.76 249.12C606.58 241.55 589.52 234.77 572.95 234.77H572.39C574.34 236.39 576.1 238.25 577.61 240.32C578.95 242.13 579.25 244.47 578.4 246.56C577.57 248.62 575.77 250.08 573.57 250.46L562.8 252.37C562.66 252.4 562.3 252.46 562.2 252.95C562.1 253.47 562.44 253.69 562.55 253.76C565.02 255.34 568.14 256.47 571.57 257.05C574.69 257.57 577.86 257.73 581.23 257.89C584.88 258.06 588.66 258.24 592.44 258.94C603.29 260.92 612.57 266.75 621.55 272.38C629.68 277.49 637.37 282.31 646.01 284.39C648.18 284.91 650.39 285.24 652.61 285.43C653.96 285.46 655.3 285.52 656.64 285.6C664.39 285.64 672.22 284.1 679.24 282.42C681.48 281.89 683.71 281.32 685.94 280.76C695.24 278.4 704.85 275.97 714.78 275.69C724.85 275.4 735.17 276.18 743.58 282.74C743.71 282.13 743.84 281.51 743.96 280.87ZM630.72 286.8C628.05 285.44 625.45 283.94 622.9 282.4C622.65 282.43 622.39 282.43 622.13 282.41C608.24 281.47 594.18 283.88 581.34 289.29C586.54 289.31 591.73 289.81 596.79 290.81L606.71 292.77C614.48 290.04 622.56 288.03 630.72 286.8Z" fill="#1D1D1B"/>
<path d="M762.84 189.64C763.24 191.76 761.86 193.8 759.74 194.2C759.49 194.25 759.25 194.28 759.01 194.28C757.17 194.28 755.54 192.98 755.18 191.11C754.79 189.08 752.81 187.31 750.75 187.15C748.71 186.99 746.47 188.45 745.77 190.39C745.04 192.42 742.81 193.47 740.78 192.75C738.76 192.02 737.7 189.79 738.43 187.76C740.32 182.48 745.77 178.95 751.35 179.38C756.95 179.8 761.78 184.12 762.84 189.64Z" fill="#1D1D1B"/>
<path d="M761.48 222.51C762.97 227.93 760.53 233.93 755.69 236.78C753.74 237.94 751.52 238.5 749.3 238.5C746.05 238.5 742.8 237.29 740.4 234.97C738.85 233.47 738.81 231 740.31 229.45C741.8 227.9 744.27 227.86 745.82 229.36C747.3 230.8 749.95 231.11 751.73 230.07C753.5 229.02 754.5 226.55 753.96 224.56C753.39 222.49 754.61 220.34 756.69 219.77C758.77 219.21 760.91 220.43 761.48 222.51Z" fill="#1D1D1B"/>
<path d="M728.85 189.64C729.26 191.76 727.87 193.8 725.75 194.2C725.51 194.25 725.26 194.28 725.02 194.28C723.18 194.28 721.55 192.98 721.19 191.11C720.8 189.08 718.82 187.31 716.76 187.15C714.72 187 712.48 188.45 711.78 190.39C711.05 192.42 708.82 193.47 706.79 192.75C704.77 192.02 703.71 189.79 704.44 187.76C706.33 182.48 711.78 178.95 717.36 179.38C722.96 179.8 727.79 184.12 728.85 189.64Z" fill="#1D1D1B"/>
<path d="M190.73 347.02C187.02 348.31 176.94 353.33 174.69 356.55C173.42 358.37 176.35 358.13 176.04 360.34C175.73 362.55 179.25 364.93 180.77 366.56C182.57 368.48 185.43 369.02 188.05 368.85C195.63 368.38 202.53 362.4 204.07 354.96C205.75 346.85 196.93 344.86 190.74 347.02H190.73Z" fill="#B3D133"/>
<path d="M248.74 340.27C242.45 342.24 237.86 348.4 237.23 354.95C236.76 359.79 238.54 360.11 242.65 362.72C246.76 365.33 253.19 369.09 255.12 364.62C255.6 363.51 255.8 362.29 256.26 361.17C257.45 358.28 260.22 356.42 262.47 354.25C271.89 345.14 257.24 337.6 248.74 340.27Z" fill="#B3D133"/>
<path d="M250.7 333.33L251.01 335.98C241.08 337.01 231.39 340.41 222.95 345.74C222.93 343.83 222.92 341.7 222.91 339.6C222.91 337.13 222.89 334.75 222.87 332.67C224.35 332.78 225.85 332.91 227.37 333.03C231.96 333.42 236.71 333.81 241.46 333.85C244.07 333.88 247.25 333.77 250.7 333.33Z" fill="#A7F9F7"/>
<path d="M250.7 333.33C260.02 332.15 271.26 328.6 278.14 319.05C285.55 308.77 285.13 295.15 284.82 285.2C284.46 273.84 284.1 262.08 280.29 250.83C275.88 237.74 267.23 227.92 256.57 223.89C250.51 221.59 244.18 221.24 238.05 220.9C232.03 220.56 226.33 220.24 221.27 218.15C219.82 217.55 218.42 216.8 217.04 215.96L217.25 215.78C212.38 209.8 206.45 206.22 199.99 205.34C195.61 203.55 191 202.79 186.43 202.61C186.37 202.03 186.18 201.45 185.84 200.93L178.45 189.5L177.93 189.09C171.82 184.31 163.05 185.27 158.36 191.24L157.97 191.74L153.76 203.59C153.42 204.54 153.48 205.52 153.84 206.38C149.58 207.51 145.39 209.11 141.51 211.55C140.18 212.39 138.94 213.3 137.77 214.27C137.19 213.86 136.49 213.6 135.73 213.56L122.14 212.9L121.51 213.08C114.05 215.25 109.71 222.94 111.82 230.22L112 230.83L119.16 241.17C119.89 242.21 121.03 242.78 122.21 242.83C121.15 248 120.73 252.86 120.59 256.73C120.38 262.79 120.64 268.89 120.88 274.79C120.89 275.04 120.9 275.28 120.91 275.52C120.18 275.52 119.45 275.71 118.79 276.13L107.35 283.48L106.94 283.99C102.13 290.08 103.05 298.86 109 303.57L109.5 303.97L118.94 307.36C113.87 319.22 93.69 332.74 79.34 335.6C78.14 326.15 77.51 316.42 77.51 306.47C77.51 218.03 127.06 146.07 187.97 146.07C248.88 146.07 298.43 218.03 298.43 306.47C298.43 394.91 248.88 466.87 187.97 466.87C186.51 466.87 185.05 466.82 183.6 466.74C208.2 459.66 216.63 438.87 219.89 430.79C220.18 430.07 220.43 429.45 220.66 428.91C225.01 418.79 225.17 407.89 224.83 399.53C224.62 394.54 223.8 389.5 223.01 384.63C222.28 380.14 221.59 375.89 221.49 372.27V369.6C226.67 364.2 236.41 364.38 244.08 366.46L245.07 366.73C248.98 367.81 253.85 369.15 258.53 367.22L262.01 365.79L260.25 361.03C263.93 359.45 266.74 356.25 267.79 352.33L272.83 354.47C275.48 348.23 271.75 341.38 266.6 338.37C262.99 336.26 258.96 335.72 255.46 335.72C255.33 335.72 255.19 335.7 255.05 335.7V335.73C253.72 335.75 252.47 335.84 251.37 335.94C251.25 335.95 251.13 335.96 251.01 335.98L250.7 333.33Z" fill="#A7F9F7"/>
<path d="M182.45 341.2C183.71 341.79 184.99 342.29 186.29 342.73C183.34 343.29 180.41 344.05 177.56 345.01C179.1 343.65 180.73 342.37 182.45 341.2Z" fill="#DEF98A"/>
<path d="M214.5 365.78C220.12 358.51 224.86 357.7 236.94 360.05C237.54 355.33 236.08 349.23 238.38 345.01C228.98 346.98 227.77 350.96 220.5 357.21L215.42 351.3C215.57 351.17 215.73 351.04 215.88 350.92L215.27 350.95L213.36 351.72C214.41 354.46 214.57 357.52 213.33 360.45L207.83 358.11C207.52 363.44 205.13 367.43 201.43 369.15L201.84 372.05L199.03 373.2C194.35 375.13 189.48 373.79 185.57 372.71L184.58 372.44C176.49 370.24 166.09 370.16 161.18 376.53C158.75 379.67 157.94 383.98 157.08 388.55C156.71 390.54 156.33 392.6 155.79 394.63C154.25 400.47 147.89 407.27 136.86 414.85C129.52 419.9 121.22 424.49 115.38 427.27C127.62 442.8 142.23 454.47 158.3 460.99C197.79 464.65 208.21 438.89 212.66 427.86C212.97 427.09 213.25 426.41 213.5 425.83C216.41 419.06 217.5 411.05 217.03 399.86C216.84 395.33 216.07 390.53 215.31 385.88C214.53 381.1 213.8 376.58 213.69 372.43V366.83L214.5 365.78Z" fill="#F5A685"/>
<path d="M213.36 351.72C212.17 348.63 209.83 345.95 207.1 344.35C204.55 342.86 201.79 342.15 199.16 341.87C198.96 341.77 182.13 345.1 181.92 345.01C185.26 342.77 189.67 323.59 209.56 328.71C212.19 328.47 212.38 332.2 215.05 332.26C215.08 334.45 215.09 337.07 215.1 339.63C215.12 344.14 215.14 348.4 215.26 350.95L213.35 351.72H213.36Z" fill="#F5A685"/>
<path d="M277.02 285.45C277.38 296.89 277.24 306.97 271.82 314.48C264.6 324.48 250.34 326.06 242.09 326.06H241.52C237.07 326.02 232.47 325.63 228.01 325.26C220.06 324.6 211.84 323.91 203.61 325.04C195.92 326.09 188.68 328.58 182.22 332.21C175.69 328.1 170.13 321.44 166.56 313.16C161.55 301.55 160.73 288.34 160.6 276.94C160.49 266.72 160.85 254.78 164.44 243.81C167.49 234.46 174.75 227.5 182.43 220.13L184.15 218.48C188.16 214.62 193 212.65 197.76 212.94L198 212.97C201.08 214.38 203.94 216.41 206.95 218.55C210.45 221.04 214.07 223.61 218.29 225.36C224.57 227.96 231.21 228.33 237.62 228.68C243.41 229.01 248.88 229.31 253.81 231.18C262.28 234.39 269.24 242.46 272.91 253.32C276.34 263.48 276.68 274.65 277.02 285.45ZM264.34 311.19C266.08 309.93 266.48 307.5 265.23 305.75C263.97 304 261.53 303.6 259.78 304.86C255.02 308.28 248.71 309.74 242.93 308.75C237.14 307.76 231.68 304.3 228.32 299.49C227.08 297.72 224.65 297.29 222.89 298.53C221.12 299.76 220.69 302.19 221.92 303.96C222.16 304.3 222.41 304.64 222.67 304.97C222.2 305.57 221.89 306.31 221.85 307.13L221.5 313.08L221.67 313.7C222.67 317.28 225.9 319.63 229.4 319.63C230.09 319.63 230.8 319.54 231.5 319.34L232.11 319.17L236.69 316.06C236.97 315.87 237.21 315.64 237.42 315.4C238.79 315.84 240.19 316.2 241.61 316.44C243.28 316.72 244.96 316.86 246.64 316.86C252.94 316.86 259.19 314.89 264.34 311.19ZM250.73 254.65C251.53 251.61 250.17 248.8 247.56 248.11C244.96 247.42 242.39 249.2 241.59 252.24C240.78 255.28 242.14 258.09 244.75 258.78C245.13 258.88 245.51 258.93 245.88 258.93C248.07 258.93 250.05 257.25 250.73 254.65ZM195.89 261.88C197.48 260.43 197.59 257.96 196.14 256.37C192.59 252.47 186.19 251.76 181.87 254.78C177.54 257.79 176.01 264.05 178.45 268.73C179.15 270.06 180.51 270.83 181.91 270.83C182.52 270.83 183.14 270.68 183.71 270.38C185.62 269.39 186.36 267.03 185.37 265.12C184.72 263.89 185.19 261.97 186.33 261.17C187.47 260.38 189.44 260.59 190.38 261.62C191.83 263.21 194.3 263.33 195.89 261.88Z" fill="#B3D133"/>
<path d="M172.65 194.9L177.78 202.83C174.9 203.06 172.1 203.39 169.49 203.71C166.94 204.03 164.29 204.36 161.61 204.78L164.86 195.63C166.84 193.56 170.13 193.25 172.65 194.9Z" fill="#FFABAB"/>
<path d="M123.14 220.76L131.28 221.15C128.15 225.41 125.91 230.15 124.32 234.91L119.19 227.51C118.66 224.7 120.33 221.84 123.14 220.76Z" fill="#FFABAB"/>
<path d="M121.19 283.86C121.31 289.24 121.22 294.48 120.61 299.67L113.42 297.09C111.36 295.1 111.06 291.82 112.72 289.3L121.19 283.86Z" fill="#FFABAB"/>
<path d="M178.6 349.65C169.29 351.64 168.21 356.99 161 363.19C160.27 363.82 159.36 364.13 158.46 364.13C157.37 364.13 156.27 363.67 155.5 362.78C154.1 361.14 154.28 358.68 155.92 357.28C157.52 355.9 159.2 354.61 160.94 353.4C164.5 346.95 169.38 341.34 175.22 336.82C168.62 331.86 163.07 324.77 159.4 316.25C153.84 303.38 152.94 289.2 152.8 277.03C152.68 266.17 153.09 253.44 157.02 241.38C160.68 230.19 168.99 222.21 177.03 214.5L178.73 212.87C179.67 211.97 180.64 211.15 181.64 210.4C177.84 210.55 174.04 211.01 170.44 211.46C162.21 212.47 152.87 213.61 145.67 218.15C139.59 221.98 129.26 232.12 128.39 257C128.19 262.76 128.44 268.71 128.67 274.47C129.09 284.65 129.53 295.16 127.63 305.54C125.59 316.63 114.34 326.06 107.81 330.7C98.88 337.04 88.65 341.72 80.46 343.32C85.32 373.27 95.99 400 110.63 420.88C122.97 415.29 146.02 401.11 148.25 392.64C148.71 390.88 149.05 389.05 149.42 387.11C150.41 381.84 151.43 376.38 155.01 371.76C160.59 364.52 165.22 365.09 177.24 367.39C177.18 367.1 178.29 350.29 178.6 349.65Z" fill="#F5A685"/>
<path d="M265.23 305.75C266.48 307.5 266.08 309.93 264.34 311.19C259.19 314.89 252.94 316.86 246.64 316.86C244.96 316.86 243.28 316.72 241.61 316.44C240.19 316.2 238.79 315.84 237.42 315.4C237.21 315.64 236.97 315.87 236.69 316.06L232.11 319.17L231.5 319.34C230.8 319.54 230.09 319.63 229.4 319.63C225.9 319.63 222.67 317.28 221.67 313.7L221.5 313.08L221.85 307.13C221.89 306.31 222.2 305.57 222.67 304.97C222.41 304.64 222.16 304.3 221.92 303.96C220.69 302.19 221.12 299.76 222.89 298.53C224.65 297.29 227.08 297.72 228.32 299.49C231.68 304.3 237.14 307.76 242.93 308.75C248.71 309.74 255.02 308.28 259.78 304.86C261.53 303.6 263.97 304 265.23 305.75ZM229.4 311.58L229.53 311.5L229.41 311.41V311.58H229.4Z" fill="#1D1D1B"/>
<path d="M247.56 248.11C250.17 248.8 251.53 251.61 250.73 254.65C250.05 257.25 248.07 258.93 245.88 258.93C245.51 258.93 245.13 258.88 244.75 258.78C242.14 258.09 240.78 255.28 241.59 252.24C242.39 249.2 244.96 247.42 247.56 248.11Z" fill="#1D1D1B"/>
<path d="M215.88 350.92L215.27 350.95C215.15 348.4 215.13 344.14 215.11 339.63C215.11 337.07 215.09 334.45 215.06 332.26C212.39 332.2 200.06 330.99 189.61 335.51C179.98 344.04 198.96 341.77 199.16 341.87C201.79 342.15 204.55 342.86 207.1 344.35C209.83 345.95 212.17 348.63 213.36 351.72C214.41 354.46 214.57 357.52 213.33 360.45L207.83 358.11C207.52 363.44 205.13 367.43 201.43 369.15L201.84 372.05L199.03 373.2C194.35 375.13 189.48 373.79 185.57 372.71L184.58 372.44C176.49 370.24 166.09 370.16 161.18 376.53C158.75 379.67 157.94 383.98 157.08 388.55C156.71 390.54 156.33 392.6 155.79 394.63C154.25 400.47 147.89 407.27 136.86 414.85C129.52 419.9 121.22 424.49 115.38 427.27C127.62 442.8 142.23 454.47 158.3 460.99C197.79 464.65 208.21 438.89 212.66 427.86C212.97 427.09 213.25 426.41 213.5 425.83C216.41 419.06 217.5 411.05 217.03 399.86C216.84 395.33 216.07 390.53 215.31 385.88C214.53 381.1 213.8 376.58 213.69 372.43V366.83L214.5 365.78C220.67 357.79 232.49 355.23 246.12 358.93L247.14 359.21C248.71 359.64 250.24 360.06 251.66 360.27L249.45 354.3H255.05C258.03 354.3 260.45 351.88 260.45 348.9C260.45 346.11 258.31 343.8 255.58 343.53C254.52 343.53 253.38 343.58 252.13 343.71C240.54 344.84 229.31 349.63 220.5 357.21L215.42 351.3C215.57 351.17 215.73 351.04 215.88 350.92ZM272.04 188.07C294.09 219.75 306.23 261.8 306.23 306.47C306.23 351.14 294.09 393.2 272.04 424.88C249.69 456.99 219.83 474.67 187.97 474.67C156.11 474.67 126.25 456.99 103.9 424.88C81.85 393.2 69.71 351.15 69.71 306.47C69.71 261.79 81.85 219.75 103.9 188.07C126.25 155.96 156.11 138.27 187.97 138.27C219.83 138.27 249.69 155.96 272.04 188.07ZM284.82 285.2C285.13 295.15 285.55 308.77 278.14 319.05C271.26 328.6 260.02 332.15 250.7 333.33C247.25 333.77 244.07 333.88 241.46 333.85C236.71 333.81 231.96 333.42 227.37 333.03C225.85 332.91 224.35 332.78 222.87 332.67C222.89 334.75 222.9 337.13 222.91 339.6C222.91 341.7 222.93 343.83 222.95 345.74C231.39 340.41 241.08 337.01 251.01 335.98C251.13 335.96 251.25 335.95 251.37 335.94C252.47 335.84 253.72 335.75 255.05 335.73V335.7C255.19 335.7 255.33 335.72 255.46 335.72C258.96 335.72 262.99 336.26 266.6 338.37C271.75 341.38 275.48 348.23 272.83 354.47L267.79 352.33C266.74 356.25 263.93 359.45 260.25 361.03L262.01 365.79L258.53 367.22C253.85 369.15 248.98 367.81 245.07 366.73L244.08 366.46C236.41 364.38 226.67 364.2 221.49 369.6V372.27C221.59 375.89 222.28 380.14 223.01 384.63C223.8 389.5 224.62 394.54 224.83 399.53C225.17 407.89 225.01 418.79 220.66 428.91C220.43 429.45 220.18 430.07 219.89 430.79C216.63 438.87 208.2 459.66 183.6 466.74C185.05 466.82 186.51 466.87 187.97 466.87C248.88 466.87 298.43 394.92 298.43 306.47C298.43 218.02 248.88 146.07 187.97 146.07C127.06 146.07 77.51 218.03 77.51 306.47C77.51 316.42 78.14 326.15 79.34 335.6C93.69 332.74 113.87 319.22 118.94 307.36L109.5 303.97L109 303.57C103.05 298.86 102.13 290.08 106.94 283.99L107.35 283.48L118.79 276.13C119.45 275.71 120.18 275.52 120.91 275.52C120.9 275.28 120.89 275.04 120.88 274.79C120.64 268.89 120.38 262.79 120.59 256.73C120.73 252.86 121.15 248 122.21 242.83C121.03 242.78 119.89 242.21 119.16 241.17L112 230.83L111.82 230.22C109.71 222.94 114.05 215.25 121.51 213.08L122.14 212.9L135.73 213.56C136.49 213.6 137.19 213.86 137.77 214.27C138.94 213.3 140.18 212.39 141.51 211.55C145.39 209.11 149.58 207.51 153.84 206.38C153.48 205.52 153.42 204.54 153.76 203.59L157.97 191.74L158.36 191.24C163.05 185.27 171.82 184.31 177.93 189.09L178.45 189.5L185.84 200.93C186.18 201.45 186.37 202.03 186.43 202.61C191 202.79 195.61 203.55 199.99 205.34C206.45 206.22 212.38 209.8 217.25 215.78L217.04 215.96C218.42 216.8 219.82 217.55 221.27 218.15C226.33 220.24 232.03 220.56 238.05 220.9C244.18 221.24 250.51 221.59 256.57 223.89C267.23 227.92 275.88 237.74 280.29 250.83C284.1 262.08 284.46 273.84 284.82 285.2ZM271.82 314.48C277.24 306.97 277.38 296.89 277.02 285.45C276.68 274.65 276.34 263.48 272.91 253.32C269.24 242.46 262.28 234.39 253.81 231.18C248.88 229.31 243.41 229.01 237.62 228.68C231.21 228.33 224.57 227.96 218.29 225.36C214.07 223.61 210.45 221.04 206.95 218.55C203.94 216.41 201.08 214.38 198 212.97L197.76 212.94C193 212.65 188.16 214.62 184.15 218.48L182.43 220.13C174.75 227.5 167.49 234.46 164.44 243.81C160.85 254.78 160.49 266.72 160.6 276.94C160.73 288.34 161.55 301.55 166.56 313.16C170.13 321.44 175.69 328.1 182.22 332.21C188.68 328.58 195.92 326.09 203.61 325.04C211.84 323.91 220.06 324.6 228.01 325.26C232.47 325.63 237.07 326.02 241.52 326.06H242.09C250.34 326.06 264.6 324.48 271.82 314.48ZM197.06 362.27C199.92 362.27 200.06 357.83 200.06 356.94C200.06 354.32 198.43 351.08 196.66 349.53C196.39 349.52 196.12 349.52 195.84 349.52C194.85 349.52 193.79 349.57 192.63 349.69C181.05 350.82 169.81 355.61 161 363.19C160.27 363.82 159.36 364.13 158.46 364.13C157.37 364.13 156.27 363.67 155.5 362.78C154.1 361.14 154.28 358.68 155.92 357.28C157.52 355.9 159.2 354.61 160.94 353.4C164.5 346.95 169.38 341.34 175.22 336.82C168.62 331.86 163.07 324.77 159.4 316.25C153.84 303.38 152.94 289.2 152.8 277.03C152.68 266.17 153.09 253.44 157.02 241.38C160.68 230.19 168.99 222.21 177.03 214.5L178.73 212.87C179.67 211.97 180.64 211.15 181.64 210.4C177.84 210.55 174.04 211.01 170.44 211.46C162.21 212.47 152.87 213.61 145.67 218.15C139.59 221.98 129.26 232.12 128.39 257C128.19 262.76 128.44 268.71 128.67 274.47C129.09 284.65 129.53 295.16 127.63 305.54C125.59 316.63 114.34 326.06 107.81 330.7C98.88 337.04 88.65 341.72 80.46 343.32C85.32 373.27 95.99 400 110.63 420.88C122.97 415.29 146.02 401.11 148.25 392.64C148.71 390.88 149.05 389.05 149.42 387.11C150.41 381.84 151.43 376.38 155.01 371.76C161.17 363.77 172.99 361.21 186.62 364.91L187.64 365.19C189.59 365.73 191.47 366.24 193.15 366.36L192.56 362.27H197.06ZM177.78 202.83L172.65 194.9C170.13 193.25 166.84 193.56 164.86 195.63L161.61 204.78C164.29 204.36 166.94 204.03 169.49 203.71C172.1 203.39 174.9 203.06 177.78 202.83ZM131.28 221.15L123.14 220.76C120.33 221.84 118.66 224.7 119.19 227.51L124.32 234.91C125.91 230.15 128.15 225.41 131.28 221.15ZM120.61 299.67C121.22 294.48 121.31 289.24 121.19 283.86L112.72 289.3C111.06 291.82 111.36 295.1 113.42 297.09L120.61 299.67Z" fill="#1D1D1B"/>
<path d="M196.14 256.37C197.59 257.96 197.48 260.43 195.89 261.88C194.3 263.33 191.83 263.21 190.38 261.62C189.44 260.59 187.47 260.38 186.33 261.17C185.19 261.97 184.72 263.89 185.37 265.12C186.36 267.03 185.62 269.39 183.71 270.38C183.14 270.68 182.52 270.83 181.91 270.83C180.51 270.83 179.15 270.06 178.45 268.73C176.01 264.05 177.54 257.79 181.87 254.78C186.19 251.76 192.59 252.47 196.14 256.37Z" fill="#1D1D1B"/>
<path d="M256.54 253.85C256.25 253.85 255.96 253.82 255.67 253.77C254.26 253.5 252.92 252.56 251.98 251.18C250.23 248.59 250.58 245.49 252.8 243.97L252.86 243.93C255.09 242.47 258.08 243.31 259.82 245.88C261.57 248.48 261.22 251.58 259 253.09C258.27 253.59 257.42 253.85 256.53 253.85H256.54Z" fill="#1D1E1B"/>
<mask id="mask0_6057_846" style="mask-type:luminance" maskUnits="userSpaceOnUse" x="1066" y="151" width="320" height="278">
<path d="M1145.99 428.3L1066.22 290.14L1145.99 151.97H1305.53L1385.3 290.14L1305.53 428.3H1145.99Z" fill="white"/>
</mask>
<g mask="url(#mask0_6057_846)">
<path d="M1285.01 173.86C1298.04 162.05 1317.08 157.25 1334.15 161.47C1335.25 161.74 1336.46 162.14 1336.96 163.15C1337.65 164.54 1336.6 166.14 1335.61 167.34C1326.34 178.53 1317.06 189.73 1307.79 200.92" fill="#DE9F35"/>
<path d="M1285.01 173.86C1298.04 162.05 1317.08 157.25 1334.15 161.47C1335.25 161.74 1336.46 162.14 1336.96 163.15C1337.65 164.54 1336.6 166.14 1335.61 167.34C1326.34 178.53 1317.06 189.73 1307.79 200.92" stroke="#1D1E1B" stroke-width="7.8" stroke-miterlimit="10"/>
<path d="M1305.1 357.33L1312.18 346.45L1314.09 349.38L1324.56 365.47V392.97H1299.8V365.47L1305.1 357.33Z" fill="#B58268"/>
<path d="M1202.68 365.47V392.97H1177.92V365.47L1190.3 346.45L1197.48 357.48V357.49V357.51L1197.49 357.5L1202.68 365.47Z" fill="#B58268"/>
<path d="M1283.41 422.74H1219.21V506.94H1283.41V422.74Z" fill="#B58268"/>
<path d="M1375.22 352.74L1367.43 524.18L1358.41 553.94H1144.19L1135.17 524.18L1127.38 352.74H1176.88L1170.11 363.15V400.77H1210.47V363.15L1203.7 352.74H1298.77L1292 363.15V400.77H1332.36V363.15L1325.59 352.74H1375.22ZM1291.21 514.75V414.95H1211.41V514.75H1291.21Z" fill="#B58268"/>
<path d="M1303.31 344.94H1321.06C1321.12 345.59 1321.18 346.25 1321.24 346.91L1314.09 349.38L1312.18 346.45L1305.1 357.33L1303.62 347.08C1303.52 346.36 1303.41 345.65 1303.31 344.94Z" fill="black"/>
<path d="M1291.21 414.95V514.75H1211.41V414.95H1291.21ZM1283.41 506.94V422.74H1219.21V506.94H1283.41Z" fill="black"/>
<path d="M1254.05 267.75C1253.21 267.7 1252.35 267.68 1251.4 267.71H1251.18C1250.23 267.68 1249.37 267.7 1248.54 267.75C1233.43 268.71 1222.6 276.06 1214.45 290.87C1207.73 303.06 1203.04 319.8 1199.3 344.94H1181.55C1185.05 307.9 1195.57 281.08 1212.8 265.2C1222.79 255.99 1234.99 250.72 1248.08 249.95H1248.31C1249.24 249.95 1250.22 249.98 1251.31 250.06C1252.4 249.98 1253.38 249.95 1254.31 249.95H1254.54C1267.64 250.73 1279.85 256.01 1289.85 265.24C1307.06 281.12 1317.56 307.93 1321.06 344.94H1303.31C1299.56 319.77 1294.85 303.02 1288.12 290.82C1279.97 276.04 1269.14 268.71 1254.05 267.75Z" fill="black"/>
<path d="M1197.48 357.49L1197.49 357.5L1197.48 357.51V357.49Z" fill="black"/>
<path d="M1188.54 349.13L1190.29 346.44H1190.3L1177.92 365.47V392.97H1202.68V365.47L1197.49 357.5V357.48L1198.96 347.25C1199.07 346.47 1199.18 345.7 1199.3 344.94H1303.31C1303.41 345.65 1303.52 346.36 1303.62 347.08L1305.1 357.33L1299.8 365.47V392.97H1324.56V365.47L1314.09 349.38L1321.24 346.91C1321.18 346.25 1321.12 345.59 1321.06 344.94H1383.38L1375.17 525.5L1364.19 561.74H1364.2H1138.41L1127.43 525.5L1127.41 525.01L1119.22 344.93H1181.55C1181.49 345.5 1181.44 346.07 1181.39 346.65L1188.54 349.12V349.13ZM1367.43 524.18L1375.22 352.74H1325.59L1332.36 363.15V400.77H1292V363.15L1298.77 352.74H1203.7L1210.47 363.15V400.77H1170.11V363.15L1176.88 352.74H1127.38L1135.17 524.18L1144.19 553.94H1358.41L1367.43 524.18Z" fill="black"/>
<path d="M1181.55 344.94H1199.3C1199.18 345.7 1199.07 346.47 1198.96 347.25L1197.48 357.48L1190.3 346.45H1190.29L1188.54 349.13L1181.39 346.66C1181.44 346.08 1181.49 345.51 1181.55 344.94Z" fill="black"/>
<path d="M1177.73 260.79C1189.17 254.98 1199.7 247.37 1208.77 238.28L1208.46 232.79C1204.65 235.1 1199.5 233.53 1196.21 230.52C1192.92 227.51 1190.97 223.36 1188.73 219.51C1180.51 205.4 1167.25 194.3 1151.91 188.69C1136.57 183.08 1119.27 183.01 1103.89 188.49L1102.23 188.77C1101.06 184.22 1104.03 181.26 1107.1 179.04C1125.42 165.77 1151.77 169.69 1171 181.6C1191.59 194.36 1206.49 214.76 1225.64 229.38C1228.6 231.64 1232.76 228.93 1231.91 225.31C1227.48 206.37 1233.22 186.11 1239.4 166.74C1240.39 163.63 1241.64 160.21 1244.55 158.74C1247.42 157.29 1250.87 158.27 1253.88 159.39C1289.31 172.55 1317.63 203.31 1328.1 239.58C1329.07 242.93 1327.66 246.58 1324.64 248.33C1309.78 256.9 1284.59 244.78 1270.66 257.02C1265.66 261.42 1263.39 268.04 1260.08 273.81C1247.81 295.18 1222.03 303.99 1198.45 311.12L1197.8 297.57C1191.56 302.5 1183.8 305.47 1175.86 305.97C1174.23 300.77 1175.66 294.72 1179.45 290.79C1167.67 289.97 1156.82 281.34 1153.37 270.04C1161.79 267.85 1169.97 264.73 1177.73 260.79Z" fill="#DE9F35"/>
<path d="M1208.46 232.79L1208.77 238.28C1199.7 247.37 1189.17 254.98 1177.73 260.79C1166.5 230.97 1141.16 206.72 1110.69 197.19C1107.11 196.08 1104.08 193.54 1102.67 190.07C1102.49 189.62 1102.34 189.19 1102.23 188.77L1103.89 188.49C1119.27 183.01 1136.57 183.08 1151.91 188.69C1167.25 194.3 1180.51 205.4 1188.73 219.51C1190.97 223.36 1192.92 227.51 1196.21 230.52C1199.5 233.53 1204.65 235.1 1208.46 232.79Z" fill="#CE593D"/>
<path d="M1103.89 188.49C1119.27 183.01 1136.57 183.08 1151.91 188.69C1167.25 194.3 1180.51 205.4 1188.73 219.51C1190.97 223.36 1192.92 227.51 1196.21 230.52C1199.5 233.53 1204.65 235.1 1208.46 232.79L1208.77 238.28C1199.7 247.37 1189.17 254.98 1177.73 260.79M1177.73 260.79C1169.97 264.73 1161.79 267.85 1153.37 270.04C1156.82 281.34 1167.67 289.97 1179.45 290.79C1175.66 294.72 1174.23 300.77 1175.86 305.97C1183.8 305.47 1191.56 302.5 1197.8 297.57L1198.45 311.12C1222.03 303.99 1247.81 295.18 1260.08 273.81C1263.39 268.04 1265.66 261.42 1270.66 257.02C1284.59 244.78 1309.78 256.9 1324.64 248.33C1327.66 246.58 1329.07 242.93 1328.1 239.58C1317.63 203.31 1289.31 172.55 1253.88 159.39C1250.87 158.27 1247.42 157.29 1244.55 158.74C1241.64 160.21 1240.39 163.63 1239.4 166.74C1233.22 186.11 1227.48 206.37 1231.91 225.31C1232.76 228.93 1228.6 231.64 1225.64 229.38C1206.49 214.76 1191.59 194.36 1171 181.6C1151.77 169.69 1125.42 165.77 1107.1 179.04C1104.03 181.26 1101.06 184.22 1102.23 188.77C1102.34 189.19 1102.49 189.62 1102.67 190.07C1104.08 193.54 1107.11 196.08 1110.69 197.19C1141.16 206.72 1166.5 230.97 1177.73 260.79ZM1177.73 260.79C1178.05 261.64 1178.36 262.5 1178.66 263.36" stroke="#1D1E1B" stroke-width="7.8" stroke-miterlimit="10"/>
<path d="M1272.56 207.54C1266.84 206.84 1261.06 211.73 1260.81 217.49" stroke="#1D1E1B" stroke-width="7.8" stroke-miterlimit="10" stroke-linecap="round"/>
<path d="M1286.03 236.31C1289.57 243.56 1299.87 246.46 1306.68 242.12" stroke="#1D1E1B" stroke-width="7.8" stroke-miterlimit="10" stroke-linecap="round"/>
</g>
<path d="M181.37 347.65C177.99 349.45 175.47 352.8 174.69 356.55C173.91 360.3 174.86 364.38 177.24 367.39" stroke="#1D1D1B" stroke-width="7.8" stroke-miterlimit="10"/>
<path d="M240.04 342.11C236.59 344.14 235.65 346.52 235.33 350.51C235.01 354.5 236.74 358.6 239.82 361.15" stroke="#1D1D1B" stroke-width="7.8" stroke-miterlimit="10"/>
<path d="M171.57 208.41C145.78 226.83 139.97 262.66 146.98 291.76" stroke="#1D1D1B" stroke-width="7.8" stroke-miterlimit="10" stroke-linecap="round"/>
<path d="M156.71 324.61C160.14 331.24 165.54 336.84 172.06 340.49" stroke="#1D1D1B" stroke-width="7.8" stroke-miterlimit="10" stroke-linecap="round"/>
<path d="M200.66 331.23C199.59 336.17 196.24 340.57 191.76 342.92" stroke="#1D1D1B" stroke-width="7.8" stroke-miterlimit="10" stroke-linecap="round"/>
<path d="M178.7 234.41C177.19 230.16 177.29 225.36 178.97 221.17C183.97 221.32 189.32 220.68 194.8 223.23" stroke="#1D1D1B" stroke-width="7.8" stroke-miterlimit="10" stroke-linecap="round"/>
</g>
</g>
<defs>
<clipPath id="clip0_6057_846">
<rect width="1431.02" height="543.9" fill="white" transform="translate(0.48999)"/>
</clipPath>
<clipPath id="clip1_6057_846">
<rect width="1432" height="544" fill="white" transform="translate(0.48999)"/>
</clipPath>
</defs>
</svg>
