<svg width="281" height="283" viewBox="0 0 281 283" fill="none" xmlns="http://www.w3.org/2000/svg">
<mask id="mask0_248_950" style="mask-type:luminance" maskUnits="userSpaceOnUse" x="7" y="8" width="266" height="267">
<path d="M272.367 148.877C276.411 75.3526 220.478 12.4478 147.438 8.3747C74.3978 4.30164 11.9084 60.6028 7.86422 134.127C3.82003 207.651 59.7525 270.556 132.793 274.629C205.833 278.702 268.322 222.401 272.367 148.877Z" fill="white"/>
</mask>
<g mask="url(#mask0_248_950)">
<g filter="url(#filter0_d_248_950)">
<path d="M140.094 291.258C222.279 291.258 288.884 224.212 288.884 141.482C288.884 58.753 222.279 -8.29297 140.094 -8.29297C57.9087 -8.29297 -8.69623 58.753 -8.69623 141.482C-8.69623 224.212 57.9087 291.258 140.094 291.258Z" fill="white"/>
<path d="M140.094 291.258C222.279 291.258 288.884 224.212 288.884 141.482C288.884 58.753 222.279 -8.29297 140.094 -8.29297C57.9087 -8.29297 -8.69623 58.753 -8.69623 141.482C-8.69623 224.212 57.9087 291.258 140.094 291.258Z" fill="white"/>
<path d="M299.677 106.733C299.677 195.001 252.978 279.041 165.333 279.041C95.2007 279.041 38.3387 221.802 38.3387 151.205C38.3387 94.7277 83.8199 48.9453 139.926 48.9453C184.819 48.9453 221.229 85.5965 221.229 130.787C221.229 166.931 192.127 196.227 156.22 196.227C127.495 196.227 104.188 172.765 104.188 143.85C104.188 120.726 122.834 101.956 145.805 101.956C164.199 101.956 179.108 116.964 179.108 135.479C179.108 150.275 167.181 162.281 152.483 162.281C140.724 162.281 131.191 152.685 131.191 140.848C131.191 131.379 138.834 123.685 148.241 123.685C155.758 123.685 161.89 129.815 161.89 137.424C161.89 143.469 157.018 148.415 150.971 148.415C146.141 148.415 142.236 144.484 142.236 139.622C142.236 135.733 145.343 132.605 149.207 132.605" stroke="#FF0000" stroke-width="20" stroke-miterlimit="10"/>
</g>
</g>
<path d="M140.117 275C213.366 275 272.739 215.234 272.739 141.5C272.739 67.766 213.366 8 140.117 8C66.8684 8 7.49548 67.766 7.49548 141.5C7.49548 215.234 66.8684 275 140.117 275Z" stroke="black" stroke-width="15" stroke-miterlimit="10"/>
<defs>
<filter id="filter0_d_248_950" x="-12.6962" y="-8.29297" width="326.373" height="307.551" filterUnits="userSpaceOnUse" color-interpolation-filters="sRGB">
<feFlood flood-opacity="0" result="BackgroundImageFix"/>
<feColorMatrix in="SourceAlpha" type="matrix" values="0 0 0 0 0 0 0 0 0 0 0 0 0 0 0 0 0 0 127 0" result="hardAlpha"/>
<feOffset dy="4"/>
<feGaussianBlur stdDeviation="2"/>
<feComposite in2="hardAlpha" operator="out"/>
<feColorMatrix type="matrix" values="0 0 0 0 0 0 0 0 0 0 0 0 0 0 0 0 0 0 0.25 0"/>
<feBlend mode="normal" in2="BackgroundImageFix" result="effect1_dropShadow_248_950"/>
<feBlend mode="normal" in="SourceGraphic" in2="effect1_dropShadow_248_950" result="shape"/>
</filter>
</defs>
</svg>
