<svg width="515" height="563" viewBox="0 0 515 563" fill="none" xmlns="http://www.w3.org/2000/svg">
<path d="M58.76 520.54H462.02L462.02 117.28L58.76 117.28L58.76 520.54Z" fill="#50BABE"/>
<path d="M6.41 104.38H3V72.39C3 64.44 9.44 58 17.39 58H49.38V59.3C49.38 70.22 58.23 79.08 69.16 79.08H113.67C155.03 79.08 196.03 72.65 235.87 61.55C243.95 59.3 253.52 58 263.78 58C274.04 58 283.61 59.3 291.69 61.55C331.53 72.65 372.53 79.08 413.89 79.08H441.74C452.66 79.08 461.52 70.23 461.52 59.3V58H493.51C501.46 58 507.9 64.44 507.9 72.39V104.38C496.98 104.38 488.12 113.23 488.12 124.16V150.31C488.12 197.95 494.95 245.42 509.44 290.8C511.24 296.43 512.39 302.52 512.39 308.87C512.39 315.22 511.24 321.31 509.44 326.94C494.94 372.32 488.12 419.79 488.12 467.43V491.61C488.12 502.53 496.97 511.39 507.9 511.39V543.38C507.9 551.33 501.46 557.77 493.51 557.77H461.52V554.36C461.52 543.44 452.67 534.58 441.74 534.58H426.46C376.84 534.58 327.77 543.11 280.34 557.69C275.14 559.29 269.57 560.28 263.78 560.28C257.99 560.28 252.42 559.28 247.22 557.69C199.79 543.11 150.72 534.58 101.1 534.58H69.16C58.24 534.58 49.38 543.43 49.38 554.36V557.77H17.39C9.44 557.77 3 551.33 3 543.38V511.39H6.41C17.33 511.39 26.19 502.54 26.19 491.61V457.2C26.19 416.3 20 375.73 9.29 336.25C7.13 328.28 5.88 318.91 5.88 308.88C5.88 298.85 7.13 289.47 9.29 281.51C20 242.03 26.19 201.47 26.19 160.56V124.18C26.19 113.26 17.34 104.4 6.41 104.4V104.38ZM68.97 492.37H445.34V121.26H68.97V492.37Z" fill="#F19400" stroke="#010101" stroke-width="4.33" stroke-miterlimit="10"/>
<path d="M48.29 512.76H466.01L466.01 100.87L48.29 100.87L48.29 512.76Z" stroke="#010101" stroke-width="4.33" stroke-miterlimit="10"/>
<path d="M75.38 79.0099L257.15 11.9299L438.92 79.0099" stroke="#010101" stroke-width="4.33" stroke-miterlimit="10"/>
<path d="M253.73 23.0399C259.866 23.0399 264.84 18.0658 264.84 11.9299C264.84 5.79406 259.866 0.819946 253.73 0.819946C247.594 0.819946 242.62 5.79406 242.62 11.9299C242.62 18.0658 247.594 23.0399 253.73 23.0399Z" fill="#010101"/>
<path d="M254.03 326.47L256.29 327.31C266.2 329.79 270.55 321.09 271.26 315.65C271.2 315 271.16 314.4 271.16 313.85C271.16 308.19 274.34 290.47 279.65 283.75C279.65 283.75 276.47 275.25 274.7 271.71C272.93 268.16 276.12 261.44 274.7 255.78C273.28 250.11 265.84 252.58 264.43 250.46C263.02 248.34 263.01 240.9 256.29 234.17C251.2 229.08 243.87 226.01 237.1 224.67L237.24 223.89C233.77 216.09 230.44 212.21 221.47 208.32C212.51 204.43 203.52 211.5 204.33 209.38C205.14 207.26 201.39 200.88 190.77 200.17C180.15 199.46 176.34 208.32 173.07 208.32C169.8 208.32 161.38 200.52 150.4 203.36C139.42 206.2 138.36 217.18 138.36 217.18C138.36 217.18 134.72 215.57 122.43 221.43C107.56 228.51 111.69 236.3 111.69 236.3C111.69 236.3 112.43 244.07 102.39 247.28C85.75 252.59 85.95 278.79 90.21 289.07C92.9 295.58 99.85 296.25 104.59 295.89L104.86 298.48C99.57 298.94 92.39 303.05 93.04 309.76C93.75 317.04 95.13 322.12 111.79 322.77H111.81C112.45 326.8 115.77 330.34 120.66 332.27C128.34 335.3 133.25 333.51 136.05 331.42C137.28 330.5 139.03 331.14 139.47 332.62C140.82 337.12 145.71 343.33 162.45 343.25C163.95 343.24 165.39 343.15 166.74 342.98C174.04 342.09 178.93 339 178.94 335.21C183.33 338.44 189.45 340.69 195.22 339.27C197.58 338.69 199.44 338.04 200.91 337.36C211.01 332.72 203.08 326.87 214.51 335.19C223.84 341.98 236.02 334.65 237.17 327.78C238.66 328.05 240.37 328.06 242.13 328.08C241.16 331.11 240.26 333.56 239.65 335.19C235.76 345.55 237.17 353.16 239.65 359.19C242.07 365.08 248.23 364.19 252.88 363.48L253.17 365.4C255.29 364.35 257.08 366.55 259.16 365.91C261.28 365.27 260.68 360.47 261.92 360.47L260.98 359.96C263.14 358.22 262.44 354.12 261.34 350.33C260 345.72 250.98 339.7 251.85 332.97C252.09 331.18 252.93 329.03 254.04 326.47H254.03Z" fill="#F4BDC7"/>
<path d="M117.57 403.58C116.95 406.68 116.73 412.38 118.88 422.44C122.77 440.73 129.86 444.87 131.28 442.04C132.41 439.79 153.55 407.62 165.04 389.98C167.97 385.49 170.26 381.94 171.44 380.06C171.92 379.29 172.54 378.37 173.26 377.33C181.27 365.87 202.46 339.68 202.46 339.68L200.91 337.34C199.44 338.02 197.58 338.67 195.22 339.25C189.45 340.67 183.33 338.41 178.94 335.19C178.93 338.99 174.04 342.07 166.74 342.96L167.06 345.35C164.18 360.61 156.39 370.25 152.53 375.99C151.64 377.31 150.95 378.42 150.59 379.36C148.65 384.31 131.64 417.25 129.52 417.96C127.93 418.49 122.83 408.43 120.31 403.24C119.71 402 117.87 402.22 117.59 403.58H117.57Z" fill="#F4BDC7"/>
<path d="M139.45 332.61C137.28 342.53 138.7 354.8 141.19 360.89C143.67 366.97 150.57 375.47 150.57 375.47L152.51 376C156.37 370.26 164.15 360.62 167.04 345.36L166.72 342.97C165.37 343.14 163.93 343.23 162.43 343.24C145.69 343.33 140.8 337.12 139.45 332.61Z" fill="#F4BDC7"/>
<path d="M165.03 389.99L166.34 391.28C166.34 391.28 187.06 411.6 189.18 417.62C191.3 423.65 185.81 432.85 183.34 436.75C180.86 440.64 183.34 442.87 183.34 442.87C183.34 442.87 206.8 440.15 215.92 426.47C219.47 421.16 199.99 417.97 191.13 403.8C182.28 389.64 173.28 377.35 173.28 377.35H173.27C172.55 378.38 171.93 379.3 171.45 380.07C170.27 381.95 167.98 385.5 165.05 389.99H165.03Z" fill="#F4BDC7"/>
<path d="M397.17 367.78L398.31 365.9C398.31 365.9 412.83 347.49 415.31 328.36C417.05 314.95 415.4 280.19 377.77 272.41C360.46 268.83 348.97 276.87 344.48 280.9C343.47 281.8 341.9 281.46 341.33 280.24C339.29 275.93 333.71 268.02 319.67 266.74C300.22 264.97 284.99 277.01 279.67 283.75C274.36 290.47 271.18 308.19 271.18 313.85C271.18 314.4 271.21 315 271.28 315.65C271.89 321.7 275.04 331.57 274.72 335.1C274.37 338.99 272.6 346.43 269.05 352.8C265.51 359.18 264.1 361.66 262.33 360.6C262.18 360.51 262.05 360.47 261.93 360.47C260.7 360.47 261.3 365.26 259.17 365.91C257.09 366.54 255.3 364.34 253.18 365.4C252.92 365.52 252.67 365.69 252.41 365.91C249.93 368.03 256.31 377.52 261.97 373.49C267.63 369.45 270.83 366.14 270.83 366.14L280.16 355.15C281.08 354.08 282.79 354.26 283.44 355.51C286.86 362 295.5 375.07 305.18 384.31C315.31 394 327.63 401.67 331.11 403.79L332.12 403.81C330.32 406.99 328.65 410.2 327.5 412.65C324.67 418.67 317.94 433.18 315.46 432.48C312.98 431.78 297.05 428.59 298.11 432.83C299.17 437.09 315.11 449.48 319.68 449.84C324.25 450.2 330.68 440.28 332.8 434.6C334.05 431.29 339.56 420.67 344.75 411.67C348.42 405.3 351.94 399.74 353.7 398.13C357.95 394.23 360.79 394.23 364.17 396.84C367.47 395.33 371.85 392.63 375.31 389.62C382.07 383.77 389.19 373.47 389.19 373.47C398.41 380.43 409.53 385.05 414.27 386.08C422.41 387.85 428.08 386.79 427.6 382.53C427.12 378.28 428.44 381.11 427.6 378.64C426.76 376.17 423.83 378.99 426.67 376.11C429.5 373.23 425.91 371.79 422.41 371.2C418.16 370.49 418.52 378.64 412.15 375.46C408.76 373.77 402.57 371.25 397.2 367.77L397.17 367.78Z" fill="#E41D73"/>
<path d="M344.72 411.68C348.15 415.67 351.9 418.32 357.21 421.16C362.53 423.99 374.92 427.18 373.03 429.3C371.14 431.42 369.61 445.59 374.61 446.65C379.61 447.71 386.27 440.99 389.16 436.74C392.07 432.48 393.34 423.99 391.57 421.16C389.8 418.33 386.62 420.44 382.36 418.67C378.11 416.9 365.36 406.98 353.68 398.14C351.92 399.75 348.39 405.31 344.73 411.68H344.72Z" fill="#E41D73"/>
<path d="M398.3 365.9C398.3 365.9 412.82 347.49 415.3 328.36C417.04 314.95 415.39 280.19 377.76 272.41C360.45 268.83 348.96 276.87 344.47 280.9C343.46 281.8 341.89 281.46 341.32 280.24C339.28 275.93 333.7 268.02 319.66 266.74C300.21 264.97 284.98 277.01 279.66 283.75C274.35 290.47 271.17 308.19 271.17 313.85C271.17 314.4 271.2 315 271.27 315.65C271.88 321.7 275.03 331.57 274.71 335.1C274.36 338.99 272.59 346.43 269.04 352.8C265.5 359.18 264.09 361.66 262.32 360.6C262.17 360.51 262.04 360.47 261.92 360.47C260.69 360.47 261.29 365.26 259.16 365.91C257.08 366.54 255.29 364.34 253.17 365.4C252.91 365.52 252.66 365.69 252.4 365.91C249.92 368.03 256.3 377.52 261.96 373.49C267.62 369.45 270.82 366.14 270.82 366.14L280.15 355.15C281.07 354.08 282.78 354.26 283.43 355.51C286.85 362 295.49 375.07 305.17 384.31C315.3 394 327.62 401.67 331.1 403.79" stroke="#1D1D1B" stroke-width="5.36" stroke-miterlimit="10" stroke-linecap="round"/>
<path d="M387.32 345.36C386.97 350.68 386.54 352.73 387.32 356.34C388.32 360.93 392.42 364.73 397.16 367.78C402.53 371.25 408.72 373.77 412.11 375.47C418.48 378.65 418.13 370.51 422.37 371.21C425.87 371.8 429.46 373.24 426.63 376.12C423.79 379 426.73 376.17 427.56 378.65C428.39 381.13 427.08 378.3 427.56 382.54C428.04 386.8 422.37 387.86 414.23 386.09C409.49 385.06 398.37 380.44 389.15 373.48C382.51 368.47 376.85 362.24 375.27 355.27" stroke="#1D1D1B" stroke-width="5.36" stroke-miterlimit="10" stroke-linecap="round"/>
<path d="M389.16 373.48C389.16 373.48 382.04 383.77 375.28 389.63C371.82 392.63 367.44 395.33 364.14 396.85C362.38 397.66 360.91 398.14 360.05 398.14" stroke="#1D1D1B" stroke-width="5.36" stroke-miterlimit="10" stroke-linecap="round"/>
<path d="M364.14 396.85C360.76 394.23 357.92 394.23 353.67 398.14C351.91 399.75 348.38 405.31 344.72 411.68C339.53 420.68 334.03 431.29 332.77 434.61C330.65 440.28 324.22 450.2 319.65 449.85C315.08 449.5 299.14 437.1 298.08 432.84C297.02 428.59 312.95 431.78 315.43 432.49C317.91 433.2 324.64 418.68 327.47 412.66C328.62 410.22 330.29 407.01 332.09 403.82C334.73 399.17 337.62 394.57 339.51 392.46" stroke="#1D1D1B" stroke-width="5.36" stroke-miterlimit="10" stroke-linecap="round"/>
<path d="M353.68 398.14C365.37 406.99 378.12 416.9 382.36 418.67C386.62 420.44 389.8 418.33 391.57 421.16C393.34 423.99 392.06 432.48 389.16 436.74C386.26 440.99 379.61 447.71 374.61 446.65C369.61 445.59 371.14 431.42 373.03 429.3C374.92 427.18 362.53 423.99 357.21 421.16C351.9 418.32 348.15 415.67 344.72 411.68" stroke="#1D1D1B" stroke-width="5.36" stroke-miterlimit="10" stroke-linecap="round"/>
<path d="M357.57 312.78C356.51 309.95 356.15 307.57 351.55 306.81C346.95 306.05 344.72 309.8 344.72 309.8" stroke="#1D1D1B" stroke-width="5.36" stroke-miterlimit="10" stroke-linecap="round"/>
<path d="M318.26 309.75C318.26 308.89 318.61 304.77 314.01 304.53C309.41 304.28 307.63 309.75 307.63 309.75" stroke="#1D1D1B" stroke-width="5.36" stroke-miterlimit="10" stroke-linecap="round"/>
<path d="M336.68 319.86C333.8 329.07 323.58 325.53 321.81 321.29" stroke="#1D1D1B" stroke-width="5.36" stroke-miterlimit="10" stroke-linecap="round"/>
<path d="M242.12 250.45C249.56 255.77 260.19 274.89 261.25 294.72C262.03 309.26 257.07 319.43 254.03 326.46C252.93 329.02 252.08 331.17 251.84 332.96C250.97 339.69 259.99 345.71 261.33 350.32C262.42 354.11 263.12 358.21 260.97 359.95C260.51 360.33 259.91 360.59 259.16 360.72C254.9 361.43 252.75 359.88 249.21 355.27" stroke="#1D1D1B" stroke-width="5.36" stroke-miterlimit="10" stroke-linecap="round"/>
<path d="M253.18 363.43C253.08 363.44 252.98 363.46 252.87 363.47C248.22 364.18 242.06 365.07 239.64 359.18C237.16 353.15 235.75 345.54 239.64 335.18C240.25 333.55 241.15 331.11 242.12 328.07C247.31 311.8 254.31 278.65 228.31 264.26" stroke="#1D1D1B" stroke-width="5.36" stroke-miterlimit="10" stroke-linecap="round"/>
<path d="M224.06 239.82C218.4 233.8 222.64 223.53 230.79 223.89C232.77 223.98 234.91 224.23 237.1 224.66C243.88 226 251.2 229.07 256.29 234.16C263.01 240.88 263.01 248.32 264.43 250.45C265.85 252.58 273.29 250.1 274.7 255.77C276.12 261.43 272.93 268.15 274.7 271.7C276.47 275.24 279.65 283.74 279.65 283.74" stroke="#1D1D1B" stroke-width="5.36" stroke-miterlimit="10" stroke-linecap="round"/>
<path d="M271.26 315.65C270.55 321.09 266.2 329.78 256.29 327.31" stroke="#1D1D1B" stroke-width="5.36" stroke-miterlimit="10" stroke-linecap="round"/>
<path d="M242.12 328.07C240.35 328.05 238.65 328.04 237.16 327.77C233.91 327.2 231.73 325.45 232.22 319.86C232.93 311.72 237.14 309.75 237.14 309.75" stroke="#1D1D1B" stroke-width="5.36" stroke-miterlimit="10" stroke-linecap="round"/>
<path d="M237.13 325.65C237.27 326.34 237.27 327.05 237.15 327.77C236 334.64 223.82 341.97 214.49 335.18C203.06 326.86 210.99 332.7 200.89 337.35C199.42 338.03 197.56 338.68 195.2 339.26C189.43 340.68 183.31 338.42 178.92 335.2C175.94 333 173.77 330.35 173.05 328.08C168.27 312.95 175.53 307.14 175.53 307.14" stroke="#1D1D1B" stroke-width="5.36" stroke-miterlimit="10" stroke-linecap="round"/>
<path d="M178.93 335.18C178.92 338.99 174.03 342.07 166.73 342.96C165.38 343.13 163.94 343.22 162.44 343.23C145.7 343.32 140.81 337.11 139.46 332.6C139.02 331.12 137.27 330.48 136.04 331.4C133.24 333.49 128.33 335.28 120.65 332.25C115.76 330.32 112.45 326.78 111.8 322.75C111.35 319.97 112.18 316.97 114.63 314.12" stroke="#1D1D1B" stroke-width="5.36" stroke-miterlimit="10" stroke-linecap="round"/>
<path d="M106.13 298.42C105.72 298.41 105.28 298.42 104.84 298.46C99.55 298.92 92.37 303.03 93.02 309.74C93.73 317.02 95.11 322.1 111.77 322.75" stroke="#1D1D1B" stroke-width="5.36" stroke-miterlimit="10" stroke-linecap="round"/>
<path d="M129.86 285.87C130.57 296.85 128.09 297.87 121.36 298.42C114.64 298.98 109.32 295.09 109.32 295.09C109.32 295.09 107.33 295.66 104.58 295.88C99.8399 296.24 92.8899 295.57 90.1999 289.06C85.9399 278.79 85.7399 252.58 102.38 247.27C112.42 244.06 111.68 236.29 111.68 236.29C111.68 236.29 107.55 228.49 122.42 221.42C134.72 215.57 138.35 217.17 138.35 217.17C138.35 217.17 139.41 206.19 150.39 203.35C161.37 200.52 169.87 208.31 173.06 208.31C176.25 208.31 180.15 199.45 190.76 200.16C201.39 200.87 205.14 207.25 204.32 209.37C203.5 211.49 212.49 204.42 221.46 208.31C230.43 212.2 233.76 216.08 237.23 223.88" stroke="#1D1D1B" stroke-width="5.36" stroke-miterlimit="10" stroke-linecap="round"/>
<path d="M195.02 244.79C193.49 235.58 183.33 239.29 183.33 243.02" stroke="#1D1D1B" stroke-width="5.36" stroke-miterlimit="10" stroke-linecap="round"/>
<path d="M156.42 241.91C153.59 236.86 144.73 238.18 144.73 241.91" stroke="#1D1D1B" stroke-width="5.36" stroke-miterlimit="10" stroke-linecap="round"/>
<path d="M178.93 257.19C168.73 269.23 158.55 260.74 158.55 260.74" stroke="#1D1D1B" stroke-width="5.36" stroke-miterlimit="10" stroke-linecap="round"/>
<path d="M202.45 339.69C202.45 339.69 181.26 365.88 173.25 377.34C172.53 378.38 171.91 379.3 171.43 380.07C170.25 381.95 167.96 385.5 165.03 389.99C153.55 407.63 132.4 439.8 131.27 442.05C129.85 444.88 122.77 440.74 118.87 422.45C116.73 412.39 116.94 406.69 117.56 403.59C117.84 402.23 119.68 402 120.28 403.25C122.8 408.44 127.9 418.5 129.49 417.97C131.61 417.26 148.62 384.32 150.56 379.37C150.92 378.44 151.61 377.32 152.5 376C156.36 370.26 164.14 360.62 167.03 345.36" stroke="#1D1D1B" stroke-width="5.36" stroke-miterlimit="10" stroke-linecap="round"/>
<path d="M139.45 332.61C137.28 342.53 138.7 354.8 141.19 360.89C143.67 366.97 150.57 375.47 150.57 375.47" stroke="#1D1D1B" stroke-width="5.36" stroke-miterlimit="10" stroke-linecap="round"/>
<path d="M166.34 391.27C166.34 391.27 187.06 411.59 189.18 417.61C191.3 423.64 185.81 432.84 183.34 436.74C180.86 440.63 183.34 442.86 183.34 442.86C183.34 442.86 206.8 440.14 215.92 426.46C219.47 421.15 199.99 417.96 191.13 403.79C182.28 389.63 173.28 377.34 173.28 377.34" stroke="#1D1D1B" stroke-width="5.36" stroke-miterlimit="10" stroke-linecap="round"/>
</svg>
