<svg width="122" height="121" viewBox="0 0 122 121" fill="none" xmlns="http://www.w3.org/2000/svg">
<path d="M61.1499 0C94.3699 0 121.39 27.02 121.39 60.25C121.39 93.48 94.3699 120.49 61.1499 120.49C27.9299 120.49 0.899902 93.47 0.899902 60.25C0.899902 27.03 27.9299 0 61.1499 0ZM112.95 60.25C112.95 31.68 89.7099 8.45 61.1499 8.45C32.5899 8.45 9.3499 31.68 9.3499 60.25C9.3499 88.82 32.5799 112.05 61.1499 112.05C89.7199 112.05 112.95 88.81 112.95 60.25Z" fill="black"/>
<path d="M61.1499 8.44995C89.7099 8.44995 112.95 31.68 112.95 60.25C112.95 88.8199 89.7099 112.05 61.1499 112.05C32.5899 112.05 9.34985 88.81 9.34985 60.25C9.34985 31.69 32.5799 8.44995 61.1499 8.44995Z" fill="#FFCB00"/>
<path d="M61.1599 91.73C90.4599 91.73 102.21 70.72 102.69 69.83C103.81 67.78 103.06 65.22 101 64.11C98.9499 63 96.3899 63.76 95.2699 65.79C94.8299 66.6 85.1999 83.29 61.1599 83.29C37.1199 83.29 27.4199 66.5 27.0299 65.78C25.8899 63.75 23.3399 62.99 21.2999 64.12C19.2599 65.24 18.4999 67.79 19.6099 69.83C20.0999 70.72 31.8499 91.73 61.1499 91.73H61.1599Z" fill="black"/>
<path d="M38.5199 53.48C49.6399 53.48 54.2199 45.28 54.3999 44.93C55.5199 42.88 54.7699 40.32 52.7099 39.21C50.6599 38.1 48.1299 38.84 46.9999 40.85C46.8499 41.11 44.4099 45.04 38.5099 45.04C32.6099 45.04 30.0899 41.02 29.9899 40.85C28.8199 38.85 26.2499 38.14 24.2499 39.27C22.2499 40.41 21.4999 42.91 22.5999 44.93C22.7999 45.28 27.3799 53.48 38.5099 53.48H38.5199Z" fill="black"/>
<path d="M83.6899 53.48C94.8099 53.48 99.3899 45.28 99.5699 44.93C100.69 42.88 99.9399 40.32 97.8799 39.21C95.8399 38.1 93.2999 38.84 92.1699 40.85C92.0199 41.11 89.5799 45.04 83.6799 45.04C77.7799 45.04 75.2599 41.02 75.1599 40.85C73.9899 38.85 71.4099 38.14 69.4199 39.27C67.4199 40.41 66.6699 42.91 67.7699 44.93C67.9699 45.28 72.5499 53.48 83.6799 53.48H83.6899Z" fill="black"/>
</svg>
